P2
# 8-bit pgm - grayscale
92 112
255
188 188 186 186 185 183 182 182 182 181 180 180 178 175 174 173 172 172 170 168 167 167 166 165
165 164 163 161 160 159 159 159 158 157 157 157 155 155 154 154 154 154 153 152 152 151 150 149
150 149 149 148 148 148 148 148 147 148 148 149 151 151 151 152 152 151 150 150 149 149 148 146
147 147 146 144 144 143 143 143 142 142 141 140 139 140 139 138 138 136 136 134
189 188 187 187 186 184 183 183 182 181 181 181 179 176 174 173 172 171 169 169 168 168 167 166
165 164 163 161 160 159 159 159 158 157 156 156 155 154 154 153 153 153 153 153 152 150 151 150
149 148 148 147 147 148 147 148 148 147 148 150 151 151 151 151 151 151 151 150 150 150 148 147
147 146 146 146 146 145 145 144 143 142 141 141 140 140 140 140 139 140 137 134
189 189 188 187 185 184 183 183 183 182 182 181 179 177 175 173 172 171 170 169 168 167 167 165
164 163 161 161 160 160 159 158 158 157 156 155 155 154 153 153 153 153 152 151 151 149 149 149
148 146 146 146 146 146 147 147 147 148 148 149 151 151 151 151 151 152 151 152 151 149 149 148
148 148 148 146 146 146 145 145 144 142 142 142 141 141 140 140 140 140 138 137
190 190 189 188 186 185 184 184 184 183 183 182 180 178 175 174 173 171 170 169 168 167 167 165
164 163 162 161 160 160 158 157 157 156 155 154 155 153 152 152 151 150 150 149 148 148 148 146
145 145 145 146 146 145 146 146 145 146 147 149 150 150 150 151 152 152 151 151 151 150 149 149
149 148 147 147 146 145 145 144 144 143 142 143 142 142 142 141 140 140 138 137
190 190 190 189 187 186 185 185 185 184 183 183 180 177 175 174 173 171 170 168 167 167 166 165
163 162 161 160 158 157 157 157 156 155 154 153 153 151 150 149 150 149 148 147 147 146 146 144
143 144 144 145 144 143 143 144 145 145 146 147 148 150 151 151 151 152 151 151 152 151 150 149
149 148 147 147 147 146 146 146 145 143 142 142 142 141 141 141 140 140 139 137
191 191 190 189 187 186 185 185 185 184 184 183 181 178 175 174 173 171 170 168 167 166 165 163
162 161 160 159 158 156 156 155 154 153 152 152 152 151 149 149 149 148 147 146 145 143 144 143
141 141 141 141 142 142 142 143 144 143 145 146 147 149 150 151 151 151 150 151 151 151 150 149
148 148 148 148 147 147 147 145 144 144 143 142 143 143 141 141 141 140 139 138
191 191 190 189 188 186 186 186 186 185 184 183 180 178 177 175 173 172 170 167 166 165 164 162
160 160 159 158 157 155 155 154 153 152 150 149 149 148 148 148 147 147 146 144 143 142 137 137
140 140 139 140 141 141 141 142 142 142 144 146 147 149 149 149 149 150 151 151 151 150 150 150
148 149 149 148 148 147 146 145 145 145 144 143 143 143 143 142 141 140 139 138
191 191 191 190 189 188 187 187 186 185 184 183 180 178 177 174 172 172 170 167 165 164 163 162
161 159 158 157 155 154 153 151 150 149 149 147 146 146 145 145 145 145 145 143 139 137 110 108
128 131 133 138 140 139 139 140 140 141 142 143 145 147 148 148 149 150 151 152 151 151 150 150
150 150 149 149 149 147 146 147 146 144 143 143 144 144 142 142 142 141 140 138
192 192 192 191 190 188 188 188 187 186 185 184 181 179 177 174 172 171 169 167 165 164 163 161
160 159 158 156 155 153 151 149 148 147 146 144 142 142 143 142 142 141 140 140 139 137 114  81
111 102 117 132 137 139 138 138 139 138 140 142 143 145 147 149 149 150 150 150 150 150 150 150
150 150 150 150 150 149 148 147 146 145 145 145 144 144 144 143 142 142 141 139
192 192 192 191 190 189 189 188 187 186 186 185 182 180 177 175 173 171 169 167 165 164 161 160
159 157 156 154 153 150 147 148 145 147 149 148 145 141 142 136 134 140 143 141 137 116 115  69
 93  66  89 106 115 130 134 135 137 138 139 140 142 144 144 146 149 149 149 150 151 150 151 151
149 150 150 150 150 148 147 147 147 146 146 145 144 144 144 142 142 143 142 141
194 193 193 192 191 190 188 188 188 187 186 185 184 181 177 175 173 171 169 167 163 162 160 160
158 156 156 151 145 143 144 136 114 115 121 118  95  74  73  71  73  91 105  99  96  96  74  44
 36  38  54  75  86  90  95 110 136 134 139 139 140 142 143 144 146 148 148 150 150 150 151 151
151 150 150 150 149 148 148 148 147 147 146 145 145 145 144 144 144 143 142 140
195 195 195 193 191 190 188 188 188 188 187 186 183 181 177 175 173 171 169 166 163 162 160 158
157 155 151 147 138 138 138 105  50   0   0   0   0   0   0   0   0   0   0   0   0   3  27  35
 29  27  32  53  60  59  62  66 123 109 118 133 138 140 142 144 145 147 148 149 150 151 151 151
150 149 150 150 148 147 148 147 147 146 146 146 146 145 144 144 144 143 143 142
195 196 196 194 192 190 189 189 189 189 187 187 184 182 178 176 173 171 167 164 162 161 158 156
156 143 114  93  98 100  78  40  28  34  27  26  24  23  23  22  22  24  25  25  23  19  16  24
 22  18  21  28  19  42  71  66  73  78  38 107 135 139 140 142 144 145 146 148 149 150 150 151
150 150 150 150 149 148 148 148 146 146 146 145 145 145 145 144 143 143 143 143
196 197 196 194 192 191 190 190 190 190 188 187 186 182 178 176 173 170 166 163 160 159 158 159
147 127 114  89  61  36   8  16  23  17  20  18  15  13  15  15  14  15  15  15  16  13  15  15
 18  15  15  19  24  26  34  48  27  73  21  68 126 139 139 140 142 145 146 147 148 149 149 149
149 149 150 150 149 148 147 147 147 146 145 145 144 143 142 142 143 143 143 141
197 197 196 195 193 192 191 191 191 191 190 188 186 183 178 175 172 169 165 161 159 156 142 135
102  48  47  59  50  44  42  16  23  18  17  18  16  14  14  15  14  14  15  14  13  14  13  17
 14  16  14  14  20  27  30  23  22  62  50  41 117 135 137 139 141 142 143 145 147 146 147 147
147 148 148 148 147 147 146 146 146 145 144 144 143 142 142 142 142 143 142 140
198 198 197 196 194 192 191 192 192 191 190 187 186 182 178 175 170 166 163 160 157 144  74  11
  8  15  27  22  18  18  16  20  19  18  16  17  17  16  13  14  14  13  14  15  13  13  11  14
 14  17  18  15  13  15  20  19  20  32  39  17 107 128 134 138 139 139 141 143 144 146 147 147
148 148 148 148 148 147 146 146 146 145 144 144 143 143 143 143 142 142 142 139
199 199 197 196 195 193 193 193 192 191 190 188 186 180 175 174 170 164 152 127  90  53  21  31
 37  39  26  21  20  16  15  16  18  17  17  16  16  19  14  12  13  13  14  14  15  12  12  13
 11  15  17  16  14  14  15  17  23  15  28   4 100 121 130 135 135 136 139 141 144 145 147 146
147 148 148 148 148 147 146 146 145 145 145 144 143 142 142 142 142 142 141 139
199 199 198 196 196 195 193 193 192 191 191 188 185 182 179 175 164 134  82   9   0  10  28  27
 26  26  19  18  19  18  15  14  15  15  16  18  15  15  16  12  13  16  13  14  16  14  13  12
  9  13  15  15  16  17  15  17  19  17  28   0  88 112 125 132 133 134 136 140 143 145 145 146
146 147 147 147 147 148 146 146 146 145 144 144 144 144 144 143 143 143 141 138
200 200 199 198 196 195 193 193 193 192 191 188 187 182 152 113  67  12   6  28  31  26  22  21
 19  18  16  16  18  19  18  16  15  14  16  16  17  14  14  13  12  13  13  12  16  15  13  14
 10  10  15  19  20  16  14  18  18  15  26   5  42  92 122 131 130 131 133 138 141 143 145 146
146 147 147 147 147 146 146 147 146 145 145 144 144 144 144 142 142 143 141 140
201 200 200 199 197 195 194 194 193 192 191 189 188 152 107  54  10  23  28  27  27  23  22  21
 19  18  18  19  19  17  16  17  15  13  15  13  13  16  15  12  10  11  12  11  12  13  13  15
 12   9  14  19  18  15  15  15  15  16  23  22   0  84 118 125 125 129 132 136 138 141 144 145
146 147 147 147 147 146 147 147 146 145 145 145 144 144 144 142 142 143 142 141
200 200 200 199 198 196 194 194 193 192 191 190 184 152 114  94  91  88  79  58  35  28  25  22
 22  20  17  17  22  22  18  16  16  13   9  14  13  16  15  13  11  10  11  11  10  10  13  14
 11   8  11  14  12  12  16  12  16  16  20  24   0  72 110 121 122 125 127 131 134 139 142 145
146 147 147 147 146 146 146 147 146 145 145 144 144 144 144 143 143 143 142 141
200 200 200 199 198 196 195 194 194 193 189 181 177 162 119 109 105  84  73  76  60  16  24  23
 24  22  21  18  17  19  20  18  17  16  12  10  11  11  12  13  13  13  13  12  12  12  12  12
 10   8  11  12  10  10  14  14  13  17  20  19  12  23  74 103 116 121 121 126 130 134 138 140
143 145 145 145 146 145 146 146 145 144 144 144 144 143 143 143 143 143 142 141
201 200 199 199 198 196 196 195 194 193 192 190 170 124  79  47  36  31  24  21  23  20  18  18
 19  19  20  19  16  14  15  16  16  15  14  15  13  12  14  17  18  17  19  22  22  22  20  15
 13  11  11  10   9   9  10  11  10  17  15  14  20  17  22  48  79 100 110 122 128 132 135 138
139 143 145 145 145 145 145 145 144 144 144 143 143 143 142 142 142 142 142 140
201 200 199 199 198 196 196 195 194 193 193 175 134  89  58  55  49  36  27  21  21  18  17  18
 19  19  17  18  18  17  16  16  15  14  14  17  19  21  21  22  24  31  38  41  46  43  42  37
 31  26  20  15  11   9  10   9  11  12  11  11  16  17  19  17  14  49  84  94 115 128 133 136
138 142 144 144 144 144 144 144 143 142 143 142 142 142 142 142 141 142 142 140
202 202 201 200 198 197 197 195 194 193 187 160 116  95  76  69  58  36  17  21  17  15  14  15
 15  16  16  16  16  18  20  20  19  20  22  26  29  31  40  45  47  54  60  59  61  63  56  54
 51  47  41  36  29  21  13  12  11  10   9   9  14  13  16  16  20  39  66  95 120 125 130 134
136 139 142 144 144 143 143 143 142 142 142 142 142 142 142 142 142 142 142 140
202 202 201 200 200 199 197 196 195 194 187 157 163 169 157 115  60  24  24  23  20  19  20  19
 14  15  16  17  17  19  23  30  36  46  57  61  64  66  67  68  72  76  75  71  68  65  62  59
 58  57  53  50  45  35  25  20  13  11   9  11  12  10  12  16  17  16  50 101 112 121 127 130
134 138 140 141 142 142 142 142 141 141 141 141 142 142 142 142 142 142 142 140
203 203 202 201 200 199 198 197 195 193 193 190 188 177 126  61  16  25  26  25  25  24  22  21
 21  20  18  16  20  30  45  58  65  70  76  79  81  85  88  87  84  81  77  72  73  71  69  67
 63  61  61  58  53  46  40  31  23  16  11  10  11  10  12  17  19  14  27  67 107 115 123 128
132 136 139 141 141 141 142 142 141 141 141 141 141 141 141 141 141 141 141 140
205 204 204 203 201 200 198 198 196 195 193 192 188 131  50   9  34  31  25  24  22  21  22  23
 22  20  19  29  39  52  66  74  80  81  83  85  87  88  90  90  87  82  77  73  74  76  74  73
 67  65  66  65  62  56  51  43  33  28  21  14  11  10  10  15  18  13   8  46  99 111 119 125
129 133 137 139 139 140 141 141 140 140 141 141 141 141 140 140 140 141 141 140
205 205 204 203 202 201 199 199 198 197 194 197 168  67  27  43  42  32  23  24  22  23  24  23
 24  24  33  47  62  75  84  88  88  88  91  92  91  90  90  90  88  85  84  84  82  80  79  77
 73  71  71  71  68  64  59  53  47  41  32  24  16  12  11  12  15  16  14  43  92 110 115 122
127 132 136 139 140 140 140 140 139 140 140 140 140 140 140 140 141 141 141 140
206 206 205 205 204 202 200 200 199 198 198 190 103  26   8  48  43  27  25  25  26  27  26  26
 27  35  50  67  79  87  90  93  96  96  96  96  94  95  94  93  92  89  86  86  86  84  81  79
 77  76  76  76  74  71  66  60  56  51  44  33  24  15  12  13  16  17  15  35  81 100 114 121
127 131 134 138 139 139 140 140 140 140 139 139 140 140 140 140 141 141 141 140
207 207 205 204 203 202 202 201 199 198 199 162  69  32  87  76  39  22  30  29  28  27  26  24
 34  46  66  80  89  95  97  96  98  99  98  98  96  96  97  97  96  93  90  90  89  86  81  79
 78  78  79  79  77  75  71  66  62  58  53  42  32  22  15  12  13  15  16  31  81 103 113 119
125 130 134 137 140 140 140 140 140 140 140 140 139 139 140 140 140 141 141 140
207 208 207 206 204 203 201 200 201 199 200 174 121  80 120  79  23  34  27  27  26  25  25  30
 45  61  79  89  96 101 102 102 102 101 103 103 102 101 102 101 100  97  93  90  85  84  83  80
 80  78  79  79  79  77  73  70  67  62  56  49  42  31  19  14  13  15  16  19  62 100 112 118
123 129 134 138 140 140 140 140 140 139 140 139 139 140 140 139 140 140 141 140
208 208 208 207 206 203 202 202 202 201 198 192 182 148  94  68  52  29  25  25  25  27  28  40
 61  78  88  93  97 102 103 104 106 108 109 107 105 104 102 101 101  98  94  93  91  89  86  84
 82  81  80  78  79  79  75  73  68  63  60  54  48  37  25  17  13  14  14  15  33  79 107 116
123 129 134 138 140 140 140 139 140 140 139 139 140 139 139 139 140 140 141 140
210 209 208 207 206 205 204 204 203 202 200 199 204 179 118  79  48  15  30  28  27  28  32  56
 72  84  92  95  97 100 103 107 111 111 108 106 103 103 102 103 104 103 101  97  93  91  90  88
 83  81  81  81  80  79  78  76  70  65  62  57  52  45  34  21  14  14  14  16  20  67 102 115
122 127 134 139 140 140 140 140 141 140 140 140 139 139 139 139 140 140 140 140
210 211 210 209 207 206 205 204 203 203 202 201 199 195 170  98  13  29  30  26  27  31  40  66
 79  87  93  95  96 100 105 107 107 107 108 106 105 105 105 105 105 104 102  98  96  93  91  88
 83  78  75  78  81  78  73  72  71  68  63  61  57  52  40  24  17  16  14  16   7  52  98 113
122 128 133 138 141 141 140 141 141 141 140 140 140 139 139 140 140 141 141 141
211 212 212 212 209 207 205 205 205 205 205 203 201 203 182 115  42  31  30  26  31  35  49  76
 87  90  91  96  99  99  98 101 104 106 108 106 105 105 104 104 105 105 103 102  98  94  91  86
 82  78  74  72  73  74  71  70  69  68  66  64  62  57  44  29  21  19  16  16  12  31  84 111
120 127 133 139 141 141 141 142 141 141 140 140 140 141 141 141 141 141 142 140
213 213 213 212 210 208 207 207 206 205 205 204 203 201 181 149  88  14  33  29  32  36  58  84
 93  93  93  94  96  96  97  98  99 101 100 107 108 105 104 104 104 105 104 101  97  94  93  91
 85  80  77  75  73  70  67  66  65  66  67  66  65  60  48  35  26  22  17  18  19   1  74 109
120 127 133 138 142 142 142 141 140 141 141 140 140 141 141 141 141 141 141 141
214 215 214 213 211 210 208 208 208 207 206 205 204 203 197 184 122  16  30  35  34  39  60  85
 98  98  97  93  92  94  96  97  98 100 101 106 104 101  98  99 102 105 105 103 103  98  93  90
 88  84  80  76  74  71  67  66  65  66  68  69  69  64  52  37  28  23  20  20  21  10  41  97
120 128 134 139 142 142 141 141 142 141 141 142 141 141 141 141 141 142 141 141
215 216 216 214 212 210 210 210 208 207 206 205 204 202 201 200 152  60   0  42  35  39  58  83
 97  99  96  91  90  91  91  92  93  94  96 102 104 104  98  96 101 104 104 105 103  99  95  93
 90  88  84  78  73  71  69  67  67  66  68  70  71  68  54  37  28  23  19  20  20  19  14  83
116 128 135 140 141 142 142 142 142 142 142 141 141 141 141 141 140 141 142 141
216 216 216 215 213 212 212 211 210 209 208 207 206 204 201 201 176 105   0  41  33  42  60  82
 99  98  96  94  93  91  89  91  93  95  97  99 103 104  97  91  92  98 101 104 103 100  96  96
 93  89  86  82  76  73  72  70  68  65  67  70  71  69  60  44  29  22  19  17  21  23   1  75
115 130 135 140 142 142 142 143 142 142 142 142 142 141 141 141 141 141 142 141
216 217 217 217 214 211 211 212 211 210 209 207 206 205 201 201 180 112   0  40  35  43  56  78
101 104 101  96  93  93  94  97  99 102 100  96  99 101  95  89  87  91  99 104 103 100  91  85
 94  94  90  86  80  77  79  76  71  68  66  68  72  70  64  54  40  22  17  19  24  22   0  75
114 130 137 141 142 143 144 143 144 142 142 143 142 142 142 142 141 142 142 142
217 217 217 217 215 212 211 211 212 210 210 208 207 206 202 204 168  89   0  42  33  41  56  78
100 106 102  98  96  99 104 107 105 107 104  96  95 102 105 102  98  95  98 107 108 105 103  93
 93  95  91  89  87  84  84  82  80  76  70  71  73  73  69  65  55  33  17  19  24  22  10  61
110 132 139 142 143 144 144 144 144 143 143 143 143 142 142 142 142 142 143 142
217 216 217 216 215 214 212 212 212 211 209 208 207 205 203 201 156  69   0  41  30  38  57  84
101 104 103 104 108 112 112 110 109 110 110 104 100 109 116 119 117 109 101 107 113 112 110 105
 99 101  98  93  91  91  88  84  84  81  76  75  74  73  71  71  65  44  17  19  20  21  12  45
108 133 140 143 144 144 145 145 144 144 143 144 143 143 143 143 142 143 143 142
217 217 217 216 215 214 212 212 212 212 211 209 208 206 206 198 142  47  16  41  33  38  60  92
107 108 107 110 116 117 117 120 124 127 127 121 118 123 129 135 138 128 108 104 123 128 124 121
109 113 120 109  88  85  94  90  88  83  80  78  76  74  72  72  69  52  14  17  22  20  17  75
116 135 142 144 145 145 145 146 145 144 144 144 143 144 144 143 143 143 143 142
217 217 217 216 215 214 212 212 213 213 212 210 208 207 207 198 140  39  20  42  34  42  81 104
107 108 111 114 115 117 122 124 117 121 126 133 127 131 142 146 146 138 118 102 126 144 136 135
129 111 117 120  97  67  67  76  77  83  83  81  78  74  70  70  71  60  20  14  24  26   0  84
123 136 141 145 145 145 146 145 145 144 143 143 143 144 144 143 143 144 143 142
217 218 218 217 216 215 213 213 213 212 212 211 209 207 207 204 154  65  12  42  33  51  96 108
105 107 111 114 119 119 105  90  95 108 130 148 143 144 149 146 140 137 128 118 128 149 137 136
144 131 105  90  76  46  30  35  43  57  69  72  73  74  74  72  71  62  29  11  26  26   0  69
121 138 144 146 146 146 147 146 145 145 145 145 145 144 144 144 143 143 144 144
218 219 219 218 217 216 214 214 214 213 212 212 211 209 208 207 170  93   0  43  31  56 103 108
102 107 115 116 104  78  52  71  99  99 103 124 148 152 154 150 138 132 135 128 118 139 134 141
150 126  79  36  28  26  24  20  20  22  29  29  35  47  63  71  73  65  36  13  27  17  25  88
126 141 146 147 147 146 147 148 146 145 145 146 146 146 145 145 145 145 145 144
219 220 219 218 217 216 216 215 214 214 214 213 212 211 209 208 176 100   0  45  28  60 108 101
102 102  87  65  40  24  31  37  37  33  30  72 125 145 149 140 127 132 146 138 106  91 105 123
128  97  50  19  24  27  30  32  26  22  16  15  19  22  43  65  75  68  40   9  27   9  49 104
130 142 147 148 147 147 148 148 147 146 145 146 146 145 145 145 145 145 145 144
221 221 221 220 219 217 217 217 216 215 215 214 213 212 210 210 184 118  29  40  33  59 110 108
 98  58  20  16  30  36  35  34  27  23  33  38  52 120 150 149 140 144 151 146 131 112 103 104
 75  49  35  35  32  18  13  21  24  27  29  43  46  38  43  63  76  72  51   7  28   0  67 115
134 144 149 149 148 148 148 148 147 147 146 147 147 146 146 146 146 145 145 145
222 222 222 221 220 218 218 217 216 216 215 215 214 212 211 208 203 163  80   0  40  62 114 110
 69  40  55  62  47  29  34  37  36  39  39  43  27  77 131 149 151 149 140 130 134 133 113  91
 70  66  70  80  89  89  81  71  69  67  69  73  63  57  62  69  76  77  60  11  27   0  85 125
136 144 150 150 149 149 149 149 149 149 147 148 148 147 147 145 145 146 147 145
223 222 221 221 221 221 219 217 217 217 217 216 215 213 212 208 213 188 112   0  46  70 117  94
 62  69  83  91  91  87  83  85  90  90  89  89  91  95 107 122 138 150 153 146 139 126 100  78
 88  85  81  83  87  94  99 101 103  98  91  90  87  78  82  88  84  78  66  23  24   0  92 127
138 145 149 150 150 150 149 151 150 149 149 147 147 147 147 147 146 146 147 145
223 223 223 223 223 222 220 218 218 218 218 217 216 215 213 209 210 205 162  52  23  82 116 103
101 107 115 115 113 114 112 103  89  76  80  91  96 105 115 112 116 133 149 155 135 108  81  73
 77  73  66  73  70  45  58  92  60  78  85  86  89  86  91  95  88  81  72  32  22   0  84 127
139 146 150 150 150 150 150 150 151 150 149 148 148 147 147 147 146 146 146 145
223 224 224 223 222 221 220 220 219 219 219 217 217 216 214 211 209 211 180  85   2  91 121 119
120 121 114 111 106  89  58  55  77   3  72  90  80  72 104 109 113 129 137 137 119 101  81  65
 69  54  38  62  72  50  27  46   0  13  42  70  80  81  88  94  91  85  76  41  25  28  87 128
142 149 151 151 151 150 151 151 151 150 149 149 149 148 147 147 146 146 146 145
225 225 224 223 223 222 221 221 220 219 219 218 218 216 215 213 211 213 188 101   1  99 125 126
128 116 103  82  55  39  37  34  49  55  76  78  67  76 107 108 108 121 125 120 114 104  84  61
 76  74  68  68  71  73  71  65  59  52  37  27  53  71  84  92  91  86  77  50  43  62  99 133
144 149 151 151 152 152 151 152 151 151 149 149 148 148 148 148 147 147 146 145
225 225 225 224 223 222 221 221 220 220 220 219 219 217 216 214 211 215 199 130   0 103 128 128
130 116  85  45  46  70  77  82  97  93  99 102 104 115 117 106 106 118 121 119 112 102  87  63
 69  87  85  82  93 106 110 107 104  92  88  70  65  74  84  91  92  87  79  53  50  60 104 136
144 149 152 153 152 152 151 151 151 151 150 150 149 148 147 147 147 147 147 145
225 224 226 225 224 223 223 222 221 220 220 219 219 217 216 214 212 215 204 152  52 103 129 129
128 116 102  96 101 113 124 128 132 126 117 111 111 112 109 102 105 116 120 118 114 107  91  73
 61  72  86  94 103 110 114 114 112 104  98  97  95  93  91  91  92  89  81  56  46  63 110 138
148 151 152 152 153 152 151 150 152 151 150 150 149 148 147 147 147 146 147 147
225 226 227 226 225 223 223 222 221 221 220 219 219 218 216 215 213 216 206 151  61 108 129 130
127 123 125 129 130 133 137 140 144 144 133 125 118 107 107 102 110 122 119 116 115 109  95  82
 69  66  78  96 112 121 123 119 117 113 108 106 101 101  97  93  93  91  81  59  43  80 124 140
149 152 153 153 153 153 152 152 152 152 151 150 149 148 147 147 147 147 147 146
226 227 227 227 226 224 223 221 221 221 222 221 220 219 218 217 215 217 210 165  68 110 130 129
126 129 133 136 140 145 148 151 152 150 142 132 120 118 112 108 115 122 122 123 120 111  94  89
 77  74  77  88 106 121 127 126 122 115 111 105 101 101 100  96  92  89  83  60  50  99 132 142
150 154 154 154 153 153 153 153 153 152 151 150 150 149 148 148 148 147 147 146
226 227 227 226 225 224 223 223 223 222 222 222 222 220 218 217 216 215 215 194 119 106 129 128
128 131 134 137 141 145 148 151 152 153 145 132 127 125 116 113 117 120 123 126 121 114  93  86
 86  80  84  90 101 115 123 127 124 118 112 107 106 102  99  98  94  87  83  71  68 106 135 145
152 155 154 154 154 154 154 154 153 152 151 151 150 149 149 149 148 148 148 146
227 227 226 226 225 225 225 224 224 224 223 222 222 221 220 218 216 215 217 209 164 106 127 127
126 131 135 138 142 146 149 151 152 149 141 134 136 127 119 117 116 118 125 126 123 113  96  85
 88  84  88  95  99 104 114 123 125 123 119 112 110 106 102  99  96  90  84  80  77 109 139 147
152 155 154 154 155 155 155 155 153 153 152 152 151 150 150 149 148 148 150 148
227 227 227 227 226 226 225 224 224 224 223 224 223 222 220 218 216 215 216 210 175 116 127 128
130 136 137 139 141 146 150 150 148 143 139 140 138 128 123 123 118 117 124 123 121 108  92  83
 89  90  90  94 102 107 107 110 117 120 119 115 113 110 105 101  96  90  83  73  74 116 142 149
154 156 155 155 155 155 155 155 154 153 153 152 151 150 150 150 149 149 149 149
227 228 228 227 227 227 225 225 225 223 223 223 222 222 221 218 216 215 217 212 178 118 128 131
134 140 142 142 145 149 151 148 142 138 144 145 141 131 129 125 119 119 122 121 122 110  87  76
 81  92  95 100 105 109 112 112 110 113 115 115 114 110 108 103  96  90  83  68  73 122 145 150
155 156 156 156 156 156 155 155 154 154 153 152 152 151 150 150 150 150 149 149
227 229 228 227 226 226 225 224 224 224 224 224 223 221 220 219 217 215 217 214 184 119 128 133
137 140 140 144 149 150 146 140 138 141 147 147 140 136 130 120 114 117 123 126 125 112  92  78
 71  87 100 106 109 111 112 112 112 113 114 115 113 108 105 103  98  91  83  73  77 127 146 151
155 156 155 155 156 155 156 155 155 154 154 153 151 151 151 151 150 150 150 149
228 228 228 227 226 225 225 224 223 224 224 223 222 222 221 219 217 215 216 214 192 125 128 134
137 138 140 142 143 142 141 141 141 145 149 148 146 143 127 114 113 116 125 132 128 116 107  91
 70  71  99 116 118 115 115 114 115 115 116 114 113 110 105 102  99  93  85  78  89 136 149 153
156 156 156 156 156 155 156 155 154 154 153 152 152 151 150 150 150 150 150 150
227 228 227 227 226 225 225 224 224 223 223 222 222 221 220 219 217 215 215 215 202 139 124 134
138 138 142 143 142 143 143 141 141 145 149 152 154 144 114 105 113 118 127 135 134 127 119 107
 89  61  82 117 129 123 118 120 118 115 115 115 113 110 106 101  98  92  83  80 109 145 150 155
157 157 157 157 156 155 155 156 154 154 153 153 153 152 151 150 150 151 151 150
227 227 227 226 226 226 225 224 223 223 222 223 223 221 220 218 216 216 215 215 209 163 124 135
139 141 142 143 145 147 145 141 142 145 151 154 161 136 104 100 114 126 137 142 147 141 125 110
 98  78  60 102 135 137 127 122 122 118 117 114 114 110 105 102  98  90  79  76 124 148 151 155
158 158 157 157 157 156 156 156 156 155 154 153 153 152 152 152 151 151 151 149
225 227 226 226 226 226 224 223 224 223 223 223 222 221 220 218 217 217 215 215 213 188 128 134
139 141 143 146 147 146 146 144 147 151 156 162 165 127 103 107 123 136 145 156 162 157 142 122
104  92  69  89 130 146 139 133 129 125 121 116 113 112 108 102  98  90  81 105 142 148 153 156
158 158 157 157 157 157 157 156 155 155 155 153 152 152 151 151 151 151 151 151
226 226 226 226 225 224 224 224 223 222 222 222 221 221 220 219 217 217 216 215 214 204 144 131
140 145 146 146 146 147 149 153 154 157 163 167 164 127 119 128 137 148 159 169 179 181 169 140
112 105  90  92 127 150 146 142 138 132 128 120 115 111 107 103  97  86  89 132 146 148 154 157
159 158 157 156 156 156 155 155 154 154 154 153 152 152 152 152 152 152 152 151
226 226 225 225 224 223 222 222 222 222 222 222 221 220 219 218 216 216 216 214 214 213 174 129
141 145 147 149 151 154 158 159 163 163 164 169 161 137 141 148 148 157 174 186 189 184 182 153
119 111 105 106 130 150 151 148 147 140 131 125 119 111 106 102  96  84  89 135 148 151 156 159
159 159 159 158 157 156 156 156 155 154 154 153 153 153 153 153 152 152 153 151
225 225 225 224 223 222 221 221 221 222 222 221 221 220 219 218 217 216 215 215 215 213 181 130
142 148 151 152 155 159 162 163 165 166 164 164 161 146 142 141 141 156 179 190 182 171 166 142
108 108 106 112 131 146 153 154 148 142 136 128 120 111 105 101  94  81  91 139 148 152 156 158
159 159 159 158 157 156 156 156 155 154 154 153 152 152 152 152 152 153 153 151
224 224 224 223 223 222 221 221 221 221 222 221 221 220 219 218 216 215 215 215 215 215 188 129
140 148 151 154 158 161 164 166 167 168 167 163 158 148 132 128 132 143 165 175 166 162 158 116
108 120 109 113 131 142 150 154 147 144 140 130 122 115 106 100  91  78  95 144 149 153 157 158
159 158 157 157 157 156 156 156 156 155 154 153 153 153 153 153 153 153 152 151
223 223 224 224 224 223 221 221 221 222 222 221 220 220 219 218 216 215 215 214 214 214 192 127
139 146 152 156 160 163 165 166 167 168 164 156 149 144 137 131 135 143 149 155 153 151 139 112
110 105 105 115 124 132 142 150 150 145 141 134 124 115 106 100  88  77 101 146 149 154 157 158
158 158 158 156 156 157 155 156 155 155 154 153 153 153 153 153 153 153 153 152
223 223 223 223 222 222 222 222 221 221 221 220 220 219 218 217 216 215 215 215 214 214 202 139
136 145 150 156 162 166 167 168 169 164 155 151 145 141 135 122 125 142 146 139 134 124 117 123
104  98 107 113 118 125 130 137 140 140 140 135 125 116 106  99  84  75 110 150 150 155 157 157
157 157 156 156 157 155 154 155 154 154 153 153 153 153 153 153 153 153 153 152
223 223 223 223 223 222 220 220 220 220 220 220 220 219 218 217 215 215 215 215 214 213 209 146
133 145 151 155 161 165 167 166 162 156 152 147 138 136 125 115 123 137 145 149 141 133 131 121
108 105 111 112 112 115 122 130 134 132 135 132 126 117 105  95  81  79 118 149 151 155 157 157
156 156 156 156 156 156 154 154 154 154 153 153 152 152 152 152 153 153 152 150
223 223 223 223 222 221 219 219 219 219 219 219 219 218 218 217 215 214 214 213 213 211 211 155
128 144 151 155 161 165 165 163 158 152 146 139 130 126 119 118 127 132 133 143 146 131 146 131
112 112 107 100  97  98 107 119 127 126 130 129 124 116 105  95  80  86 129 150 153 155 157 158
157 155 155 155 155 155 154 154 154 153 152 152 152 152 151 151 152 153 152 151
223 224 224 223 221 220 219 219 219 219 219 219 219 219 218 217 215 214 214 213 213 211 213 175
123 139 148 153 160 165 163 157 153 145 133 117 123 126 121 124 135 144 145 139 134 131 143 139
127 119 109 106 106 103 100  97 102 119 126 127 124 115 103  92  78  90 135 150 153 157 157 157
157 156 155 155 155 154 153 153 153 152 151 152 152 152 152 152 152 153 152 151
222 223 223 222 221 220 219 219 218 218 218 218 219 219 218 216 214 213 213 213 211 209 212 191
132 135 141 150 157 161 160 151 140 127 132 137 139 143 143 144 151 160 160 142 131 147 156 147
138 133 125 124 125 122 121 110 107 115 122 124 123 113  98  81  75 102 139 147 154 157 157 156
156 155 155 154 153 153 153 153 153 152 151 151 151 151 152 152 151 152 153 150
222 223 222 221 220 219 218 217 217 217 217 217 217 217 216 215 213 213 213 211 210 209 209 206
146 132 139 147 155 159 158 151 138 137 157 158 161 161 164 163 157 158 163 157 151 166 165 149
144 141 138 140 139 135 138 136 119 113 121 124 120 108  94  79  82 113 141 146 154 155 155 155
155 154 153 152 152 152 152 152 151 151 151 151 151 151 151 151 151 151 151 150
222 223 223 222 221 219 217 217 216 216 217 217 216 215 214 213 211 210 210 209 207 206 205 209
163 123 129 141 151 158 155 147 147 153 165 162 165 163 154 146 138 131 134 142 149 143 131 121
122 122 119 120 123 125 127 129 131 119 123 126 117 102  92  77  83 118 140 146 154 155 155 155
154 152 151 151 151 150 151 151 150 150 150 150 151 150 150 150 151 150 150 148
221 222 221 221 221 218 217 216 215 215 216 215 215 214 213 212 209 208 208 207 206 205 204 206
192 133 123 135 147 156 157 155 156 157 147 140 133 120 106 103 106 105 103 107 110 103  99  94
 91  90  82  74  86 102 105 118 136 131 127 127 116 100  89  74  86 122 137 144 152 154 154 153
152 151 151 151 150 149 149 150 149 149 148 148 149 150 151 151 150 150 150 147
221 221 221 220 219 218 217 216 215 214 215 214 213 213 212 210 208 206 205 204 204 202 200 199
201 152 123 130 144 154 157 155 154 150 145 130 124 116 110 111 114 114 113 112 113 117 119 115
106 105 103  99 102 108 111 121 136 142 136 127 112  96  85  71  85 120 136 143 151 152 151 151
151 150 149 149 149 149 148 148 148 148 148 148 149 149 149 150 150 149 149 148
221 221 221 220 220 219 216 215 214 213 213 213 212 211 210 208 206 205 203 200 197 193 191 187
188 169 131 125 138 149 158 160 159 156 154 143 141 138 136 135 134 134 136 136 134 134 137 133
120 120 120 116 112 111 114 125 138 143 138 124 108  91  78  69  83 113 131 141 149 151 150 149
148 148 148 148 147 147 147 147 147 147 148 148 149 149 148 148 149 148 148 146
221 221 221 219 219 218 216 213 213 212 213 211 212 210 208 206 203 200 196 192 186 181 176 170
167 163 134 124 130 141 155 163 166 161 155 150 148 149 158 162 155 148 147 145 147 147 141 137
136 138 137 131 124 117 116 127 131 133 133 122 104  86  75  73  83 102 118 129 140 143 144 145
146 147 147 146 146 145 144 145 145 145 147 148 148 148 147 147 148 148 147 145
221 220 220 219 218 217 215 213 212 211 210 208 207 205 204 202 199 195 189 181 172 165 156 148
142 138 125 118 123 135 148 157 158 158 155 153 151 155 163 166 163 155 144 136 139 137 137 137
142 144 140 134 125 118 119 123 125 126 123 114  99  82  75  76  80  91 104 114 123 129 130 131
135 139 141 143 143 142 142 143 144 144 145 146 146 145 145 146 147 145 144 144
219 220 220 219 218 216 214 211 211 208 205 202 199 197 194 192 188 183 175 164 152 143 134 127
117 106  98 103 120 136 144 149 156 154 151 151 153 153 158 160 158 151 137 124 116 116 127 136
140 140 137 132 124 118 118 120 124 119 113 107  92  74  75  79  77  81  89  97 105 109 112 114
120 125 129 131 133 133 132 136 139 140 141 142 144 143 142 143 143 143 143 141
218 219 218 218 217 215 213 211 208 204 197 193 188 184 181 178 174 165 155 144 130 116 100  78
 64  50  60  88 113 132 142 145 150 151 147 148 147 151 153 155 155 150 140 128 124 124 121 130
136 138 134 128 122 118 117 119 116 113 108  99  81  72  79  81  71  65  73  82  85  90  92  97
102 109 115 119 120 119 122 124 128 132 133 136 138 140 140 140 140 140 140 139
218 218 218 217 215 214 212 209 204 198 190 182 174 168 163 160 154 145 133 112  82  62  51  40
 39  57  57  90 113 123 132 144 146 147 147 144 143 147 151 152 147 140 135 133 135 133 124 122
125 129 130 126 121 119 120 119 111 106 103  89  72  77  84  81  69  50  45  62  67  70  75  80
 86  93 100 105 107 107 108 111 116 120 123 127 131 134 137 137 138 138 137 137
217 217 216 216 214 211 207 203 196 187 176 164 155 149 144 139 134 122  92  47  45  49  47  41
 47  60  52  85 116 121 117 133 145 145 146 146 144 144 147 149 147 145 142 136 140 140 127 118
118 121 125 125 123 123 122 121 116 106  97  77  75  87  87  78  70  62  57  40  41  41  41  56
 72  80  85  90  92  93  94  98 103 107 111 116 120 125 128 132 135 136 136 135
214 213 211 210 208 204 198 192 183 170 160 150 138 131 126 119 111  84  42  47  62  54  46  39
 51  59  50  81 116 127 118 114 135 143 145 146 145 144 146 144 141 137 131 133 141 138 127 120
110 105 112 121 126 126 121 118 113 101  83  66  85  91  85  77  68  64  68  60  36  38  34  30
 37  59  74  79  78  75  79  88  91  95  98 104 110 115 119 123 129 131 131 131
208 207 206 202 199 194 187 179 168 156 137 106  85  78  85  80  66  53  48  53  58  54  47  38
 51  58  53  80 109 128 128 111 118 138 143 146 149 148 148 139 133 129 123 131 132 128 120 113
 99  98 100 108 118 122 118 107  95  85  65  80  93  91  84  76  67  65  72  71  52  34  36  35
 31  31  38  46  45  39  40  56  70  81  89  94  98 105 111 115 119 123 125 125
202 201 199 196 190 183 174 164 155 135  65  38  46  44  52  54  51  49  50  54  60  55  48  38
 49  56  52  79 107 124 133 126 100 122 137 139 141 143 143 136 126 123 127 132 130 119 117 113
106 104  99  97  97  99 103  96  85  62  68  94  94  90  83  75  66  64  73  76  65  35  33  32
 32  33  31  32  38  42  37  28  33  41  52  72  89  95  99 106 111 115 117 119
196 194 193 190 182 168 153 137 110  74  41  63  59  42  53  57  53  49  48  54  59  56  47  39
 49  54  51  76 105 121 131 136 122  97 124 133 126 128 131 126 118 117 121 121 124 120 120 114
118 113 102  92  88  86  87  80  70  53  91  97  94  91  84  75  66  63  74  79  71  39  32  32
 30  32  34  36  40  42  36  36  40  38  35  29  57  81  92  97 102 108 112 113
194 194 186 164 130  96  75  58  42  51  49  56  57  36  40  48  49  46  47  52  57  54  47  38
 48  52  51  73 100 119 130 137 138 112  91 116 119 121 114 111 111 113 117 113 117 114 109  97
107 108 103  92  82  81  79  71  53  76  99  97  94  89  82  73  64  61  70  75  72  44  30  32
 30  31  32  35  38  39  33  32  37  37  36  34  27  35  66  89  97  99 104 105
172 143 101  56  39  53  55  52  55  47  41  52  57  43  35  41  43  45  49  52  57  53  46  35
 47  50  47  70  96 115 128 136 139 139 101  98 107 104 104 110 109 107 111 104 106 110 101  99
108 103 100  95  86  78  68  57  65  96 100  99  96  89  80  72  63  59  68  73  70  44  32  33
 29  30  34  36  37  35  34  32  35  35  33  32  35  30  25  51  81  95  97  98
 50  14  31  52  59  55  46  46  51  43  35  45  56  48  35  33  42  47  47  50  55  56  48  34
 46  50  47  72  95 112 125 134 138 142 136  98  91  97 106 114 119 118 112 104  97 104 101 102
 94  92  96  92  82  73  55  56  94 102 103 102  97  88  79  71  63  59  66  71  68  45  31  32
 29  28  32  37  37  33  32  32  32  33  30  30  30  30  28  30  42  61  81  91
 41  48  49  43  39  41  44  51  55  39  32  40  51  48  37  30  37  44  46  48  54  56  49  33
 41  51  47  71  92 108 123 133 137 139 142 130  88  75  89 109 114 107 103 106 107 102 102  96
 84  84  86  83  74  61  60  88 101 104 105 103  98  86  75  69  63  60  66  70  66  44  31  30
 27  29  33  35  34  33  33  31  30  32  30  28  27  27  28  31  30  28  39  60
 46  47  48  50  48  45  45  51  54  39  30  34  46  49  41  34  30  34  41  48  52  57  49  36
 39  49  46  69  92 106 118 130 136 138 139 143 127  84  74  83  86  91 100 103  96  88  84  80
 76  74  76  71  57  66  92 102 103 105 105 102  95  84  75  68  62  61  66  70  65  43  32  31
 29  30  33  35  35  32  31  30  29  28  28  27  26  27  27  26  28  32  37  36
 49  48  47  50  50  45  41  47  52  41  30  35  41  48  43  36  30  32  38  45  50  54  51  38
 35  46  43  61  89 106 115 126 134 138 139 138 138 132 112  82  64  70  78  82  75  69  75  69
 65  63  60  60  81  99  99 101 104 108 109 102  92  82  74  68  62  63  67  70  65  41  30  29
 29  28  30  34  35  32  31  30  29  28  27  27  26  26  26  26  26  29  33  37
 48  48  46  43  43  43  42  44  47  40  27  31  36  46  44  40  33  29  33  40  47  53  53  44
 31  42  42  53  85 105 113 124 131 136 138 138 136 133 134 128 115 100  86  75  65  67  68  60
 64  74  86 101 107 100  98 105 105 111 109 102  91  81  73  68  64  65  69  72  64  40  30  28
 28  28  30  33  34  32  30  28  26  28  26  26  27  28  27  27  27  30  33  35
 42  45  42  41  43  44  43  43  40  34  27  29  33  43  44  43  37  31  31  37  44  51  51  46
 32  38  43  41  75 102 112 120 130 137 140 141 139 137 134 133 133 131 127 120 115 111 110 112
114 115 113 108 103 103 106 110 110 112 109  99  88  79  75  70  67  69  73  73  62  37  30  31
 30  28  31  33  31  28  28  26  26  26  25  24  25  26  27  27  26  28  32  32
 42  42  41  41  40  40  43  42  37  32  29  30  32  40  43  41  38  32  28  32  41  48  51  49
 35  36  44  38  61  97 115 117 126 136 140 143 142 140 135 130 128 130 131 129 126 123 120 118
116 113 110 107 105 106 109 113 113 111 106  96  86  79  76  72  69  71  76  74  60  36  31  32
 30  29  31  31  29  27  25  24  26  25  23  24  24  25  26  26  26  28  32  32
 43  40  40  41  39  36  39  41  34  29  29  29  31  35  42  44  39  33  29  30  38  47  50  48
 40  34  42  41  46  85 113 115 119 131 138 143 142 140 137 132 128 128 127 125 125 125 124 119
115 114 113 110 108 108 110 115 115 111 102  93  83  80  76  71  70  73  76  75  58  32  32  32
 29  28  30  31  29  26  25  24  24  24  23  23  24  26  26  25  25  27  29  30
 41  40  42  42  38  36  38  37  31  27  29  30  31  34  44  47  42  35  30  29  34  44  52  50
 46  32  36  44  37  65 102 117 116 122 131 137 141 138 138 136 131 128 127 126 126 123 122 121
118 113 111 111 110 109 112 114 114 109 100  89  83  82  78  72  71  75  78  74  55  30  32  31
 28  28  29  30  28  25  24  24  23  22  23  23  24  24  24  24  25  26  28  30
 38  39  41  41  39  38  37  35  31  30  30  29  31  33  42  47  45  39  32  31  35  44  52  50
 49  39  33  40  40  46  85 117 116 117 123 131 136 137 138 138 135 130 127 126 123 120 120 121
117 113 110 110 112 114 117 117 111 104  96  86  84  84  81  75  72  76  78  71  51  30  31  30
 27  28  31  31  27  23  24  24  22  24  22  23  23  23  25  26  25  25  27  29
 34  37  39  42  41  40  38  35  32  29  28  27  30  34  39  42  43  37  31  31  34  41  49  51
 52  41  33  39  44  36  64 106 119 116 122 128 133 134 134 135 135 133 130 128 127 124 121 120
117 116 116 118 119 119 122 117 108  98  90  84  85  87  82  77  76  77  76  67  45  30  32  30
 26  28  31  30  26  23  23  22  23  25  22  22  23  25  25  27  27  25  24  27
 34  36  38  37  38  40  40  36  32  28  27  27  30  31  36  45  45  39  33  31  34  39  46  54
 51  45  36  39  44  41  49  85 120 117 122 125 131 131 132 133 134 133 131 129 129 127 125 125
123 122 123 124 122 119 117 114 106  97  87  84  87  89  84  78  78  78  73  63  39  30  31  30
 26  27  29  27  24  24  25  24  23  25  23  22  22  25  27  27  27  26  25  26
 34  34  34  33  36  39  37  32  30  30  29  28  31  33  37  42  44  40  33  31  35  40  45  50
 54  50  39  35  41  45  42  62 107 120 120 124 128 131 131 130 131 133 131 130 129 129 127 124
124 124 125 125 124 121 116 111 104  95  87  87  90  90  85  79  78  76  70  58  32  30  31  30
 27  29  29  26  23  23  24  25  24  23  23  23  23  26  27  27  26  26  27  27
 37  36  35  33  35  38  39  35  28  27  30  30  31  32  35  43  45  40  33  34  37  38  43  46
 55  50  38  32  39  46  44  50  86 120 119 123 125 128 129 130 132 131 130 129 127 127 128 127
127 126 125 126 125 121 116 109 102  94  87  88  91  90  85  80  78  76  68  52  26  30  31  31
 28  29  29  25  22  24  25  26  25  25  22  22  23  26  27  25  26  28  26  27
 41  38  37  37  36  35  35  33  29  27  30  29  30  31  35  41  43  38  34  35  37  37  41  46
 51  51  44  35  35  43  48  47  62 109 121 122 124 126 128 129 129 128 128 127 126 126 127 127
125 125 126 127 125 120 115 108 101  93  88  89  89  88  84  80  77  75  66  43  25  29  30  29
 31  32  30  26  26  26  25  25  27  25  22  22  25  27  27  25  25  26  26  26
 43  42  42  37  35  34  34  32  30  28  30  29  30  31  36  43  42  37  34  35  38  38  39  44
 50  51  48  39  33  37  44  43  48  90 119 121 123 125 127 128 127 125 124 125 126 126 126 125
124 124 124 125 124 118 112 111 102  94  88  90  89  87  84  81  78  72  60  37  27  29  27  29
 30  30  27  25  25  26  27  27  28  25  22  25  28  26  25  25  25  26  25  27
 43  46  44  40  39  38  35  32  30  27  28  30  31  32  37  41  41  37  34  36  40  39  39  43
 48  50  49  41  33  36  43  43  44  67 111 119 120 121 125 126 125 123 123 124 123 125 125 126
124 125 126 125 122 117 111 107  98  93  90  88  86  85  84  81  78  72  54  29  29  31  29  27
 28  30  28  24  25  27  28  26  27  24  24  28  29  26  24  24  25  26  26  28
 43  47  47  46  41  37  37  34  29  27  27  29  32  32  35  41  42  37  32  34  39  39  39  38
 42  49  48  40  34  36  40  42  44  49  96 115 116 118 119 119 121 123 123 121 120 122 123 124
122 122 124 124 123 120 114 105  98  93  90  87  86  86  83  81  78  69  47  28  29  30  28  30
 30  29  27  25  25  26  27  26  26  22  25  29  28  26  26  27  26  26  27  26
