P2
# 8-bit pgm - grayscale
92 112
255
187 187 185 186 186 185 183 181 180 178 177 176 175 173 173 173 172 171 171 171 171 170 170 169
169 168 168 166 164 165 165 163 163 162 161 160 161 160 160 159 159 158 158 159 158 158 157 157
156 156 158 157 157 157 157 157 156 156 155 156 155 155 153 153 153 151 151 150 151 151 149 149
149 149 149 149 149 148 148 147 146 146 146 146 146 144 145 145 145 144 143 141
188 188 187 187 186 186 185 182 180 179 179 177 176 176 174 173 172 172 172 172 171 171 170 169
169 168 167 166 165 164 163 163 162 161 160 160 160 159 159 159 158 158 158 157 158 157 156 156
156 157 156 156 157 157 156 156 156 156 155 155 156 155 155 153 153 153 151 150 151 150 149 150
150 150 149 149 149 149 149 148 147 147 146 146 146 147 146 145 145 145 145 142
188 188 188 187 187 187 186 183 180 180 179 178 177 176 175 175 174 173 173 173 172 172 170 168
168 167 167 165 164 162 162 161 160 159 159 159 159 158 158 158 157 156 156 156 155 155 154 154
155 154 155 155 155 155 154 155 155 154 155 155 155 155 155 154 152 152 151 151 150 150 150 149
149 150 150 149 149 149 149 148 147 147 146 147 146 147 146 146 146 146 145 141
189 189 189 189 188 187 187 184 181 181 180 179 177 177 176 175 175 175 174 174 172 171 170 168
167 167 165 164 162 161 161 159 158 158 157 157 156 156 157 156 155 153 154 153 152 153 152 151
151 153 152 153 151 152 154 154 154 154 155 155 155 155 155 154 152 152 151 151 150 150 151 149
149 149 150 150 149 148 148 148 147 147 147 147 147 147 147 145 146 146 146 143
190 190 190 189 189 188 187 186 183 181 181 180 178 178 176 175 176 175 174 173 171 170 169 167
166 166 163 162 161 159 160 157 157 156 155 154 154 153 154 154 153 152 152 152 152 150 149 149
149 150 150 150 149 150 152 151 152 153 155 154 154 155 154 154 153 152 151 150 150 151 150 150
149 149 149 150 150 148 148 148 148 148 148 148 147 147 147 146 146 147 145 143
190 190 190 189 190 190 188 186 183 182 181 181 179 178 177 176 175 175 174 173 171 169 168 167
165 163 161 160 159 158 156 155 154 152 151 151 151 151 149 149 149 148 149 148 148 147 147 147
147 148 148 148 148 147 148 150 151 151 153 154 155 154 154 154 154 152 152 151 151 150 150 149
149 149 149 150 150 150 150 149 149 148 148 148 148 147 147 147 145 147 146 145
191 191 191 190 190 190 189 187 185 183 182 181 179 179 177 176 175 174 173 172 170 169 167 165
162 162 160 158 157 156 152 152 151 149 145 148 146 147 146 147 146 145 145 144 143 144 144 144
144 143 143 144 144 144 145 147 149 150 152 153 153 154 154 154 153 152 151 150 150 150 150 149
150 150 149 149 149 149 149 150 149 149 148 148 148 148 147 147 147 146 146 145
192 191 192 191 190 190 190 188 186 184 183 182 180 179 177 176 175 173 171 171 169 166 164 162
161 159 157 156 153 153 152 150 147 146 143 144 144 141 144 142 140 140 140 136 139 138 132 139
139 139 140 140 140 141 144 144 147 149 151 152 152 153 152 152 151 150 149 149 149 149 149 148
149 150 149 149 150 149 149 149 149 149 148 148 146 148 148 148 147 147 146 144
193 193 193 192 191 190 190 189 187 184 183 182 182 179 177 175 174 172 170 169 167 165 164 160
159 157 149 146 152 149 130 141 147 140 134 129 126 113 130 143 136 134 130  92 104 111 123 128
136 135 135 134 137 138 140 142 143 145 148 150 151 152 152 151 150 149 149 150 149 149 148 148
148 148 148 149 148 148 148 148 148 147 146 147 147 148 148 148 147 147 147 144
193 193 193 192 191 191 190 189 187 185 184 182 181 178 176 174 173 170 168 166 164 162 159 159
156 154 154 139 136 131  77  67  89  61  49  39  27  19  47  84  79  81  89  44  57  32  97 104
110 125 115 124 127 131 131 137 139 142 145 149 150 151 151 151 152 150 149 149 149 148 148 148
149 149 148 148 148 147 147 147 147 147 147 148 148 149 149 148 148 148 147 144
194 194 193 192 192 192 191 189 187 186 184 182 181 179 176 173 172 168 167 165 163 160 158 150
152 141 115 118 118  93  46  19   0   0  12  14  18  22   7   0   0   0   0  19  28  25  29  60
 55  78  58 110 100  99 110 135 136 140 144 149 150 151 152 152 151 150 149 148 148 148 147 148
148 148 148 147 148 147 147 147 146 147 148 148 148 149 150 148 149 149 148 146
194 194 193 193 193 192 191 189 187 186 184 183 181 178 176 174 170 167 163 162 159 157 155 152
126  96  90  91  62  16  27  37  32  25  23  19  20  23  24  24  23  21  24  21  14  17  22  21
 34  45  61  56  76  25  73 129 133 137 140 146 148 150 150 150 149 149 149 148 148 148 148 148
148 147 147 147 147 148 147 147 147 148 148 148 149 149 149 149 149 148 148 147
194 194 195 194 193 192 191 190 188 186 185 183 180 178 175 171 169 165 160 157 158 145 111 104
 56  45  66  44  41  51  17  16  19  18  18  18  15  14  15  14  16  14  11  13  15  16  14  23
 17  33  61  17  65  60  41 120 128 134 138 142 145 148 149 149 150 149 149 148 148 147 147 147
147 147 147 147 147 147 147 148 148 147 147 148 149 149 149 149 149 148 148 147
194 194 195 193 194 192 191 190 187 187 185 183 179 177 173 168 165 161 162 153 146 113  37   3
 24  21  26  30  65  58  18  20  19  19  17  18  16  15  14  13  16  15  13  14  14  15  13  18
 20  22  25  22  30  49  25 108 118 132 136 139 143 146 147 147 148 147 147 147 147 147 147 146
147 147 147 147 147 147 147 147 147 147 147 148 149 149 149 150 150 149 149 147
195 195 195 194 194 193 193 191 188 187 185 182 179 175 170 169 164 156 127  85  51  22  32  29
 23  21  17  19   6   4  17  18  18  18  19  16  17  16  15  15  14  17  13  13  13  14  13  17
 18  15  22  20  13  42  39  92 110 127 130 134 139 142 143 144 145 146 146 146 146 146 146 146
147 147 148 148 147 147 147 147 147 147 148 149 149 149 150 150 150 150 149 147
195 196 196 195 194 193 193 192 188 187 185 182 179 177 165 146 120  80  12   0  14  25  22  26
 22  19  22  22  23  22  17  14  16  16  18  19  16  13  14  15  15  18  14  14  13  13  16  18
 18  17  22  18  15  29  36  58 101 122 125 130 133 138 140 142 143 143 144 144 143 144 145 145
147 147 147 147 148 148 147 147 147 147 148 149 149 149 150 150 151 151 150 148
196 196 195 195 194 193 193 191 189 187 187 183 180 165 111  52   0   0   1  26  29  23  24  26
 28  20  20  20  19  18  20  19  15  16  13  17  15  13  13  14  14  15  15  15  15  13  16  18
 17  14  18  17  16  23  20  29  94 117 119 124 128 133 136 139 141 142 141 142 141 143 144 144
145 146 146 145 146 147 146 146 147 147 147 148 148 149 150 150 150 150 149 149
196 197 198 196 196 194 194 192 190 188 186 184 178 145 104  72  77  84  85  44  20  28  23  24
 22  21  20  17  18  18  15  15  15  14  13  12  14  13  12  11  11  11  12  15  15  12  13  13
 12  12  15  18  18  21  24   8  79 109 112 118 122 127 131 134 138 139 140 141 139 141 141 141
143 144 144 145 146 145 146 146 147 147 147 147 148 150 150 150 150 150 150 149
197 198 198 197 196 195 194 192 190 189 186 179 171 152 117 121 109  98  94  87  60  39  20  22
 23  22  21  20  18  18  16  14  14  13  13  14  12  12  11  12  13  14  13  11   9   7   9  10
 10  11  14  15  18  19  21  18  45  94 105 112 115 121 127 131 134 137 139 138 138 138 139 140
142 143 144 145 145 145 145 146 146 146 147 148 149 150 150 150 151 151 150 148
198 199 199 198 197 195 195 193 190 189 186 180 173 149 115  90  69  66  45  42  50  33  18  18
 19  20  17  17  16  16  15  12   9  12  11  17  23  25  33  36  36  39  36  31  26  19  12   9
  8  11  11  12  15  15  16  23  11  60  98 105 110 114 121 127 132 135 136 136 137 137 138 140
141 142 143 143 143 144 145 146 145 145 146 148 148 149 150 150 151 150 150 148
199 199 201 197 196 196 195 194 191 189 188 183 145  98  64  42  55  48  37  30  14  23  19  14
 14  14  14  14  14  12  12  22  33  40  47  51  52  53  57  54  50  49  46  45  41  38  32  26
 18   9   7  10  12  12  13  20  20  15  77  94  99 104 115 123 128 132 135 135 137 137 137 137
138 141 142 143 144 144 145 145 146 146 147 147 148 149 150 150 151 150 151 150
200 200 200 200 197 196 195 195 193 190 185 148  80  72  48  48  50  38  24  24  25  21  19  17
 15  15  15  12  14  28  41  50  57  61  65  67  66  65  62  58  54  56  54  53  49  45  43  41
 36  26  16  10  11  10  10  16  19  17  30  49  74  87  98 120 125 131 134 134 135 136 136 137
138 140 141 141 142 143 145 145 145 145 147 147 148 150 150 150 151 152 152 150
200 199 199 200 198 198 197 196 194 193 184 148 155 158 134  98  42  26  25  25  22  22  21  19
 16  16  12  23  43  56  62  65  67  67  68  69  69  68  67  67  65  65  63  60  57  54  52  51
 48  44  35  23  12   9  10  12  14  17  21  23  57  74  87 119 125 131 134 134 135 136 137 137
138 139 141 142 142 143 144 145 146 146 146 146 148 148 150 151 152 152 151 149
201 201 201 200 199 199 198 197 193 193 187 180 178 152  92  63  51  27  25  24  23  21  21  19
 19  17  35  55  65  70  73  74  75  74  75  74  75  75  72  71  70  70  68  63  63  62  61  60
 55  51  47  39  29  16   9  10  10  12  17  17  45  61  97 112 120 128 133 134 135 136 137 137
138 140 141 141 142 143 144 146 146 146 147 146 148 149 150 151 152 151 150 149
203 203 202 201 200 200 199 198 195 192 190 188 158  84  80  64  25  25  26  24  23  23  21  22
 20  40  63  72  74  78  80  82  83  83  81  80  80  80  77  75  73  71  71  68  67  66  66  65
 62  59  54  50  46  36  22  12  11  13  12  18  21  45  92 106 118 126 130 133 135 137 137 137
138 139 140 142 142 143 145 146 146 146 147 148 148 149 150 151 152 152 151 150
203 202 202 202 201 200 199 198 196 192 191 178 136 105  80   0  28  30  26  24  24  21  22  22
 42  67  78  83  85  87  88  90  90  89  86  84  83  83  82  79  76  76  76  74  71  69  70  67
 65  64  60  57  52  48  39  24  13  14  14  16  19   7  68 107 115 123 129 133 135 136 137 138
138 138 139 141 142 143 144 145 146 146 147 147 148 148 150 151 151 152 152 150
204 204 204 203 202 201 200 200 198 194 190 184 149  60   2  42  40  28  24  23  21  21  20  38
 66  79  84  90  91  93  94  92  90  88  87  87  87  86  84  82  78  78  78  77  73  73  72  71
 71  66  63  60  56  52  47  39  25  11  14  13  19   3  56 100 110 121 128 132 135 137 137 138
138 139 139 141 142 144 145 145 146 146 147 147 148 148 149 150 151 151 151 150
206 206 205 204 204 202 201 200 199 196 194 178  81   0  44  53  31  24  25  21  21  22  33  61
 78  83  86  92  94  93  93  93  90  89  90  89  88  89  86  85  83  79  78  76  73  72  68  66
 70  68  63  63  60  53  50  45  39  22  12  13  17   6  43  90 107 118 125 131 135 137 138 138
138 139 140 141 142 144 144 145 146 147 147 148 148 148 149 149 151 152 153 151
208 206 206 205 204 204 202 201 199 198 194 126   0  75  75  29  29  26  25  23  27  23  50  74
 81  86  89  91  92  93  93  93  92  93  89  88  86  87  87  83  82  80  78  77  74  70  67  63
 61  63  62  60  59  58  54  50  48  38  17  13  16  14  30  75 104 113 122 130 136 137 138 139
139 138 140 141 142 143 144 145 146 146 147 148 148 149 149 150 150 152 153 151
208 207 207 206 205 205 204 202 200 200 191 162 120  71  84  76  19  27  24  25  26  33  67  79
 82  88  89  88  90  90  89  89  93  87  83  82  83  86  86  83  83  81  78  77  73  70  65  62
 62  62  60  59  58  58  58  55  52  46  26  14  14  15  15  63  96 112 122 130 135 139 139 139
140 140 141 141 142 143 143 144 145 146 147 148 149 149 149 150 151 152 153 152
209 209 208 208 207 205 204 204 202 200 195 195 177 117 123  59  15  29  26  28  23  52  80  82
 83  86  88  89  91  88  86  87  86  83  81  80  79  81  81  82  81  80  79  79  79  73  68  62
 58  58  59  59  58  58  58  59  59  51  34  21  17  15  10  32  90 111 120 130 135 139 140 140
140 142 141 141 142 143 142 145 146 146 147 148 149 149 149 150 151 152 152 152
210 210 209 207 208 205 204 205 203 201 199 194 188 185 141  45  28  30  27  30  31  69  89  88
 85  85  86  85  85  82  81  82  81  81  80  78  78  78  80  81  81  80  79  72  72  73  68  64
 60  55  56  57  58  60  61  60  61  57  41  26  21  16  18   5  67 106 118 128 135 139 140 141
142 142 143 142 142 143 143 145 146 147 148 148 149 149 149 150 152 152 151 150
211 210 210 208 208 206 205 206 204 201 199 197 194 194 161  45  30  30  29  31  40  74  91  90
 87  83  84  81  80  82  83  79  78  78  79  80  81  82  82  82  82  81  79  77  73  72  70  66
 66  63  58  57  56  58  61  63  61  60  47  29  22  19  18  10  45 100 116 126 134 140 142 141
142 143 143 142 141 143 144 144 146 147 148 149 149 149 150 150 152 151 151 150
213 212 211 210 209 208 207 206 204 201 200 198 196 195 152  22  34  33  33  32  47  77  92  92
 90  85  82  84  85  86  87  84  79  83  85  85  85  87  87  87  86  84  84  83  82  78  75  74
 71  69  65  61  58  56  60  63  63  62  54  35  23  20  19  17  25  87 113 126 134 141 142 142
142 143 143 142 143 143 143 145 146 147 149 149 149 150 150 151 152 152 151 151
215 214 213 212 211 209 208 207 206 204 201 200 198 192 129  28  38  34  35  37  52  79  95  96
 94  89  86  90  92  94  95  90  88  92  95  93  93  94  95  94  93  94  93  93  91  86  84  88
 80  70  68  69  63  61  60  61  65  64  61  49  27  17  19  20  12  74 112 124 134 141 143 143
143 143 143 143 144 144 145 146 147 147 148 149 150 150 150 151 152 154 153 151
214 213 214 213 211 210 210 209 206 204 201 199 199 193 157  96  30  38  35  38  52  80  97  98
 96  94  92  97 101 103  99  98  99 101 105 103 102 104 103 103  99 102 101 101 100  99  91  81
 69  50  52  61  63  64  65  61  63  64  64  61  41  18  18  22  14  49 102 123 134 141 143 144
143 144 144 144 145 144 144 146 147 147 148 149 150 150 150 150 152 153 153 151
215 215 214 213 211 210 210 209 207 205 202 199 200 196 188 142  19  41  32  35  57  88 102 100
 95  92  97  98  94  92  93 103 112 114 118 119 116 116 113 114 107 110 117 112 113 113  83  39
 20  13  11  21  37  43  57  63  61  62  62  66  54  23  17  22  22  16  83 121 133 141 144 143
143 144 144 145 145 144 145 146 147 148 149 149 151 150 151 151 152 153 153 151
216 214 214 214 213 210 210 209 209 206 203 200 199 197 197 160  37  35  33  32  58  96 105  98
 96  96  89  75  64  63  56  58  88 118 128 131 126 121 121 121 112 106 118 118 113 105  54  29
 30  26  21  22  22  17  25  42  47  55  61  65  63  31  15  20  23  12  80 121 134 141 144 145
144 144 145 145 146 146 146 147 147 147 149 150 150 151 151 151 153 153 153 151
217 215 215 214 213 211 210 209 209 207 204 202 200 198 196 182  78  11  40  30  72 102  97  98
 92  72  52  26  20  20  22  28  41  75 119 138 135 126 125 124 118 108 109 113  95  57  36  25
 20  23  27  28  23  20  16  10  12  28  52  64  66  40  12  19  21  17  67 114 134 142 145 145
146 145 146 146 146 146 146 147 148 148 150 150 150 151 151 152 152 152 152 152
217 217 215 214 214 213 212 210 209 208 205 203 201 200 198 184  77  13  40  33  88 104  94  83
 48  23  23  26  29  31  30  25  35  17  82 134 142 133 126 124 118 110 109 106  70  49  49  44
 47  41  39  37  35  34  29  30  34  27  32  58  68  45   9  20  22  18  62 114 136 143 145 145
146 146 146 146 147 146 146 146 147 148 150 150 150 151 152 152 153 152 152 152
217 216 215 215 214 213 212 211 210 210 207 204 202 201 200 168  54  31  36  38  93  99  75  23
 30  37  24  32  39  35  40  41  50  50  58 119 138 134 128 121 117 108  99  92  74  80  86  90
 89  87  89  83  77  73  64  66  59  45  34  50  68  50   7  22  24  13  51 113 136 144 146 146
146 146 147 147 147 147 147 147 148 149 150 151 151 152 153 154 153 153 153 152
218 218 216 215 215 213 212 212 211 211 207 204 202 201 201 154  27  39  33  37  98  93  44  47
 59  67  74  79  87  90  91  90 100 106 104 111 126 128 129 123 114 103  91  80  81  90  95 102
101 103 104  98  95  91  85  80  72  66  57  55  69  53  10  23  23  17  57 109 138 145 147 146
146 147 147 147 147 148 148 148 149 150 150 151 153 152 152 153 154 154 154 153
219 219 217 215 215 215 214 213 212 211 208 205 203 202 199 139   0  44  32  34 102  84  37  71
 90  97 108 113 111 111 107 104 104 112 118 115 114 119 120 115 104  90  81  71  76  86  88  89
 89  95 101 104  98  91  88  83  81  82  75  67  69  59  13  23  21   1  64 121 141 147 147 147
148 148 148 147 148 149 148 148 150 150 151 152 154 153 153 153 154 154 154 154
220 220 218 217 216 215 214 214 212 211 209 206 205 203 201 141   8  45  34  34 101  79  78 103
110 116 118 115 111 107 101  94  92  97 112 116 109 107 109 101  91  82  73  63  68  74  69  66
 66  71  78  88  90  86  83  81  79  84  92  84  75  68  21  20  18  13  36 117 142 148 148 148
148 148 148 149 149 148 148 149 149 151 151 152 153 153 154 154 153 155 155 153
220 220 218 217 216 216 215 215 214 213 210 207 206 204 204 158  44  40  35  41 100  96 111 115
114 111 105 107 104  93  77  68  74  77  88 106 101  98 100  92  86  82  74  61  55  61  59  65
 87  40  40  60  28  55  70  75  75  82  91  88  78  73  34  17  20  14  67 124 144 149 149 149
149 149 149 149 148 148 149 149 150 152 152 153 154 154 154 154 154 154 153 152
220 220 219 218 217 217 216 215 214 213 211 208 206 206 204 172  65  31  37  47 104 112 119 116
106 103 104  84  48  58  50  22  90  76  59  77  91  94 101  98  90  86  79  64  51  52  42  63
 83  51  29  42  10  30  24  42  60  76  86  88  81  78  49  12  23   9  83 131 146 150 150 151
150 150 151 150 150 150 150 149 151 152 153 153 154 154 154 155 155 154 153 152
222 222 221 219 219 218 217 216 215 213 212 209 206 206 206 169  75  35  35  54 109 115 121 111
102  87  53  39  31  30  39  55  78  66  65  82  88  94 104  97  91  90  82  70  53  55  55  49
 52  64  60  54  52  56  54  35  41  65  81  84  80  80  58  13  21  22 102 135 147 151 151 151
151 151 151 151 151 150 149 150 151 152 152 153 153 153 153 154 154 154 153 154
223 222 220 220 219 219 217 216 215 215 213 211 208 206 205 193 133   0  36  65 116 119 120 104
 75  27  30  64  63  74  83  85  86  79  86  89  83  96 104  97  95  91  81  74  63  52  59  61
 64  76  87  91  90  87  83  76  66  69  75  79  78  79  65  22  16  35 110 134 147 152 152 151
152 151 152 152 152 151 151 150 151 151 152 153 154 154 154 154 154 154 154 154
223 222 221 220 220 219 218 217 216 215 213 211 209 208 205 209 161  29  31  78 120 116 111  96
 86  86  97 112 114 113 106  93  86  85  84  87  92 100  99  99  92  89  81  71  68  60  56  61
 70  76  84  89  91  91  86  83  82  81  79  80  80  78  71  29  12  31 108 135 147 152 151 151
152 152 153 152 152 152 152 151 152 151 152 154 154 154 154 154 154 155 154 155
224 222 221 221 220 220 219 217 217 216 213 211 211 210 207 208 194  91   0  88 119 113 107 107
113 118 120 122 119 111 104  99  97  92  95  96  98  97  98  97  92  85  77  71  68  67  64  64
 69  80  89  90  89  87  82  82  80  80  83  81  82  79  74  32  28  16  99 137 148 152 152 152
152 153 152 152 152 152 152 151 150 152 153 152 153 154 155 155 155 156 155 154
223 223 222 221 220 220 219 218 217 217 215 212 211 210 208 205 205 128   0  98 119 111 111 113
114 114 113 112 112 113 113 109 102 102 104 100 100  97 100 101  96  90  74  68  70  71  68  75
 73  74  87  95  96  95  90  85  81  81  81  83  82  79  75  37  56  68 103 136 148 153 152 153
153 152 152 152 153 152 152 151 150 151 152 152 152 154 155 155 155 155 156 155
223 222 222 221 221 220 219 218 218 218 216 214 212 210 209 207 209 136   0 105 118 112 113 113
112 111 111 116 121 122 117 109 110 111 105 104 104 101 100 100  95  91  77  63  64  74  74  74
 80  80  79  84  91  93  94  91  89  87  84  83  83  79  77  41  56  71 111 141 150 154 153 152
153 153 153 154 153 152 152 152 151 151 152 152 153 154 155 155 155 156 155 153
224 223 222 221 221 220 220 219 218 218 216 215 212 211 211 208 209 158  41 108 118 110 112 113
114 115 120 123 122 117 110 114 117 113 109 111 107 102  98 104 105  94  87  75  62  70  82  78
 82  88  89  86  84  85  88  91  91  90  89  86  83  80  79  46  64  68 113 145 152 155 154 154
153 153 154 154 154 154 154 152 152 153 153 153 154 154 155 155 155 155 155 153
223 223 222 221 221 220 220 219 219 219 217 215 213 211 211 208 210 175  79 108 118 114 118 117
117 120 122 118 111 110 114 120 119 117 121 113 107 103 100 107 109 106  97  90  74  60  76  89
 88  90  93  93  92  89  89  89  90  91  89  89  86  82  78  63  58  68 120 146 153 154 155 155
154 153 155 155 155 154 154 154 153 152 154 154 154 155 155 155 155 155 156 155
223 223 222 221 221 220 220 219 219 219 217 215 214 212 211 208 212 177  89 113 120 119 120 119
119 120 116 112 111 116 120 122 123 129 122  95  95 100 109 115 121 120 108  95  85  65  52  75
 99  98  96  95  96  96  95  93  93  91  89  87  88  84  80  74  61  87 132 147 155 155 155 155
154 154 155 156 155 154 154 155 153 152 154 154 154 155 155 155 156 157 157 156
223 223 223 222 221 221 220 220 219 219 218 216 213 213 212 208 212 191  93 111 123 120 119 120
120 116 114 114 114 119 122 128 135 139 104  83  90 109 120 126 136 136 125 107  92  81  64  50
 89 112 105 100 102 100  97  96  96  95  93  89  88  86  80  77  68  98 137 149 155 156 155 155
155 156 156 156 156 155 155 154 153 153 153 154 154 155 156 155 156 157 157 155
225 224 223 222 221 221 220 220 219 219 218 216 214 213 212 210 209 210 145 106 125 123 121 123
120 119 120 115 117 121 127 135 149 136  91  99 111 123 132 144 152 162 163 134  99  97  94  72
 74 117 118 111 108 107 104 100  97  97  94  90  88  86  81  73  70 105 140 150 155 156 156 156
155 155 155 155 155 155 154 154 153 153 154 154 155 156 157 157 157 156 157 154
225 224 223 222 221 221 220 219 219 219 218 217 214 212 212 211 209 212 177 111 126 125 124 123
122 122 123 122 124 129 138 144 154 131 109 130 138 134 145 163 176 170 169 141 107 108 116 107
 79 113 128 123 120 115 112 108 102  99  96  92  88  86  81  61  65 109 142 150 156 156 156 155
155 155 156 156 156 155 154 154 154 154 154 155 156 157 158 157 157 156 157 155
226 225 223 222 221 221 220 220 219 219 218 216 214 212 212 212 210 213 180 118 127 126 126 124
124 124 126 131 135 139 146 150 151 134 125 132 122 127 145 167 171 157 148 130  94  72 103 116
 89 116 132 132 131 126 121 114 109 104  98  94  91  87  81  58  67 114 146 152 156 157 157 157
156 156 157 156 156 155 155 155 155 154 154 156 157 157 158 158 157 157 157 156
225 224 222 221 221 220 220 220 219 218 218 216 214 212 212 211 210 214 183 116 128 127 130 128
129 133 137 138 147 145 145 146 148 141 122 116  85  80 124 153 150 144 146 119  55  59 105 106
 93 119 133 140 139 134 128 121 114 109 101  95  92  87  79  77  70 122 150 153 157 157 158 158
157 157 157 157 157 156 155 156 156 156 157 157 157 157 158 158 157 157 158 156
223 223 222 221 220 220 219 220 220 219 218 217 215 212 212 211 209 212 190 120 129 129 132 133
135 142 144 147 149 149 148 147 145 140 125 112 124 118 117 137 138 134 124  96  87 101 113  93
 98 122 133 141 143 137 131 128 120 112 106  97  92  88  77  77  88 137 152 155 158 157 157 158
157 157 157 157 157 156 156 156 155 156 158 158 158 158 158 158 158 158 158 156
223 223 222 221 220 220 220 220 219 219 218 216 214 212 212 212 211 210 199 131 127 131 135 136
140 146 147 151 150 151 149 145 141 132 126 123 118 127 133 131 125 120 106 106 111 101  93  92
101 114 125 136 142 140 136 132 125 117 110 100  92  88  77  64 105 147 152 157 159 158 157 158
157 157 158 158 157 157 156 157 156 157 158 158 157 158 158 158 158 158 159 157
223 222 222 221 221 220 220 219 219 219 218 216 215 213 212 212 211 210 208 155 124 134 136 140
145 151 151 153 155 152 147 143 137 129 121 112 105 117 123 131 134 127 121 112 108  95  92  98
 98 105 116 129 136 138 137 135 129 120 111 102  94  88  72  77 133 149 154 156 158 159 158 158
158 158 158 158 158 157 158 157 157 158 159 158 158 158 158 158 158 158 159 157
223 223 222 220 220 219 219 219 218 218 217 216 215 213 212 212 210 208 212 183 123 135 137 143
150 155 155 155 153 149 146 144 132 119 111 102 105 118 116 119 137 128 122 128 110  96  96  91
 90  91  99 115 132 135 135 135 131 123 114 103  96  87  71 121 147 150 155 156 158 159 158 158
157 157 157 157 158 157 158 157 157 158 158 158 158 158 158 158 158 158 156 155
223 223 222 220 219 220 219 219 218 218 217 216 214 213 212 211 210 209 211 196 128 134 138 145
151 157 155 153 150 148 144 133 116 109 102  98 117 123 127 133 130 129 122 127 119 107 101  84
 81  76  77  91 114 124 131 135 130 122 114 104  94  84  73 130 148 151 155 158 159 159 158 157
158 157 157 157 157 157 157 158 158 158 158 158 158 158 158 158 159 158 157 155
222 222 221 220 219 219 219 218 218 218 217 216 215 214 212 211 211 210 210 201 134 133 143 148
154 158 157 150 147 142 132 114 107 109 112 112 127 132 137 130 112 115 127 129 122 114 102  96
 88  90  86  89  93 102 123 133 131 123 115 104  93  83  73 133 150 152 156 158 159 158 158 157
157 157 158 158 158 157 158 158 159 158 159 158 158 159 158 158 159 158 156 154
222 222 222 220 219 218 218 218 218 218 217 216 214 213 213 212 212 210 209 207 146 129 143 147
153 156 157 150 139 126 129 128 128 126 133 136 137 137 140 137 131 135 140 139 131 123 115 109
105 105 103 104 115 117 115 131 132 123 115 103  94  82  82 138 150 153 157 158 159 157 157 157
156 156 157 158 158 157 157 158 158 159 159 158 158 158 158 158 158 158 156 153
222 222 221 220 219 219 218 218 218 217 216 215 214 213 213 212 212 210 208 210 151 124 140 144
152 155 155 149 137 132 149 144 141 141 138 130 124 120 121 119 127 126 113 116 115 112 110 104
103 109 110 112 128 132 120 132 133 122 114  98  87  74  96 145 151 155 157 158 158 157 156 156
156 157 157 157 158 158 157 158 159 158 159 157 158 158 158 157 158 157 155 154
222 221 221 220 219 218 218 217 217 217 216 215 213 213 212 212 211 210 208 212 169 122 140 142
151 155 155 146 143 150 150 137 134 117 114 130 155 163 160 176 160 148 176 183 163 159 157 138
109  69  88 100 111 139 131 131 137 119 108  96  88  74 109 147 152 156 158 158 157 156 156 156
156 157 157 157 157 157 156 157 158 158 158 158 158 158 157 156 157 156 155 154
221 222 221 219 218 218 217 217 216 216 216 215 214 213 211 211 210 209 207 209 186 123 136 136
146 154 158 154 155 146 135 112  88  52 109 158 180 204 205 221 223 207 220 211 189 179 160 107
 96  42  70  89 113 136 138 137 136 120 104  95  90  76 122 148 153 156 158 158 157 157 156 157
157 156 157 156 156 156 156 157 158 158 158 158 158 157 156 156 156 156 155 153
222 222 220 219 218 217 217 217 216 216 215 215 213 213 211 211 209 208 207 206 203 137 124 134
143 154 158 155 147 140 142 112  85  74  82  77 107 150 160 186 188 167 178 172 135  91  83  46
 59  70  89 106 119 133 142 146 134 118 103  96  84  80 131 146 153 157 157 157 157 156 156 156
156 155 155 154 155 156 156 158 158 158 158 157 157 157 156 156 155 156 154 152
222 221 220 219 217 217 216 216 216 215 215 215 214 212 211 210 209 208 207 205 209 161 118 133
143 152 157 164 155 147 143 136 121 101  92  87  79  71  71  87  96  85  91  85  68  71  78  83
 84  93 105 111 122 134 143 146 130 116  98  93  79  93 135 145 153 157 157 156 156 155 156 155
155 155 155 155 156 156 157 157 158 158 157 157 156 157 157 156 155 155 154 151
221 221 221 220 217 216 216 216 215 215 214 214 213 211 210 210 209 208 206 205 207 190 122 134
138 149 157 163 161 151 143 140 141 129 120 116 116 112 113 114 112 112 110 113 112 103 102 104
107 113 114 114 123 133 139 140 129 113  96  88  76 107 134 144 154 156 156 155 154 155 155 154
154 154 155 155 155 156 157 158 157 157 156 157 156 156 156 156 155 155 153 150
221 221 221 219 217 216 215 215 214 214 214 213 212 210 208 208 206 205 204 203 202 202 147 125
136 142 155 159 157 152 148 143 142 145 149 144 136 136 139 145 149 148 143 142 132 125 125 128
127 123 119 117 124 127 132 132 125 110  93  83  75 110 131 143 153 156 155 154 154 153 153 153
152 152 153 155 155 156 157 156 156 157 156 156 156 156 155 154 153 153 152 149
221 221 220 218 217 216 215 214 213 213 212 212 211 209 206 206 205 204 202 201 200 202 187 127
132 139 151 160 160 153 150 144 145 150 160 163 160 156 155 154 154 157 153 149 145 146 145 142
136 128 122 121 123 127 126 125 119 104  92  79  72 107 130 143 152 153 153 153 152 152 151 151
151 151 152 154 155 156 156 156 156 157 156 156 155 154 154 153 153 153 152 149
220 220 219 218 217 216 215 214 213 212 211 210 208 206 205 205 203 203 202 200 199 198 198 150
123 141 148 152 158 154 149 145 143 148 158 165 167 172 163 161 163 158 159 161 159 156 147 140
135 127 123 123 121 123 118 114 112  99  88  74  72 103 128 139 151 152 151 151 150 150 149 149
150 151 150 152 154 155 156 156 155 155 154 155 154 153 152 152 152 151 150 148
220 219 219 218 216 215 214 213 212 211 209 208 207 205 204 203 201 201 199 197 197 195 196 180
126 138 148 149 152 153 149 145 144 148 153 158 162 160 155 148 142 139 146 154 156 154 149 141
137 129 125 123 123 115 112 112 102  94  77  73  74  97 123 136 147 150 150 150 149 148 148 148
148 148 148 150 152 152 153 153 152 152 151 152 152 151 149 150 149 149 148 145
218 218 218 217 215 214 213 212 210 210 209 208 206 203 201 200 199 198 195 193 190 189 186 175
129 127 146 150 151 152 151 145 144 148 150 155 160 163 163 149 141 140 148 152 154 154 150 139
131 130 126 121 119 112 105 104  98  80  71  83  77  89 110 123 137 143 146 147 146 147 147 147
147 146 147 147 147 149 149 150 150 149 149 148 148 148 147 148 146 147 147 145
218 217 216 215 215 212 211 210 208 207 206 206 204 201 198 196 194 191 186 180 173 169 164 151
122 117 129 144 151 149 147 143 141 143 149 153 155 156 156 155 153 151 145 141 144 143 140 134
127 125 123 115 118 114 107 101  89  69  80  87  76  80  95 107 120 128 130 133 136 139 143 144
143 142 143 145 144 144 146 146 144 145 145 145 144 145 145 145 145 146 145 143
217 216 215 214 213 211 209 208 206 204 203 202 200 196 192 188 183 174 166 157 150 144 137 127
118 123 115 126 141 146 145 140 139 138 138 140 139 136 131 130 128 124 123 119 121 120 119 121
122 118 116 111 112 113 106  91  72  74  88  85  78  75  82  91 101 108 112 115 120 124 128 131
132 132 134 135 139 142 142 143 143 143 143 142 142 143 142 143 142 142 142 141
217 216 215 213 211 210 207 203 201 200 199 197 193 189 182 173 165 154 144 134 125 118 110  99
110 125 126 110 131 141 144 137 135 133 133 131 129 127 123 122 121 125 118 119 121 119 116 108
114 114 113 110 108 101  92  75  70  90  88  85  80  67  68  78  82  87  92  95 102 107 113 117
118 119 120 123 125 130 133 135 139 142 142 142 141 140 141 141 141 141 141 139
216 215 214 213 210 207 203 198 195 191 188 185 180 173 163 152 140 129 120 108  98  83  73  71
104 124 132 122 101 126 136 134 136 131 127 122 123 123 122 126 129 126 122 123 120 113 106 102
102 107 107 103  99  90  73  61  86  94  89  87  80  62  38  53  63  66  71  78  84  91  97 103
105 105 106 111 115 118 122 125 129 134 138 140 140 139 139 139 140 140 140 137
215 214 213 211 209 202 195 189 182 176 170 165 159 150 139 129 119 105  88  66  53  40  62  56
100 124 130 136 115 103 128 130 126 128 123 117 117 119 118 123 120 123 122 117 115 105  99 107
100 101  94  89  86  75  53  77  93  95  90  86  78  66  57  42  40  44  40  51  68  78  83  88
 90  90  92  96 101 105 110 113 118 123 127 134 138 139 137 138 139 139 138 137
214 214 213 209 204 195 186 176 166 158 151 144 137 127 118 107  88  62  47  41  40  56  62  58
102 123 130 135 138 110  92 119 120 121 123 116 112 118 121 122 124 116 116 118 116 110 112 112
111 105  89  77  68  47  72  93  97  95  90  84  77  65  63  65  43  39  36  30  34  52  64  68
 73  72  74  84  89  92  96 101 107 112 118 123 129 133 135 136 136 136 136 135
213 212 209 203 196 186 173 161 149 141 135 126 117 104  89  60  41  45  47  38  44  56  57  64
103 120 128 134 138 133 101  87 108 114 118 116 116 126 130 126 129 123 123 127 118 118 119 115
116  95  80  69  51  60  88 100 100  96  92  83  76  64  68  71  62  38  36  34  32  28  32  35
 41  40  38  49  64  75  84  91  96 101 109 114 119 125 129 130 131 131 130 131
209 206 200 193 184 172 159 148 138 129 116  98  76  61  41  39  55  55  51  37  47  57  52  66
101 118 125 134 140 141 134 100  87  99 105 118 114 127 134 133 132 130 123 121 107 109 114 109
109  93  76  55  55  81  96 102  98  96  91  83  75  64  68  75  74  50  32  31  32  34  32  33
 36  43  40  28  32  38  48  67  87  94  96 105 112 117 119 122 123 124 125 124
201 196 189 178 169 158 146 130 107  85  64  47  48  50  43  46  53  54  50  37  44  54  51  65
 96 116 125 130 138 142 139 133 104  77 107 118 113 126 129 124 130 121 125 115 106 117 111  99
100  85  70  61  76  89  99 102  99  96  91  83  75  64  67  74  78  60  30  34  33  31  34  35
 37  42  36  33  37  39  36  29  50  80  93  97 102 106 111 114 116 117 118 116
192 184 173 163 156 142 101  61  43  39  53  55  50  44  43  46  53  55  52  36  42  52  51  61
 95 114 124 131 137 142 143 141 133  96  80 102 119 123 134 123 116 112 120 105 109 103  88  95
 96  67  58  82  87  93 100 101  98  93  92  84  75  62  66  74  78  66  30  33  32  30  33  34
 37  39  34  29  34  37  35  34  28  31  66  88  95  97 101 106 108 109 110 110
181 173 161 145 120  89  43  50  60  49  50  47  48  43  43  46  51  56  52  38  42  52  50  59
 91 111 123 129 138 141 142 141 137 134 102  86 101 112 122 116 118 114 109 108 105  87  81  85
 70  63  82  89  93  96  99 100  99  93  90  82  75  62  63  72  76  67  33  33  32  28  32  35
 38  36  32  30  32  35  33  30  31  28  29  51  66  84  96  98 100 102 103 102
167 136 109  78  54  57  47  55  59  46  45  46  41  41  42  45  51  54  51  38  40  51  49  56
 87 108 122 128 136 139 140 140 136 139 137 112  92  78  80  89  99  96  92  90  90  79  70  66
 79  88  97  93  94  98 103 104 101  94  88  82  74  62  61  72  75  67  34  33  31  28  30  35
 37  33  30  30  29  33  32  29  27  27  29  35  29  28  64  82  85  88  90  92
 78  41  54  52  56  53  43  48  57  45  39  44  40  39  44  47  52  52  53  39  35  50  47  51
 87 106 117 127 134 137 139 139 136 137 139 135 133 124 108  96  79  71  73  73  73  81  92 102
104 101 101  98  95  98 103 104 103  94  86  81  73  63  60  71  76  67  35  31  29  27  32  36
 35  33  32  29  30  31  29  26  26  27  27  30  41  36  27  37  40  41  42  46
 42  58  57  47  50  44  35  42  54  48  39  35  40  40  41  46  47  53  53  41  34  48  47  52
 87 101 112 125 133 137 139 139 136 134 135 138 138 138 137 138 131 125 125 120 119 121 119 113
109 109 104  98  98 101 105 105 100  93  83  77  74  63  61  72  76  66  35  31  30  30  33  35
 36  35  30  30  29  29  29  28  27  27  27  28  28  40  43  41  37  31  27  29
 50  46  41  39  52  45  31  36  50  48  36  34  35  38  40  42  44  51  53  43  32  45  49  48
 85 102 110 121 131 135 139 140 137 134 132 134 137 137 134 135 139 140 138 134 130 124 119 116
113 109 100  97  97 103 109 107  97  90  84  78  73  64  64  71  76  65  33  30  30  31  29  34
 36  35  32  29  29  29  30  29  28  26  27  28  27  31  38  38  35  31  31  30
 36  37  41  44  55  43  28  33  43  50  41  35  33  31  34  41  43  50  54  45  32  41  49  44
 77 103 111 119 128 132 137 139 138 134 132 132 135 136 136 135 137 140 140 138 133 124 120 114
109 105  98  98  99 108 111 107  98  89  84  78  73  66  67  73  77  64  31  30  29  28  29  34
 34  33  30  28  27  28  28  28  28  28  27  28  27  30  34  36  33  31  32  32
 46  42  41  43  56  45  26  32  39  49  44  37  33  32  33  37  41  49  52  46  33  36  46  41
 67 102 111 118 125 133 138 140 140 139 135 132 132 134 135 134 134 139 142 139 132 122 115 110
107 103 101 103 106 110 112 106  97  89  82  78  73  69  69  74  77  61  30  31  31  30  29  34
 32  30  28  26  27  28  27  26  25  26  27  28  27  30  33  34  32  31  31  33
 44  42  39  41  54  43  27  32  35  45  46  40  37  31  30  33  40  45  52  49  38  29  43  44
 52  93 111 117 124 131 137 141 144 144 140 132 131 131 134 133 129 128 131 127 118 113 110 110
106 101 101 106 109 111 111 106  97  89  83  79  75  71  73  77  75  57  28  32  30  28  30  33
 32  29  24  24  25  26  26  25  26  26  27  27  26  26  33  34  30  28  28  29
 41  41  36  39  50  39  27  28  31  40  44  42  42  33  30  31  35  43  50  47  44  29  38  43
 40  79 110 117 121 127 133 138 144 144 141 135 130 128 129 129 127 123 118 114 111 109 112 110
105 102 101 107 112 113 108 102  94  87  85  80  74  74  78  80  75  55  25  32  30  27  28  32
 31  27  24  26  25  24  24  23  24  24  25  27  26  27  30  33  29  28  28  28
 38  39  36  41  44  34  28  27  30  35  43  43  40  37  31  29  31  39  46  47  46  33  33  43
 42  54 103 117 118 122 127 135 142 143 141 136 134 127 127 128 125 123 120 118 116 114 111 108
107 104 104 109 112 112 107  97  90  88  85  79  75  77  80  79  77  51  26  32  29  27  29  32
 30  25  24  27  25  25  25  24  24  26  26  25  26  29  29  31  32  28  27  30
 37  38  38  44  39  32  28  28  30  33  40  42  41  38  31  29  29  37  47  47  44  41  29  39
 42  39  77 114 116 119 122 127 137 139 138 138 136 132 128 127 124 122 118 117 119 114 109 107
105 105 109 115 113 109 103  94  88  89  88  81  77  79  82  77  75  45  25  30  28  27  30  33
 30  25  25  24  25  26  24  25  25  24  24  25  26  27  28  31  32  30  28  30
 37  37  38  42  36  30  29  29  29  31  37  45  43  40  34  30  30  33  43  49  47  45  33  32
 40  44  44 101 118 118 121 123 131 136 136 135 135 132 129 127 125 122 120 119 119 113 111 110
111 110 114 117 111 106  98  90  88  89  88  83  78  80  80  76  71  37  28  31  29  26  31  33
 28  25  25  25  27  28  25  25  25  25  26  26  26  27  29  29  30  29  30  31
 40  37  36  37  32  28  28  29  32  32  36  43  45  43  37  32  32  34  42  51  45  45  39  29
 37  43  37  67 116 120 118 122 126 133 132 131 132 132 130 126 124 124 122 121 120 116 115 115
115 114 115 114 110 104  95  87  89  92  89  82  80  82  79  75  65  31  31  31  27  26  32  30
 26  26  26  24  25  27  26  26  26  28  28  27  28  27  26  28  29  28  29  30
 38  35  35  34  30  29  29  28  27  31  35  41  42  41  38  32  31  35  41  47  47  49  44  29
 36  41  43  38  96 121 117 120 124 130 132 130 130 128 130 125 125 124 121 119 119 119 117 117
119 119 117 113 109 101  93  88  90  93  88  81  79  80  76  73  57  26  31  31  27  27  31  29
 25  24  25  24  25  26  25  25  25  27  28  27  28  28  26  27  29  28  28  28
 38  38  38  34  32  31  28  27  26  31  35  37  44  46  38  33  30  34  39  45  50  47  48  37
 33  39  43  42  62 113 118 118 121 126 128 128 130 130 130 126 124 122 122 122 121 120 119 120
122 121 119 114 107 100  91  89  91  93  88  82  79  78  74  70  47  24  30  30  29  28  31  30
 26  25  26  25  27  29  25  25  25  26  25  27  28  28  28  27  28  28  29  29
 37  39  42  40  34  31  26  26  27  29  33  37  44  43  38  33  32  35  39  44  46  50  50  41
 31  37  42  47  38  89 118 116 121 125 126 127 129 129 127 126 123 122 120 122 121 118 118 120
123 122 118 113 107  99  89  89  91  90  88  81  78  74  71  65  38  25  28  30  29  30  33  32
 28  26  27  26  28  27  25  25  25  26  26  27  29  30  27  27  27  29  29  28
 34  36  38  38  34  29  28  29  29  30  35  38  42  46  39  32  33  36  37  42  43  50  49  40
 32  33  41  47  46  57 110 118 120 123 125 125 128 128 124 123 123 122 121 119 119 117 119 122
124 123 111 114 108  97  89  88  89  87  86  81  76  71  68  59  32  28  28  26  27  29  31  28
 26  27  28  27  28  28  26  25  27  26  27  27  28  30  27  28  28  29  29  29
 33  36  41  41  34  28  27  30  29  30  31  36  41  43  38  32  34  37  35  38  43  45  47  47
 39  31  36  42  46  37  85 115 118 120 123 124 125 124 123 123 123 121 122 120 120 118 122 124
123 124 117 111 103  93  90  86  86  86  85  80  75  73  69  53  26  30  30  27  26  29  30  27
 26  28  27  26  29  29  29  27  27  26  25  28  28  30  28  29  28  29  29  29
 35  36  40  40  37  27  26  30  29  29  31  34  41  42  38  33  31  37  37  40  42  45  48  47
 43  33  34  41  42  43  55 106 118 119 121 123 121 120 121 121 120 118 120 119 120 121 121 123
123 122 119 113 105  95  88  85  82  83  83  82  77  76  72  46  27  28  30  27  29  29  29  27
 25  27  27  28  28  27  29  29  26  25  27  29  28  28  29  31  28  26  27  28
 36  39  39  37  33  27  27  29  29  31  33  38  43  42  36  33  33  37  38  40  40  41  46  50
 44  34  34  38  40  46  38  84 113 116 118 120 117 117 118 117 115 114 117 117 120 121 120 122
121 120 118 113 105  95  88  87  84  83  84  84  82  81  70  32  28  28  29  28  30  31  29  27
 28  30  28  26  27  30  29  27  27  27  28  27  29  29  28  27  28  29  29  30
 36  37  37  35  34  30  26  27  28  32  35  35  39  43  38  31  33  37  39  41  38  40  43  48
 44  38  34  36  41  40  39  56 104 112 115 118 116 116 118 113 112 113 117 117 118 121 120 121
118 118 115 111 106  98  92  90  89  90  91  90  88  84  60  23  30  28  30  27  32  32  29  30
 29  27  26  24  30  32  29  27  26  26  27  30  31  29  26  28  29  30  30  27
 35  39  41  37  35  29  25  27  27  29  33  37  40  44  37  32  31  37  40  41  44  41  42  45
 46  43  37  33  41  39  40  34  82 109 112 114 115 113 114 111 108 109 113 116 116 118 120 116
114 115 114 112 109 103  94  92  91  92  92  92  91  84  45  26  30  29  29  29  33  32  29  29
 28  25  27  31  32  30  27  29  27  23  25  27  27  29  29  31  32  29  29  28
 41  41  35  37  35  30  26  26  30  32  32  37  39  41  37  31  31  35  39  41  42  40  44  47
 45  44  42  34  38  41  41  34  53 100 111 113 113 111 112 110 106 108 111 113 115 117 115 113
111 112 113 113 111 107  97  94  95  94  94  92  91  75  27  29  29  30  28  28  30  32  30  29
 27  27  29  31  30  29  28  30  28  27  26  26  25  28  30  28  30  31  31  28
 43  42  38  39  40  32  27  24  27  28  33  35  36  42  39  31  32  38  40  40  40  40  41  45
 47  46  39  39  37  39  40  41  31  81 110 113 110 110 108 106 105 107 110 111 112 111 111 111
110 111 111 114 111 111 105  98  99  95  95  92  90  58  21  30  31  29  27  31  33  33  31  30
 29  29  29  28  31  32  28  28  29  30  29  26  29  31  31  29  30  30  29  27
