P2
# 8-bit pgm - grayscale
92 112
255
174 174 174 173 173 173 172 171 170 170 170 170 170 169 169 169 169 169 168 168 167 166 166 164
163 162 162 162 161 160 159 159 158 158 157 157 156 157 156 156 156 155 153 154 152 152 152 151
151 149 149 150 150 150 149 150 151 151 152 151 151 152 151 152 152 154 153 153 151 149 147 149
149 148 148 147 147 148 148 146 146 147 147 146 146 145 145 145 145 146 143 141
174 175 174 173 175 174 173 171 171 172 171 171 170 170 170 170 170 169 168 168 167 166 166 163
163 162 161 161 160 160 159 158 157 157 157 156 156 155 154 154 155 154 152 153 153 151 150 150
149 148 149 148 149 149 149 150 151 151 152 151 153 153 152 153 154 153 153 153 152 152 150 148
147 148 148 148 148 148 148 147 148 148 148 148 147 146 146 145 145 146 144 142
175 175 174 174 174 174 175 173 172 173 171 171 171 170 171 170 169 169 169 167 167 165 164 164
163 161 161 161 160 158 158 158 157 155 156 155 154 154 154 153 153 152 151 151 151 150 149 148
148 148 148 147 148 148 148 149 149 150 152 151 153 152 153 154 154 154 154 154 152 153 152 151
148 146 148 149 149 149 148 148 148 148 148 148 148 147 147 145 146 146 144 143
175 175 176 175 174 174 174 173 172 172 172 171 171 172 170 170 170 169 168 167 167 165 164 163
163 162 161 160 159 157 157 157 155 155 154 153 153 151 152 151 151 151 150 150 148 147 147 147
147 147 146 146 146 146 147 148 148 148 150 151 151 153 153 153 154 154 154 154 153 153 153 152
150 150 149 148 148 148 148 148 149 150 148 148 147 148 147 147 147 146 146 145
177 177 176 176 176 175 174 174 173 173 173 173 172 171 170 170 170 168 168 167 166 163 163 163
161 159 159 158 157 157 156 155 154 153 153 151 150 150 149 150 150 149 148 148 148 147 146 146
145 144 145 145 145 145 145 146 148 148 149 149 150 152 152 153 154 154 153 153 153 153 153 152
151 150 150 150 149 148 149 150 150 149 148 148 148 148 148 148 147 147 146 144
178 177 177 177 177 177 175 174 174 173 174 172 172 172 171 170 169 168 167 165 165 163 163 161
159 159 157 156 156 155 155 153 152 151 149 149 149 148 147 147 147 147 147 145 144 146 143 141
142 142 140 141 143 143 144 145 146 148 148 149 149 151 152 153 154 154 155 154 154 154 152 152
152 150 150 150 150 150 150 150 150 149 149 149 149 148 149 149 148 148 147 147
178 178 178 178 178 178 176 174 175 175 174 173 173 172 172 171 169 168 167 165 164 163 161 160
159 158 157 155 154 154 152 150 149 148 148 148 146 146 145 145 145 144 144 144 137 139 136 115
134 136 133 138 141 141 143 144 144 145 147 147 148 150 151 152 154 155 155 155 155 153 152 152
152 151 152 151 150 150 150 151 151 151 151 149 149 149 150 149 149 149 148 147
179 180 179 179 179 178 177 177 177 175 175 174 173 172 171 171 169 168 167 165 163 162 161 159
158 156 155 155 153 151 150 148 147 147 145 144 143 143 143 143 141 141 140 140 135 129 119  77
121 101 110 130 138 139 140 141 142 143 145 146 148 150 150 152 154 154 155 155 155 155 154 154
152 152 151 151 151 151 152 151 152 152 152 151 150 150 150 149 149 149 149 148
180 181 181 180 180 179 179 178 177 177 176 175 174 172 171 170 169 167 166 164 162 161 159 157
158 155 153 150 148 147 145 147 136 138 147 146 142 138 138 127 127 139 141 140 129 118 110  59
 89  80  75 108 118 135 134 138 140 140 142 145 146 148 150 151 152 153 154 155 155 156 156 155
154 153 152 151 152 152 153 152 152 152 151 151 151 150 150 150 151 151 151 149
182 181 181 182 180 179 179 178 178 178 176 175 174 172 171 170 169 167 165 164 161 160 157 156
155 154 153 152 142 135 143 130  85  73 100  92  72  56  57  48  60  84  86  77  72  52  60  55
 16  58  46  73  85 103  86 123 127 133 141 140 144 146 148 150 152 153 154 155 156 155 155 154
153 154 153 153 152 152 152 152 152 152 151 151 151 152 151 151 151 152 151 149
182 182 182 182 182 181 179 179 179 178 177 176 174 173 171 171 168 166 165 162 160 159 157 155
153 147 139 130 133 126 126  94  47  10   0   0   0   0   0   4   0   0   0   0   0   6  21  30
 27  30  18  38  54  76  51  87 103  90 131 137 143 144 147 149 151 153 153 155 155 156 155 155
155 154 154 153 151 152 152 152 153 153 153 152 152 153 152 151 151 151 151 149
184 184 183 183 183 182 180 180 179 178 177 177 176 173 171 170 168 165 164 160 159 156 153 152
150 131 103  82  76  86  54  25  29  32  26  28  22  21  20  18  21  23  24  22  21  21  16  21
 22  21  24  22  20  48  77  30  80  51  76 133 142 142 145 147 149 150 153 155 155 156 156 155
155 154 153 153 153 152 153 153 152 152 153 151 152 153 152 152 152 151 151 151
183 183 184 185 183 182 181 182 179 178 178 177 176 173 171 168 167 164 161 159 157 154 151 153
136 107  87  81  51  26  21  22  19  16  15  17  17  14  13  14  13  15  14  13  13  13  17  12
 18  14  14  21  25  11  59  37  59  69   4 121 142 140 143 145 148 150 151 154 154 155 155 154
154 154 153 153 152 153 153 153 153 152 152 151 152 152 152 153 152 151 152 152
184 184 184 183 183 182 182 182 180 179 179 178 176 173 171 169 165 162 159 156 154 153 132 119
 98  30   6  52  38  56  33  19  20  18  16  16  17  15  13  12  12  13  15  14  13  12  15  14
 16  17  13  13  19  25  27  27  46  67   0 106 138 136 141 144 146 148 150 151 152 154 154 153
153 153 152 152 151 152 152 153 152 151 152 152 152 151 152 152 152 151 151 150
184 185 184 184 183 183 182 181 180 179 179 178 175 173 169 168 164 159 157 156 145 124  63   0
  0  23  25   8  14  15  11  15  17  16  15  15  15  17  13  12  11  12  12  14  12  11  12  12
 12  18  14  14  15  19  19  23  18  36   0  90 132 131 138 141 144 145 148 150 152 154 153 153
154 152 152 152 152 153 152 153 153 152 153 152 151 151 151 151 151 151 151 150
184 185 184 184 185 184 183 182 181 181 179 177 175 172 168 164 164 163 150 116  70  11  18  32
 29  24  21  20  18  17  14  14  15  15  15  16  14  16  17   9  13  12  13  14  15  11  12  11
 10  17  14  14  18  15  19  22  17  29   0  83 129 126 138 138 142 144 147 149 152 152 153 153
153 153 152 152 152 152 153 153 152 153 153 151 151 151 151 151 151 151 152 150
185 185 185 185 184 183 183 182 182 181 179 177 174 171 170 162 145 114  73   0   0  22  21  17
 19  19  18  14  14  15  14  15  12  13  16  15  16  14  15  13  11  15  13  13  16  13  13  11
 10  13  14  17  18  14  20  18  16  27   2  65 116 118 136 136 140 142 145 148 151 152 152 153
153 153 152 152 152 152 152 153 152 152 153 152 152 152 152 151 150 151 150 150
185 185 185 185 185 184 183 182 182 181 180 176 174 173 142  89  33   0   0  31  26  20  21  19
 17  16  17  17  16  14  15  17  14  13  15  13  13  14  13  11   9  12  14  10  16  13  14  13
  9   9  15  20  18  15  17  18  18  23  20  24  79 121 134 134 137 141 144 147 149 151 152 153
154 153 153 153 152 152 152 153 153 152 153 152 152 152 151 151 152 151 150 150
185 186 185 185 185 185 184 183 182 181 179 176 178 159 105  83  52  51  41  22  31  25  19  18
 18  18  15  16  18  15  13  14  15  11  11  14   9  16  14  10   8   9  11   9  11  11  15  14
  8  10  15  16  12  17  11  17  18  23  23   9  51 125 128 131 135 138 141 144 148 150 152 152
152 153 152 153 152 152 153 153 154 153 152 152 152 151 151 151 152 152 153 151
185 186 186 185 185 185 184 183 182 182 180 174 165 156 129  85 100  93  79  61  30  25  21  20
 17  15  15  16  19  19  17  15  14  11   8  10  11  12  12  12  12   9   9  10  10  11  12  10
  9   8  10  12   9  13  12  17  16  22  20  21  24 111 126 125 130 135 138 142 146 149 151 152
151 152 152 153 153 152 152 153 153 153 152 151 152 152 152 151 152 153 153 152
185 186 186 186 185 185 184 183 183 182 181 177 176 163 121  70  59  62  39  40  37  22  20  20
 20  18  18  16  14  15  15  16  16  14  12  10  10  10  13  14  14  14  14  15  15  15  11   9
  7   9  11   8   8  11  11  11  18  18  16  24   0  65 116 123 127 131 135 140 143 147 149 151
152 153 152 152 153 152 152 153 152 151 151 151 152 152 153 152 152 153 153 154
187 187 187 187 185 186 185 183 183 183 181 179 157 111  62  41  43  39  28  24  24  19  17  14
 16  18  17  17  15  13  12  14  14  14  14  15  15  16  15  18  20  24  26  32  33  30  27  23
 19  15  11   9   9  10   9   9  15  12  13  17  22  11  77 112 126 126 131 136 141 144 147 150
151 151 152 151 152 153 152 153 153 153 152 152 153 153 153 153 153 153 154 152
188 188 187 187 187 187 185 185 183 182 180 172 148 105  67  54  49  35  27  17  15  13  12   9
  9  12  13  16  16  14  14  14  15  13  14  17  21  24  30  33  34  44  49  50  55  50  47  45
 40  34  28  23  17  11   9  10  12  10  11  15  18  15  27  60  92 117 127 132 137 142 145 148
150 150 151 151 151 152 152 153 153 153 152 153 152 152 153 153 153 154 154 153
188 187 187 186 186 186 186 184 183 182 180 166 114  94 106  90  78  68  22  21  17  13  15  17
 15  14  13  15  15  16  18  20  23  32  41  44  48  50  54  59  61  67  67  64  62  60  56  53
 52  49  45  40  32  23  16  10  11  11   9  13  14  15  18  11   8  93 125 128 137 140 144 147
148 149 150 151 150 151 152 152 153 152 152 153 152 152 153 153 153 153 153 153
189 189 188 187 187 187 186 185 184 183 183 171 160 168 159 114  37  21  22  20  21  21  21  19
 15  15  17  17  19  23  32  44  51  58  65  70  74  77  78  76  75  76  72  68  66  65  63  59
 56  56  54  51  43  38  30  22  16  12  11  11  11  13  20  16  32  69 108 128 133 137 141 145
147 150 150 151 151 150 152 152 152 152 153 153 153 153 153 153 153 153 153 153
190 190 189 188 188 188 187 186 184 184 181 179 177 168 115   5  30  28  24  23  21  19  16  18
 19  19  16  20  28  39  54  64  70  72  74  78  79  82  83  82  80  77  72  68  72  71  70  66
 62  61  61  59  54  50  43  34  26  18  12  13  12  12  20  22  21  36  95 120 129 135 139 143
146 148 149 150 151 150 151 152 152 153 153 153 153 153 153 153 153 154 155 154
191 191 191 189 189 188 187 186 185 184 183 180 177 141  27  29  23  22  24  21  19  19  21  20
 18  17  23  36  50  63  74  79  79  78  82  83  82  82  83  83  81  81  81  79  78  76  74  72
 69  68  67  67  65  59  53  47  42  33  21  16  13  11  17  20  16  17  65 105 124 132 138 141
144 147 148 150 150 151 152 153 152 152 152 152 153 152 153 154 154 154 154 153
190 191 192 190 189 188 188 187 186 185 183 183 176  85   1  38  46  36  18  24  19  21  22  20
 23  26  40  54  70  79  84  85  86  86  87  86  87  89  88  87  85  82  83  82  83  81  79  77
 73  73  73  72  70  67  61  56  53  47  35  22  15  13  14  20  20  11  31 105 121 131 135 139
144 147 148 150 151 151 152 152 152 152 152 152 153 153 154 154 154 154 154 153
191 192 192 191 190 189 189 187 187 185 183 184 139   0  38  13  51  33  25  22  22  25  23  21
 25  39  55  71  82  88  88  88  92  93  92  92  92  92  92  93  92  88  87  85  84  84  80  77
 76  76  78  74  73  72  67  63  59  55  47  35  22  15  16  14  20  13  38  98 120 128 133 139
144 146 149 150 150 150 151 151 152 152 152 153 153 154 154 154 155 155 155 154
192 193 192 192 190 189 189 188 187 186 185 178 108  38  33  80  53  25  29  23  24  23  21  22
 36  51  69  83  89  93  96  96  97  97  99  99  97  97  96  97  95  92  90  86  82  84  82  80
 79  77  77  76  76  74  71  67  63  59  53  45  35  21  16  13  17  19  22  83 110 126 133 139
143 146 150 150 151 151 151 152 153 152 152 154 154 154 154 154 155 155 155 154
194 193 193 192 191 190 189 189 188 186 187 181 150 102  94 119  39  30  27  22  21  23  23  29
 51  67  82  87  90  94  99 101 103 105 105 103 101  99  97  96  96  94  91  90  88  88  86  83
 81  81  79  77  77  75  74  71  65  61  57  51  44  29  18  16  16  19   7  73 116 125 132 138
143 147 151 151 151 151 152 152 153 153 154 154 154 155 155 155 155 155 156 155
194 194 193 193 194 191 190 189 188 187 187 183 180 170 153  98  18  34  24  22  22  24  25  45
 65  78  87  91  93  97 100 104 105 104 102 100  98  98  97  98  99  99  96  92  90  89  90  85
 82  80  81  79  80  77  76  74  70  65  61  57  51  41  24  15  16  16  14  45 101 122 130 137
142 146 151 153 152 152 152 153 153 155 155 154 154 155 155 155 155 155 156 156
195 195 195 195 194 193 191 190 189 188 187 186 187 186 174  98  51  31  25  22  24  24  29  58
 74  83  88  92  96  97  99 101 100 101 102 100  98 100  99 101 103 101  99  94  93  91  88  83
 82  78  72  71  73  74  72  72  70  68  64  60  57  49  30  18  16  15  18  14  79 118 130 136
142 147 150 153 153 154 153 153 154 155 155 155 155 155 156 155 155 156 156 155
195 195 196 195 195 194 192 191 191 190 188 188 187 186 181 129  53  28  28  22  25  27  41  71
 83  86  88  94  96  94  94  95  98 101 101 101 101 101 101 100 103 101 101  98  93  91  88  82
 81  78  75  70  70  70  70  70  67  67  67  65  63  54  37  25  21  17  20   6  65 116 129 135
141 146 151 152 153 154 154 155 155 155 156 155 155 156 156 156 156 156 156 155
195 196 196 196 196 195 194 193 193 192 190 189 188 187 187 140  46  41  26  24  28  29  51  81
 92  91  91  92  94  94  96  94  96  96  99 105 105 102 100  99 102 101  98  96  92  92  90  87
 84  80  76  74  71  69  69  68  66  67  68  69  66  59  45  30  24  20  21   7  50 106 126 135
142 148 152 153 152 154 154 155 155 155 155 156 156 156 156 156 156 157 156 157
197 196 196 197 197 196 194 194 193 193 192 190 189 188 186 148 111  44  29  31  31  31  56  84
 95  95  93  92  92  92  93  93  94  95  98 101  99  96  96  95  96  98  96  97  97  93  90  87
 86  83  78  74  70  67  67  67  68  69  70  69  67  63  48  33  24  22  20  22  16  89 127 134
141 147 153 154 154 154 155 155 155 155 155 156 157 156 156 157 157 157 157 157
197 197 198 197 197 197 196 195 194 194 193 191 190 190 188 176 138  27  35  34  31  34  60  83
 93  96  95  91  91  89  87  87  89  91  95  97  97  95  94  95  98  97  97  97  97  94  92  92
 90  85  83  80  77  72  69  68  67  68  70  71  68  66  55  36  26  22  21  24  13  57 116 135
141 147 152 155 155 155 156 156 156 155 156 156 157 157 157 157 157 157 158 156
198 199 198 198 197 197 196 196 195 194 194 192 191 191 190 190 164  68  24  35  30  40  60  85
 97  98  96  93  91  90  91  92  96  95  99 100 100  97  91  91  92  91  94  98  98  95  94  96
 95  93  89  87  85  81  76  74  69  69  71  72  71  68  61  45  26  21  21  24  23  29 102 133
142 148 153 155 155 154 155 156 156 157 157 156 157 157 157 158 158 157 158 157
199 199 199 199 197 197 197 196 196 195 194 194 193 192 191 187 182 118   0  39  30  39  59  87
100 102  98  93  91  98  99 102 105 103 101 103 103  96  89  85  86  90  92  94  94  96  95  93
 95  95  95  91  88  88  85  82  75  71  72  72  73  71  68  59  37  20  20  25  24  18  98 134
142 148 153 156 156 156 156 157 157 157 157 156 157 158 157 157 157 158 158 157
199 200 200 199 198 198 198 197 196 196 196 196 195 194 192 189 184 114   0  38  28  37  63  91
100 103 102 100 100 105 108 110 111 109 107 105 102  97  96  95  92  90  91  91  88  93 100 100
102 101  99  96  92  87  86  85  84  78  72  68  71  72  69  70  54  25  21  26  26   8  91 134
143 149 153 155 156 156 156 157 157 156 158 158 159 159 158 158 158 159 159 157
200 201 200 199 199 198 197 197 196 196 196 196 195 195 194 191 180  87  10  38  29  35  67  97
107 104 103 103 106 113 118 117 118 114 110 107 107 110 115 114 113 114 113 111 106 102 105 105
108 104 105 106 101  91  88  88  87  81  81  75  71  69  68  72  65  30  20  23  24  19  78 132
146 152 155 156 157 157 157 158 157 157 158 158 158 159 159 159 159 159 159 158
201 202 201 200 200 199 198 199 197 197 196 197 195 194 194 195 169  64  27  39  28  37  81 105
106 105 101 105 113 117 119 122 124 122 118 117 119 124 128 131 130 129 122 120 121 118 116 116
115 116 111 116 105  83  69  71  76  71  72  77  73  69  68  69  70  37  15  22  24  20  58 126
148 154 156 157 157 158 157 158 158 158 158 158 158 159 158 158 159 159 159 159
202 201 202 201 201 201 200 198 197 197 197 197 196 195 194 195 158  44  33  37  28  49  97 105
101 102 107 108 104 103 104 110 115 125 127 127 131 139 142 141 135 127 118 112 118 123 122 129
125 133 122  98  73  36  18  20  30  33  37  55  56  59  66  69  72  43  10  24  25  21  88 134
149 156 158 157 157 157 158 158 159 159 158 158 158 158 159 159 159 159 160 159
202 203 202 202 202 201 201 200 199 198 199 199 197 196 195 195 156  33  35  36  24  58 103 100
100 107  95  84  78  69  73  88  99 118 136 143 142 148 146 147 145 138 141 136 127 128 126 128
134 138 111  53  25  27  27  26  24  17  17  17  19  26  45  68  74  47   9  27  28   0  89 140
150 156 158 158 158 158 158 158 159 159 158 158 158 158 158 159 159 159 159 158
203 204 203 203 202 202 201 201 201 201 200 199 198 197 196 198 169  66  34  39  16  65 103  95
 94  72  41  36  30  22  23  33  48  58  88 134 147 144 151 145 129 126 141 142 113 107 123 129
137 125  80  21  22  17  26  27  28  29  25  22  27  29  31  55  75  50  12  29  26   8  78 140
151 158 160 160 158 158 159 159 159 159 159 159 159 159 159 159 159 159 159 158
204 204 204 204 203 202 202 201 201 201 201 200 199 198 197 198 181  93  16  43   8  66 105  88
 44  15  26  21  23  28  28  29  25  23  32  82 122 142 142 127 131 137 147 153 138 120 102 109
119  79  23  22  48  62  64  61  59  57  51  58  60  48  41  57  77  54  11  29  18  35 104 144
154 158 160 160 159 159 161 160 159 159 159 159 159 159 159 160 160 161 160 159
204 204 204 204 203 203 203 202 201 201 201 201 200 199 197 197 183  97  13  44   4  64 109  68
 33  47  57  53  44  52  54  41  31  10  29  27  72 139 145 146 152 140 127 121 122 128 121 107
 73  53  78 100 106 112 114 107  97  92  85  81  74  70  65  64  76  65  13  28  14  55 119 145
153 159 160 159 159 160 161 160 161 161 160 160 160 160 160 161 161 160 160 160
205 204 204 204 204 204 203 203 202 202 202 202 201 201 200 201 187 118  33  43   3  71 106  55
 60  78  86  95 106 106 110 110 106  91  70  59  52  99 135 136 141 147 146 134 127 117 103  88
 84  99 104  98  97 100  98 106 107 104  99  95  91  85  85  85  83  73  23  29   0  75 133 147
154 160 160 160 160 159 161 162 161 161 160 160 160 160 160 161 162 161 161 160
205 205 206 205 205 205 204 203 204 203 203 202 202 201 201 201 199 172  63  37  18  80 104  88
100 110 115 119 122 125 123 115 106 104  98  98 100 100 101 105 123 134 146 142 121 104  79  66
 79  80  60  72  49  28  86  37  51  72  85  88  90  91  94  94  85  78  37  26   0  91 142 148
156 160 160 160 161 161 162 162 162 162 161 161 161 161 162 162 162 162 162 161
207 207 206 205 205 205 204 205 204 204 203 203 203 202 202 201 203 198 104  22  31  83 111 115
120 120 111 110 109  91  62  85  78   3  80  75  78  80  88  95 124 130 126 122 113 100  77  51
 53  62  88 110  69  14  94  22  25  39  26  52  67  86  93  94  88  83  47  24   0  91 142 149
158 161 161 161 162 162 163 163 162 162 162 162 162 161 163 161 161 162 162 161
207 207 207 206 206 205 204 205 205 205 204 204 204 203 203 203 202 205 165  42  28  90 118 121
124 110  97  84  51  26   0  50  61  40  80  67  60  52  74  91 109 123 125 117 110 107  84  65
 46  41  66  62  62  53  45  54  57  64  56  32  49  73  89  93  89  86  56  22   0  82 143 151
159 162 163 163 162 162 163 163 163 163 162 163 162 162 162 161 161 161 161 161
208 209 208 207 206 206 205 205 204 204 204 204 204 204 204 203 203 205 183  64  22  98 123 125
122 102  68   0  40  68  71  86  92  89  89  81  81  94  83  69 107 105 107 115 106  97  92  66
 58  64  54  64  75  87 102  96  97  92  93  82  72  74  85  91  88  87  63  35  51  92 142 154
160 162 162 163 162 162 163 164 164 164 164 163 163 162 160 162 161 161 162 161
208 208 208 208 207 207 205 205 205 205 205 205 205 205 205 205 204 207 194  78  16 105 123 123
116 100  85  89 108 124 123 125 123 105 100  97  96  98  98 107 117 125 114 114  99 100  95  90
 62  57  68  71  78  86  98 106 108  99  88  84  81  84  86  89  89  88  67  44  71 103 147 156
161 164 163 162 163 164 164 164 164 164 163 163 163 163 163 163 162 161 162 162
209 209 208 208 208 208 206 206 206 206 206 206 206 206 206 206 206 206 203 120  18 109 123 121
116 117 119 120 114 117 128 129 117 106 103  99 101  89  93 126 124 128 124 109 107 107  95  95
 85  74  72  76  81  85  83  85  89  95  99  96  87  85  87  89  91  88  68  47  69 104 150 157
163 166 165 164 164 164 164 164 164 165 164 163 164 165 164 162 162 162 162 161
209 209 208 209 209 208 207 207 207 207 207 206 206 207 206 206 207 208 206 143  55 111 124 121
122 120 112 108 117 125 118 106 105 111 118 119 119 120 128 132 120 123 132 131 119 108  96  97
109  97  87  90  89  93  97  95  90  90  91  92  96  93  90  90  90  88  72  45  66 111 154 159
164 166 166 166 165 165 164 165 165 165 165 165 165 165 164 162 162 162 162 161
210 209 209 209 209 208 207 207 207 207 206 206 206 207 208 208 208 208 208 143  67 113 123 120
117 115 116 121 122 114 112 120 126 125 127 128 126 133 142 139 115 116 121 119 115 102  90  94
111 107 106 109 102  94 100 101 102 101 100  98  97  95  92  91  91  92  73  46  81 135 156 161
165 166 166 166 165 165 165 166 165 165 166 166 165 165 164 162 162 163 162 161
210 210 210 209 209 208 208 207 207 207 207 206 208 209 209 209 209 208 213 163  72 117 124 120
118 123 124 124 122 125 130 129 126 126 132 140 145 140 134 130 110 101 103 103 102  92  82  86
103 105 115 127 120 104 102 103 102 105 107 102 101  97  96  93  91  92  82  71  97 147 155 163
167 167 167 167 166 166 167 166 166 165 166 166 166 165 165 164 163 163 163 162
211 210 210 209 209 209 208 208 208 208 208 208 209 209 209 209 210 209 212 197 118 115 125 123
125 125 128 127 129 136 135 129 129 133 138 152 155 118  94 111 109 101 105 111 101  96  88  77
 80  72  77 116 131 121 112 108 107 108 109 107 106 102  97  96  93  91  91  84 106 152 159 166
168 168 168 168 167 167 167 167 167 166 167 167 167 166 166 165 165 164 165 164
210 210 211 210 209 208 208 209 209 208 209 210 210 209 210 211 210 211 210 212 159 114 127 126
126 128 130 131 136 142 139 137 138 141 148 158 131  78  83 101 108 111 116 118 116 107 103  85
 76  72  59  72 119 132 123 117 116 112 109 109 107 103 100  98  95  91  87  83 112 156 162 168
170 169 168 168 168 168 168 169 169 168 167 167 167 167 167 165 165 165 165 165
210 211 212 211 210 210 210 210 210 209 210 210 210 210 211 211 211 211 211 213 167 119 127 128
130 131 132 136 137 140 138 143 149 146 150 147 101  88  97  96 114 129 133 134 130 116 108  99
 80  84  80  64  96 129 132 130 124 117 111 110 108 104 101  98  96  92  75  73 119 159 164 169
170 169 169 169 169 168 168 169 169 169 168 167 168 167 166 166 166 166 165 165
211 211 211 211 211 211 211 210 210 210 210 209 210 211 211 211 211 211 211 214 171 122 127 128
133 134 135 140 140 142 145 147 152 149 147 133 105 114 118 116 131 142 149 152 142 127 115 104
101 101  97  85  91 125 133 137 131 122 116 113 108 106 102  99  96  91  74  78 127 162 165 169
170 170 169 168 169 169 169 168 169 169 169 168 168 168 167 166 167 167 166 165
211 211 212 212 211 211 211 211 210 210 210 210 211 211 211 211 211 212 211 216 178 114 127 129
134 138 139 141 144 147 149 154 154 151 146 136 127 135 154 152 142 155 162 164 173 157 125 113
122 129 117 105  99 129 135 139 136 128 122 115 109 106 104 100  95  89  85  79 137 166 167 170
171 170 170 169 169 170 169 169 169 169 169 169 169 168 168 168 168 168 168 167
211 211 211 211 211 211 211 211 210 210 210 211 211 211 211 211 212 212 212 216 192 122 127 129
133 138 143 144 145 150 154 157 155 150 142 143 128 116 130 153 149 160 170 170 191 198 148 123
120 111 108 104 113 131 138 139 138 133 124 115 110 105 102  98  95  85  89  99 152 165 169 171
171 171 171 170 170 170 170 170 170 170 169 169 168 168 168 168 168 168 167 167
210 210 211 211 211 211 211 211 211 211 211 210 211 210 211 212 212 212 212 215 204 137 129 130
134 140 145 145 147 152 155 157 157 146 140 156 144 119 101 123 145 166 183 178 169 168 146 119
 91 110 115 110 124 123 134 142 142 137 127 118 113 104 100  98  92  85  83 117 162 167 170 172
173 171 171 170 171 170 170 170 170 169 169 169 169 168 169 169 169 168 167 166
211 211 211 211 211 211 211 210 210 210 210 211 211 211 211 212 212 212 212 212 214 166 126 130
135 139 147 148 150 156 159 160 155 141 143 156 157 128 136 129 120 149 168 170 154 156 148  86
 88 126  99 111 127 121 126 143 145 140 130 120 112 105  99  96  91  78  87 145 165 167 171 173
173 172 171 171 171 170 170 170 170 170 169 169 170 170 168 168 169 168 168 167
210 211 211 211 211 211 210 210 210 210 210 210 211 211 211 211 212 212 212 212 215 194 122 127
134 139 145 150 153 159 162 160 155 140 142 148 147 122 109 131 121 136 156 151 154 166 127  88
111 100  87 115 119 114 119 141 149 145 137 123 112 105  99  93  85  76 138 163 164 168 172 173
174 172 172 171 171 171 170 171 170 170 170 170 170 170 169 168 169 168 169 167
210 211 211 211 211 210 210 210 210 210 210 210 210 210 211 211 211 211 212 212 212 213 161 117
134 138 142 148 153 159 161 161 156 139 137 135 136 115  96 128 139 142 139 141 149 137 105 122
117  95  90 106 100 104 105 127 149 149 138 128 114 103  97  91  79  86 154 161 165 170 171 173
173 172 172 171 170 171 171 171 170 171 170 170 170 169 168 169 169 169 168 166
210 210 210 210 210 210 211 211 210 210 211 210 210 210 211 211 211 211 212 213 212 216 190 111
132 136 143 149 155 161 165 164 150 125 125 116 129 117  97 120 128 135 140 134 132 124 121 119
103  97  91 102 104 102  97 104 142 146 138 130 115 102  93  90  77  93 155 163 168 171 172 173
173 172 171 170 171 170 170 171 170 170 170 170 170 169 170 168 168 168 166 167
210 210 210 210 210 211 211 211 210 210 210 210 211 211 211 211 211 212 212 213 213 215 195 112
128 135 142 150 155 161 164 165 147 119 134 137 131 138 120 110 123 117 129 142 133 123 127 124
108 101 101 120 121 117 109 104 134 143 140 131 116 101  91  85  73  99 159 165 169 171 173 173
172 171 171 170 171 170 169 170 170 169 169 169 169 169 169 168 168 167 167 167
210 210 210 210 211 211 211 211 210 209 210 210 210 210 211 211 211 212 212 212 213 215 205 126
122 132 141 147 155 159 162 163 141 130 152 155 157 159 156 135 140 144 132 126 119 117 130 133
127 122 130 145 130 134 129 106 127 141 136 129 114 101  94  86  72 112 164 166 170 172 173 173
172 171 171 170 170 169 169 170 170 169 169 168 169 168 168 168 169 168 168 167
209 210 210 210 211 211 210 210 210 209 210 210 210 211 211 211 212 212 212 212 213 213 212 137
115 130 136 142 153 159 162 158 138 146 159 162 175 176 174 169 155 161 159 141 136 153 152 141
143 142 152 154 145 144 139 119 123 138 133 126 111  96  87  87  73 127 167 166 170 172 173 172
171 171 171 170 171 170 170 170 169 169 168 168 169 168 168 169 169 168 167 166
209 210 209 210 211 211 210 210 210 210 210 211 211 211 211 211 211 211 211 212 212 213 216 150
107 130 136 139 150 158 161 159 154 158 154 151 168 169 154 151 141 135 142 145 147 141 127 119
123 122 124 134 142 130 124 133 122 137 130 120 107  92  86  86  75 142 168 167 170 172 173 172
172 171 170 170 169 169 170 169 170 169 169 169 169 169 168 168 168 167 167 167
209 210 210 210 210 211 211 211 210 210 210 210 210 210 210 211 211 210 210 211 211 211 217 173
106 130 134 133 144 155 160 161 157 157 140 141 136 113  97  94  99  99 105 110 104  98  98  93
 82  76  73  91 114 111 119 135 132 137 131 116 102  94  91  84  86 155 168 169 171 173 173 172
171 170 169 169 169 169 169 169 168 168 168 168 168 169 168 168 168 167 167 167
209 209 210 210 210 211 210 210 209 209 208 209 209 209 209 210 210 210 210 210 211 211 215 195
115 126 126 128 139 152 159 157 153 152 152 136 126 126 123 114 111 111 107 102  96 101 104  97
 96 103 109 112 114 107 122 135 143 139 129 116 102  92  90  78 107 162 167 170 171 173 172 172
170 169 169 168 169 169 168 168 168 168 168 167 167 167 167 168 168 167 167 166
210 209 209 209 209 210 209 209 209 208 208 209 209 209 209 209 209 209 209 209 210 210 210 210
138 113 126 127 135 150 156 160 163 159 155 145 141 139 145 149 145 151 149 135 129 131 135 134
133 129 123 116 112 116 122 137 148 140 127 111  98  93  83  68 134 166 168 171 172 172 172 171
170 168 169 168 168 168 169 168 167 167 167 167 166 167 167 166 167 167 167 167
209 208 209 209 208 208 209 208 208 207 207 207 207 208 208 206 207 207 207 208 207 207 206 212
172 105 125 129 133 144 154 162 167 163 153 150 149 148 156 165 170 169 170 165 161 162 161 157
152 142 131 123 121 118 120 134 147 141 127 109  93  89  80  84 152 164 169 172 171 172 171 169
168 168 167 167 167 167 166 167 166 166 166 166 166 166 166 167 167 167 167 166
209 208 209 208 207 207 208 207 207 206 206 205 206 206 205 205 205 205 205 205 205 204 205 206
198 124 115 127 132 138 152 161 162 158 153 150 151 155 165 170 171 170 159 158 157 155 156 150
147 143 135 130 124 119 117 126 142 139 125 106  93  88  75 120 159 163 170 170 171 170 169 168
167 168 167 167 166 166 166 167 165 165 165 166 166 166 166 167 167 166 166 165
208 208 208 207 207 207 207 206 206 205 205 204 204 204 204 203 203 203 203 203 203 202 202 200
205 166 108 131 131 132 146 159 162 156 152 145 150 154 163 166 165 162 149 142 135 140 149 149
148 143 135 129 123 118 114 128 137 132 118 102  92  85  83 139 157 163 169 170 169 169 169 167
167 167 167 165 165 166 166 166 167 164 164 165 166 166 167 166 166 166 165 164
207 207 206 207 207 206 205 204 204 203 204 203 202 202 202 202 201 201 200 199 198 197 197 195
193 178 116 116 128 131 145 151 160 157 149 143 143 148 155 159 158 155 149 128 125 131 138 146
146 142 134 126 121 114 117 128 126 124 114 100  94  74  95 143 155 163 168 168 168 168 168 166
165 165 164 164 165 165 165 165 166 165 165 166 165 165 165 166 165 164 163 163
206 206 206 205 205 206 204 203 202 202 203 202 201 201 200 199 197 194 193 189 186 182 180 179
173 164 130 107 124 131 143 150 154 157 148 144 141 146 151 153 153 151 140 129 130 126 127 134
137 136 130 124 117 118 120 121 123 120 110  98  86  74 102 142 154 162 167 166 167 166 164 164
163 163 163 163 162 162 164 164 164 164 164 164 165 164 163 164 164 163 162 161
207 206 206 205 204 204 202 202 201 200 200 200 200 198 195 192 188 183 177 172 167 162 157 154
148 137 122 109 113 131 142 149 153 155 153 148 144 144 149 150 142 135 137 137 134 135 133 129
128 132 131 123 121 120 120 118 118 113 104  92  79  75 102 136 150 160 164 165 165 164 163 163
162 162 161 160 161 161 162 162 163 163 163 163 163 163 163 163 162 162 162 162
207 207 205 204 203 202 202 199 199 197 197 195 193 191 188 181 173 165 158 151 144 137 131 127
121 111 104 118 104 122 132 144 153 153 155 147 144 146 145 145 138 139 136 137 140 136 128 122
119 123 125 122 122 121 124 116 117 112  97  85  76  83  98 125 139 151 158 160 162 162 162 162
160 160 160 159 159 160 160 161 162 162 161 161 162 163 162 162 162 162 161 161
205 205 205 203 202 201 200 197 194 191 188 184 180 178 174 165 155 144 137 129 120 111 101  94
 94  72  86 120 119 111 119 132 145 148 147 144 138 145 144 138 133 127 119 128 135 129 122 114
102 104 120 121 125 122 123 123 115 104  92  82  80  87  94 112 122 133 138 143 149 153 156 157
156 158 159 158 158 157 158 159 159 159 159 160 160 161 161 161 161 160 161 160
204 204 203 202 201 200 196 192 186 179 173 167 165 161 156 146 136 125 113  99  78  64  52  64
 68  62  97 117 129 125 112 123 137 147 155 144 133 139 139 130 122 116 119 126 119 117 110 104
 89  88 109 125 127 122 117 115 111  99  85  75  87  88  88 100 107 112 120 125 131 136 140 142
144 147 150 153 154 156 156 157 158 158 158 158 158 159 159 159 160 160 160 160
203 202 201 200 200 196 191 184 174 165 158 152 147 143 136 129 108  76  55  47  48  40  51  65
 57  75  99 116 127 137 116 106 131 141 150 140 133 144 143 125 109 125 126 121 113 110 106 107
 98  91  88 107 123 120 107 103  98  91  74  86  92  88  81  81  88  96 102 108 113 118 123 125
127 131 134 138 144 149 153 155 156 156 156 156 157 158 157 157 158 159 159 158
201 200 199 196 193 189 183 171 159 150 143 137 130 125 118  87  36  41  49  52  55  42  55  61
 56  77  99 115 126 136 135 102 110 137 150 139 120 136 139 117 104 120 124 105 112 109 106 108
115  97  86  85 101 108 101  96  83  79  79  93  91  86  74  67  62  63  79  91  95 100 103 107
111 116 120 124 128 134 141 147 151 153 154 155 155 156 156 156 157 158 157 156
198 197 193 189 184 179 168 159 148 133 117 108 105  96  73  38  42  54  54  51  55  40  51  58
 55  76  99 114 125 133 144 126  96 121 140 129 116 128 116 100 103 114 113 109 107 108  93  96
108  95  87  78  92  96  90  88  72  70  92  95  91  83  76  79  78  70  51  50  64  71  83  92
 98 103 106 110 113 119 127 134 138 142 148 151 154 154 155 154 155 156 156 155
192 190 185 180 173 164 156 138 100  65  43  49  55  50  43  43  43  51  54  53  56  39  48  55
 54  73  96 111 123 130 140 146 116  97 119 118 112 112 103  99  96 107 104 103 103 102  88 103
104  92  89  86  91  90  87  82  60  84  98  95  89  82  76  81  83  82  79  56  38  48  44  51
 69  80  88  93 101 107 113 120 126 131 133 139 145 149 152 153 154 154 154 153
184 181 175 167 162 154 133  64  26  51  51  47  55  56  48  39  44  48  52  55  56  40  46  54
 51  67  92 110 123 130 136 146 144 101 100 120 113 102 109 104 103 107 104  99 101 100 102 101
 88  93  95  93  92  78  77  71  72  96  99  96  89  82  77  82  88  86  85  82  54  45  44  36
 38  37  44  52  67  88 102 109 113 118 123 127 133 140 142 146 149 152 153 151
175 170 168 159 138 105  67  39  52  59  53  38  48  56  47  41  44  48  52  53  56  39  43  53
 50  59  88 109 122 130 136 142 149 137  96 112 114 107 106 113 109 102 103 113 114 108 107  97
 85  92  96  88  88  81  68  65  92 100  97  94  88  80  75  81  86  88  89  89  74  40  41  39
 40  46  41  38  42  48  69  86  98 107 112 116 122 127 131 137 141 146 148 149
168 164 143 103  61  50  56  45  45  53  55  41  42  54  52  45  45  48  51  54  58  41  39  53
 52  55  86 105 120 129 137 143 144 148 126  93 106 103 100 103  90  93 109 112 105  95  91  86
 81  83  91  89  90  83  59  81 102  99  97  93  88  81  75  78  84  88  89  90  84  50  37  39
 34  43  44  41  39  44  46  47  55  75  97 109 113 117 123 128 133 137 139 142
146 113  66  42  44  55  53  38  41  49  58  43  38  45  53  53  44  42  45  54  57  44  35  49
 53  53  87 104 117 127 134 141 143 144 146 117  76  93 112 105  82  87 104 100  84  87  85  77
 81  92  92  93  90  61  78  99 103 103  99  92  87  82  77  78  84  87  89  90  86  56  35  40
 32  39  47  42  38  35  40  50  52  40  45  66  95 112 115 119 125 130 133 134
 50  34  45  49  46  57  53  36  37  46  54  46  34  39  48  50  48  46  44  51  56  49  35  44
 53  51  84 104 114 125 134 140 143 146 146 142 109  76  93 103  96  86  94  92  83  88  93  79
 86  90  80  75  69  79  96  99 104 103  99  90  85  81  78  79  85  86  88  91  87  61  34  38
 32  33  44  43  39  35  36  37  48  52  47  34  37  73 104 115 117 121 125 128
 43  44  47  51  50  57  48  33  34  42  52  49  34  36  43  47  49  47  43  50  56  52  36  39
 49  46  80 105 111 122 134 140 142 146 147 145 141 125  98  80  88  99  97  84  92 100  90  80
 75  83  68  70  92  99  97 101 105 104  97  88  82  80  79  81  86  87  89  89  86  62  36  36
 33  32  41  41  41  38  37  35  36  44  50  47  41  26  51  90 106 114 118 120
 45  43  44  46  47  56  51  33  31  39  49  51  38  35  39  43  47  48  47  48  54  55  41  32
 47  44  70 104 111 121 128 136 141 146 147 145 139 138 132 120 111 107  93  83  83  79  76  72
 73  80  94 105 102  95  99 104 107 101  95  89  84  81  81  84  86  89  91  91  86  63  36  36
 33  32  40  42  42  41  36  37  35  36  42  46  45  44  34  30  54  75  94 110
 44  44  42  42  43  52  52  36  30  36  42  51  41  31  35  41  44  45  44  46  52  53  49  31
 40  45  51  96 114 120 124 134 140 144 145 143 139 136 134 134 132 128 121 118 114 114 115 113
112 113 110 105  97  99 101 108 109 101  93  88  84  82  84  87  89  91  92  92  86  63  35  34
 32  29  36  41  40  43  39  37  34  36  38  41  46  45  42  40  35  38  46  59
 44  45  44  40  38  43  50  40  28  30  36  46  44  32  34  37  42  44  45  46  49  50  52  38
 36  45  41  78 113 119 124 134 138 144 145 144 144 138 134 133 130 130 129 126 124 123 122 119
114 108 106 103 101 104 107 108 108 101  92  88  85  85  88  90  93  94  94  93  85  62  34  33
 31  29  34  41  39  38  40  38  34  34  34  36  40  45  44  39  38  39  43  47
 42  41  40  38  35  39  44  38  29  31  35  42  44  35  29  36  39  42  43  45  48  50  48  47
 33  42  42  51 101 121 124 129 137 142 143 145 144 140 135 129 126 127 126 124 123 120 116 111
110 109 107 103 102 106 109 109 106  99  90  88  88  87  90  93  97  96  94  93  83  60  34  34
 32  28  34  41  38  36  37  36  36  34  32  32  35  40  42  42  41  40  37  39
 39  38  39  36  36  41  43  38  31  31  34  39  46  41  32  32  36  42  43  43  47  50  50  49
 38  33  43  41  71 118 125 124 131 136 140 146 144 140 136 130 125 124 123 121 121 121 117 112
112 110 108 106 103 107 110 109 103  95  90  90  89  88  92  96  98 100  97  93  82  61  33  32
 33  28  32  39  38  37  35  35  37  36  33  32  35  36  39  43  42  42  42  39
 38  40  40  36  34  42  42  33  30  30  33  38  47  45  37  32  35  38  42  43  46  52  51  48
 44  32  39  43  39  94 124 122 126 127 134 139 141 137 136 134 129 124 122 122 119 116 116 116
110 108 108 106 107 109 110 107 101  94  91  92  90  90  93  98 100 100 100  94  82  63  33  32
 33  28  31  37  40  38  35  35  38  37  33  31  33  35  37  39  40  40  40  39
 37  39  40  33  34  40  38  32  30  31  33  36  43  45  38  33  34  37  42  44  47  51  50  50
 50  37  36  43  41  50 108 125 124 125 128 134 137 137 136 134 131 127 122 121 118 116 116 115
110 109 108 109 110 116 112 104  97  92  92  95  94  93  94  97  99  98  96  90  82  62  31  32
 31  30  33  37  41  39  35  36  39  34  34  32  32  32  33  36  36  37  40  39
 35  36  38  37  35  37  37  33  32  30  29  34  43  43  40  34  33  35  38  42  46  49  53  50
 49  45  35  44  43  41  65 119 125 125 128 132 135 134 132 133 133 130 125 125 124 120 117 117
114 114 116 115 115 117 110 102  95  91  94  98  95  94  95  96  97  96  92  86  79  57  31  32
 32  29  34  39  41  38  35  35  35  34  35  33  33  32  34  33  35  37  38  39
 35  39  39  39  39  38  38  35  31  29  28  33  39  47  44  37  33  35  36  41  44  50  50  50
 50  51  38  38  44  44  40  83 123 125 128 130 134 133 132 131 130 131 128 127 125 123 121 120
120 118 119 119 117 114 109 102  95  94  98 100  97  94  94  95  94  92  88  84  76  52  29  33
 32  28  34  39  37  35  36  37  36  34  35  32  32  31  31  32  35  35  37  36
 37  37  36  38  40  40  37  34  32  30  28  32  39  46  43  40  35  35  38  40  43  48  47  50
 54  50  40  33  43  47  50  45  96 126 127 131 132 133 131 129 133 132 128 127 124 123 123 121
121 120 122 122 119 114 109 101  95  96  99 100  97  93  93  91  89  86  84  81  74  48  29  33
 31  28  34  38  37  37  36  37  34  33  37  34  33  33  31  31  33  34  35  35
 32  34  33  34  37  38  35  31  31  33  32  33  34  41  46  41  38  34  37  42  41  44  48  50
 49  49  47  37  36  45  48  47  51 108 127 131 132 132 129 130 132 129 129 125 124 123 125 124
120 121 123 124 120 115 108 102  96  96  99  99  96  91  89  88  83  81  80  80  71  43  28  31
 32  29  34  38  37  35  35  36  34  31  34  34  32  32  32  33  34  34  34  34
 35  34  34  34  39  41  40  33  30  33  32  33  33  37  45  41  37  36  37  41  39  41  46  48
 48  50  51  45  35  40  47  49  45  70 121 129 132 132 130 131 130 128 126 126 123 123 124 122
120 121 123 124 119 112 111 105  98  95  97  97  92  88  85  83  81  80  80  80  70  37  31  31
 31  30  35  38  39  38  39  38  35  33  36  32  33  33  34  34  33  35  33  31
 38  32  33  35  37  37  36  32  30  34  34  35  35  39  45  45  38  36  37  41  42  41  45  49
 49  49  49  48  37  38  45  46  53  43  91 128 129 133 130 130 129 126 125 125 124 125 125 124
123 125 126 126 121 112 110 104  98  95  92  91  89  87  83  80  83  83  82  82  65  31  31  32
 28  31  36  38  38  36  38  37  35  33  35  32  32  31  32  32  32  33  32  30
 45  39  34  33  35  35  35  33  31  33  33  37  38  37  43  42  40  34  38  41  42  41  42  44
 46  48  50  49  43  37  43  46  47  49  51 108 127 130 128 125 126 125 127 125 124 125 126 125
124 126 128 125 124 120 112 105 100  95  92  90  89  87  86  85  85  86  88  83  56  29  31  32
 28  29  34  38  38  36  37  37  35  34  34  31  29  31  34  30  32  34  33  33
 46  44  38  34  36  38  37  33  33  33  33  34  38  39  41  44  43  35  36  40  43  44  44  44
 46  46  47  48  50  42  37  45  45  48  42  73 117 124 123 122 122 124 124 121 121 123 122 124
122 122 124 123 122 121 116 107  99  94  92  89  88  91  92  90  91  92  92  80  44  31  31  32
 28  32  36  38  38  38  35  35  34  34  35  32  31  34  32  31  33  35  34  34
 44  46  43  40  34  34  37  33  31  33  39  38  38  40  41  43  41  36  35  39  42  42  45  45
 43  47  47  47  49  48  41  42  46  46  47  40  93 119 122 119 120 121 119 118 120 121 121 122
123 122 123 120 121 121 116 108  98  94  93  92  94  95  96  95  98  95  91  70  31  33  31  31
 28  30  33  36  37  36  36  35  36  36  32  32  34  33  31  31  32  34  35  33
 47  47  42  40  37  35  36  35  31  33  37  37  40  40  39  42  42  37  39  42  45  44  42  43
 44  46  49  46  49  49  45  42  44  46  49  42  55 108 120 118 116 117 115 116 115 119 119 119
122 121 121 118 118 119 119 115 105  97  95  96  96  97 100 100 100  97  88  53  31  35  29  29
 29  33  35  36  36  39  36  36  36  33  30  32  33  32  31  32  34  34  34  33
 47  47  44  41  40  38  38  36  32  33  34  37  38  40  40  44  40  35  38  42  46  43  44  43
 42  43  46  47  49  49  46  46  42  44  47  47  40  79 112 116 114 114 114 113 114 117 117 119
117 119 119 116 116 118 120 119 112 105  99  99 102 102 103 102 100  97  79  38  32  32  33  30
 31  32  34  35  37  40  37  34  33  33  32  33  33  33  34  33  34  33  34  34
