P2
# 8-bit pgm - grayscale
92 112
255
190 190 190 190 189 189 188 185 183 182 182 181 181 181 180 179 177 176 174 173 174 170 170 170
170 169 170 168 166 167 167 166 165 164 164 163 163 163 164 163 162 162 161 162 160 159 159 159
158 158 158 158 157 157 158 157 156 156 156 156 156 155 154 154 154 153 152 152 151 150 150 149
149 148 148 148 146 145 144 145 145 145 144 142 143 142 141 141 141 140 139 137
190 190 190 190 190 189 188 185 185 185 182 182 182 182 181 179 178 175 175 174 172 172 171 171
171 170 170 169 169 168 168 167 166 165 165 165 164 164 164 164 162 162 162 162 161 161 160 160
160 160 159 158 158 158 158 157 158 157 157 157 157 157 155 154 154 154 153 152 151 151 150 149
148 148 148 148 147 147 146 146 145 144 144 143 142 143 142 141 140 140 139 137
191 191 190 190 190 189 189 187 185 185 184 183 183 182 182 180 178 177 175 174 173 172 171 172
172 170 170 169 168 168 167 166 166 165 165 165 164 164 164 164 163 163 162 162 161 161 160 160
160 160 159 159 159 158 157 158 157 158 157 157 157 157 157 156 155 154 154 153 151 151 150 149
150 149 149 148 148 145 145 145 143 142 143 141 140 142 142 141 141 140 139 137
191 191 191 191 190 189 189 187 185 185 184 184 184 184 183 181 178 177 176 175 174 173 171 171
171 171 170 169 168 168 168 166 166 165 165 165 164 164 164 163 163 162 162 161 161 161 160 159
159 159 159 159 159 159 158 158 158 157 158 158 158 157 157 156 156 155 155 153 152 151 150 150
150 150 149 148 148 146 146 146 144 144 145 142 142 139 140 141 141 139 139 138
191 191 192 191 191 190 189 188 186 185 184 184 183 183 183 182 179 177 177 176 175 174 173 172
171 171 171 169 169 169 168 167 166 165 165 164 163 164 163 162 163 162 161 161 161 160 159 159
158 159 158 158 159 159 159 158 158 157 158 158 157 158 157 157 156 155 154 153 152 152 151 150
150 150 149 149 148 148 147 146 145 146 144 143 144 143 142 141 140 140 140 138
192 193 193 192 192 191 189 189 187 186 186 185 184 183 183 182 180 178 177 177 176 174 173 172
173 171 170 170 169 168 168 166 166 165 165 164 163 163 162 162 163 161 160 160 159 159 159 158
157 158 159 158 158 158 158 158 158 157 157 158 158 158 158 157 156 155 155 153 152 152 151 151
150 149 150 149 148 148 148 147 146 145 144 144 145 143 143 144 141 139 139 138
193 193 193 193 192 192 191 189 188 187 186 185 185 184 184 182 180 179 177 177 176 175 174 174
173 171 171 170 169 168 166 166 165 164 164 164 163 162 161 161 161 160 160 160 159 159 157 156
157 156 158 157 157 158 158 158 158 157 158 158 158 158 158 157 156 155 155 154 153 152 152 151
150 149 150 150 148 148 147 147 147 146 145 145 144 144 143 143 143 141 139 137
193 194 193 193 193 192 191 190 188 187 186 186 185 185 184 183 180 179 178 177 177 175 173 173
173 172 171 170 169 167 166 166 165 164 164 164 162 162 161 161 160 159 159 158 158 158 156 156
157 156 156 156 156 157 157 157 157 157 158 158 158 158 157 157 157 156 155 155 153 153 153 152
151 151 150 150 148 148 147 147 147 147 146 145 145 144 144 144 144 143 142 140
194 194 194 194 193 193 192 191 189 188 186 186 185 185 184 183 180 179 178 177 176 175 174 173
172 172 171 170 169 167 165 165 164 164 162 162 162 161 160 160 158 158 158 157 157 158 157 155
156 155 154 155 155 155 156 156 156 156 157 157 158 157 158 157 155 156 155 154 154 153 153 152
151 150 149 150 150 148 148 148 147 146 147 145 145 145 145 145 144 142 143 142
194 194 194 195 194 193 193 191 190 188 188 187 186 186 185 183 182 180 179 178 176 175 174 173
173 172 171 170 168 167 165 164 163 163 162 161 160 160 159 158 158 157 156 156 155 156 156 154
154 153 154 153 154 154 154 155 155 156 155 155 156 156 156 156 156 156 155 153 153 153 153 153
152 151 151 151 150 149 148 148 147 146 146 146 146 145 145 145 144 144 143 142
195 196 195 195 195 194 193 191 190 189 189 188 188 186 186 185 182 180 180 178 177 175 174 173
173 172 170 169 168 166 165 163 162 161 161 160 159 158 158 157 156 154 154 154 153 153 152 151
152 152 151 152 153 153 152 153 154 154 154 154 154 155 155 155 155 156 154 152 152 152 152 152
152 151 151 151 150 150 149 149 148 148 147 147 146 146 145 146 145 144 144 142
196 197 197 197 197 195 194 192 190 190 189 188 187 186 186 185 184 181 179 178 178 176 175 174
173 173 170 169 167 166 164 162 162 160 159 158 157 156 156 155 154 152 152 151 151 150 150 150
149 149 149 149 150 150 150 152 152 152 152 152 152 153 154 154 155 155 153 153 153 153 152 152
153 152 150 152 151 149 149 150 148 148 148 147 147 147 146 146 146 145 144 143
197 197 197 198 197 196 194 192 191 191 190 189 188 188 187 186 185 182 181 180 178 177 175 174
173 172 170 168 167 165 163 162 161 159 157 156 156 155 154 153 152 151 150 148 149 149 148 148
147 147 147 147 147 147 147 149 148 149 149 150 150 151 151 153 154 153 153 153 153 152 152 152
152 151 151 151 151 149 149 149 148 148 148 148 148 147 147 147 146 146 145 144
199 199 198 198 197 197 195 193 192 191 190 190 189 189 188 187 184 182 181 180 180 178 176 175
173 172 170 168 166 164 162 161 159 157 155 154 153 152 151 150 150 148 148 146 145 145 145 144
144 144 145 144 144 144 144 146 147 146 148 148 149 149 149 150 151 152 152 153 152 152 152 152
151 151 151 151 150 150 150 148 147 148 147 148 148 147 148 147 147 146 147 143
199 199 199 199 199 198 197 194 192 191 191 190 189 189 189 188 186 183 182 181 180 178 176 175
174 171 169 167 164 163 160 158 157 156 154 153 152 153 152 145 141 146 144 146 147 146 146 145
137 136 130 136 140 141 141 142 142 143 145 146 146 146 148 149 150 151 151 151 153 153 152 151
151 150 150 150 149 148 148 147 147 148 148 148 148 148 148 148 148 147 147 144
200 200 199 200 199 198 197 196 194 192 192 191 191 190 189 188 187 184 183 182 181 179 177 176
173 171 168 166 163 161 159 157 154 152 152 150 134 122 124 137 128 110  91  93 119 116 120 131
128 127 106 108 129 130 138 136 139 140 141 142 143 144 146 147 149 150 150 152 152 152 151 152
151 150 149 149 148 147 147 147 147 147 147 147 147 148 148 147 147 148 147 144
201 201 201 200 200 200 199 196 194 193 192 191 192 191 190 189 187 184 183 182 181 179 177 175
172 170 166 162 160 158 155 154 153 151 143 134 112  90  76  72  67  28   1   0   0   0   0  34
 48  78  83  66 101  82 111 126 134 138 137 137 139 140 142 145 147 150 149 150 150 151 151 151
150 150 149 148 148 148 148 147 147 147 147 146 147 147 146 147 147 147 146 145
201 201 201 201 201 201 200 197 195 194 194 193 192 191 191 190 187 185 184 182 181 179 176 173
171 168 164 161 156 155 156 133  98  91  77  50  49  47  43   7   0  21  32  27  22  30  29  10
  2   0   0  16  42  37  47  71  96 119 131 136 135 136 140 141 143 146 148 149 149 151 150 150
150 150 150 149 148 148 148 147 147 146 146 145 145 145 145 145 146 146 146 144
202 202 202 202 201 201 200 197 196 194 194 193 193 192 192 190 188 186 184 182 181 178 175 171
170 164 155 152 137 112 101  60   3  24  10  13  25  20  26  24  22  17  14  16  18  16  18  20
 21  21  24  20   5  15  29  19  36  54  87 128 126 129 136 138 140 144 146 148 150 150 150 150
150 150 150 149 148 148 147 147 145 144 145 144 145 144 145 145 145 145 145 144
202 203 202 202 202 202 200 197 197 195 194 193 193 192 192 190 189 187 184 182 181 178 174 172
158 116  79  56  37   0   0   4  26  30  33  22  17  17  17  18  18  16  16  15  17  17  18  17
 16  16  14  18  18  17  14  21  21  38  43  89 101  83 125 131 135 143 144 147 150 150 150 150
150 149 149 149 148 148 147 146 144 144 145 145 145 146 145 144 144 144 145 144
203 203 203 203 202 202 201 199 198 195 194 194 193 192 192 191 189 186 184 183 180 178 173 166
153 123  72  55  27  21  31  24  22  20  15  18  18  19  16  15  18  16  14  14  15  15  17  17
 17  15  13  15  18  15  15  17  15  32  48  31  77  38  84 113 124 142 143 145 148 149 149 149
149 149 149 149 149 148 147 146 146 146 145 145 145 146 145 144 144 145 144 144
202 203 204 203 203 202 201 199 198 196 194 194 194 192 192 192 190 187 185 183 179 177 170 165
148 120 106  99  87  41  23  22  20  20  20  18  17  16  17  16  16  19  17  12  13  13  16  18
 17  16  14  14  19  14  14  14  17  15  36  20  53  58  27  92 114 138 143 144 146 148 148 148
149 148 148 147 148 148 146 146 145 145 145 145 145 145 145 145 144 145 145 144
204 205 204 203 203 203 201 199 197 196 195 194 194 193 193 192 189 188 186 183 179 175 167 153
129 118 111  87  68  54  14  19  20  17  18  20  19  16  15  16  16  16  19  15  11  13  13  16
 16  14  13  13  17  17  13  14  15  15  18  22  27  40  28  74 109 128 139 142 145 147 147 147
148 148 147 147 147 147 146 146 145 146 145 145 145 145 145 145 145 146 146 143
204 204 204 203 203 204 202 199 198 196 196 195 194 193 193 193 190 188 186 183 176 157 129 100
 79  65  38  40  32   0  17  14  15  16  14  17  18  19  17  14  12  12  14  15  13  11  11  11
 16  13  12  12  13  17  15  14  16  17  16  18  22  34  25  68 103 120 136 139 143 145 146 147
147 147 147 146 147 146 145 146 145 144 145 145 145 144 144 144 144 144 145 143
204 203 204 203 203 204 203 200 198 197 196 195 194 194 193 193 191 188 185 182 173 152 117  90
 56  31  34  24  20  19  14  12  10   8  10  11  11  14  17  16  14  12  12  11  11  12  10  10
 13  13  12  12  11  14  15  13  16  17  18  18  19  29  19  65  99 114 135 136 141 144 144 145
146 145 146 146 146 145 145 145 144 144 144 144 144 144 144 144 144 144 144 144
203 203 204 203 204 204 203 201 199 198 196 195 195 194 194 193 191 188 184 182 171 150 146 136
 96  36  21  21  17  14  12  10  10   9   9   9  10  10  11  13  13  12  12  12  12  11  12  13
 12  12  11  10  10  12  14  13  13  15  17  17  19  25  20  57  84 116 132 134 140 143 142 144
144 144 145 145 144 144 144 143 144 143 143 143 142 143 144 144 144 144 144 143
205 205 206 205 204 204 203 201 200 198 196 196 195 194 194 193 191 188 185 179 175 172 141  92
 40  23  24  21  19  18  17  17  16  14  12  11  10  11  11  10  11  10  14  15  16  18  15  19
 19  18  20  21  18  10   9  10  11  11  11  14  18  21  21  41  83 121 127 132 136 139 140 142
142 142 143 144 143 143 142 142 143 142 141 142 141 143 144 144 144 144 143 143
205 206 206 206 205 204 203 201 200 199 196 196 195 194 194 194 191 188 183 182 157 101   0   0
 23  25  22  19  19  21  18  16  15  16  13  12  12  12  15  20  26  33  36  43  48  49  46  46
 43  43  46  43  42  35  24  14   7   9  10  13  15  19  22  34  88 118 122 128 133 136 138 140
140 140 141 142 142 142 142 141 141 141 141 140 142 142 142 142 143 144 143 143
206 207 207 207 206 205 205 202 201 200 198 198 196 194 195 194 192 188 186 146  44   0  32  33
 23  19  17  17  18  19  18  17  18  16  16  16  19  25  31  41  51  58  62  63  67  68  69  70
 68  65  62  56  53  50  44  37  26  11   9  13  12  16  21  27  76 101 114 122 130 133 135 137
139 140 140 140 141 141 140 140 140 141 141 141 140 141 142 142 142 144 143 143
208 208 208 208 207 207 206 204 201 201 200 198 197 196 196 194 192 191 144   0  23  35  26  20
 21  20  19  20  19  20  20  19  18  19  19  28  37  48  58  65  71  71  71  71  73  72  73  73
 73  70  66  60  58  56  51  49  44  36  18   9  12  12  19  27  48  87 114 120 126 130 134 137
139 140 139 140 139 139 139 138 139 140 140 140 140 141 142 142 143 143 143 142
209 209 209 208 209 208 207 205 203 201 201 200 198 197 197 196 193 183 121  81  33  50  26  24
 22  21  22  21  17  18  18  20  22  28  42  51  58  71  76  79  78  78  80  80  78  77  76  76
 74  74  71  70  68  64  60  56  52  50  41  24  10  13  18  13  55  96 108 112 125 129 133 137
138 139 139 139 139 139 139 139 139 139 139 139 140 141 141 141 143 143 142 142
209 209 209 208 209 209 208 206 204 203 202 201 200 199 198 197 194 182 174 136  79  60  20  25
 22  22  18  14  15  18  18  20  30  46  61  65  76  83  86  87  85  84  86  86  85  84  82  80
 79  80  75  74  72  71  66  62  59  56  52  45  26   9  15  11  40  68  79 105 123 128 133 138
139 138 138 140 141 140 139 139 139 139 138 139 140 140 141 141 142 142 142 141
211 211 210 210 210 209 208 207 205 204 202 201 201 200 199 197 193 190 178 142  82   9  29  24
 21  15  16  17  19  19  22  29  49  64  70  79  86  89  92  91  93  92  91  92  93  91  89  85
 85  83  81  78  75  72  70  66  65  64  60  55  47  25   9  15  23  55  90 114 122 128 133 137
139 139 140 140 140 141 140 140 139 139 139 138 139 140 140 141 142 142 141 142
212 212 211 211 210 210 210 208 207 205 203 202 202 201 200 198 194 173 142  93  14  23  25  25
 16  17  20  21  20  23  28  44  64  71  78  86  91  90  91  94  94  96  97  96  95  94  91  88
 87  87  84  81  79  76  73  69  67  66  65  61  56  47  22  12  23  37  87 110 121 128 133 136
138 140 141 141 141 141 140 139 138 138 138 138 140 140 140 142 143 143 143 142
213 212 211 212 212 212 210 209 208 207 204 204 203 202 201 200 178 160 122  23  28  21  23  22
 18  22  21  20  23  25  34  57  70  77  83  87  86  89  93  94  96  98  98  95  96  92  91  90
 89  88  86  85  81  79  76  72  69  68  66  64  59  55  43  16  20  34  78 106 117 126 133 136
139 140 141 141 142 140 140 139 138 138 138 139 139 140 141 142 143 143 144 143
213 213 213 214 213 213 212 210 209 207 205 204 203 203 202 201 192 149  79  59  30  24  19  21
 23  22  21  21  23  27  37  62  79  87  86  85  85  91  94  91  92  94  96  94  93  93  93  91
 89  89  88  86  85  80  77  74  72  68  66  65  62  57  52  37  23  22  55 104 117 125 132 137
140 141 141 141 141 140 140 139 139 139 139 139 140 140 141 142 142 143 144 143
214 213 213 215 214 214 214 212 210 208 206 205 204 203 203 203 190 152 111  54  27  23  18  20
 25  21  21  23  28  31  44  69  83  92  94  90  89  89  90  89  91  93  92  91  89  94  92  86
 84  86  89  85  83  80  77  74  70  65  62  63  63  60  54  49  29  20  40  91 117 125 132 137
140 141 140 141 141 140 140 140 139 138 139 139 140 141 141 142 143 144 144 143
214 214 213 215 215 216 214 213 212 210 208 206 205 204 203 202 199 158  72  42  28  25  19  22
 24  21  23  25  29  33  48  63  78  93  96  94  91  88  86  88  90  90  89  86  87  89  87  84
 81  82  87  86  83  82  79  76  71  65  62  61  60  59  56  56  44  22  26  92 118 124 132 137
140 141 142 141 141 140 139 139 139 139 139 139 140 141 141 142 144 144 144 144
216 215 215 216 216 217 216 215 213 211 208 207 206 205 204 203 199 181 117  25  26  25  20  22
 24  26  24  25  29  35  47  64  78  90  95  94  93  90  86  86  82  81  82  83  83  83  84  86
 82  79  82  83  83  82  81  80  77  67  63  61  59  58  57  59  54  30   3  69 117 125 132 138
140 142 141 141 141 142 141 140 140 140 140 140 140 141 141 141 143 144 144 144
216 215 216 217 217 217 217 216 213 212 210 209 207 205 205 205 202 198 133   0  32  24  22  22
 24  24  23  24  28  38  51  63  76  92 100 100  98  91  87  82  83  86  86  88  87  81  80  84
 81  78  79  81  84  82  82  77  76  71  65  60  60  58  57  62  60  36  26  27 106 129 133 139
141 141 142 141 141 142 141 141 141 140 140 140 140 140 141 142 143 145 145 145
217 217 216 217 217 218 218 216 214 213 212 211 208 206 206 205 203 198 151  18  29  25  22  23
 23  21  21  24  29  37  52  63  82  93 101 103 101  94  91  90  93  94  92  94  94  90  83  86
 88  86  84  85  86  83  83  79  72  72  68  63  60  60  61  62  63  41  27  27 104 131 133 139
142 142 143 142 141 141 142 143 142 141 141 140 141 141 141 143 144 145 145 144
218 217 218 218 218 218 218 217 215 213 212 212 209 207 207 205 203 199 154  15  30  25  23  23
 22  21  22  23  26  37  47  68  92 102 107 105 101 100  98  97  98 102 103 104 108 106  96  95
 96  92  92  92  89  90  87  89  83  73  72  67  65  61  61  61  65  47  21  41 105 130 134 141
142 143 143 142 142 141 142 143 142 141 141 141 142 142 142 142 144 144 144 144
219 218 219 219 218 218 218 217 216 213 212 212 209 207 207 206 203 200 149   0  31  22  24  23
 22  24  23  23  30  38  59  88 103 108 107 105 100 100  99  99 108 110 109 108 107 110 106 104
108 103 102 102  97  95  99 100  95  81  81  78  67  64  62  63  69  57  21  39 116 132 136 141
143 143 143 143 142 142 142 143 142 142 142 141 142 142 143 143 144 145 145 144
219 218 219 219 218 219 219 218 216 213 212 212 210 208 207 205 205 197 122   0  33  21  24  24
 23  24  22  27  33  50  89 106 106 102  98  99 102 105 104 103  98  90  88  93  94 106 117 118
121 114 113 114 109  99 106 106 105  97  86  85  63  62  66  65  70  64  18  55 119 134 138 142
144 144 145 144 143 143 144 144 144 144 143 142 142 142 142 143 144 145 145 145
220 220 220 219 219 219 219 218 216 215 213 212 212 209 208 206 208 186  78   4  29  21  25  25
 25  22  23  30  32  76 106 107 104  94  98 103  99  89  73  63  53  39  42  54  58  54  85 120
129 125 119 126 123 104 106 115 111 109  79  53  38  38  53  63  68  67   5  74 127 133 139 143
144 144 144 144 145 145 144 144 145 144 143 142 142 143 143 144 144 145 145 144
220 220 220 221 220 219 219 218 216 215 213 212 212 210 208 207 208 187  84   1  30  22  25  27
 24  22  28  26  42  95 109 106  94  89  94  68  34  21  17  21  26  23  24  21   9  34  41  83
127 131 121 129 129 109  94 111 110  96  50  23  17  16  23  41  58  66   0  83 130 133 140 144
145 144 145 145 145 145 145 144 144 144 143 142 142 143 144 144 144 146 146 145
221 220 221 221 220 220 220 219 217 216 215 213 212 212 209 207 208 192  92   0  32  23  26  29
 25  26  29  18  68 106 108 107 101  90  53  39  46  52  60  41  27  33  31  30  27  31  33  38
117 141 135 132 131 115  92 102  83  40  18  22  23  21  20  19  25  50  11 100 132 134 140 144
146 145 145 146 146 145 145 145 145 144 144 143 144 144 145 145 145 146 145 144
222 221 221 221 222 222 221 220 218 217 217 215 213 212 210 210 209 198  99   0  34  25  24  28
 27  28  28  27  84 106 109 108  96  64  45  70  84  88  87  90  86  82  84  78  79  82  84  82
116 142 143 138 125 110  94  83  50  47  45  36  25  21  20  21  25  31  46 118 131 136 141 145
146 146 146 146 146 146 146 146 145 144 144 145 144 143 144 145 145 146 146 145
222 222 222 222 222 223 222 221 219 218 217 216 214 212 212 211 211 200 105  12  34  28  26  25
 26  30  25  41  92 107 111 102  87  92 100 107 114 115 117 116 113 107 103  98  93 102 112 114
118 132 139 140 129 111  91  67  65  73  79  80  74  64  56  50  49  34  70 124 130 136 141 145
146 146 146 147 146 147 146 146 146 146 145 145 145 143 144 144 144 145 146 145
223 223 223 223 223 223 222 222 221 219 217 216 214 214 213 212 210 206 166  45  29  31  30  27
 26  29  22  54 100 109 112 107 117 123 124 121 114 112 110 102  88  76  69  71  78  90 106 116
117 120 131 130 124 105  83  54  55  64  68  78  86  85  80  75  68  54  85 124 130 137 143 146
146 147 148 147 146 146 147 146 146 146 145 145 145 144 144 144 144 145 145 145
223 223 224 224 224 224 222 223 222 221 219 217 216 215 214 213 210 211 190  78  21  35  32  29
 27  29  20  64 104 112 114 119 126 129 122 104  96  84  59  37  40   9  79  81  63  70  93 112
112 112 119 119 110  94  79  49  51  43  44  42  39  58  73  77  78  74 104 124 131 138 143 146
147 147 146 146 146 146 147 147 146 146 146 146 145 144 144 144 144 146 146 145
225 224 225 225 225 225 224 224 222 221 221 218 217 216 215 214 213 210 204 139   0  41  33  31
 30  30  20  74 109 116 119 126 131 128 112  87  54  29  42  32  31  47 101  86  58  59  78 100
101 107 112 113 105  89  80  59  54  19  57  52  16  54  41  61  75  80 109 124 131 138 143 146
147 147 147 147 147 147 147 147 146 146 147 146 145 144 144 144 145 146 146 145
225 225 225 225 226 225 225 225 223 221 220 218 217 216 215 214 214 211 207 162  29  28  32  31
 32  30  27  86 112 116 121 126 127 117 103  82  77  81  78  70  66  75  71  76  77  83  98  98
100 106 108 111 108  96  83  71  39  46  36  20  55  76  39  31  69  79 109 125 130 139 144 146
147 148 148 147 148 148 148 147 147 147 147 146 145 144 144 145 145 146 146 145
225 225 225 225 226 226 226 224 224 222 220 219 218 217 216 215 214 212 210 182  57  58  43  36
 32  30  33  92 113 115 120 125 120 110 108 110 112 116 113 116 114 105  97  92  89  91  96  98
 99  97 106 113 111  99  87  80  51  51  68  62  58  56  61  53  64  77 108 125 131 138 144 147
147 148 148 148 149 148 147 147 147 147 147 145 145 145 144 145 145 146 146 145
224 225 225 224 225 226 226 224 223 222 220 219 218 218 217 215 214 213 211 191 120 103  58  52
 38  27  46 100 113 117 123 122 115 114 117 120 120 123 124 125 123 114 102  95  94  92  94 103
101 105 114 114 110 103  94  84  58  51  67  77  80  80  77  72  70  73 106 125 131 138 143 147
148 148 148 148 148 147 147 147 147 148 147 146 145 145 145 145 145 146 146 145
225 226 225 225 225 225 226 225 224 222 220 219 218 218 217 216 215 213 212 192 123  96 103 101
 49  24  63 110 114 119 123 122 118 117 116 118 119 122 122 121 121 117 110 106 104 105 110 108
109 114 115 109 108 104  93  85  65  58  71  79  83  81  79  77  76  73 104 126 131 139 144 147
148 149 149 149 148 147 147 148 147 146 146 145 144 145 145 144 145 146 146 144
225 226 226 226 225 226 226 226 224 223 221 220 219 219 218 217 216 214 215 189  98 102 132 114
 92  56  64 115 117 120 121 122 116 116 119 119 120 120 121 123 124 123 118 114 113 117 116 111
113 115 111 107 108 103  94  84  68  60  71  82  85  83  79  76  78  73 103 128 132 139 145 147
148 149 149 149 149 148 148 148 147 146 146 146 145 145 145 144 145 145 145 145
225 226 226 226 226 226 225 225 224 223 222 220 220 219 218 218 217 214 213 208 135  94 127 132
137  80  77 118 118 120 123 124 122 120 123 122 122 123 125 129 128 123 121 121 123 123 117 115
116 116 111 108 108 105  98  89  71  60  65  78  87  87  81  78  78  73 100 128 131 139 145 148
148 148 150 149 149 149 148 148 148 147 147 146 146 146 145 144 145 145 146 146
225 226 226 226 227 226 226 226 225 223 223 221 220 220 219 218 218 216 212 214 183 108 142 151
109 104 103 115 119 121 125 127 127 129 130 126 125 126 127 127 125 121 121 124 126 125 122 121
120 116 111 110 106 102 101  94  78  60  61  71  82  86  84  82  81  74  98 128 132 140 146 148
148 150 150 150 150 150 149 149 148 147 146 146 146 146 145 145 145 147 148 146
225 226 227 227 226 226 227 227 225 224 223 221 221 220 220 219 218 217 213 213 189 123 145 120
 99 128 107 113 120 122 126 129 130 131 130 128 128 130 127 124 120 119 123 125 127 125 125 127
121 114 116 112 104 100 104 101  88  74  61  71  79  81  82  83  84  76  99 129 134 141 148 149
149 150 151 150 150 150 149 149 148 147 148 147 147 146 146 146 146 148 147 146
225 226 227 227 227 227 227 228 226 224 222 221 220 220 220 219 218 217 213 214 188 124 133 106
106 135 111 106 121 123 127 129 133 131 128 131 129 127 123 122 121 121 123 125 128 130 133 125
106 104 107 106 105 103 108 106  99  86  69  67  80  84  82  82  83  78 101 130 135 142 148 149
148 150 151 151 149 148 149 148 148 148 148 148 147 147 147 147 148 148 149 149
226 226 227 227 227 228 228 227 226 224 222 221 220 220 219 218 218 217 213 214 196 123 111  86
 80 125 118 101 122 123 126 130 134 134 132 133 129 128 127 126 122 120 122 125 129 138 136 111
 96  95  96 101 111 115 114 118 115  99  78  66  81  85  85  84  83  76 103 131 137 143 147 149
150 150 150 151 151 148 149 149 149 148 148 148 148 147 147 147 148 148 149 148
226 226 227 227 227 227 228 227 225 223 222 221 220 220 219 217 218 217 214 212 206 139 125 104
 94 100 119 104 121 124 129 132 136 135 135 135 135 132 130 128 123 123 123 128 135 145 130 101
 99 105 111 118 127 128 129 129 127 119  95  70  85  88  85  85  84  76 109 133 138 145 149 151
151 151 151 151 151 150 149 149 148 149 148 148 149 148 147 147 149 149 150 148
225 226 226 227 227 227 226 226 225 223 222 221 220 220 218 219 218 217 214 211 213 164 123 141
146 146 128 103 120 125 132 135 137 137 140 138 137 136 133 131 132 129 129 135 141 145 122 107
125 137 146 145 140 147 158 142 131 129 102  80  93  93  88  85  84  76 113 134 138 146 150 153
152 152 152 151 151 151 151 150 149 149 148 149 148 147 147 148 149 151 152 151
224 225 226 226 226 226 225 225 224 223 222 220 220 219 219 218 218 216 214 212 212 202 140 144
155 159 137 104 116 124 133 137 139 140 143 144 142 141 143 141 140 140 135 136 139 142 125 119
143 140 126 130 136 144 160 144 128 119  92  94 102  99  93  88  85  79 119 136 141 146 150 153
153 152 152 152 152 151 151 150 149 149 149 149 149 148 148 150 150 151 152 151
223 224 225 225 225 226 225 225 224 223 222 220 219 219 218 218 217 216 214 212 210 213 193 141
138 150 123 102 116 124 133 139 142 144 148 147 147 147 150 147 146 144 139 133 134 138 131 120
129 106  62  84 112 137 142 129 121 107  89 105 108 104  96  90  84  82 123 136 142 147 150 151
151 153 152 151 151 151 150 150 150 149 149 149 149 149 150 150 151 152 151 150
223 223 224 224 224 225 225 225 224 222 221 219 219 219 218 218 217 216 214 211 210 208 210 196
160 154 132 102 112 123 133 139 142 146 150 150 149 150 152 151 150 144 142 137 132 132 131 124
117 123 133 138 129 124 125 112  99  86  92 104 108 104 100  92  84  85 128 138 144 149 151 151
151 153 153 152 151 150 149 150 150 150 150 149 149 150 150 150 151 151 151 150
223 224 224 224 223 224 224 224 223 222 220 219 219 219 218 218 217 216 214 212 210 209 207 209
207 207 172  99 113 118 132 139 143 145 150 153 152 153 155 153 152 148 141 133 128 126 125 127
122 118 135 138 140 131 108  91  76  76  88  95 104 105 101  93  84  88 130 139 144 149 151 152
153 152 152 152 151 150 150 149 150 149 150 150 149 150 149 150 150 151 150 149
223 223 223 223 223 223 223 223 222 221 220 219 218 219 218 218 216 215 214 212 210 208 208 206
205 207 178 101 113 121 131 137 143 147 147 153 154 156 157 155 152 146 136 130 127 123 120 115
112 113 127 121 126 127 110  94  73  76  81  89  95  99 100  95  83  93 133 140 146 149 151 152
151 151 151 151 150 150 150 150 149 149 150 150 150 150 150 150 151 151 150 150
223 223 223 223 223 222 223 223 222 221 220 219 219 218 218 217 216 215 213 210 209 208 208 207
205 206 185 105 114 125 128 135 143 147 151 153 154 157 158 154 150 141 136 132 126 117 114 109
104 116 123 114 113 112 104 101  75  70  69  76  89  94  95  95  81  98 136 141 147 149 150 150
150 150 150 151 150 149 150 150 149 148 149 149 148 149 149 149 150 151 151 150
222 223 223 223 222 222 222 222 222 221 220 219 218 217 217 216 216 215 213 210 209 208 208 207
204 205 189 114 106 120 126 132 142 148 151 154 155 158 157 154 145 141 132 123 112 113 114 116
111 126 133 126 106 105 114 102  86  72  67  69  76  85  91  94  81 105 140 142 146 149 149 150
149 149 150 149 149 149 149 149 149 149 149 149 149 149 149 149 151 151 150 149
222 223 223 223 223 223 222 222 221 220 219 218 218 218 216 215 215 215 213 211 208 207 206 206
203 203 193 125 105 121 123 131 142 143 147 151 155 156 155 152 143 133 118 127 130 140 131 138
137 140 143 137 110 118 135 114  96  88  86  84  78  78  89  92  79 114 142 143 148 149 149 150
149 150 149 149 149 149 149 149 149 148 149 149 149 150 149 150 151 151 150 148
222 223 222 222 222 223 223 222 220 220 219 217 217 216 216 215 215 215 213 209 207 206 204 204
203 204 193 134 103 119 126 133 141 144 147 150 153 154 154 150 144 131 134 152 154 158 153 149
144 136 128 128 124 128 122 107 102  98  98  99  98  84  87  91  77 119 143 144 148 149 149 148
149 149 149 150 150 149 149 149 149 150 149 149 149 149 150 150 150 150 150 149
222 222 222 222 223 222 222 221 220 220 218 217 216 216 216 215 214 214 211 207 206 205 205 204
203 202 194 143 107 113 123 129 135 141 143 146 153 155 154 150 143 145 150 149 144 144 130 116
111 109 106 106 105  96  89  87  85  81  87  94 100  94  89  86  82 131 144 146 148 149 149 148
148 148 148 149 149 149 148 148 149 149 149 149 149 150 151 150 151 150 151 149
222 222 222 222 222 222 221 221 220 219 218 217 216 216 215 214 213 212 210 207 206 204 204 203
202 200 196 149 120 101 119 127 128 135 139 144 151 154 155 153 151 148 137 118 100  90  81  86
 92  93  88  90  88  84  81  71  63  55  67  77  97 102  93  81  93 139 143 146 147 148 147 147
147 147 147 148 149 149 149 149 149 149 148 148 149 150 151 150 151 151 150 147
222 222 222 222 221 221 221 220 220 218 216 216 215 214 214 213 212 211 208 205 205 203 202 200
199 198 194 150 125 113 116 121 127 138 137 145 150 153 154 152 146 138 137 129 126 119 117 116
119 117 110 105  98  95  98  90  84  81  76  82 100 108  99  76 111 142 142 145 147 147 146 146
146 146 146 147 148 148 148 148 149 149 148 148 149 149 150 150 150 150 150 148
221 222 222 221 221 221 220 219 218 217 216 214 214 214 213 212 210 209 206 204 203 201 201 199
198 195 194 153 126 129 106 119 128 133 138 143 146 152 153 157 155 148 145 143 146 146 150 154
150 142 136 127 119 115 108 103 101  94  83  86 102 107  96  76 125 143 143 145 145 145 145 145
145 146 146 147 147 147 147 148 149 149 149 149 149 149 149 149 149 150 150 148
221 221 221 220 221 220 219 219 218 217 215 214 212 212 211 209 207 207 204 203 201 200 198 196
194 193 192 157 124 135 115 105 125 133 137 140 141 148 153 155 152 150 148 147 149 150 155 157
153 144 128 119 116 113 113 111 107  99  88  88  96  99  85  92 137 141 144 144 145 144 143 144
144 145 145 146 146 147 148 148 149 149 149 148 148 149 148 148 149 150 149 146
220 220 220 220 220 219 219 218 217 216 214 213 210 209 208 207 206 206 203 201 198 196 194 191
190 188 184 155 121 131 131 107 111 130 135 136 141 146 149 154 151 148 147 145 149 149 150 150
147 138 120 104  99 103 113 112 106  97  90  89  94  91  76 117 141 140 143 143 144 143 143 143
142 143 143 144 145 147 147 147 148 148 148 148 149 148 147 148 148 147 147 145
220 220 219 219 219 219 218 218 217 215 213 212 209 207 207 205 204 203 200 196 193 189 185 181
178 175 168 143 119 129 133 128 105 118 130 137 145 147 147 150 152 148 145 144 146 148 147 147
144 134 120 111 103 101 110 112 105  95  90  89  87  78  84 130 138 140 142 142 142 142 142 142
142 142 142 143 145 147 147 147 147 147 146 147 148 147 147 148 147 147 146 145
219 220 219 219 219 219 218 217 216 214 212 209 207 204 203 202 200 197 192 187 181 176 169 161
155 151 145 128 118 128 132 132 119 102 122 137 144 148 149 148 147 148 144 141 143 145 146 141
130 120 112 108 100  90  89  97 100  92  90  87  82  70  93 122 127 132 136 139 140 140 140 140
142 141 141 141 143 144 145 146 145 145 145 145 145 145 145 145 146 146 144 143
220 220 219 219 219 217 217 216 214 212 211 205 201 199 197 195 192 188 181 172 164 156 145 137
132 127 122 112 115 124 132 133 131 115 107 123 130 139 147 148 145 146 143 140 139 139 140 137
132 129 119 115 107  92  86  86  92  90  88  87  80  68  90 105 111 117 122 125 131 133 133 134
135 138 139 139 140 141 141 141 142 141 141 142 142 142 142 143 144 143 143 142
220 219 219 218 218 217 216 215 213 210 206 199 193 189 185 183 180 173 163 151 142 133 123 112
101  99  92  73 111 122 129 136 133 126 111 106 117 127 137 143 142 141 143 139 137 136 133 130
129 124 117 115 105  94  84  76  81  88  87  83  74  68  83  89  96 101 104 110 115 119 120 122
123 127 133 136 137 137 139 139 138 139 138 138 139 139 140 141 141 141 141 139
219 219 218 218 217 216 215 214 211 206 198 190 180 175 171 167 162 154 143 132 120 104  77  57
 47  67  57  81 110 120 128 136 136 129 120 106 100 112 127 138 138 141 141 142 140 135 132 125
126 120 116 112  97  88  77  73  74  77  79  74  57  50  67  77  81  84  89  94 100 105 106 109
111 115 120 124 128 131 135 137 137 136 136 136 137 137 138 138 139 138 138 137
218 219 218 217 216 216 213 210 205 198 188 177 166 160 156 152 145 136 120  91  68  52  38  38
 55  59  67  96 106 120 127 135 138 135 121 116 106  90 108 124 135 140 138 131 132 131 130 126
118 118 118 109  99  91  85  83  74  67  66  61  54  50  38  50  55  60  70  79  87  92  94  96
 98 101 107 113 116 120 124 129 132 134 135 135 135 136 136 137 137 137 136 135
216 216 216 216 215 212 208 203 195 186 173 162 154 147 141 135 130 110  55  39  47  46  40  44
 56  53  74  97 102 118 124 131 138 139 132 120 118 104  90 101 124 128 134 125 122 122 116 116
109 111 112 108  99  88  79  83  74  65  55  52  60  63  56  33  35  30  36  54  72  80  83  83
 85  90  94  99 104 109 114 120 125 128 131 134 134 134 133 134 134 135 135 134
213 212 211 210 210 206 200 192 183 171 162 152 136 126 127 118  99  53  34  54  56  48  38  44
 57  51  76  97  97 113 122 128 137 138 137 127 118 118 107  86  95 109 117 115 112 109 106 110
103 109 105  98  92  84  78  79  73  66  50  56  62  63  67  53  34  35  31  23  37  52  55  51
 49  68  82  89  93  97 103 109 114 120 125 127 128 130 129 130 131 131 132 131
209 207 206 204 203 198 190 179 170 160 124  85  58  53  67  60  45  45  46  52  53  48  39  41
 53  49  71  94  94 111 120 126 134 138 137 135 132 117 120 112  78  89 111 107 103 104 113 109
107 110 103  91  87  84  78  72  73  60  55  66  60  64  72  65  35  31  30  31  28  24  28  36
 33  26  43  57  71  86  93  98 105 111 116 119 122 123 123 124 124 125 126 126
204 203 201 199 197 193 183 170 151 109  40  41  48  39  48  50  50  45  46  52  53  48  39  41
 51  49  66  92  91 107 117 125 132 137 138 136 132 128 120 124 117  82  76  89  93  95 106 111
102 104 101  96  85  80  74  68  62  48  67  69  59  64  70  70  40  27  31  27  30  32  35  40
 35  32  34  32  30  46  78  91  96 102 108 112 114 115 116 117 118 120 120 119
199 200 201 198 188 159 129 109  65  48  50  57  56  35  38  47  46  42  45  52  51  47  39  38
 50  48  63  91  92 103 116 123 130 135 137 135 132 133 130 117 123 119  92  65  68  81  86  86
 85  93  88  77  72  64  60  53  55  70  74  67  58  62  68  68  44  26  30  26  28  30  34  37
 31  30  34  35  33  28  29  57  86  96  99 102 105 106 108 109 111 113 114 113
199 191 170 137  93  45  37  33  47  53  43  50  54  44  32  38  39  43  47  52  50  48  39  36
 49  45  56  90  94 101 111 122 130 134 136 136 131 131 131 124 123 124 124 112  86  72  63  60
 69  69  66  57  53  48  53  64  82  83  72  66  58  60  66  66  44  27  31  25  28  32  35  34
 30  29  31  32  30  30  31  19  44  78  89  96  98 100 101 102 102 105 106 105
120  84  34  14  42  55  51  42  45  47  34  41  53  51  34  31  36  42  46  49  51  49  40  34
 49  48  54  90  95  98 107 119 127 132 135 135 131 128 128 130 127 123 121 121 118 106  95  82
 74  71  71  70  68  79  88  93  89  80  70  66  58  60  66  64  43  27  29  25  27  31  34  32
 29  28  29  31  27  27  27  29  27  36  41  63  81  84  87  90  97  99 100 102
  0  24  47  54  49  40  37  39  47  49  35  32  43  50  40  31  31  37  42  48  50  50  41  32
 43  50  48  89  99  99 106 115 124 129 134 133 129 127 127 127 128 124 120 117 115 110 106 104
101  98  94  89  91  94  96  94  86  77  70  65  58  60  67  65  43  28  29  27  29  32  33  31
 29  27  28  28  26  24  24  25  27  31  35  36  39  38  35  39  53  62  63  69
 58  53  50  48  51  51  47  42  44  49  36  28  36  49  45  35  29  29  37  43  49  51  43  31
 39  48  42  77  99 100 107 113 122 128 132 133 131 128 126 127 127 125 121 116 111 108 107 105
101  96  91  91  97  97  98  95  85  75  69  64  59  62  67  64  39  26  29  29  26  30  33  31
 27  27  27  26  25  24  24  24  25  26  30  37  38  36  33  31  32  32  35  34
 49  49  49  46  42  43  44  41  43  45  33  28  33  41  47  40  32  26  32  38  46  49  46  34
 32  44  42  62  98 102 107 111 121 127 133 134 133 131 127 126 125 124 123 119 113 110 106 103
101  95  92  95 102 100 100  94  82  75  72  66  63  64  68  62  36  28  28  27  27  32  31  31
 26  25  26  26  24  25  25  25  25  26  29  33  35  33  35  37  38  38  39  40
 41  42  42  44  40  40  41  40  40  37  32  26  29  35  44  41  37  29  26  32  42  47  47  40
 26  39  44  44  89 104 108 110 116 125 130 134 133 132 127 121 119 119 119 116 114 112 107 103
101  97  96  99 104 103  99  92  81  76  73  67  65  69  69  59  34  29  30  28  28  31  29  26
 24  23  24  25  23  23  25  26  25  25  29  32  31  30  30  34  33  31  32  33
 39  40  38  38  40  38  38  40  38  32  30  27  28  32  40  40  38  32  26  27  37  45  48  44
 29  35  44  39  67 106 109 109 110 119 127 133 132 129 127 123 118 118 117 114 110 109 108 103
100  99  99 102 103 102  96  87  79  77  74  67  68  73  70  56  30  30  30  26  27  31  29  24
 19  22  24  22  22  22  24  26  24  24  28  31  28  27  28  30  29  30  31  31
 35  38  38  36  38  37  34  37  39  32  29  28  28  30  35  42  41  33  28  25  30  42  48  45
 37  30  39  43  42  94 111 110 108 111 122 128 130 129 128 125 122 119 114 111 110 110 108 102
100 101 105 107 106  99  92  84  79  78  74  69  72  74  71  54  27  30  29  26  26  29  26  20
 22  23  21  21  21  23  23  24  24  24  27  29  28  27  28  29  30  30  29  29
 34  38  37  36  37  37  33  35  34  29  28  28  29  30  34  44  45  39  31  26  27  36  48  48
 42  28  33  43  37  70 111 112 110 108 117 125 127 125 126 125 123 120 119 117 114 112 109 108
109 110 110 110 105  95  88  80  79  80  77  73  74  75  68  47  25  29  27  25  28  31  25  20
 22  22  24  22  22  22  22  24  24  24  27  28  30  28  27  29  29  30  30  28
 33  35  35  34  36  37  35  35  34  29  28  27  27  29  32  38  44  41  32  28  28  33  45  46
 47  35  28  40  42  41  98 116 111 110 114 122 125 123 123 123 123 120 121 118 115 115 115 113
116 114 110 109 102  92  85  81  82  81  77  75  75  74  64  41  27  31  28  26  30  30  23  20
 21  22  25  22  22  23  24  25  25  25  27  28  28  28  28  29  29  31  30  27
 33  33  35  35  36  36  36  37  33  29  27  26  25  28  30  33  43  41  33  29  29  31  40  49
 48  40  29  36  42  37  71 113 112 111 113 119 125 122 121 122 122 120 120 117 116 117 118 118
119 115 110 106  99  91  84  82  86  83  77  76  76  72  60  35  29  31  27  26  30  27  22  22
 23  22  23  24  24  25  25  25  26  27  24  25  28  27  28  29  29  29  28  27
 33  33  33  33  32  32  36  36  32  28  27  27  27  29  33  34  42  43  32  30  29  30  38  45
 50  47  30  31  39  42  43 101 113 109 112 117 121 119 119 120 119 118 116 116 120 120 118 118
121 118 111 105  96  90  85  85  86  83  78  76  75  70  55  28  29  29  27  26  30  24  20  23
 23  22  23  24  24  24  25  25  27  27  27  26  26  27  27  28  30  27  28  27
 35  36  34  33  34  32  36  38  34  26  26  28  28  30  32  35  41  44  32  31  31  29  36  40
 49  47  33  29  37  43  34  74 110 110 112 116 119 118 119 116 116 115 115 114 116 115 114 116
119 117 109 103  96  90  86  86  85  82  78  76  74  67  46  25  30  30  28  27  29  24  21  23
 22  24  26  23  23  24  25  25  27  29  28  28  27  27  29  29  29  29  29  28
 37  37  36  34  35  34  34  35  33  28  24  29  28  29  30  34  41  40  34  32  34  30  33  38
 43  49  43  30  33  39  40  45  99 111 112 115 118 119 116 113 111 114 114 114 115 114 114 117
117 114 105 103  96  90  84  84  83  80  77  76  72  63  38  27  29  26  27  28  28  25  24  25
 24  24  25  22  22  25  26  26  27  30  28  27  28  28  29  28  28  29  30  28
 36  36  36  38  37  34  34  33  32  29  26  28  28  30  32  36  41  39  34  33  37  33  35  37
 45  50  45  31  31  36  38  35  76 108 109 110 114 114 112 111 113 112 112 114 115 114 115 118
117 115 108 101  94  89  85  82  82  80  77  76  70  56  30  29  28  27  26  27  28  23  24  26
 24  26  27  26  25  26  24  26  27  28  27  27  28  29  30  30  30  29  28  26
 37  35  35  40  40  38  36  36  34  29  25  26  27  30  31  35  41  40  31  32  36  34  35  35
 40  47  46  34  32  33  37  37  50  98 107 108 111 110 108 109 109 108 110 113 112 114 114 115
115 113 109 102  94  88  84  80  80  79  78  75  71  49  27  28  28  26  27  27  27  24  23  25
 25  26  25  27  27  25  24  28  28  28  28  29  28  26  28  30  28  29  28  28
 37  35  34  39  41  43  35  34  35  29  24  26  26  28  32  37  41  38  31  30  36  38  36  35
 37  43  46  40  32  33  38  37  37  81 105 107 110 109 107 107 105 107 110 111 111 113 112 112
111 110 107 100  92  85  82  81  79  81  78  76  69  36  26  27  27  25  28  28  26  24  25  26
 24  25  27  28  27  26  27  28  28  28  27  27  26  28  29  30  28  28  29  27
 37  35  36  38  39  41  40  38  39  31  26  26  27  28  31  36  39  37  30  31  36  38  40  39
 36  43  46  42  36  33  38  37  30  57  95 105 109 109 105 104 104 106 107 110 109 111 112 110
107 107 106 101  94  86  81  82  83  82  80  78  59  25  28  27  27  28  31  28  26  28  26  25
 23  26  30  28  26  25  25  26  27  28  29  28  28  30  28  28  28  30  31  28
 36  34  36  38  40  40  41  42  41  33  27  25  24  28  31  34  40  37  30  32  38  39  38  37
 37  44  46  44  38  35  36  38  36  37  80 101 107 108 105 103 102 104 106 107 108 109 109 107
106 106 107 105  97  88  82  82  85  84  83  77  46  26  29  28  27  27  29  28  28  26  23  23
 27  30  27  25  28  26  24  26  27  27  30  29  31  29  28  28  27  29  30  29
 34  33  32  37  38  40  41  38  40  36  29  25  24  24  29  35  37  37  32  32  38  37  39  37
 34  39  47  43  37  38  34  35  39  30  61  94 104 106 103  99 100 102 103 105 106 105 107 107
105 105 107 107 101  92  87  85  85  85  83  69  28  28  28  27  27  28  29  29  30  26  25  26
 28  28  28  27  28  27  27  26  27  28  30  28  28  29  29  27  27  28  28  27
 33  32  33  36  40  39  37  40  43  40  32  26  23  24  28  35  38  37  33  32  36  35  38  40
 36  40  46  42  39  38  32  36  39  35  38  77  96 100  99  96  97  98 100 101 102 102 104 106
105 105 105 105 106 100  91  88  85  84  82  53  22  29  28  26  28  30  28  30  30  27  27  26
 27  26  26  26  26  28  27  26  27  31  34  30  29  30  28  27  29  28  30  28
 32  34  30  33  39  39  37  36  40  39  34  29  26  25  28  36  38  35  32  32  35  37  37  39
 38  40  49  43  38  39  36  33  41  36  30  54  84  93  94  94  95  94  98  99 100 102  99 101
103 105 103  99 103 101  92  86  84  82  70  35  26  26  26  26  26  27  30  30  30  28  25  25
 26  26  25  27  27  28  28  27  25  31  32  29  29  28  27  28  28  28  31  30
