P2
# 8-bit pgm - grayscale
92 112
255
190 190 190 188 188 187 188 188 186 184 183 180 181 178 176 175 175 173 172 169 170 169 167 166
166 165 164 163 162 162 162 160 159 158 157 157 158 157 156 156 156 156 155 156 156 156 155 156
156 157 158 158 158 159 160 160 159 159 159 159 158 158 156 156 157 155 156 156 155 154 154 153
153 152 152 152 150 149 148 149 149 148 148 148 147 147 147 145 144 141 141 141
190 190 190 189 189 189 189 188 186 185 184 181 180 178 177 176 174 173 172 170 169 169 167 166
165 164 163 162 162 161 160 160 159 159 157 157 157 157 156 156 155 155 154 154 155 155 155 156
157 157 158 159 159 159 159 160 161 160 159 159 158 158 157 157 157 157 156 155 154 154 153 153
154 153 152 152 151 150 150 150 150 149 148 148 148 148 147 146 145 145 142 139
191 191 190 190 189 189 189 188 187 184 182 182 180 178 176 175 173 172 171 170 169 167 167 166
165 164 162 161 160 160 160 158 158 158 157 156 156 155 155 154 154 153 154 153 154 154 154 155
156 158 158 158 159 159 159 160 160 160 159 159 158 158 158 158 158 158 157 156 155 156 154 154
154 154 153 152 152 151 151 151 150 149 148 148 148 148 147 147 146 146 146 141
192 191 191 190 190 190 190 188 187 185 183 183 182 178 175 174 173 171 170 169 168 166 165 163
163 163 161 160 159 159 159 158 157 156 155 155 155 154 154 153 153 153 151 152 152 152 153 154
155 156 157 157 157 158 160 160 161 161 161 160 159 158 157 157 157 157 157 156 156 156 155 154
154 154 153 153 152 152 152 152 150 149 149 148 148 147 147 147 147 146 145 144
192 192 192 191 190 190 189 189 188 186 184 183 180 177 176 174 171 169 168 168 167 165 164 163
161 160 159 158 158 158 157 156 156 154 154 153 153 153 153 152 151 151 151 151 152 152 152 153
154 155 156 156 157 158 158 160 160 160 160 160 160 159 158 157 157 157 157 156 155 156 155 154
154 154 154 153 152 151 152 152 151 150 149 149 148 148 149 147 147 146 144 145
194 193 192 192 191 190 190 189 188 186 183 182 180 177 176 173 171 169 167 167 165 163 162 161
160 158 158 157 156 156 155 154 153 153 152 152 149 149 149 147 150 148 148 149 150 151 152 151
152 154 156 156 157 158 158 159 159 159 160 160 159 159 159 158 158 157 157 156 155 156 155 155
155 155 155 154 153 151 152 152 151 151 150 150 150 150 149 148 147 147 146 145
195 194 194 193 192 192 190 190 189 186 184 181 179 176 175 173 171 168 166 164 163 162 161 159
158 157 156 155 154 153 152 149 149 145 148 152 124 125 139 142 148 148 147 146 147 148 149 149
151 152 154 156 156 157 158 158 158 158 159 160 159 159 158 158 158 157 157 156 155 156 156 156
155 155 154 153 153 153 152 153 152 152 151 150 150 151 151 150 150 149 149 147
195 195 195 193 193 192 190 189 189 186 183 181 179 176 174 171 169 167 166 162 159 162 158 157
157 152 154 153 153 152 151 148 149 139 109 127  98  57 108 122 131 130 127 140 139 147 147 148
149 151 151 154 156 157 158 157 157 157 159 159 159 159 158 158 158 158 157 156 155 156 155 155
154 155 154 154 153 153 152 153 153 151 151 152 151 152 151 150 151 150 149 147
196 196 196 194 192 192 192 190 188 186 183 180 178 175 173 171 168 166 166 165 158 159 159 160
157 147 129 139 148 148 128 133 126 114  89  52  73  69  65  97  81  81  93 114 108 127 147 146
149 151 150 152 154 155 157 157 157 156 157 158 158 158 157 157 157 157 157 156 155 156 156 155
155 155 153 154 154 153 153 152 152 151 152 152 152 152 152 151 151 151 149 147
197 197 197 195 193 193 192 191 188 186 182 179 178 175 172 168 166 164 158 151 160 154 144 128
101  72  40  51  63  68  35  31  41  42  50  52  19  54  43  74  48  81  61  65  42 104 146 143
147 149 149 151 152 153 155 155 156 157 157 158 158 157 157 156 157 158 157 156 156 156 156 154
154 154 155 155 154 154 153 152 152 153 153 153 152 152 153 152 151 151 151 148
198 197 196 196 195 194 193 192 188 185 182 179 177 173 172 159 159 168 146  82 120 108  37   0
  0   0  23  12   0   0  18  21  19  25  20  46  34  22  30  33  45  54  52  23  48 103 141 143
146 146 149 149 149 152 153 153 153 154 155 156 156 157 157 156 157 157 157 157 156 156 155 154
154 154 155 154 154 153 153 153 154 154 154 153 153 153 153 153 152 151 151 149
198 198 197 196 195 194 193 191 188 184 181 178 175 172 169 160 132 146 114  65  21  56  45  46
 31  33  24  25  25  25  21  21  23  24  20   9  20  22  21  24  33  36  29  29  38  74 138 141
142 145 146 148 149 149 150 151 152 152 153 154 156 156 156 157 156 156 156 156 155 155 155 154
154 154 154 154 154 153 153 153 153 153 154 153 154 153 153 153 153 153 152 150
199 198 198 197 195 194 193 191 188 184 179 176 169 168 168 167 117  87  82  62  26  26  58  45
 28  26  21  19  20  18  17  16  19  20  19  20  21  19  18  22  19  25  27  23  28   5 123 143
139 142 144 145 146 147 148 149 150 151 152 153 153 155 156 156 156 156 155 154 155 155 155 154
154 154 155 154 153 153 153 153 154 153 153 154 154 153 153 153 153 153 153 150
200 199 198 198 197 195 193 191 189 185 177 174 174 154 156 140 123  80  47  33  29  31   7  14
 19  17  19  19  19  19  17  16  18  20  17  20  22  19  19  20  20  20  26  21  26   0  72 138
140 139 140 141 141 145 145 147 147 148 149 151 152 152 153 154 155 156 155 154 155 155 154 155
155 153 154 155 153 153 152 151 152 152 152 153 153 153 154 154 153 153 153 151
201 200 199 199 197 195 194 192 187 184 176 164 154 124  81 116  79  51  52  30  31  33  29  21
 18  19  19  19  19  19  17  17  17  20  16  20  26  18  21  22  19  21  25  22  17  28   0  95
123 131 139 138 140 141 142 144 143 143 144 147 148 149 151 152 153 154 155 155 155 155 155 155
154 153 154 154 152 152 152 151 150 150 151 153 153 154 153 153 154 154 153 151
201 201 200 199 197 195 194 191 186 177 181 155  81  93  20  34  34  31  25  32  25  27  29  21
 19  18  21  19  19  20  19  18  19  16  16  22  27  22  19  20  19  21  23  23  16  21  20  27
 61  85 132 136 135 138 139 140 141 141 142 142 144 147 149 152 154 153 155 155 155 155 155 154
154 154 155 153 152 152 152 152 151 151 151 152 153 153 154 153 154 153 153 151
200 200 200 199 197 196 193 189 187 175 153 109  50  54  39  28  25  25  24  22  23  23  22  21
 22  20  18  19  19  20  18  17  20  16  16  21  21  19  17  17  19  22  21  21  17  20  22  17
 27   4  67 127 133 133 134 135 136 137 138 140 142 145 148 150 152 153 154 155 155 155 154 154
155 154 154 152 152 152 152 151 152 151 151 152 152 152 153 154 154 153 152 151
201 201 200 199 197 193 190 194 181 118  41   1  26  26  38  30  29  24  22  23  24  25  22  20
 21  20  18  17  20  19  17  18  19  17  14  18  15  14  15  14  16  20  18  18  17  19  19  19
 25  32   0  63 120 129 132 132 131 132 135 137 137 141 144 147 150 153 154 155 155 155 154 154
155 154 153 152 152 152 152 151 152 152 151 152 152 152 154 155 154 154 153 152
202 201 200 199 197 197 185 158 101   0  34  37  29  29  29  33  31  28  25  21  22  23  22  21
 20  18  17  16  18  18  16  16  19  16  13  14  13  14  13  14  15  15  15  14  13  18  18  17
 18  23  30   4  47  96 113 118 116 116 113 129 132 135 140 143 149 151 152 153 154 155 154 154
154 154 153 152 152 152 151 151 152 151 151 151 152 152 153 155 154 154 154 152
201 201 201 200 199 188 119   0   0  42  46  33  30  27  26  29  28  26  24  23  22  23  21  24
 20  18  18  16  18  19  19  21  22  17  16  17  14  14  13  14  14  13  13  14  12  16  18  16
 17  19  20  23   7  12  29  44  70  84  97 100 126 132 135 139 144 148 151 152 153 154 153 154
154 154 153 152 152 151 151 152 151 151 151 151 151 152 153 154 154 154 154 153
202 202 201 200 200 177 102 104 128  90  41  49  35  31  29  27  28  25  22  22  23  23  21  22
 20  18  20  29  36  45  47  45  45  43  38  32  29  25  19  15  14  13  13  12  12  12  14  15
 16  14  19  19  20  21  19  14  28  40  57  75 114 123 129 136 141 145 149 151 151 152 153 153
154 154 154 153 152 151 151 152 152 151 151 151 152 153 154 154 154 155 155 153
202 203 201 202 194 181 159 153 141 118 100  65  31  34  31  29  28  25  25  26  26  23  19  22
 30  40  50  60  61  62  62  59  57  55  54  49  45  40  33  26  21  17  13  14  12  13  14  15
 13  12  16  20  17  14  17  18  15  20  20  20  90 119 125 131 137 140 145 149 150 151 152 153
153 153 153 153 152 151 151 151 152 152 152 152 152 153 153 154 154 155 155 152
203 203 203 200 193 172 157 156 128  92  78  64  39  33  27  25  25  25  27  25  23  29  45  55
 64  70  74  70  68  65  65  65  60  58  59  59  56  51  46  36  33  29  24  20  15  13  12  12
 11  12  11  13  16  14  16  17  15  16  26  19  47  97 121 125 131 137 141 145 148 149 151 152
153 152 153 153 153 152 152 152 151 150 152 152 152 152 153 153 154 155 154 153
203 203 203 199 197 182 129  75  43  53  49  39  41  32  26  24  24  26  23  29  52  67  77  82
 81  79  74  69  72  73  73  72  67  66  66  66  64  61  57  51  46  41  37  30  26  19  14  13
 12  11  10  10  12  14  13  15  15  17  18  23   7  46 112 120 125 130 136 142 146 148 150 151
151 151 152 151 151 151 152 152 151 150 151 151 151 152 153 153 154 155 155 152
204 204 203 204 198 154  81  55  63  60  39  31  29  29  29  26  26  22  42  64  75  79  82  83
 82  81  81  81  81  80  79  76  74  74  74  74  72  67  61  61  58  53  47  41  38  31  25  22
 17  13  12  13  14  14  14  14  14  15  12  12  20  15  79 109 119 127 132 138 142 147 148 149
150 150 151 152 151 151 151 151 151 151 151 151 151 153 152 153 153 154 154 153
206 205 204 201 174 124 131 101  47  33  38  33  29  28  28  29  22  48  74  82  83  84  86  86
 86  85  86  87  88  84  82  82  81  83  82  80  76  73  70  68  66  60  55  54  49  38  31  25
 21  18  16  11  11  14  15  13  14  12  11  14  19  12  40 103 115 119 127 134 136 142 146 148
149 149 150 150 151 150 151 152 152 152 152 152 151 152 153 153 153 154 154 154
206 206 206 204 185 185 164  91  54  53  44  35  31  30  30  22  52  81  88  89  90  91  92  93
 92  90  90  90  89  85  84  86  86  86  87  84  83  78  74  73  69  66  62  58  53  45  37  29
 26  24  19  15  11  13  13  10  12  11  12  16  17  15  23  90 109 112 122 128 134 140 144 147
148 149 150 150 151 151 151 151 151 152 152 151 151 152 153 153 153 154 155 153
207 207 206 205 206 178  93  61  97  66  42  34  31  31  28  46  83  92  94  96  97  96  97  96
 95  94  92  91  91  90  89  88  88  88  87  86  85  84  77  76  73  68  66  62  54  49  42  37
 33  27  19  16  13  11  11  12  12  15  13  15  15  18  14  35  77 101 115 125 133 138 142 146
147 148 149 150 150 150 149 150 151 151 151 151 152 152 152 153 153 154 155 153
209 208 207 206 206 161  96 135  95  33  43  31  34  33  31  77  95  97 101 102 102 100  99  98
 98  95  94  95  94  93  90  89  90  91  90  87  84  83  81  79  75  69  67  65  58  53  51  44
 36  32  23  17  15  10  11  12  13  13  14  15  16  17  19  10  39  88 112 124 129 137 142 144
145 146 148 149 149 149 149 150 151 152 152 151 152 153 152 153 154 154 154 154
210 209 207 208 203 184 152 127  46  48  36  38  36  28  52  93  99 104 107 104 101 100 101 101
100  98  95  97  96  94  93  92  89  88  90  89  84  81  80  80  76  73  70  67  62  60  56  51
 42  33  26  18  14  12  11  12  10  10  13  14  16  15  16  20  21  83 112 120 129 135 140 142
143 147 148 148 148 148 149 150 151 151 151 151 152 153 153 153 154 154 154 154
211 211 210 208 208 205 183  93  50  46  48  32  34  31  77  99 102 106 104 103 103 102 102 103
101 101  99  97  94  92  90  90  84  79  79  81  81  79  76  76  75  73  72  70  67  65  62  55
 45  36  28  20  15  12  11  12  11  11  15  14  16  16  15  18  12  66  96 114 127 132 138 142
144 147 149 149 148 149 149 150 150 151 151 151 152 152 153 154 153 153 154 154
212 211 210 210 208 208 194  93  25  82  45  33  36  50  92 101 104 105 104 102 103 102 101 103
100  99  97  95  95  94  90  85  83  81  79  77  75  75  74  73  72  71  72  71  71  69  65  58
 47  37  31  23  18  14  13  11  10  11  13  16  17  17  16  16  16  20  78 113 124 132 137 142
146 148 149 149 149 148 149 149 150 151 150 151 152 152 153 154 154 154 154 153
212 211 211 211 209 210 200 134  76  85  48  53  42  73  99  99 102 102 103 103 100  99 100 103
100  99  98  96  94  93  91  86  81  78  79  78  75  73  71  71  72  73  73  75  78  75  69  61
 50  41  31  27  22  17  15  12  11  11  12  15  13  10  13  15  14  26  79 110 121 130 137 142
145 147 149 149 149 148 148 149 150 151 151 152 152 152 153 153 154 154 153 153
213 212 212 212 211 210 207 195 153 110  83  78  49  92 100  99  99  98 102  98  96  96 101 102
100  99  99  97  99  98  93  88  83  79  74  75  75  75  72  72  74  74  76  77  79  79  74  64
 53  43  35  29  24  20  18  15  13  12  12  14  13  10  15  15  15  23  66 105 119 127 136 141
146 148 149 149 149 149 149 150 150 150 151 151 152 153 153 154 153 154 154 154
214 213 213 212 211 210 211 211 200 147 115  68  74 102  99 100  97  97  98  98  96  94  97  99
100  99  99  96  95  97  94  87  83  79  76  75  74  72  72  75  76  77  78  80  81  80  79  72
 59  47  39  32  25  23  19  17  14  14  13  13  13  12  16  15  16  18  54  90 114 126 134 140
145 148 149 149 150 149 148 149 150 150 151 152 152 153 152 153 154 154 155 155
215 214 213 213 212 211 211 209 210 180 142  75  96 103  96  95  94  95  96  96  94  95  97 100
101  99  99  93  85  91  94  86  84  84  80  76  77  74  73  72  73  76  81  83  83  84  80  74
 69  57  43  34  28  24  19  16  15  14  14  14  13  13  14  15  15  19  10  63 106 125 134 140
146 149 150 150 150 149 149 149 149 150 151 151 152 153 154 154 155 155 155 156
216 216 215 214 214 212 211 211 208 199 183 112  97 102  94  96  96  93  95  97  98  98 102 104
102 100 100 100  97  96  93  87  87  92  89  87  82  79  79  77  77  77  81  86  85  84  82  79
 77  70  59  44  29  25  21  16  16  15  15  14  13  12  11  12  17  18  13  51  95 123 134 140
145 149 150 150 150 149 149 149 149 150 150 151 152 152 154 154 154 155 156 155
216 217 216 215 214 213 213 212 208 203 192 102 104 100  97  99  98  95  99 105 105 105 108 107
105 107 107 106 103  98 101 100  94  93  96  94  90  86  88  84  83  79  80  85  87  85  82  82
 81  79  78  67  46  27  23  18  18  18  16  15  13  12  12  12  15  18  12  39  93 121 133 139
145 149 150 150 150 150 150 149 150 150 150 152 153 154 154 154 155 156 156 154
218 217 216 216 215 214 213 213 209 208 171  74 113 100 101 104 104 103 111 111 113 117 115 110
116 120 120 120 117 104 108 113 106  98  97 103 102  94  97  99  92  87  85  84  85  83  82  80
 81  82  81  77  63  39  23  18  15  19  17  14  14  12  12  12  13  16  16  34  80 113 131 141
147 150 151 151 150 150 150 150 151 151 151 152 152 153 154 155 155 156 156 155
218 218 217 217 216 215 214 213 209 211 156  78 116 104 107 112 111 115 122 123 125 124 122 118
123 129 126 128 130 127  99 100  88  74  67  72  87  90  88  97 100  96  91  87  84  83  81  78
 80  80  79  82  73  50  31  20  16  18  17  14  13  12  12  11  13  15  17  14  60 115 134 141
147 150 150 150 150 150 150 150 151 151 151 151 153 153 154 155 155 156 157 156
218 218 218 218 216 214 214 213 209 211 167  89 116 106 110 109 124 129 133 134 135 133 128 128
126 139 137 138 142 128  85  50  39  29  29  30  35  50  47  57  80  87  81  80  83  84  81  77
 76  78  79  81  81  61  31  22  18  19  17  15  13  13  13  12  14  14  16   8  69 113 134 142
148 151 150 150 150 150 151 151 151 151 151 152 152 154 155 155 155 156 157 156
219 219 218 217 216 215 214 213 210 209 180  99 114 101  92 100 125 139 143 145 144 136 134 133
129 129 142 142 146 111  56  42  35  37  33  32  40  38  34  29  31  37  34  37  51  65  75  78
 80  80  78  79  81  75  42  19  16  18  18  16  15  16  13  12  15  14  16  10  45 108 134 143
149 151 151 151 151 151 152 151 151 151 151 152 153 154 155 155 155 156 157 157
220 220 218 218 217 217 216 214 212 210 187 109 101  73  67  64  78 123 142 147 146 135 137 137
130 119 135 136 115  85  58  50  41  30  31  42  39  37  34  36  28  23  26  34  34  39  50  67
 77  80  80  79  78  77  60  28  16  18  19  18  16  17  14  13  15  14  15  17  28 105 139 145
150 152 152 152 152 152 152 152 152 152 152 152 153 155 155 155 156 157 157 157
221 220 219 218 217 217 217 215 212 209 197 114  58  40  33  32  36  66 113 147 151 138 140 146
140 133 139 138  88  74  79  59  54  55  47  46  38  44  48  54  57  63  75  67  57  52  48  54
 77  79  79  79  79  76  72  45  19  19  17  20  16  15  14  13  14  14  17  21  38 100 138 146
151 153 153 153 152 152 152 152 152 152 152 152 153 154 155 156 156 157 158 157
223 221 219 220 218 217 217 216 213 213 182  57  35  38  39  37  38  34  49 121 150 139 138 141
141 137 136 138 107  98 101 103 109 107  96  99  96  89  94  94  91  98  98  82  78  74  69  62
 74  86  83  81  82  78  72  54  23  21  19  18  16  15  14  12  14  14  18  17  52 112 139 145
151 155 154 155 154 152 153 153 153 152 152 152 154 154 155 157 157 158 159 158
223 222 221 220 219 218 218 217 213 215 152   0  47  37  43  39  39  42  41  68 123 135 140 140
143 139 128 126 119 111 115 118 119 120 117 119 123 120 120 120 116 112 108 103 101 100  97  86
 85  82  84  86  84  80  73  61  28  21  22  19  17  15  14  13  15  16  20  11  61 120 143 150
153 154 155 156 155 154 154 153 153 153 153 153 154 155 156 157 157 159 159 158
223 223 222 220 220 219 218 218 215 218 150   5  69  72  84  92  97 101 107 104 102 121 139 142
140 133 123 114 111 108 114 118 118 108 102 110 118 122 125 126 125 121 116 113 109 108 113 113
110 104  95  92  88  83  77  64  33  19  23  18  18  17  15  16  14  17  23   0  81 130 144 151
155 155 156 155 155 154 154 153 153 153 154 154 154 156 157 158 158 159 160 159
224 223 222 221 221 220 219 220 216 218 158  55 105 113 118 121 119 115 108 105 106 108 127 130
123 117 110 107  99 101 108 113 109  94  90  86  80  87  92 103 112 113 108 107 108 111 117 127
124 113 104  96  91  86  80  71  42  20  21  17  18  17  16  15  16  19  21  13  84 137 146 152
156 156 156 156 155 155 154 154 154 154 154 154 155 156 157 158 159 159 159 158
224 224 223 222 222 221 220 220 217 217 181 100 122 122 121 117 111 102  89  87  80  93 117 111
109 107 100  97  91  92  96  99 103  89  78  89 116  90   0  48  53  45  70  85  88  99 114 121
126 121 111 100  94  92  87  76  49  21  22  19  18  17  17  15  16  21  18  32  99 136 147 154
157 157 157 156 156 156 155 155 155 155 155 155 156 157 158 158 159 159 159 158
226 225 224 224 223 222 222 221 219 215 207 141 115 113 114  95  70  42  85  57  30  87 106 105
109 104  96  92  89  84  82  88  89  85  94 103 145 145  45  41  37  11  39  55  58  80 105 121
124 125 116 105  97  94  89  80  59  25  25  22  17  19  17  16  18  21  17  41 109 137 149 155
157 158 157 157 157 156 156 156 156 156 155 156 157 158 159 159 159 159 159 159
227 226 225 225 225 224 223 222 221 215 212 167 108 108  77  60  53  33  81  57  38  95 104 105
109 103  96  91  87  82  79  90  82  70  78  71  82 115  88  53  59  65  69  64  55  78  98 111
122 120 114 110 100  95  90  83  69  32  26  24  19  18  18  18  17  19   5  63 125 142 150 156
158 157 157 157 157 157 157 157 156 156 155 155 158 159 159 159 160 160 160 160
227 227 226 226 225 225 223 222 220 216 213 186 117  75  22  93  91  48  50  77  82 102 104 111
117 106  98  95  89  84  78  83  92  88  83  84  88  80  94  95  97  96 105  96  94  93 101 104
112 115 115 108 102  96  92  86  74  40  24  24  20  14   9  18  29  36   0  82 137 145 152 156
158 158 158 158 157 157 157 157 157 157 157 157 158 159 159 159 159 159 160 160
228 228 228 226 225 225 224 224 221 215 213 190 110  64  72  74  84  86  97  96  86 105 109 116
115 109 104 100  92  90  88  84  82  89  87  89  92 105 111 119 122 113 116 110 109 106 108 110
108 110 113 109 103  97  93  88  78  45  23  24  19  43  60  72  79  90  56  93 139 146 153 156
158 159 159 159 158 158 157 158 157 157 157 158 158 159 159 160 159 160 160 160
229 228 227 226 226 226 224 224 222 215 213 188 108 101 111 118 121 115 104  91  92 110 115 119
110 106 107 105 101  94  94  94  87  86  96  99 103 108 114 116 117 114 112 113 113 114 114 117
112 111 115 113 104  98  94  90  82  53  28  19  62  96 104 104  93  96  92 107 141 148 155 158
159 159 160 160 160 158 158 158 158 157 157 158 158 159 160 159 160 161 161 160
229 229 228 227 227 226 224 224 222 216 215 180 108 118 121 125 125 119 107  98 102 110 113 116
109 101 101 106 106 101  96  99 100  97 106 115 115 118 121 120 119 117 113 113 113 112 114 119
118 113 115 115 106  98  93  91  85  60  31  24  88 105 105 117  95  95  96 111 144 151 157 160
159 160 160 161 161 159 158 158 157 157 158 158 159 159 160 160 160 161 162 161
229 228 228 228 227 226 225 225 223 217 217 168 109 121 123 126 127 123 115 103 106 109 110 109
107 104 101 102 108 106 100 101 108 112 112 118 126 129 131 132 133 127 122 121 118 117 118 119
120 119 116 111 104 100  94  90  86  64  28  36  94  98  80 102  96  84  88 113 149 153 158 160
159 160 160 160 160 159 158 158 157 157 158 158 159 160 160 160 162 161 162 160
229 229 228 228 228 227 226 226 223 218 217 157 112 123 123 127 130 127 115 106 109 112 107 101
100 103 103 104 107 107 104 106 114 118 119 118 124 132 137 140 142 138 132 128 127 127 125 122
124 122 118 109 105 100  96  91  84  70  31  52  85 114 107  95  93  73  90 131 150 155 159 160
161 161 162 160 160 160 159 158 158 157 158 158 159 160 161 161 161 162 162 160
230 230 229 229 228 227 227 226 224 219 216 146 114 125 126 133 133 123 112 108 110 113 104  94
 92  92  98 104 105 111 110 109 115 119 124 126 124 124 134 138 142 142 141 139 133 133 131 127
127 124 119 114 108  99  95  91  86  77  46  64  80  99 123 118  93  80 111 146 152 156 160 161
161 162 163 162 162 160 160 159 159 159 160 160 160 161 162 162 162 162 162 160
231 230 230 229 229 228 227 227 225 222 213 138 119 125 130 134 128 117 111 110 112 111 105  97
 94  88  90 101 105 113 115 112 117 121 125 128 133 131 129 133 134 139 142 139 139 135 134 132
127 125 119 114 108 100  95  90  86  78  63  80  85  93  98 126 101  86 125 150 154 158 162 162
161 163 163 163 162 161 161 160 161 160 161 162 162 162 162 162 163 163 162 161
231 231 230 230 229 228 228 228 226 224 211 133 122 127 132 129 118 114 111 115 118 116 116 109
100  93  85  89  97 107 120 121 122 126 128 131 133 135 134 135 133 135 137 138 141 138 136 136
133 127 121 117 109 100  95  89  84  76  68  89  90  96  90 112 104  92 133 155 156 160 162 162
162 163 163 163 162 161 162 161 161 162 162 162 163 163 163 163 164 164 164 163
231 231 231 230 229 229 229 228 226 224 209 130 123 128 127 122 117 114 113 119 128 126 124 118
115 105  92  86  85  88 107 126 134 134 133 134 135 133 136 137 139 138 139 137 137 135 131 133
132 130 122 115 110 102  96  90  84  74  67  94  91  88  88  94  98  92 138 158 159 161 163 162
163 163 163 163 163 162 162 161 161 162 162 162 163 163 163 164 164 165 164 163
231 231 230 230 230 229 229 228 226 224 210 132 124 127 123 122 120 116 120 134 139 135 130 123
120 114 105  96  85  79  81 107 138 146 144 138 136 140 140 139 142 141 143 141 140 140 133 132
134 132 125 117 111 104  97  90  83  72  71  92  74  64  66  80  93  92 145 160 160 163 163 162
163 164 164 163 163 162 161 161 162 163 163 163 163 164 164 165 165 165 165 163
231 230 230 230 229 229 228 227 226 225 212 134 123 127 125 121 120 121 135 148 154 155 147 136
124 125 119 110  95  89  81  86 125 150 150 145 143 145 145 142 140 142 144 143 141 140 138 133
132 130 125 118 111 105  97  89  79  68  75  85  59  79  69 101  99  98 156 161 163 164 163 163
163 163 163 164 164 162 162 162 162 163 164 164 165 166 166 166 166 165 165 164
230 230 230 229 228 228 227 226 226 225 213 138 124 128 126 125 124 131 149 160 169 176 174 149
138 138 139 127 116 105  92  82 114 152 156 155 151 148 148 147 146 145 144 145 145 141 135 133
133 129 124 117 110 103  94  86  81  67  77 106 109 114 101  94  84 126 165 163 164 165 164 163
163 163 164 165 164 163 162 163 163 163 165 166 166 166 166 166 166 166 165 165
230 230 229 229 228 228 228 227 226 224 215 143 125 128 127 130 129 143 163 169 174 181 182 157
147 147 155 153 146 127 107  91 106 144 158 163 160 156 153 154 154 151 145 146 148 145 137 135
133 129 125 118 109 102  91  84  81  70  85 119 123 123 111  93 103 161 166 165 165 166 165 165
165 165 165 165 164 164 163 163 164 165 165 166 167 167 166 166 166 166 165 164
229 229 229 229 228 228 227 226 226 223 218 151 124 130 133 140 139 141 169 174 174 171 170 155
140 138 130 135 153 142 122 100 109 145 160 166 164 163 162 160 159 156 151 149 147 145 142 139
137 129 125 119 109 100  93  86  84  68  85 129 124 119 104  99 154 171 166 167 167 167 167 167
166 166 166 166 165 165 164 164 166 166 166 167 167 167 167 166 166 167 166 164
229 229 229 228 227 226 227 226 226 224 220 159 126 137 139 146 150 139 152 166 165 170 165 142
116 124 110  69 126 142 130 106 121 149 159 165 167 168 167 165 163 158 157 152 148 145 143 138
136 131 124 118 108  97  89  85  84  72  76 116 124 107 101 148 174 170 171 170 169 168 167 167
167 167 167 166 166 165 165 165 165 166 167 167 168 167 167 166 167 168 168 165
229 228 228 227 227 227 226 226 226 223 221 167 129 140 143 149 152 150 143 150 154 158 158 127
 96 127 126 107 128 141 123 115 139 156 160 165 171 171 168 167 166 163 158 155 150 145 141 138
135 130 123 115 107  98  89  85  83  72  86  81  96 126 155 173 172 171 170 169 169 168 168 167
167 166 167 167 166 165 165 165 166 166 168 167 167 167 167 167 167 167 166 165
228 227 227 227 227 227 226 225 225 222 223 175 129 141 145 150 153 151 137 127 134 139 140 131
137 154 154 141 137 127 125 132 146 156 159 163 167 170 168 168 170 166 160 156 154 148 143 137
136 131 122 115 103  97  90  83  82  74  89  65 119 159 167 171 172 171 170 169 169 169 168 167
167 167 167 166 165 165 165 166 166 167 168 167 166 167 168 167 167 167 166 165
227 226 227 227 227 226 226 225 224 223 224 180 130 143 147 153 151 139 125 116 101 125 140 152
153 150 153 145 128 128 141 141 143 148 150 156 163 169 170 171 170 167 164 159 157 150 142 139
136 129 121 114 102  92  89  84  83  74  88  77 137 156 164 172 171 170 170 169 169 168 167 167
167 167 167 166 166 165 165 166 167 168 168 168 168 167 168 167 167 167 167 164
228 227 227 227 227 226 226 225 224 221 223 188 129 145 149 148 139 127 120 106  97 123 145 154
156 154 150 146 137 136 142 140 139 145 147 152 156 162 165 168 170 170 165 159 154 149 141 140
136 127 121 114 103  93  85  86  79  76  87  82 141 157 165 172 172 172 170 169 169 168 167 167
167 167 167 167 167 166 166 167 167 168 169 169 168 168 168 168 167 167 166 164
228 227 227 226 226 226 225 224 224 221 223 197 131 143 145 140 129 122 109  95 101 117 140 151
141 160 160 136 143 139 134 133 134 135 141 145 154 157 161 164 169 169 166 163 157 150 143 139
135 126 120 110 101  93  87  83  77  80  86  88 142 157 165 172 172 171 169 169 168 167 167 167
166 166 166 167 166 167 167 167 169 168 168 169 170 169 169 168 167 166 165 164
227 227 227 226 225 225 225 224 223 221 222 206 139 142 142 133 119 107 101  95 114 136 147 147
136 152 164 148 149 140 128 129 123 121 130 133 147 158 160 161 166 167 165 160 158 151 143 135
126 126 117 104  98  95  89  82  74  83  84  99 145 157 166 172 172 170 169 168 167 167 167 166
166 165 166 166 166 165 166 167 168 169 169 170 170 169 168 167 167 167 165 164
226 227 226 225 225 224 224 224 223 221 220 211 146 139 135 122 110 108 112 113 130 156 159 140
136 157 165 160 152 148 135 139 139 135 130 130 128 134 151 161 162 164 164 161 156 150 144 135
127 127 117 104 100  97  90  80  69  88  84 112 145 157 166 171 171 170 169 168 167 167 166 166
166 166 166 166 165 166 167 167 168 168 169 169 170 168 167 167 166 166 165 163
226 226 225 225 225 224 223 223 223 222 219 216 153 134 131 114 124 132 132 139 144 167 166 147
153 170 172 166 164 161 156 161 156 155 151 149 134 131 150 158 162 164 163 161 156 147 142 132
130 124 113 105 100  93  88  77  74  94  86 116 145 156 167 171 171 169 168 168 167 166 166 165
165 165 166 166 166 167 167 168 168 169 169 169 169 168 167 166 165 165 165 163
226 226 225 224 224 224 223 223 223 222 218 219 169 130 127 119 142 148 148 148 143 147 157 162
163 161 157 159 165 165 168 171 173 171 166 171 160 156 154 148 163 161 160 160 157 145 139 128
118 113 109 109 100  91  83  71  83  94  86 119 145 156 166 171 170 169 168 168 166 166 166 165
165 165 165 166 166 167 168 168 169 169 169 168 169 167 166 166 166 165 164 163
226 225 224 224 224 223 223 222 221 221 217 219 176 129 129 135 151 150 145 134 134 133 133 139
136 140 145 144 146 150 153 158 167 172 172 177 177 171 154 158 161 162 159 157 153 143 137 124
118 115 109 105  96  92  79  73  91  94  86 118 144 154 164 170 170 168 167 167 166 166 165 165
164 164 165 166 166 167 168 168 168 168 168 168 167 166 165 166 166 166 165 163
225 224 223 223 222 222 222 221 220 220 217 218 185 131 139 143 141 132 125 110 102 107 110 117
125 122 125 123 114 119 123 118 117 133 143 148 157 171 172 157 157 167 160 155 148 139 135 125
124 116 110 105  93  85  68  86  96  93  86 118 144 154 164 169 168 167 166 166 165 164 163 163
164 163 164 166 166 166 167 168 167 167 167 168 167 166 166 166 165 165 163 162
225 223 223 222 222 222 221 221 219 217 215 215 203 140 133 140 142 123 115 104 105 112 114 121
120 118 119 117 114 113 108 103  93  98 117 128 146 163 174 167 161 168 162 156 147 139 131 127
118 110 106  95  88  71  73  97  96  92  86 120 144 154 163 167 167 166 165 165 164 163 162 162
162 163 164 166 167 167 167 168 167 167 166 166 166 166 165 165 164 164 162 161
224 223 222 221 221 221 219 218 217 215 214 212 212 158 137 150 147 130 124 128 130 129 133 140
135 136 140 140 135 134 132 133 135 136 148 150 152 162 169 174 171 169 162 155 145 136 130 125
119 107 102  94  79  66  91  99  96  93  85 117 142 153 162 166 166 164 165 165 163 162 162 161
160 160 164 166 166 166 166 167 166 166 165 165 164 164 164 164 164 164 163 159
224 222 220 221 220 219 218 217 216 215 213 210 213 176 134 152 146 136 130 145 150 146 148 150
155 155 156 162 167 166 167 163 163 159 158 156 159 164 173 176 177 171 160 156 146 131 125 121
113 106 102  91  73  83 102 102  98  93  84 118 141 151 161 164 164 163 163 162 161 160 159 159
159 159 162 164 165 166 165 165 165 164 164 163 163 164 163 163 163 163 161 159
222 221 221 220 218 217 217 216 215 214 212 209 212 191 134 144 144 137 134 148 157 154 148 146
152 154 155 161 171 175 176 173 171 167 164 159 159 166 173 173 174 169 162 153 143 131 124 116
110 102  97  75  75 100 107 104  92  92  84 116 140 151 159 162 162 162 161 160 158 158 158 158
158 159 161 163 164 165 165 164 164 164 163 163 162 163 162 162 161 161 160 158
221 220 219 219 218 217 215 215 214 213 210 207 205 201 153 133 141 135 137 145 153 156 146 137
128 134 151 155 162 169 171 173 174 168 163 162 163 167 164 164 167 163 162 152 143 130 125 115
111 103  77  72  93 103 108 105  96  92  81 109 134 149 158 161 160 159 159 158 158 157 157 157
157 157 160 162 162 164 163 164 163 163 162 162 162 161 161 161 161 160 159 157
220 219 218 217 216 215 214 213 212 211 207 202 197 195 173 127 136 133 135 144 152 157 160 148
136 137 148 158 167 169 172 173 169 167 165 165 163 162 164 164 158 158 156 147 139 129 123 117
105  93  71  86 102 106 109 105  98  90  80 102 121 133 146 154 155 156 157 157 157 156 155 155
155 155 158 160 159 159 160 160 160 160 160 160 160 160 159 159 159 159 157 155
218 218 217 216 215 212 211 210 207 205 201 195 188 179 171 135 130 132 131 141 151 156 154 146
140 139 137 148 162 170 173 168 169 167 163 161 161 160 160 156 151 151 151 143 139 128 118 111
 95  77  83 100 108 109 108 104  96  88  79  92 106 115 126 136 141 144 145 149 153 153 153 154
154 154 155 157 158 157 157 158 158 158 158 158 158 158 158 158 158 157 156 155
218 217 214 212 209 205 202 199 198 196 189 181 172 162 151 134 127 132 131 136 146 143 133 126
125 131 133 137 150 158 165 165 166 164 162 161 161 159 154 143 151 146 146 136 133 124 112  99
 78  81  98 108 113 110 107 102  97  88  78  82  90  97 107 116 121 124 127 133 137 142 143 146
146 149 152 152 153 154 154 155 154 156 156 156 155 155 157 157 157 157 156 154
217 214 209 205 200 195 191 188 184 180 171 162 152 141 131 113 115 129 130 131 136 132 126 125
136 139 139 146 149 158 161 166 164 160 162 160 157 158 154 143 143 139 143 132 119 112 103  82
 75  97 108 113 114 111 107 101  97  87  77  65  69  81  87  95 100 104 109 116 120 125 130 131
131 134 139 144 148 149 149 151 150 151 152 152 153 154 154 154 154 154 154 152
214 210 201 195 187 181 175 170 165 158 150 142 129 109  85  57  86 127 126 128 127 121 121 130
144 140 149 152 146 153 150 158 162 156 159 161 156 157 157 152 146 140 135 121 115 106  87  78
 92 104 107 113 114 112 106 102  93  84  77  64  50  51  70  76  80  84  90  97 104 110 114 116
117 120 125 131 136 139 143 148 148 148 149 150 149 150 150 151 151 151 151 150
206 200 190 180 170 162 154 149 144 137 130 113  73  45  47  48  47 109 127 125 119 115 115 127
135 142 143 145 134 135 142 146 152 151 156 159 152 152 154 147 142 131 125 109 100  89  77  89
102 109 113 114 115 108 104 100  92  83  74  69  70  59  43  53  52  56  69  81  88  93  98 101
102 105 111 118 121 125 130 135 140 143 146 147 147 147 148 149 148 149 148 146
197 187 174 164 154 147 139 131 125 119 100  49  37  57  58  56  37  80 115 118 115 114 125 132
132 133 129 132 122 138 142 134 141 148 150 150 148 147 138 131 123 119 113  96  75  79  93 100
105 111 119 118 114 107 104  96  90  82  72  69  72  73  62  39  45  38  40  53  72  80  85  87
 87  92  98 102 107 111 117 123 129 133 137 142 145 146 146 146 146 146 146 144
183 171 162 150 130 108  99  99  92  78  52  45  50  54  57  54  44  45  96 112 108 113 118 125
124 131 139 137 144 146 139 139 138 137 131 135 137 134 127 120 108  97  89  76  80  98 101 101
110 117 119 115 112 110 104  94  87  80  71  68  73  76  75  56  41  42  39  33  40  55  61  62
 54  64  81  89  95 100 103 110 116 121 128 133 136 139 140 142 143 143 142 141
167 159 135  82  53  40  42  52  50  47  47  48  48  55  56  54  46  36  77 101  99 106 113 121
125 129 140 137 151 148 144 141 132 128 122 127 123 115 114 108  91  74  64  85 103 105 105 105
112 118 118 114 113 109 100  93  86  79  69  68  75  79  81  71  41  38  38  39  39  35  36  40
 46  36  39  58  71  83  94  98 104 112 118 125 129 132 135 135 135 137 137 136
152 130  64  35  65  56  46  55  55  54  46  47  48  53  56  54  46  38  61  91 102 104 109 117
119 125 124 124 141 142 136 139 117 119 121 117 109 107 107  94  74  66  96 111 114 109 105 108
115 117 116 114 110 105  99  91  85  78  69  67  75  80  84  78  49  35  38  35  35  40  39  43
 47  40  38  40  39  43  63  87  96 101 107 114 122 125 126 126 127 128 129 130
 83  58  47  54  64  53  36  44  49  45  45  44  48  55  55  52  44  39  49  80 101 107 107 103
114 121 116 132 135 129 136 133 125 120 111 107 101  94  88  70  70 109 115 109 113 112 110 112
115 116 115 114 109 102  98  91  83  76  69  67  73  78  82  82  53  33  37  35  34  38  37  43
 44  37  37  43  42  41  33  44  69  91 100 104 110 113 116 118 120 121 121 122
 51  58  44  48  58  56  38  38  45  41  42  46  50  57  54  52  42  35  51  52  90 112 108  98
102 112 118 125 118 122 129 126 118 111 109  92  88  77  58  79 118 122 109 115 114 108 111 114
115 118 117 114 109 103  96  90  83  76  70  67  72  77  81  81  54  35  39  35  32  38  39  42
 40  37  36  39  40  37  37  35  28  53  88  98 101 105 106 107 110 111 111 112
 55  52  35  43  55  59  40  38  36  43  42  45  49  53  56  53  42  33  50  50  56  80  95 101
106 110 115 111 107 110 123 124 111  95 102  92  61  69 105 125 129 119 118 120 116 112 113 113
117 121 119 116 109 101  94  89  81  76  70  68  71  77  79  79  55  35  37  33  31  36  38  41
 38  36  34  35  38  36  34  36  36  30  49  75  84  95  99 101 103 104 106 106
 60  47  33  38  50  56  44  37  34  39  41  42  44  50  55  55  43  33  47  54  52  68  71  80
 85  81  91 101  98 103  98  97  94  88  70  74  88 120 132 131 128 123 123 121 117 114 112 114
118 118 117 115 109 100  92  85  80  76  71  70  74  78  79  79  56  34  35  33  32  36  37  39
 38  36  32  34  37  33  30  32  31  35  36  41  41  57  70  73  78  85  94  97
 58  43  32  35  44  55  47  39  36  35  33  37  44  48  55  54  43  33  45  53  50  83  99  89
 79  68  66  71  72  74  66  80  72  70  92 122 132 132 130 129 129 127 124 122 115 109 113 115
118 123 119 114 106  99  91  84  80  75  71  73  76  79  80  78  53  34  35  34  34  36  37  39
 37  35  33  32  34  32  31  30  30  30  32  35  43  46  44  41  37  35  43  55
 58  40  31  34  42  52  48  42  38  35  31  37  40  42  55  53  43  33  41  50  47  77 109 114
121 119 117 121 112 104 101 109 121 130 137 137 133 131 129 128 127 125 123 120 114 112 115 110
119 122 120 112 104  96  92  83  79  76  73  75  77  79  81  79  50  34  33  33  32  33  37  39
 37  34  34  33  33  32  31  31  31  31  31  31  35  41  45  45  42  40  39  40
 52  35  31  34  39  47  49  44  42  34  32  34  37  44  51  55  47  34  36  48  46  67 105 113
121 132 141 144 146 147 144 139 137 138 138 137 133 129 127 127 125 124 124 121 116 116 117 118
120 121 120 111 103  96  92  83  80  77  78  79  80  82  83  77  47  34  34  33  32  32  37  38
 37  33  32  31  33  31  30  31  32  31  30  30  34  38  42  41  38  39  41  41
 45  33  29  29  34  44  48  43  45  39  31  34  34  41  49  52  47  38  31  44  46  52  99 115
120 127 134 142 144 146 145 140 134 134 134 133 132 134 131 127 128 127 124 119 118 117 117 118
120 120 116 110 102  95  91  85  82  81  81  83  84  84  83  73  43  35  35  36  32  32  37  35
 34  32  30  30  30  29  29  29  31  30  31  31  31  37  40  38  37  38  38  39
 36  32  29  30  34  42  47  44  42  40  33  32  31  39  49  50  48  41  30  41  48  42  84 117
117 123 130 140 146 146 144 147 140 134 134 133 131 130 130 129 127 126 123 121 119 116 116 119
121 119 115 108 100  94  91  90  86  81  83  86  89  84  82  71  41  34  36  35  31  34  36  34
 32  29  29  31  30  28  27  28  30  31  32  30  29  36  38  35  34  33  34  37
 35  32  30  30  33  38  43  45  43  39  33  33  29  36  46  52  45  43  33  38  45  43  56 110
120 119 123 133 140 144 144 146 145 139 136 133 131 127 128 130 127 123 121 121 117 114 117 120
120 120 114 104  98  94  94  91  86  82  86  87  90  88  85  69  37  35  36  34  30  33  36  34
 30  26  28  29  29  28  27  27  29  29  30  29  30  31  37  34  33  34  35  35
 31  31  32  31  32  36  43  49  46  39  35  31  31  34  44  51  47  47  38  32  40  47  40  85
121 121 121 127 134 141 144 146 145 143 142 138 134 132 131 131 127 123 119 117 117 116 119 124
119 116 112 103  96  96  95  93  87  84  86  90  90  88  84  67  35  36  36  32  30  32  34  33
 28  27  30  28  29  29  26  29  29  30  28  29  30  32  35  34  34  33  34  32
 30  30  31  33  35  35  42  48  48  44  39  32  32  34  42  53  52  48  43  32  38  45  47  55
112 124 123 126 133 137 139 141 144 145 143 140 138 139 134 133 130 127 126 124 123 122 125 126
119 113 107 101  96  96  98  96  91  87  88  90  90  85  80  62  34  35  34  32  31  34  36  31
 27  28  28  28  30  28  27  29  27  29  28  29  29  31  32  35  36  33  32  34
 31  31  31  31  32  35  38  45  46  42  36  33  34  36  43  51  49  49  48  34  35  43  47  39
 85 125 124 125 129 136 136 139 139 142 142 141 141 138 135 134 134 132 130 131 129 125 125 123
117 111 104  97  96  97  99  97  92  88  88  90  88  84  76  55  33  37  37  32  32  36  37  29
 25  28  27  28  30  28  26  28  29  29  29  29  31  30  32  34  32  31  32  34
 31  31  29  29  32  35  38  42  48  42  36  32  32  38  40  48  54  51  48  38  34  42  43  47
 53 110 125 125 127 133 137 136 136 139 140 138 140 138 135 135 133 132 132 132 131 128 124 122
117 110 104  98  96 100 102  98  93  90  89  89  87  81  74  46  33  37  35  31  31  36  33  28
 27  30  28  27  29  31  29  29  30  29  30  30  31  31  31  32  32  33  34  34
 31  30  29  29  33  36  36  42  48  42  36  33  33  38  40  48  51  51  52  45  34  39  43  49
 43  82 122 123 127 131 133 134 135 139 139 139 136 135 136 136 137 134 131 131 131 128 126 122
115 110 104  99  97 100 102  98  93  90  89  87  85  79  70  39  34  36  35  30  31  35  32  27
 26  28  28  27  28  29  29  29  29  31  31  30  31  30  28  30  33  32  32  33
 32  31  32  33  34  39  39  41  47  45  36  34  35  37  40  43  45  55  54  43  34  37  45  48
 49  56 107 123 126 130 133 133 135 136 135 135 134 134 133 135 135 131 129 131 132 131 126 120
114 112 104  99  99  99 101  98  94  89  89  86  81  76  64  34  34  35  36  31  33  35  29  26
 28  28  27  28  31  30  28  29  30  30  30  29  31  32  31  29  33  33  32  32
 28  31  32  32  34  35  38  42  48  42  35  34  38  38  38  40  44  51  51  45  36  35  43  48
 52  45  86 122 126 128 131 132 134 134 132 131 132 133 132 133 131 129 130 130 131 131 123 120
118 113 105  97  98  99  97  96  93  88  87  83  80  73  54  31  33  36  34  33  34  36  31  29
 29  29  28  29  30  28  28  27  29  30  30  31  33  35  32  32  31  32  34  34
 29  30  32  32  35  34  35  43  45  40  35  34  39  38  38  41  42  46  52  51  41  34  38  44
 49  45  63 109 123 125 128 132 133 132 131 131 131 129 131 131 130 129 130 130 132 131 123 119
117 110 104  99  96  96  93  94  93  89  87  82  77  71  45  33  34  33  31  33  33  35  29  28
 30  31  30  29  31  29  27  28  30  30  30  31  34  34  32  32  32  33  33  33
 29  31  32  33  35  34  38  43  45  40  35  33  39  40  40  44  43  49  53  51  44  33  36  43
 45  47  48  92 118 121 125 127 126 128 128 129 129 126 128 130 128 128 128 131 132 131 131 122
116 110 104  98  95  92  92  93  90  88  86  82  78  67  39  33  34  34  32  31  33  36  30  28
 31  33  30  30  33  32  32  32  31  29  30  30  31  34  32  31  32  33  33  33
