P2
# 8-bit pgm - grayscale
92 112
255
185 185 184 184 183 182 182 181 181 179 176 175 174 172 171 170 167 166 166 165 163 163 162 161
161 159 158 157 156 157 156 155 154 154 153 153 152 152 151 152 151 150 150 149 149 149 148 147
148 150 149 149 150 151 151 151 151 151 152 152 152 151 150 150 149 149 148 148 148 147 147 145
146 146 145 144 141 140 141 139 137 138 138 137 136 138 138 138 137 138 136 134
186 186 185 183 183 184 183 182 181 179 177 176 174 172 170 170 168 167 166 164 162 162 162 161
160 159 158 157 156 156 155 155 155 153 153 153 152 151 151 151 150 149 149 148 147 148 147 147
147 148 149 149 149 150 151 151 151 151 152 153 153 152 150 151 150 149 149 148 147 147 147 146
146 146 145 144 144 143 143 142 141 141 140 139 139 136 136 137 137 137 136 135
187 186 186 185 184 184 183 182 181 180 177 176 174 172 171 170 167 166 166 165 163 161 161 161
159 158 157 156 155 155 154 154 153 152 151 151 151 151 150 150 149 148 148 147 147 146 146 146
146 147 148 150 149 150 151 151 150 152 154 153 152 152 151 151 150 149 149 148 147 148 147 146
146 146 145 145 144 142 142 141 141 141 140 140 141 141 139 136 136 137 137 135
188 187 187 186 185 184 184 183 182 181 178 176 174 173 171 169 167 166 165 165 163 162 161 159
159 157 157 155 154 153 153 152 151 151 151 150 150 149 148 148 147 147 146 146 146 145 145 145
146 146 147 148 148 149 151 151 151 152 154 153 152 152 152 150 150 150 149 148 147 148 148 147
147 146 146 145 144 143 142 141 142 141 141 140 140 140 139 138 137 136 136 135
189 187 187 186 186 185 183 183 182 180 178 176 174 171 170 168 166 164 163 162 161 161 160 158
157 156 154 153 153 152 151 150 150 149 149 148 147 147 147 147 146 146 145 145 144 144 144 144
144 144 145 146 147 148 149 149 150 152 154 154 154 153 152 151 151 150 149 149 148 148 147 147
147 146 147 145 145 145 143 143 143 142 141 141 141 140 140 139 139 139 136 133
189 189 188 187 186 186 184 183 182 181 178 175 173 170 169 168 165 164 162 161 160 159 158 157
155 155 152 151 150 150 149 148 148 148 147 147 147 145 145 144 143 143 144 143 143 142 142 143
144 144 145 145 146 147 148 150 151 151 153 154 154 153 150 151 150 150 150 149 148 148 148 148
148 146 147 146 144 144 143 144 143 142 142 141 141 141 140 140 140 139 139 136
190 190 188 187 186 186 185 184 183 182 179 175 172 172 170 168 165 163 162 161 159 158 156 155
153 150 151 149 149 148 147 146 145 146 144 144 143 145 141 137 139 137 141 141 140 140 140 140
141 142 143 144 145 146 148 148 151 151 153 153 153 152 152 153 151 150 150 150 148 147 148 148
147 148 147 147 145 144 144 143 142 142 142 141 141 142 142 140 140 139 139 138
190 189 188 187 187 186 185 184 183 182 178 174 172 171 170 166 164 162 161 160 159 157 156 153
152 147 149 147 147 145 144 146 142 141 143 142 132 138 107  96 116 116 138 139 138 139 139 139
139 140 141 142 144 146 147 148 149 150 152 153 153 152 152 153 151 150 150 150 148 149 149 148
147 148 147 147 146 146 145 145 144 143 143 143 142 142 142 141 141 140 140 138
190 190 190 188 188 186 186 185 183 181 179 176 172 171 168 166 163 161 159 159 157 155 155 154
150 148 148 150 148 144 128 136 145 144 137 143 132 119  90  56  86  71 121 111 126 108 131 135
138 137 140 141 144 144 145 147 146 148 151 151 151 152 152 151 151 151 150 149 149 149 148 148
149 148 147 147 147 146 145 145 145 143 144 143 143 142 142 142 141 142 140 139
192 191 190 189 189 188 186 185 184 182 179 174 171 170 167 165 162 160 156 151 155 154 139 132
148 139 124 112  87  75  55  70  92  98  72  86  82  47  68  50  44  43  82  74  93  56  93 115
103 118 140 140 141 142 144 145 146 148 149 150 151 150 151 151 151 151 151 150 149 149 148 149
149 148 148 148 147 146 146 145 145 144 144 143 144 144 143 143 143 143 141 139
193 192 190 190 189 189 187 186 184 182 177 173 171 169 166 164 161 159 159 145 150 148 124  76
 79  46   2   0   0   0   9   0   0   0   0   0   0  25  24  27  25  32  31  60  58  92  50  80
 56  64 130 138 139 141 142 144 145 147 148 150 150 150 150 150 151 151 151 149 149 149 149 148
148 149 149 148 147 147 146 146 146 145 144 144 144 144 144 144 143 143 142 140
192 192 192 192 190 190 188 187 184 181 178 174 171 168 164 162 160 159 150 115 110 123  97  65
  0  39  49  34  27  25  22  23  25  25  22  24  24  11  40  45  16  28  22  36  29  65  46  21
 46  34 115 136 138 140 140 142 145 146 147 148 149 149 150 150 150 150 150 150 149 148 149 149
148 147 148 147 147 147 146 146 146 146 145 145 145 145 145 144 144 144 143 141
194 193 192 191 191 190 188 186 185 182 178 174 170 166 163 159 153 156 134 111  93  71  39  18
 29  34  45  24  18  17  17  16  17  15  15  14  13  19   9  11  21  13  19  18  26  22  44  20
 37  50  95 133 136 138 140 141 142 143 145 146 148 148 149 150 150 150 150 150 149 149 150 149
149 147 147 146 145 146 146 146 146 146 146 146 146 145 145 145 145 144 144 142
195 194 192 192 191 190 188 187 185 182 177 172 169 163 158 164 136 104 108  88  76  39  27  34
 24  16   9  15  15  16  15  15  16  16  14  14  13  14  16  17  20  16  16  17  18  23  20  23
 24  75  82 122 135 137 137 138 139 141 144 146 146 146 148 149 149 149 149 150 149 149 148 148
148 146 147 146 145 145 145 144 145 144 144 146 146 146 145 144 145 145 143 141
195 194 194 194 192 191 189 188 185 181 175 170 166 168 129 103  87  26  53  60  42  59  55  31
 26  19  21  20  13  15  16  15  15  16  16  14  14  14  13  16  18  16  19  17  16  19  17  20
 22  38  43 111 135 133 135 136 137 139 140 142 144 145 147 148 148 148 148 148 147 148 148 147
147 147 147 147 146 145 145 145 145 144 144 144 144 144 145 145 145 145 145 142
196 195 194 193 192 190 189 188 184 180 174 167 159 153  98   0  28  28  15  18  19  20  26  23
 19  20  17  19  17  14  15  16  16  15  16  14  14  14  12  15  18  19  19  19  17  17  16  18
 24  24   0  83 134 131 133 135 135 136 138 139 140 143 145 146 146 147 148 148 148 148 148 148
147 147 148 147 146 145 145 145 145 144 144 143 144 144 144 144 144 145 144 143
197 195 194 194 193 191 187 183 184 184 175 135  89  42   5  36  41  27  25  25  22  19  16  19
 18  20  19  17  17  15  13  16  15  16  17  15  15  15  13  13  18  21  19  18  16  15  18  18
 24  20  18  29 116 132 128 132 132 134 135 137 137 139 142 145 146 146 147 148 148 148 148 148
147 147 147 147 146 145 145 144 144 144 144 143 143 144 144 144 144 145 144 142
198 196 194 194 193 191 189 187 176 156 112  32   0  24  27  24  25  24  25  24  24  20  18  17
 19  17  20  18  16  16  14  13  15  16  16  15  14  17  13  11  16  18  16  14  15  15  19  18
 19  18  22   7  74 124 129 126 129 130 131 131 132 135 139 142 145 145 148 148 148 148 147 148
148 147 147 146 145 144 144 144 144 144 143 144 143 144 144 144 144 144 144 142
198 196 195 194 192 191 186 143  86   0   0  31  36  29  24  24  24  22  26  25  23  21  20  19
 17  18  16  18  17  16  14  12  14  15  14  13  14  16  13  10  12  13  10  12  14  14  17  19
 15  16  18  23   0  72 121 125 125 126 128 129 131 132 137 139 143 145 146 148 147 147 148 148
148 148 148 146 145 144 144 145 145 144 144 144 145 144 144 144 145 145 145 143
197 197 195 194 192 193 174 125  86  87  79  54  43  40  29  25  24  23  20  20  21  21  22  21
 21  19  17  16  17  14  14  12  13  11  12  13  14  13  10   9  11  11  10  10  11  12  14  15
 12  15  17  19  22   0  62 110 115 120 124 122 122 130 133 136 141 144 146 146 147 148 148 148
147 147 147 147 146 145 145 144 144 144 145 143 144 144 144 144 146 146 145 143
198 197 195 194 194 189 177 144 117 138 124  96  65  54  36  28  27  24  23  20  21  21  20  19
 17  16  16  16  16  15  16  17  18  24  27  26  26  21  18  16  13   9   9  11  11  12  14  14
 11  13  15  17  14  22   8  31  67  71  90 103 101 109 130 131 138 141 144 145 146 146 147 148
147 147 147 146 145 145 145 145 144 144 144 144 144 144 144 144 145 145 145 144
198 197 196 194 192 187 169 152 169 145 103  93  76  34  31  29  26  25  24  24  23  21  21  20
 20  17  15  17  19  23  24  33  43  45  52  51  48  47  43  38  32  26  21  16  12  11  10  11
 10  10  12  16  14  12  21  16   0  18  36  60  94  90 123 130 134 138 142 144 145 145 146 147
147 146 146 145 145 145 145 144 144 144 144 143 144 144 144 144 145 145 146 144
198 198 196 195 190 189 174 124  93  79  62  54  55  34  26  25  23  22  21  21  21  20  19  18
 16  19  29  33  42  50  55  62  64  61  58  60  57  54  52  50  46  44  37  29  22  17  13  10
 10  10  11  13  13  11  15  21  22  17  24  28  45  88 120 125 130 134 137 141 143 145 145 145
145 146 146 146 144 144 143 144 143 143 143 143 144 143 144 144 144 145 145 144
199 197 197 195 197 185 138  98  51  43  59  42  25  27  25  20  18  19  19  18  19  19  16  25
 43  54  62  69  73  72  72  71  65  64  64  61  61  59  56  54  53  53  48  42  36  28  22  17
 12  11  12  12  12  12  12  17  19  15  15  24  12  75 113 120 127 131 135 139 141 144 144 144
145 145 146 145 144 143 143 143 143 144 143 143 144 144 144 143 144 145 145 144
199 198 197 196 193 156 100  92  69  61  49  36  28  24  24  24  22  21  20  21  18  24  44  57
 67  72  76  78  79  79  76  75  69  68  70  69  68  65  63  61  61  61  58  54  49  41  35  29
 22  16  11  10  10  10   7  10  13  14  15  15  24  27  89 116 122 127 132 137 139 142 142 142
143 144 145 145 144 143 142 143 142 142 143 142 143 144 144 144 144 145 144 143
200 199 199 197 187 157 164 171 138  77  35  39  30  26  26  24  22  21  23  19  31  54  67  73
 77  78  79  80  79  79  79  79  79  79  78  76  73  71  69  69  68  66  63  59  55  51  48  41
 35  28  20  16  13   9   9  10  13  14  12  15  20   0  56 109 114 123 129 132 136 139 141 142
142 143 144 144 144 142 142 143 142 142 141 142 142 143 144 144 145 143 144 144
201 200 199 198 195 189 187 143  54  50  45  31  30  27  25  25  24  26  23  36  63  74  78  82
 83  83  86  86  84  85  83  81  81  82  82  79  76  76  76  78  76  72  69  66  61  59  55  50
 46  39  32  24  18  13  10  11  13  14  13  13  12  10  31  94 113 118 124 130 133 137 139 141
142 141 142 143 142 141 142 142 143 143 142 142 142 143 143 144 144 143 144 144
202 201 200 199 198 197 156  73  91  65  33  28  26  28  26  25  25  26  33  66  79  84  88  89
 91  90  89  89  89  90  88  87  85  83  83  82  79  80  81  80  80  78  76  73  67  64  61  57
 52  48  41  31  23  18  13  10  10  12  13  12  13  16  21  81 104 113 119 124 131 135 138 140
141 141 141 141 141 141 141 142 142 142 142 141 143 143 144 144 143 144 144 144
203 202 201 199 200 187 142 126 100  35  34  35  47  29  25  26  27  26  62  82  85  90  92  94
 97  97  96  95  93  93  91  90  89  88  87  87  85  83  82  82  81  80  78  76  72  68  65  60
 57  53  46  39  29  23  16  11  11  10  12  10  15  18  15  41  83 103 114 124 129 132 137 138
139 141 141 141 141 141 141 141 142 142 142 142 143 143 143 144 144 145 144 144
204 203 202 201 199 195 179 142  38  25  40  66  44  23  25  26  25  49  80  90  93  95  99 101
101 101  99  97  96  95  95  93  91  91  90  90  88  86  86  86  85  82  79  76  76  73  69  62
 60  57  51  44  38  29  20  13  11  11  10  11  15  17  19  15  66  99 113 121 128 132 135 137
139 140 140 141 140 140 140 141 141 141 142 143 143 144 144 144 144 144 144 144
205 204 202 200 200 200 192 112   0  70  55  28  24  26  25  31  36  71  87  91  96 100 103 102
100  99  99  98  99  98  97  95  93  93  93  92  89  89  87  82  82  85  83  76  75  75  71  65
 63  60  56  50  45  37  25  17  12  11  10  12  12  15  19   8  63 102 111 119 126 131 135 137
139 139 139 141 141 140 140 141 141 141 142 142 144 144 145 145 144 144 144 144
205 205 203 202 201 202 180  71  54 100  61  38  41  29  31  28  56  85  89  94 100 102 101 102
100  99 101 100  99 100  97  98  97  94  93  91  88  86  84  78  74  74  77  76  74  72  69  67
 66  63  60  55  51  43  29  20  15  12  10  11  11  14  20   7  44  81 100 117 123 130 134 138
139 139 140 140 140 140 140 141 142 142 141 142 143 143 144 143 144 144 144 143
206 205 204 204 203 201 192 154  89 106  96  54  45  28  33  35  74  88  92  96  98 100 101 101
100 101 100 100  99 101  98  95  96  93  93  93  90  87  82  80  77  75  75  73  72  70  67  67
 66  65  63  61  56  46  34  25  19  13  11  12  11  13  20  19  11  58  99 114 121 128 133 137
139 140 140 141 140 141 141 141 141 141 142 142 143 143 143 144 145 144 144 143
207 206 205 204 203 202 202 199 169 144 111  96  19  35  32  55  85  89  94  94  94  96  94  98
102  98  95  95  97 100 100  96  97  94  93  91  89  88  82  77  74  74  73  72  71  68  68  68
 68  67  68  66  60  51  39  28  22  17  14  13  11  11  17  14  25  63  96 112 119 126 132 136
139 141 141 142 141 140 141 141 140 141 142 142 143 144 144 144 144 144 145 144
208 208 206 205 205 204 203 201 203 169 137 110   0  41  35  73  90  90  93  94  97  96  95  97
 97  94  92  92  97  99  97  95  95  95  94  97  97  91  84  79  75  69  68  70  70  69  69  70
 70  71  70  69  64  55  42  31  24  20  16  15  12  13  16  14  19  47  85 107 117 125 132 136
140 141 142 142 141 140 141 141 141 141 141 142 143 144 145 144 144 145 146 145
210 209 208 206 206 206 203 203 203 195 157 113   3  39  49  90  94  91  91  94  93  91  92  93
 94  94  92  90  92  95  96  96  94  96  94  91  93  92  85  79  77  72  67  66  68  68  70  71
 71  74  73  70  67  61  46  34  27  21  17  16  15  14  15  14  17  25  61  99 117 124 130 136
141 140 141 142 141 141 140 140 141 141 141 143 144 145 145 145 145 146 146 144
212 211 209 208 207 206 205 205 203 200 191 125   5  44  61  97  96  91  90  89  88  88  91  92
 91  91  90  92  91  95  97  95  95  95  94  83  83  87  86  81  79  78  73  69  68  67  66  67
 71  74  76  73  70  65  55  40  29  23  17  16  16  15  16  13  16  16  24  84 114 123 130 137
141 141 142 142 142 141 141 141 141 141 142 142 144 145 146 145 146 145 146 145
213 211 209 209 208 207 206 205 204 201 200 165  39  43  69  97  96  91  89  88  90  92  91  90
 91  92  94  96  97 100  99  98  97  96  95  94  93  92  89  86  83  84  82  78  75  68  68  68
 72  75  77  74  72  69  62  53  37  23  18  17  16  16  16  14  13  18  24  64 110 124 130 137
140 142 142 142 142 141 141 142 142 142 142 143 144 144 145 146 146 146 146 146
213 212 211 210 209 208 207 206 205 205 202 189  82  33  73 100  98  90  88  92  94  96  94  90
 94  98 100 101 102 105 103 103 101 100 102 101  99  95  96  95  94  86  83  85  82  76  75  72
 70  72  76  76  72  72  69  65  55  32  19  16  18  19  17  14  11  14  22  68 106 122 131 136
141 141 142 143 142 142 143 142 143 142 143 143 143 144 145 145 146 146 146 146
214 212 211 211 210 210 209 208 205 205 202 198 105   1  74 101 100  94  94  97 100 104 102  99
104 108 107 109 110 112 108 108 113 112 113 113 111 105 104 109 101  93  88  89  90  82  80  83
 75  71  73  74  71  70  71  70  65  45  22  16  16  19  18  14  12  14  12  46  98 122 132 137
141 142 143 144 143 143 142 143 142 143 143 141 143 145 145 145 146 146 146 146
214 213 213 212 211 210 209 208 206 205 202 199 106   0  78 103 101  98  98 105 109 109 107 108
115 120 118 121 120 118 116 114 121 121 121 122 119 123 107 101  87  65  62  65  76  78  73  81
 83  77  73  70  70  68  69  69  70  56  28  18  14  16  18  13  13  15  12  38 104 125 131 139
142 142 143 143 143 142 143 144 144 143 143 142 143 144 145 146 146 146 147 146
215 214 213 212 211 211 209 208 207 205 203 200 108   0  83 106  99  98 104 106 104 105 117 124
126 129 128 132 131 128 127 124 126 135 131 134 136 130  90  53  31  25  15  15  25  40  39  48
 68  71  67  69  71  67  64  67  71  66  34  17  15  17  17  14  14  14  17  22  80 121 133 139
142 143 144 144 144 144 144 143 144 143 143 143 144 145 146 146 147 147 147 146
216 215 213 213 212 212 210 209 208 207 204 204 140   0  91 109 100 100  97  90  89  94 103 124
136 140 144 142 137 133 135 133 128 133 144 139 140 120  50  36  31  34  33  30  34  32  24  22
 28  33  32  43  57  65  67  67  69  71  45  13  15  18  18  16  15  14  18  22  76 120 135 141
143 144 145 145 144 145 144 144 144 144 144 143 144 145 146 147 147 148 148 147
216 215 214 213 212 211 211 210 209 209 205 207 149   0  93 106  98  86  63  51  56  45  45  83
123 140 146 145 138 138 140 136 127 123 135 132 111  77  39  36  24  23  27  36  33  29  29  27
 20  14  18  24  30  46  64  69  68  69  55  20  15  19  20  17  15  15  17  21  77 125 136 141
144 145 146 146 145 144 144 145 145 144 144 144 144 145 146 147 147 148 148 146
217 217 215 214 213 212 212 211 210 210 205 206 146   0  88  99  67  39  26  26  27  31  33  36
 64 115 146 151 142 139 144 143 135 129 133 123  74  57  55  40  51  51  45  44  43  45  47  45
 43  55  57  44  40  36  55  67  68  69  62  31  15  20  20  17  14  14  18  20  73 123 136 142
146 145 146 146 146 146 146 146 145 145 144 145 145 146 146 148 148 148 148 147
219 218 216 214 214 213 211 210 210 210 207 206 156   0  77  61  18  29  33  34  36  32  27  29
 19  55 125 147 142 138 140 139 135 127 127 112  81  85  93  99 104  97  97 100  94  89  90  83
 80  85  72  63  60  50  56  72  71  69  65  37  14  20  18  15  14  15  18  27  93 131 137 144
147 147 147 147 146 146 146 145 146 146 146 145 146 146 147 148 148 148 148 147
218 218 217 215 214 214 213 212 212 211 207 208 164  18  60  40  44  38  38  51  52  53  56  64
 71  61  88 130 136 140 137 138 134 123 115 107  98 104 112 117 120 116 116 120 118 113 111 105
 99  94  87  84  83  74  69  69  72  72  68  45  12  22  19  16  14  18  13  47 105 129 139 145
147 147 148 148 147 147 146 146 146 146 146 146 147 147 148 148 149 150 149 148
219 218 217 215 215 215 214 213 213 213 209 209 180  67  46  56  67  75  88  95 101 107 111 111
114 117 109 108 123 137 139 136 128 116 106  96  94 102 112 113 101  99 106 112 118 120 117 109
104 101  96  92  96  97  95  87  79  75  72  52  17  22  18  17  15  19  10  61 117 133 140 146
148 148 148 148 148 147 147 147 146 147 146 146 147 147 148 149 150 150 149 148
221 220 218 217 216 215 214 214 213 213 212 206 202 129  28  77  96 107 118 119 119 119 115 109
101 104 116 112 109 126 131 126 114 105  97  87  86  98  99  88  78  81  73  69  77  94 102 100
 97  96  97  94  95 110 108  96  85  78  75  62  24  20  18  17  17  19  14  79 120 134 142 147
149 149 149 149 148 148 148 147 147 147 147 147 147 148 149 149 150 149 149 148
221 220 219 218 216 216 215 215 215 213 212 206 207 161  58 106 111 119 117 116 115 109  95  85
 83  82  86 104 105 116 117 111 105  98  89  79  77  83  79  76  63  72 109  59   0  65  29  34
 62  78  83  89  96 101 107 104  92  82  78  68  31  22  20  17  17  19  13  89 125 134 142 149
150 150 149 148 149 148 148 149 149 148 148 148 148 148 149 150 151 150 150 148
221 221 221 219 217 217 217 216 216 214 213 208 205 179  98 118 115 106 107 104  78  47  72  76
  0  90  89  80  96 107 105 105 105  95  85  76  70  74  73  56  51  59  91  70  36  43  32  34
 22  17  46  69  90 100 104 105  95  85  79  73  41  20  22  18  17  23   0  87 127 135 143 149
151 151 151 150 149 150 149 149 149 148 148 148 148 148 150 151 150 150 150 149
223 223 222 220 219 219 218 217 216 216 214 210 204 194 126 117 113 102  89  51  47  29  43  53
 49  77  70  66  94 104 106 105 104  95  84  75  69  73  89  80  75  76  77  78  83  81  79  72
 80  66  50  63  82  94 101  99  97  88  79  77  52  21  23  15  11  25   0  80 129 136 145 151
151 151 151 151 149 150 149 149 149 148 149 149 149 149 149 150 151 150 151 150
223 223 222 221 220 219 218 217 216 215 215 211 203 200 145 117 114  82  13  45  66  58  65  76
 95  90  87  95  94 107 107 107 110  99  86  78  70  68  78  88  85  89  97 111 120 119 122 107
104  96  88  87  92  95  98  97  95  90  82  77  59  22  20  29  51  68  62  85 130 138 147 151
152 152 152 152 151 152 151 150 150 149 149 149 149 149 149 150 149 150 151 150
223 223 221 221 220 219 219 218 217 216 215 211 203 200 140 115 106  68  69  93 102 108 114 109
108 101  98  91  96 106 107 111 111 101  92  85  75  74  71  73  87  95 104 109 113 114 118 113
108 108 107 104 103 101 100  98  97  92  84  78  63  21  40  77  80  80  81  97 134 140 148 152
152 153 153 153 153 152 152 152 151 150 149 149 149 150 150 150 150 150 150 149
224 223 222 221 221 220 220 219 217 217 216 211 205 199 135 112 108 105 112 120 127 130 128 119
111 105  95  89  98 106 113 115 110  96  94  92  83  77  79  76  80  96 104 115 120 119 117 113
110 108 106 102 105 107 103 100 100  93  84  79  69  24  54  92  89  82  82  99 135 142 151 153
153 153 154 154 154 153 152 152 152 151 149 148 149 150 150 150 151 150 151 150
224 223 222 221 221 220 219 219 218 217 216 212 207 198 129 110 116 120 122 125 127 129 126 124
117 106  99  95  99 109 111 113 108  96  89  91  89  84  82  87  88  90 103 114 121 124 124 118
114 109 106 105 104 105 105 102  99  92  87  80  71  32  48  80  88  75  76 101 138 145 151 154
154 154 154 153 153 153 152 152 151 150 150 149 150 149 150 151 151 151 150 150
224 224 223 222 222 221 220 219 218 218 216 213 211 195 122 117 119 119 121 124 126 129 132 128
116 107 106  97 101 108 109 109 104  98  90  89  93  89  86  93  98  97  97 107 118 123 123 122
120 117 114 111 108 104 104 103  99  92  88  81  72  32  78  90  84  69  78 120 141 147 152 154
154 154 154 154 154 153 153 152 151 150 149 149 149 150 150 150 151 150 150 150
225 224 223 222 221 222 221 221 220 219 218 214 213 191 116 116 118 119 120 124 131 136 133 123
115 116 106  99 103 108 112 107  96  92  92  91  92  92  90  95 101 106 106 105 106 112 116 118
120 120 119 116 112 109 107 104  99  95  89  81  75  36  77 111  97  73  95 134 143 150 154 156
156 156 155 155 155 154 154 152 152 151 150 149 149 150 150 150 151 151 151 149
226 225 224 223 222 222 221 221 221 220 218 215 214 188 112 119 119 120 122 130 133 130 123 118
123 118 106 101 105 111 116 110  94  85  83  89  92  96  95  94 100 107 113 114 112 109 108 108
114 116 119 117 114 114 109 104  99  95  90  83  74  54  57 104 107  77 105 139 145 152 156 157
156 155 156 156 155 154 154 153 153 152 151 151 151 150 150 151 152 151 151 152
226 225 225 224 223 223 222 221 221 221 218 215 215 187 113 123 122 122 126 129 125 118 119 126
126 118 109 102 106 112 116 108  94  85  77  80  89  96 103 100 105 110 115 118 119 117 115 113
113 115 116 115 113 110 111 108 102  96  92  84  72  70  66  92 105  82 108 144 148 153 156 156
156 156 156 156 156 155 155 154 154 152 151 151 151 151 152 152 152 153 153 152
226 226 225 224 224 223 223 222 222 221 219 216 215 186 114 122 121 124 125 122 118 119 124 128
125 119 108 102 109 121 118 113 106  93  84  75  77  85 102 112 113 115 116 121 120 120 121 122
120 120 119 115 115 108 109 109 104  97  91  84  72  70  69  80  87  80 114 149 150 155 157 156
156 157 157 156 156 155 154 154 153 152 151 151 151 151 152 153 153 154 154 153
227 227 225 223 224 223 222 222 221 221 220 216 217 189 115 123 123 123 120 120 120 124 129 132
130 124 102 103 114 125 126 123 119 109  98  82  72  71  79 106 126 128 127 124 124 129 126 124
122 122 122 119 118 114 109 107 105  99  92  85  71  59  49  56  83  79 122 153 153 157 159 157
157 157 158 157 156 155 154 154 153 152 152 151 151 152 153 153 154 155 155 153
226 227 225 223 223 223 222 222 221 221 219 216 217 191 118 124 124 123 123 122 122 127 132 136
140 122  93 112 124 132 141 131 125 115 109  96  82  74  67  77 119 139 139 134 131 132 132 127
125 124 122 121 118 114 109 107 104  98  91  84  69  53  75  77  90  79 134 156 156 159 158 157
158 158 157 156 155 155 155 155 154 153 154 152 153 155 155 154 155 156 155 152
226 225 224 224 223 223 222 222 220 220 219 216 216 194 122 125 123 124 125 124 128 131 138 144
148 111 101 123 135 150 152 149 135 124 113 105  96  85  79  67 101 143 148 146 142 139 137 132
131 128 123 122 119 115 110 108 104  97  91  83  63  76 105 101  80  92 151 155 157 159 157 158
158 157 157 157 156 157 156 155 154 154 154 154 154 154 154 154 155 156 155 153
226 225 224 223 223 223 222 221 221 221 220 216 216 199 125 125 126 125 127 130 133 139 147 152
147 107 117 135 149 162 167 172 161 137 120 118 112 103  96  78  86 130 147 152 153 149 144 141
139 137 129 125 121 117 113 110 104  98  91  80  64  81 109 105  84 130 159 157 160 159 159 158
158 156 157 157 157 156 156 156 155 154 154 154 155 155 154 156 157 156 156 155
226 225 225 223 223 222 221 222 221 221 220 217 215 203 131 125 126 128 133 140 144 147 153 158
146 120 130 149 163 170 177 183 183 146 129 129 133 129 118  94  88 129 146 154 157 156 154 149
146 142 136 130 124 119 114 110 104  98  89  79  65  86 108  90 103 155 159 160 160 161 160 159
159 159 159 158 158 156 156 157 156 155 154 154 155 155 156 156 156 157 157 155
226 225 224 223 223 222 222 221 221 221 219 218 216 209 140 126 131 136 143 146 152 154 154 156
150 129 129 152 172 176 175 174 171 149 128 122 118 129 127 104 101 135 148 154 158 160 160 157
153 147 141 136 128 120 114 110 105  97  89  75  67  85  96 101 146 160 161 162 161 162 161 160
160 159 160 159 158 157 157 156 155 156 155 155 155 155 156 156 157 158 157 156
226 225 223 223 222 222 221 221 221 220 219 218 215 211 149 127 136 141 147 152 154 157 156 155
154 137 117 134 167 170 167 165 160 136 109  93  81 117 121 104 114 138 152 156 160 161 161 157
158 153 145 137 134 124 116 110 105  97  87  74  70 120 133 148 158 159 161 163 162 161 161 160
160 159 159 159 158 157 157 157 155 155 156 156 156 156 156 157 157 157 158 156
225 224 223 222 222 222 221 221 221 221 219 218 214 214 158 126 138 144 149 154 155 157 158 155
148 141 130 122 143 157 155 158 153 114 116 120 123 124 110 115 124 139 148 154 157 160 161 159
159 157 151 142 136 128 117 110 105  96  84  71  74 132 147 151 157 162 163 163 162 161 161 161
159 159 158 159 158 157 157 157 156 156 156 156 157 157 157 157 157 157 157 155
223 223 222 221 221 222 221 221 220 220 220 218 215 216 168 124 142 149 152 155 159 158 155 150
142 135 130 117 115 133 136 135 125 115 128 130 121 108 116 127 129 130 140 145 155 158 160 160
160 158 156 146 137 129 118 113 103  96  86  70  77 132 145 153 160 162 163 163 162 161 161 160
159 159 159 159 158 157 156 156 156 156 157 157 158 157 157 157 157 157 156 155
223 223 222 221 221 221 221 221 220 219 219 217 214 218 178 125 143 151 156 158 157 155 153 149
137 128 118 103 108 120 127 128 126 129 123 125 124 115 120 125 128 127 132 139 149 158 158 159
159 160 157 150 141 133 121 115 104  95  86  69  85 135 145 155 161 162 163 162 162 161 160 160
159 159 159 159 158 157 156 157 158 156 157 157 157 157 157 157 157 158 156 155
223 222 222 220 220 220 221 220 219 219 218 216 214 217 193 129 142 150 155 157 157 154 149 143
126 113 106 104 117 122 121 139 137 130 144 143 125 128 124 118 112 114 106 117 123 146 159 157
158 161 157 151 143 134 123 110 103  91  82  68  93 138 147 156 161 162 163 162 162 161 160 160
159 159 159 159 159 157 157 156 156 155 156 156 157 157 157 158 157 157 156 155
222 223 222 221 220 220 219 219 218 218 218 217 214 216 200 135 141 152 157 157 153 149 141 123
107 106  98 110 126 129 137 141 143 132 143 153 136 134 131 112 105 105  99 103 108 120 128 135
153 160 158 153 144 134 122 111 105  92  85  68 100 139 146 156 161 162 163 161 161 160 159 159
159 159 158 158 157 156 157 156 156 156 157 157 157 158 158 158 157 156 156 155
223 222 222 220 220 219 219 218 218 218 218 216 214 215 206 138 137 152 156 156 146 132 123 118
111 113 113 127 137 146 152 137 130 137 144 149 149 139 130 124 113 118 118 117 117 122 119 134
139 158 161 154 145 132 119 111 104  90  83  69 108 137 146 156 161 162 162 162 160 159 158 158
158 158 158 157 157 156 156 156 156 156 158 157 158 159 157 157 156 156 156 155
222 221 220 220 219 219 218 218 217 217 217 216 214 213 209 147 131 150 154 156 144 127 135 137
128 128 134 139 144 154 154 144 142 151 157 158 154 145 142 135 130 132 131 132 130 145 150 142
137 158 160 153 145 130 115 104  95  91  83  67 113 137 147 156 162 163 162 161 161 159 160 159
158 157 157 157 157 156 156 157 156 156 158 157 157 157 157 157 156 156 156 154
221 220 220 219 219 219 218 218 217 218 217 216 214 212 214 168 126 147 155 154 140 142 152 145
134 136 135 131 125 129 137 146 152 145 147 134 133 130 126 123 124 121 127 130 131 137 148 155
145 156 162 150 142 128 111 102  98  90  80  67 113 137 147 156 162 162 161 161 160 159 159 158
157 157 157 156 157 156 157 156 156 157 157 157 157 157 156 157 156 157 156 153
221 220 219 219 218 218 218 217 217 217 217 215 213 211 215 186 118 141 152 159 153 156 148 136
120 106  93 119 154 164 153 143 144 144 158 197 193 166 185 175 134 137 101  79 100 116 136 163
150 158 165 150 137 122 113 104  98  90  73  70 111 134 145 156 160 160 160 159 158 158 158 158
156 157 156 155 156 155 156 156 156 156 157 157 156 157 156 157 156 156 154 152
220 220 219 217 217 217 216 216 216 216 216 213 212 211 212 200 126 133 150 161 156 149 143 143
113  91  72 105 139 189 208 218 225 216 220 234 225 187 192 182  91  96  81  81 108 129 147 157
160 163 162 150 135 119 111 104  93  82  65  74 111 134 144 154 159 160 159 158 157 157 156 156
156 155 156 155 154 155 155 156 156 156 156 156 156 156 156 155 156 156 155 151
220 219 218 217 216 216 216 215 214 214 214 212 210 208 207 209 152 122 146 157 161 152 151 148
134 112  94  80  46 101 144 187 202 194 193 197 185 117  85  86  67  72  85 109 131 141 149 157
164 168 160 144 130 116 111 103  89  72  70  78 110 133 142 151 158 159 157 156 156 156 156 155
154 154 155 155 155 155 155 156 156 156 156 156 156 155 155 156 155 155 155 152
219 218 218 217 216 216 214 214 214 214 213 211 207 205 204 208 176 118 141 154 167 166 155 147
142 130 107 100  96  82  60  76  97 113 111 114  87  73  81  92  97 104 114 130 138 145 152 159
166 167 153 141 126 111 106  98  86  71  81  79 107 132 141 152 158 158 156 156 155 154 154 154
153 154 154 154 154 155 155 155 155 156 156 156 156 155 155 155 155 154 153 152
219 219 217 216 215 215 214 213 213 213 211 209 207 206 204 203 201 142 127 149 162 162 156 150
143 138 123 114 116 113 112 109 102  92  95  99 105 110 117 119 119 127 136 141 138 145 153 158
164 162 152 139 121 111 102  91  77  77  86  78 106 130 140 151 158 157 155 154 153 153 152 152
153 152 152 152 153 154 155 155 156 155 155 155 155 154 154 153 154 153 152 151
220 218 216 215 214 213 212 211 211 211 210 208 206 204 203 201 203 172 115 144 157 160 154 151
145 141 142 134 127 128 133 144 148 146 148 153 149 140 132 137 140 145 148 147 143 145 152 149
156 155 149 135 120 109  98  89  73  89  84  75 102 130 140 150 155 154 154 152 150 151 150 150
150 150 150 152 153 153 154 154 155 156 155 154 154 154 152 153 153 151 151 148
219 216 215 214 213 212 211 210 210 210 208 205 202 200 198 195 192 187 133 133 150 159 152 148
145 144 150 154 144 140 140 143 148 150 149 157 153 148 149 155 158 156 151 145 144 147 149 150
149 149 142 128 116 107  97  75  80  93  88  76  96 120 133 144 151 153 153 152 150 150 149 149
148 149 150 150 151 152 152 153 153 154 154 153 153 153 152 152 152 151 150 149
216 215 214 213 212 211 210 208 207 207 205 201 197 194 190 184 180 176 152 128 141 151 152 146
143 141 147 159 160 158 156 154 153 158 156 153 155 161 166 165 162 157 150 148 147 146 147 147
140 138 135 124 112 101  86  72  91  94  86  76  91 108 119 130 140 144 147 147 148 147 148 147
147 149 149 148 148 149 150 152 151 150 150 150 150 149 149 149 150 150 149 148
215 214 214 212 210 208 206 206 203 202 200 196 191 185 177 171 164 157 148 129 136 146 150 145
143 142 147 154 159 165 156 161 162 161 166 169 167 169 168 163 160 155 148 147 147 149 147 136
135 135 126 118 107  91  71  84  95  91  85  76  83  95 103 113 123 127 129 133 136 138 140 142
143 144 145 146 147 147 148 148 148 147 146 147 147 147 147 148 148 148 147 145
215 214 212 209 207 203 200 197 194 193 191 185 177 169 161 152 143 137 128 117 126 142 146 145
141 144 146 148 156 158 159 150 141 142 156 165 166 168 167 162 159 155 150 146 149 147 142 131
131 124 121 106  96  76  74  96  95  91  86  75  77  83  89  98 106 111 112 115 120 125 127 130
131 132 136 139 142 144 144 144 144 144 144 145 145 145 146 146 146 146 146 144
214 213 210 205 201 195 191 187 183 181 178 171 161 151 141 133 124 109  94  72  87 131 140 137
138 139 142 149 154 161 166 155 149 146 156 163 166 170 168 164 154 151 150 150 144 140 139 128
124 124 115  98  84  70  89  98  94  90  85  75  65  67  76  82  89  92  95 100 104 109 114 118
118 120 123 126 131 135 138 140 140 141 142 143 143 142 143 143 144 144 143 141
212 210 206 200 193 185 178 173 168 164 160 151 141 133 118 100  85  61  39  39  48 103 133 137
136 137 140 144 148 151 154 159 161 162 159 157 161 163 161 158 152 147 144 144 138 139 138 134
127 114  99  87  69  80  97 100  94  90  83  75  60  47  48  66  72  75  80  84  88  96 101 104
106 108 110 114 119 121 126 130 133 135 138 139 140 140 140 140 142 141 141 139
208 204 198 192 182 171 162 155 150 146 139 132 121  95  61  45  42  42  39  51  57  67 117 134
132 134 135 138 140 141 137 139 140 139 141 140 147 149 145 147 149 145 140 141 137 132 133 128
117 104  87  63  73  93  99  98  92  87  81  73  64  64  54  39  50  50  52  65  76  81  88  92
 94  95  97 102 106 109 114 119 123 127 130 133 136 138 138 138 139 138 138 137
201 196 189 178 166 156 148 141 134 130 124 113  72  28  49  54  51  43  37  51  59  49  79 124
129 132 134 131 131 133 132 134 134 139 134 137 143 145 149 138 140 142 137 138 136 130 123 113
 99  86  68  66  86  99 102  96  92  86  80  71  64  67  68  56  37  41  34  35  48  67  76  80
 81  82  87  90  94  98 103 108 112 117 120 124 128 132 134 135 136 135 135 134
193 186 177 164 156 143 126 117 115 107  96  68  35  47  54  56  51  42  37  51  57  54  69 104
120 128 131 124 125 128 129 135 141 139 131 141 142 141 139 129 129 134 134 134 129 122 114  98
 79  62  62  80  98 104 101  96  93  85  77  69  63  70  71  70  51  38  39  36  30  34  48  54
 57  49  57  75  85  90  92  96 101 105 112 117 120 125 128 129 129 130 130 131
180 171 162 149 115  79  52  46  58  56  45  43  47  45  53  54  51  42  37  50  57  49  74  93
101 118 126 118 118 122 122 132 135 136 138 138 138 128 122 132 124 125 129 120 113 107  96  84
 51  58  80  91 104 104 100  97  91  84  77  67  62  69  75  76  66  38  35  35  35  35  32  32
 35  41  31  33  52  64  75  87  93  96 102 108 112 117 120 122 123 123 124 124
168 160 151 101  16  50  51  42  53  51  52  47  46  47  52  55  51  43  37  48  54  50  73 102
 88 105 122 115 110 119 124 131 130 131 130 127 131 120 122 135 128 126 121 102 101  91  76  58
 55  76  87  98 105 105 101  95  91  82  76  66  60  68  75  78  74  44  32  35  33  32  36  36
 40  43  36  34  35  33  36  52  78  91  93  98 105 110 112 115 115 115 116 116
145 116  87  47  49  62  54  34  42  47  47  44  43  47  53  54  49  43  36  48  52  51  71 104
100  90 112 112 112 127 128 132 134 122 132 139 131 130 138 132 136 125 113  98  85  75  53  55
 84  89  92 101 105 104 102  94  90  82  75  66  61  66  71  75  75  47  31  35  32  32  35  35
 40  39  33  33  38  39  37  31  34  57  82  93  96 101 104 107 108 110 110 109
 59  35  51  47  45  55  56  37  34  43  40  40  44  46  54  52  48  42  33  47  50  45  71 100
113  90  90 107 109 124 129 127 133 130 132 140 131 133 138 132 134 115  94  90  79  54  56  82
 93  95  99 103 107 106 104  95  87  81  74  66  61  65  71  74  75  50  33  35  31  30  36  36
 37  36  33  32  35  36  33  32  34  25  38  76  91  93  97  98 100 101 102 102
 46  49  53  36  41  50  58  42  35  34  41  40  43  48  51  53  50  42  31  47  50  46  76  96
111 107  88 109 107 122 123 126 131 127 129 125 116 125 129 118 118 110  96  86  58  57  86  98
 96  99 101 106 109 107 104  93  85  80  73  67  60  64  71  74  74  51  31  35  31  29  33  35
 37  35  32  32  32  35  34  29  30  31  29  38  63  71  84  91  93  94  97  98
 40  51  51  32  35  46  55  43  35  30  37  41  43  43  47  53  51  42  30  42  50  47  79  97
105 121 103  79 106 115 120 115 119 119 127 112 118 125 112 102 107  96  84  64  79  97 102 104
102 101 102 106 106 106 103  94  85  76  72  67  62  66  72  73  72  51  31  32  30  29  34  35
 36  34  32  30  32  33  30  27  28  28  30  30  34  35  40  54  59  62  67  76
 45  54  46  30  31  40  51  48  37  32  32  32  37  43  46  52  52  42  30  39  49  46  73  99
105 117 124 104  93 105 116 109 105 110 111 103 110 103  88  96 104  87  64  85 106 110 111 109
102 102 107 107 110 107 101  91  83  76  72  67  65  67  72  74  73  49  30  32  30  31  33  35
 36  35  31  31  30  31  30  29  28  28  28  29  31  39  44  42  39  34  27  26
 45  56  44  29  31  37  49  48  39  35  32  30  33  40  43  52  53  43  32  37  46  45  64  99
106 114 123 133 110  89  85  87  99 100 102 103 100  93  86  83  74  69 100 118 116 115 111 105
 99 104 104 111 112 106  99  90  83  77  71  68  68  70  73  75  74  47  30  31  30  31  31  35
 36  36  33  30  29  31  30  29  29  29  29  30  28  30  37  41  41  37  36  35
 43  54  38  29  30  36  45  48  42  38  31  29  32  37  43  47  52  47  35  32  43  44  54  95
108 112 121 130 138 134 118 101  87  70  68  73  77  75  70  78 100 116 121 119 115 111 108 104
104 108 108 112 112 107  99  88  82  77  73  70  73  73  75  77  72  44  30  30  29  29  31  35
 35  35  32  29  28  30  30  28  29  30  29  29  30  30  33  36  38  34  34  34
 46  47  32  28  27  32  41  48  42  42  35  29  30  32  38  46  49  45  40  29  39  44  42  85
109 112 118 128 135 140 144 143 132 116 106 107 108 107 112 121 122 120 118 116 113 111 108 106
108 111 111 111 111 105  95  88  82  78  76  75  77  77  79  78  70  42  31  32  32  29  30  34
 32  30  29  27  28  29  28  26  27  29  27  29  29  29  32  36  34  32  32  32
 45  34  30  27  27  30  38  44  42  40  37  30  29  30  36  45  47  46  43  29  36  44  42  62
107 114 115 122 129 139 140 140 140 137 130 128 130 128 127 126 124 119 118 118 115 111 108 108
108 111 115 114 109 104  94  87  82  80  77  75  77  80  83  76  69  40  30  32  31  28  29  33
 31  29  26  26  27  27  27  25  26  28  29  28  28  27  29  34  33  31  31  30
 38  32  30  28  29  30  35  41  41  41  37  30  29  28  34  43  49  43  42  34  34  43  45  42
 91 116 113 118 123 134 140 141 137 138 134 127 125 126 126 124 123 122 120 118 114 111 111 107
107 113 115 114 108  99  91  86  85  81  77  77  79  81  84  79  69  38  29  32  31  26  28  33
 31  28  25  26  27  26  26  25  26  28  27  27  27  27  28  32  33  29  29  30
 36  30  29  29  28  28  32  41  46  44  37  33  30  29  33  39  47  46  45  40  27  39  43  44
 59 110 116 117 119 127 135 138 138 139 139 134 129 126 125 121 120 122 120 115 111 108 109 109
112 117 116 111 105  97  88  88  87  84  78  78  80  83  81  79  66  33  30  31  28  27  29  32
 31  27  25  27  26  26  27  26  28  26  27  26  28  28  29  31  31  32  29  29
 32  29  27  29  30  32  34  41  46  46  42  36  32  29  32  38  48  49  45  43  31  35  42  47
 38  90 119 116 118 124 131 135 135 136 138 137 135 131 128 126 123 122 119 116 114 112 114 116
118 121 116 108 101  94  89  89  91  87  80  78  81  84  80  76  62  30  30  31  29  28  30  34
 31  25  25  25  25  28  26  24  26  25  24  26  28  27  28  30  31  33  30  28
 30  30  29  29  29  30  32  37  42  44  41  35  30  31  33  38  47  47  46  48  36  32  40  44
 42  55 111 121 120 122 129 133 130 132 135 137 136 134 133 132 128 125 126 123 122 124 123 120
120 121 114 105  98  90  88  90  91  87  82  79  82  81  77  75  56  30  32  32  29  28  33  32
 28  25  26  27  27  29  28  25  26  27  27  27  28  28  28  30  30  30  30  30
 34  30  28  27  27  29  33  36  38  45  41  34  30  30  34  37  42  50  49  47  40  30  40  41
 47  40  83 119 121 122 125 133 133 133 132 134 135 134 135 133 131 128 127 128 124 127 126 122
120 118 114 105  97  89  89  91  93  89  83  82  83  79  74  73  49  28  33  31  29  27  31  31
 27  25  28  27  26  26  28  28  26  27  28  29  28  30  30  28  28  31  30  31
 35  30  27  27  27  30  34  34  39  46  41  34  31  32  35  37  42  48  47  50  45  33  36  41
 46  45  55 105 119 121 124 129 131 130 131 134 134 132 134 132 131 131 128 128 126 127 127 123
121 118 111 105  96  90  91  94  95  88  82  80  81  77  72  67  42  29  33  31  29  27  31  30
 25  24  27  27  26  27  28  27  27  27  29  29  28  29  30  28  28  30  30  29
 29  29  28  30  30  31  36  36  37  45  44  34  32  32  35  37  41  41  48  52  43  32  32  41
 44  46  45  83 115 119 123 127 130 130 131 132 130 133 130 129 130 133 131 127 125 127 127 125
121 116 109 103  93  92  92  93  94  88  82  80  78  73  70  60  34  29  32  31  29  28  32  30
 25  27  28  28  25  29  28  27  27  27  27  27  27  28  30  30  30  29  31  29
 30  27  28  30  30  31  33  36  40  46  42  34  33  37  36  36  39  40  46  49  46  37  31  38
 45  48  45  61 104 119 122 125 128 130 130 127 128 128 128 128 127 128 125 123 124 125 127 125
118 116 112 104  93  89  91  92  90  85  80  77  74  69  67  54  30  29  31  29  28  31  33  30
 27  28  29  28  26  29  27  26  25  26  29  28  28  31  32  30  30  29  29  32
 30  27  28  31  31  32  32  33  40  43  38  34  32  36  36  35  39  39  42  47  49  43  33  33
 39  44  44  46  88 113 119 122 126 128 128 126 124 124 125 124 128 125 124 124 125 126 125 125
115 114 112 101  93  85  84  85  83  82  80  76  74  67  65  47  30  31  29  26  27  28  31  28
 25  25  29  29  27  29  29  28  25  28  27  28  29  29  30  29  28  29  30  30
 29  26  28  31  31  32  32  36  41  43  38  33  31  36  38  37  40  40  44  48  49  44  34  31
 40  41  44  41  70 106 113 119 122 122 122 122 122 123 122 122 123 123 123 123 124 127 127 125
123 117 110  98  91  85  81  79  81  79  78  75  74  71  65  40  29  31  31  29  27  29  31  29
 27  28  30  29  26  29  29  30  29  30  27  27  29  30  30  29  28  28  30  31
