P2
# 8-bit pgm - grayscale
92 112
255
189 188 187 188 187 187 186 185 184 183 182 179 177 174 173 172 171 169 169 168 167 167 165 165
164 163 161 160 159 159 159 158 157 157 157 156 156 156 155 155 154 153 153 153 152 152 152 151
151 151 152 152 152 151 154 155 154 155 155 154 154 154 153 153 154 153 152 151 152 152 152 151
151 150 150 146 143 145 143 141 142 141 140 140 141 141 141 139 140 140 140 138
190 190 188 188 188 188 186 186 184 184 182 180 178 176 173 172 171 169 168 167 166 166 165 164
163 162 160 159 159 159 158 157 157 157 156 156 155 155 155 154 154 153 152 152 152 152 151 150
150 152 151 151 150 151 152 153 153 153 154 155 155 154 154 153 154 153 153 152 152 152 152 151
152 151 150 149 148 148 147 147 145 145 145 142 138 138 142 141 141 140 140 139
190 189 188 188 188 188 187 186 186 184 182 179 177 176 173 172 170 168 168 168 167 165 165 163
162 161 159 159 158 158 158 156 156 156 155 155 155 154 153 153 152 151 151 151 149 149 150 149
149 150 150 150 150 150 151 152 153 153 154 154 155 155 155 154 154 153 153 152 152 153 153 152
151 151 150 149 148 148 147 146 145 144 144 144 143 141 139 141 141 141 140 138
191 191 189 189 189 188 188 187 186 185 183 180 177 175 174 171 170 169 168 166 166 166 164 163
161 160 159 158 157 156 156 155 155 155 155 153 153 153 153 151 149 149 149 149 148 148 148 148
148 148 147 149 149 149 150 151 152 153 154 155 155 154 155 155 155 154 154 152 152 153 153 152
152 151 151 150 148 148 146 146 145 144 144 146 144 142 142 140 139 140 140 138
191 191 190 189 190 189 188 187 186 185 182 180 178 175 172 171 170 168 167 167 165 164 163 161
159 158 157 157 156 156 155 155 153 152 152 152 152 152 151 150 149 148 145 147 146 146 146 145
147 146 145 148 149 148 149 150 152 152 154 154 154 155 155 156 155 154 154 153 153 154 153 152
152 151 151 151 148 149 148 147 146 145 145 145 145 144 144 142 142 140 138 138
192 191 191 190 189 188 187 187 186 185 182 178 177 174 172 171 169 167 166 166 164 162 162 160
158 156 155 156 154 153 153 152 151 150 150 150 150 150 143 145 143 119 139 143 138 145 145 144
144 144 143 145 147 148 149 149 150 152 153 154 154 154 155 156 156 154 153 153 153 153 154 153
152 152 151 150 149 149 149 149 148 146 145 146 145 145 143 143 143 142 140 139
193 192 191 191 190 189 188 187 186 185 182 179 177 174 172 171 168 167 166 166 163 162 161 157
155 155 155 153 152 150 147 150 150 147 147 148 147 147 144 140 141  76 110 113 126 138 144 143
143 144 142 142 144 146 147 149 149 150 152 152 153 154 155 156 155 154 155 154 153 153 154 152
152 153 151 151 151 149 149 149 148 148 147 146 146 145 144 144 143 143 143 140
194 192 192 192 191 189 188 187 187 185 181 178 176 174 172 169 167 165 163 164 161 158 159 156
155 154 151 154 156 155 146 145 145 139 128 144 148 148 145 134 127  96  60  71  85 123 117 135
133 137 142 141 143 143 145 147 148 150 151 152 152 153 154 155 155 155 155 154 154 154 154 154
153 153 153 152 150 150 149 149 148 149 148 147 146 146 144 144 144 145 144 141
195 194 192 191 190 189 188 188 187 185 182 179 175 173 170 168 166 163 162 162 160 161 149 151
152 141 111 123 120 113  91  63  61  63  55  78  89  86  86  99  56  53  38  52  13 100  89 102
 93  84 141 132 141 140 142 146 147 147 149 151 152 152 153 154 154 155 155 154 154 155 154 154
153 153 153 152 151 150 149 150 149 148 148 147 145 145 145 146 146 145 144 143
195 194 193 192 191 189 188 188 187 185 182 178 175 172 170 168 165 163 162 160 155 145 135 135
144 122  60   0   0   0   0   0   0   0  11   0   0   0   0   0  15  31  29  44  22  49  86  68
 90  40 109 108  93 121 142 143 145 147 149 150 151 152 153 153 153 155 154 154 154 154 154 154
153 153 153 153 151 150 150 150 149 148 148 148 148 147 147 146 145 146 145 143
195 194 194 193 192 191 189 188 187 185 182 178 174 172 169 167 165 161 157 160 145 109  94 101
 94  56  30  38  34  45  27  24  24  22  23  25  27  27  25  26  21  15  43  29  23  17  40  31
 72  79  27  87  50  63 132 143 144 145 148 149 149 150 153 153 154 155 154 154 154 154 154 153
154 153 154 153 152 150 150 150 149 149 149 149 148 148 148 147 146 147 146 143
197 196 194 193 192 192 190 189 188 186 182 178 174 171 169 166 163 163 157 134 126 105  88  55
 11  19  25  22  22  18  17  17  18  18  15  17  17  15  18  15  16  13  27  27  13  26  18  48
 39  61  24  53  74   3 113 144 141 145 146 146 148 150 152 152 154 154 153 154 154 154 155 154
154 154 153 152 152 151 151 150 151 150 149 148 149 149 149 148 148 147 147 144
198 197 195 194 194 193 191 190 188 186 182 176 173 171 167 166 148 131 125  56  40  84  63  60
 87  36  23  21  20  20  19  16  16  16  15  16  17  17  14  15  14  16  15  16  16  20  21  25
 36  25  30  26  65   0  98 138 138 142 143 146 146 148 151 151 153 153 153 154 154 155 155 154
154 153 152 152 152 151 151 151 150 150 149 149 149 149 150 149 148 148 147 146
198 197 197 195 195 194 191 190 188 186 181 174 169 169 165 166 116   0  39  29  27  41  21  40
 54  26  20  21  20  19  20  20  15  16  16  16  15  18  16  14  14  14  15  18  14  20  18  15
 19  19  24  23  37  13  84 130 134 141 141 144 144 146 149 151 152 152 152 153 154 154 153 154
153 152 152 152 152 150 148 149 149 149 148 148 148 149 149 149 149 149 147 145
199 198 197 195 195 194 192 190 186 183 183 179 168 139 112  78  38  40  38  34  26  19  23  15
  0  18  20  19  19  19  17  21  16  13  17  15  16  16  17  14  14  14  13  16  15  20  20  18
 18  19  21  20  24  32  70 124 128 140 137 140 142 144 147 148 150 150 151 152 152 153 153 153
152 152 151 152 151 149 149 148 149 148 148 147 147 148 147 147 148 149 148 146
199 199 197 196 196 194 192 191 191 186 171 151 116  40   0   0  25  28  29  28  23  22  23  23
 23  17  18  18  18  20  19  16  20  14  15  16  16  16  18  17  16  15  14  14  16  19  20  18
 19  18  19  18  23  26  37  93 129 138 136 138 140 143 143 146 148 149 150 151 152 153 154 153
152 152 151 150 150 150 149 150 149 148 147 147 148 147 146 147 147 147 148 145
200 199 198 197 197 195 193 191 164 112  69  15   0  28  35  33  26  23  23  23  23  21  19  20
 21  18  16  18  18  16  20  17  17  16  13  14  16  15  16  17  16  16  15  13  15  21  21  15
 22  20  18  17  21  26  18  58 127 135 134 137 137 140 141 143 146 148 149 151 152 154 154 153
152 153 152 151 150 149 149 149 148 148 146 147 147 147 147 147 146 146 145 144
201 200 199 198 196 194 194 179 144 111  57  30  41  40  30  30  25  23  23  20  21  22  25  22
 21  20  19  15  16  17  16  19  16  14  13  14  15  14  14  16  15  17  14  11  15  19  18  12
 18  16  17  16  21  25  16  38 117 131 129 134 134 136 138 141 144 147 149 150 151 152 152 153
153 152 152 151 150 149 150 149 148 148 148 147 148 147 147 147 147 147 146 144
201 199 198 197 196 195 190 179 153  93 100 118  87  57  61  50  31  26  26  23  20  19  21  22
 21  20  21  20  15  17  17  16  16  14  14  13  13  14  13  13  15  16  15  10  12  15  15  12
 14  16  17  19  20  21  24  10  72 123 127 131 131 133 136 138 142 146 147 148 150 152 152 152
152 152 152 151 151 150 149 150 149 148 148 148 148 148 148 147 146 146 147 145
201 200 198 198 197 195 189 178 153 166 156 116 106 100  59  38  37  23  27  25  22  20  19  19
 20  19  19  19  17  14  14  14  15  16  16  15  15  14  15  16  16  14  13  10  11  12  12  11
 12  15  13  20  19  18  20  25   8  76 111 119 129 126 127 137 140 142 145 147 149 151 152 152
152 152 152 151 150 150 149 150 150 149 148 147 148 149 148 147 147 147 147 146
201 200 198 197 197 191 190 176 128 115 121  91  77  80  62  36  35  23  24  25  24  22  22  21
 21  20  18  18  15  14  16  16  16  18  21  20  22  27  32  29  29  23  18  15  13  11  10  11
 12  13  13  17  14  14  18  22  20  12  53  68  87 106 106 114 137 139 143 147 149 151 151 151
151 152 152 151 150 150 150 149 148 148 147 147 148 148 148 148 148 147 147 147
201 201 200 199 197 197 177 134  98  66  37  36  29   6  24  22  17  20  19  21  22  21  21  21
 21  21  19  17  17  18  17  22  28  29  29  38  47  47  57  56  50  46  42  37  29  23  18  14
 12  11  14  14  15  11  16  19  17  22  14  20   4  72  90 105 136 137 140 145 148 150 150 151
151 150 151 150 149 150 149 148 148 148 147 147 147 147 147 148 147 147 147 147
202 201 200 198 198 191 152 114  91  47  59  55  36  26  22  20  20  18  17  16  16  17  17  18
 18  18  20  25  29  36  43  44  53  57  60  67  68  66  66  66  63  58  56  52  48  44  36  28
 19  15  14  13  12  11  14  16  15  17  21  23  17  50  75 121 130 133 138 141 144 147 149 150
151 150 150 149 148 147 147 148 148 148 148 147 147 147 147 147 148 148 148 148
202 201 200 199 198 181 142 139 141 130  95  51  45  26  23  24  25  22  20  19  17  17  18  18
 21  30  38  52  64  69  74  78  80  78  79  79  75  71  70  67  66  63  58  56  55  53  48  40
 33  27  20  14  11  11  12  14  13  13  18  21  25  20  62 115 122 130 135 138 142 144 147 149
150 150 150 148 147 147 147 147 147 148 147 147 147 147 146 147 147 148 148 146
203 202 201 200 199 186 185 196 181 125  80  35  26  28  28  26  24  24  25  21  21  20  19  25
 42  59  69  73  78  81  84  86  88  88  84  81  76  68  74  74  72  71  66  62  61  60  57  53
 47  38  29  22  16  13  13  14  14  13  13  19  21  16  18  79 117 127 131 136 139 142 145 148
148 149 149 149 147 147 147 146 146 146 147 146 147 147 148 147 148 148 146 146
204 202 201 200 200 198 195 169  88  50  44  30  25  25  26  25  25  25  25  24  23  23  33  52
 68  76  80  82  87  87  88  89  89  88  86  85  85  82  81  79  78  76  72  70  69  68  66  61
 56  49  42  36  29  20  15  13  11  11  11  14  15  18   5  50 115 121 128 133 136 141 143 145
147 148 148 147 147 147 146 146 147 146 146 146 146 147 147 147 148 148 147 145
204 203 201 200 200 199 180 129  72  71  29  29  36  28  29  26  25  26  25  25  26  39  62  75
 83  86  88  91  92  91  92  93  92  92  89  86  87  86  87  86  82  79  77  75  76  74  71  67
 62  56  53  48  40  33  24  17  14  12  12  16  18  18   5  48 103 116 124 127 132 139 141 143
145 146 146 146 146 146 145 145 146 145 146 146 146 146 147 148 147 148 147 147
204 204 203 201 201 197 185 148  56  14  26  45  38  31  29  26  25  25  26  27  41  65  80  87
 89  93  96  95  97  96  95  96  95  96  95  92  92  92  91  89  84  82  81  82  83  80  76  72
 69  63  60  54  50  43  34  24  17  14  14  14  15  17  16  36  83 107 117 124 130 135 139 143
145 145 146 147 146 145 145 146 146 144 146 145 146 146 147 147 148 148 147 146
206 205 204 203 202 202 191  99   0  44  58  38  30  30  27  27  25  25  26  38  64  81  90  94
 95  99 100 101 103 102 101  99 100 100 100  96  96  93  91  90  88  86  85  86  85  85  82  79
 73  69  67  61  56  50  42  33  23  16  15  12  12  16  22   7  68 101 114 124 128 133 138 142
144 145 145 145 145 145 145 145 145 145 146 146 146 146 148 148 148 147 147 146
206 207 205 203 203 204 169  65  43  87  65  47  41  25  25  24  24  27  34  59  78  90  96 100
103 104 105 109 109 109 109 106 103 103 102  99  99  97  96  93  92  90  87  87  87  84  82  82
 78  73  70  65  61  55  50  42  31  20  14  13  14  14  18  16  70 106 114 121 127 133 137 140
142 144 144 144 145 144 144 144 143 144 145 146 146 147 148 148 148 147 147 147
208 207 205 203 204 203 186 158  72  69 100  87  19  29  26  26  29  28  52  77  87  94  97 102
105 109 112 113 110 109 107 105 104 107 106 106 102  99  98  96  96  94  90  90  89  86  83  81
 80  77  73  67  63  59  53  48  39  28  17  13  15  13  17  15  44  92 110 119 126 132 135 140
142 144 144 144 144 144 144 144 144 144 144 144 145 146 146 147 148 148 148 147
209 208 206 204 204 203 203 197 141 112 136  23  30  31  28  30  31  34  66  84  92  95  99 104
107 111 111 110 109 108 108 107 108 109 107 106 105 101 102  99  97  95  92  89  85  88  88  83
 79  78  75  70  65  62  58  52  48  35  21  15  14  14  16  16  20  66 103 118 125 130 134 140
143 144 145 144 145 145 144 145 145 144 144 144 145 146 146 147 147 147 147 146
210 209 208 207 206 205 204 200 196 175 128  57  33  32  28  32  30  48  77  90  93  96 101 104
108 109 109 113 110 108 109 109 108 108 110 107 107 105 100  98  97  92  89  87  80  77  80  80
 77  73  74  71  69  67  64  58  53  40  26  19  17  13  15  16  18  59  97 118 123 129 135 139
142 144 145 146 145 144 144 144 145 144 144 144 145 145 145 146 146 147 147 146
210 209 209 208 206 206 205 204 203 200 150  46  38  31  28  35  37  63  88  91  93 100 102 100
103 106 107 106 109 112 110 108 107 107 111 108 104 103 102  99  98  94  89  85  83  78  75  74
 73  72  70  68  69  69  66  64  57  45  31  23  20  16  16  16  16  42  90 113 122 129 134 140
143 145 146 146 146 145 144 144 144 145 144 144 146 145 146 147 147 148 148 147
212 211 210 209 208 206 205 205 203 205 164  47  38  31  31  34  41  78  95  94  95  98 100 100
102 102 103 103 110 109 104 103 103 107 111 110 106 106 103 100  98  94  92  86  81  78  78  75
 71  70  68  69  69  69  72  69  62  50  36  27  23  19  18  17  17  22  68 107 121 129 135 140
144 146 146 146 146 146 145 144 145 145 144 145 146 145 147 147 148 149 149 147
213 212 210 209 208 208 207 206 204 201 188 116  33  38  36  35  49  86 101  98  97  95  97  99
102 101 101 103 104 105 105 103 100 105 110 109 107 106 102 101 100 100  95  89  84  78  75  73
 72  72  69  69  70  72  72  71  67  53  37  28  23  20  19  17  21  14  42  99 120 127 134 140
143 146 146 146 145 145 145 145 145 145 145 145 145 144 146 148 148 149 148 147
214 212 211 211 210 209 208 207 206 205 203 168  68  36  41  37  52  85 101 100  98  95  94  96
 96  94  95 100 102 103 105 102 100  99 104 108 109 105 104 102 102 103  98  91  87  82  74  72
 71  70  69  71  71  73  74  73  70  58  41  30  24  20  19  18  19  20  20  73 116 128 134 141
144 145 146 146 145 146 146 146 146 144 146 146 146 146 147 148 149 149 149 147
215 213 212 211 210 210 209 208 207 206 204 198 134   3  45  38  57  86 100  99  98  95  96  92
 92  95  98  98  99 101 102  99 100 101 102 107 107 106 103 104  91  91  97  93  88  85  80  73
 73  72  69  69  70  74  76  75  71  63  50  32  23  20  18  19  21  23   9  60 111 128 135 141
145 146 147 147 146 146 146 146 146 146 146 146 146 147 147 148 150 149 149 148
215 214 213 212 211 210 210 210 208 206 203 204 163  11  41  44  56  83 103 103 100  95  93  93
 97  99 103 102  99 100 103 103 103 106 108 109 109 107 106 107 104  97  96  94  90  88  87  81
 78  76  73  70  69  72  77  75  73  68  62  45  26  19  18  21  22  20  10  55 108 127 135 142
145 147 147 148 147 146 146 146 147 146 146 146 146 147 147 148 148 149 150 150
215 215 214 213 212 212 210 210 209 207 204 204 173  30  40  42  52  82 104 107 101  96  94  99
103 105 107 107 102 102 109 111 112 111 114 114 113 111 110 111 111 106  99  99  96  91  94  90
 87  79  77  76  73  73  77  78  75  73  70  63  39  20  19  22  23  20   7  51 107 128 137 142
146 147 148 148 148 148 147 147 147 146 146 146 146 147 148 148 149 150 149 150
216 215 215 213 213 212 211 210 210 208 205 206 172  14  41  37  52  87 105 107 104 103 104 107
109 111 118 118 112 112 119 118 117 120 124 120 116 120 122 123 123 118 105 107 112 105  93  92
 95  88  84  82  78  74  76  77  74  71  71  71  51  22  20  19  22  18  20  26  97 131 138 144
147 148 148 149 149 148 148 148 147 147 147 147 147 147 147 148 149 151 150 148
217 216 215 214 214 212 211 211 209 209 206 207 171  31  44  37  54  93 111 108 107 108 108 112
119 124 127 122 120 122 130 129 129 131 131 129 122 124 132 130 132 131 123 106 119 114  94  80
 89  92  84  88  86  79  76  74  72  70  70  73  62  25  18  18  21  19  21  30  83 130 141 145
148 149 149 149 149 148 149 149 149 148 148 148 148 147 148 149 150 150 151 149
217 216 215 215 214 213 211 211 210 209 207 206 168  54  41  38  63 102 112 108 109 108 112 121
121 118 114 120 135 135 141 142 139 142 141 138 131 127 141 140 137 138 141 122  96  90  63  49
 46  62  69  69  80  82  76  74  74  69  68  73  69  30  15  20  22  21  14  45 103 132 141 146
148 149 150 150 149 149 149 150 150 148 147 148 148 148 148 150 150 151 151 150
218 217 216 215 214 214 213 212 211 210 208 206 161  38  43  36  76 109 107 107 110 116 116 107
 98  97 104 120 135 148 151 153 150 149 146 146 144 130 135 151 146 150 149 109  62  36  28  22
 19  16  26  29  45  58  54  57  65  70  71  72  71  40  10  22  25  22  18  29 103 134 140 147
150 151 151 151 151 150 150 150 149 149 148 149 148 148 148 150 150 151 151 150
218 219 217 215 215 214 213 212 211 210 208 208 170  56  41  32  82 112 102 109 112 100  86  62
 58  76  72  68  87 131 151 155 157 149 146 149 148 132 116 141 146 142 137  74  36  38  33  33
 34  34  33  27  19  16  15  19  32  53  69  73  72  47  12  24  23  20  22  21 102 137 141 150
151 152 151 151 151 150 151 150 150 149 149 148 149 148 150 150 151 151 151 150
220 219 217 215 215 214 214 212 212 210 209 209 184  88  36  26  82 108 101  93  71  43  29  28
 28  25  26  29  44  75 120 152 161 156 148 154 157 141 121 130 143 116  82  50  32  19  12  20
 27  29  26  28  28  24  32  35  33  37  59  72  73  52  13  26  22  20  16  51 115 138 144 151
152 151 152 151 151 151 151 151 150 149 149 150 150 150 150 151 151 152 153 150
220 219 218 217 216 215 214 213 213 212 210 209 193 112  26  25  80 109  81  29  22  27  32  35
 37  36  32  25  32  28  54 130 159 162 151 155 160 149 129 127 135  91  62  66  67  74  68  59
 55  49  54  56  53  60  69  56  50  46  60  75  75  59  14  26  22  19  18  75 125 138 147 151
152 152 153 152 151 152 152 152 151 151 151 150 150 152 151 151 152 152 153 152
221 220 219 218 217 216 215 214 214 213 212 210 199 117  39  21  80 107  50  42  54  53  35  40
 49  47  45  48  54  61  53  86 141 155 154 154 152 149 132 120 116  93  89  97 104 110 111 113
113 106 102  99  90  88  84  74  74  69  69  73  79  68  22  23  23  21  23  96 131 141 149 152
153 153 153 153 152 151 152 152 151 151 151 151 151 151 151 151 152 153 153 152
222 222 221 220 218 217 216 215 214 214 212 211 204 164  65   5  86  98  44  66  80  85  92  97
 99 105 110 110 108 108 112 108 116 136 150 156 156 151 134 117 101  89  96  95  88  88  96 106
115 116 119 116 109 101  97  91  87  89  90  83  80  74  35  22  24  19  32 112 134 141 150 154
154 153 154 154 153 152 152 152 152 152 151 151 151 151 151 152 153 152 153 151
223 222 221 220 218 218 217 217 216 214 213 209 209 199  98   0  88  98  83 100 111 119 124 129
127 125 114 105  98  95 103 117 116 117 139 151 155 145 125 110  91  82  88  82  82  78  79  61
 50  84  82  85  95  96  95  93  89 100 101  90  81  79  46  21  26  20  31 112 135 143 151 155
156 155 155 155 154 154 154 153 153 153 152 151 151 151 152 153 153 153 153 151
224 223 222 221 220 219 218 218 217 216 214 212 209 210 159   2  93 116 115 118 123 122 119 117
106  88  95  58  64  90  94  99 115 112 127 139 142 131 114 100  84  72  76  77  68  68 123  96
  0  86  39   0  41  66  77  83  90  95 102  96  84  82  55  22  25  21   3 105 138 145 152 155
156 155 155 155 155 154 153 153 154 153 152 151 152 152 152 152 153 154 153 152
225 224 224 222 221 220 220 219 217 217 215 213 210 209 192  78  94 123 124 123 110 107 100  72
 32  15  84  30  74 114  91  73  97 106 115 128 126 120 110  98  81  65  76  66  51  57  81  83
 44  29  34  48  52  11  33  61  82  95 100  98  88  83  64  23  22  42  41 105 139 147 153 155
156 156 155 156 155 155 155 155 154 153 152 152 152 152 152 153 154 154 154 152
225 225 224 223 222 221 220 219 218 217 216 214 211 209 202 102  98 128 128 121 103  80  29  58
 72  45  31  58  81  86  73  75 104 103 111 121 117 117 111  99  81  64  75  86  78  78  77  82
 80  85  75  71  76  74  52  60  79  94  98  97  91  83  70  28  50  70  77 112 142 150 156 157
157 156 157 156 156 156 156 155 155 155 153 152 152 152 152 153 154 154 154 152
226 225 224 223 223 222 221 220 219 219 217 214 212 210 209 123 100 130 127 119  91  47  54  76
 82  78  96  92 104 105 102 110 110  99 111 121 120 117 113 101  84  69  65  82  89  86  94 103
114 115 110 110  98  98  89  87  90  92  97  97  91  85  73  37  66  77  77 120 145 151 156 157
157 157 157 157 156 156 156 156 155 155 153 152 153 153 153 153 154 155 154 152
226 225 225 224 223 223 222 221 219 219 218 214 213 210 212 142 101 130 126 116 106 101 107 114
124 123 129 120 116 111 109 106 102  99 112 123 119 118 118 105  88  76  69  70  82  90 100 109
115 118 119 116 108 105 105 102 102  97  96  99  94  86  77  39  66  77  77 122 146 153 158 158
158 158 158 158 157 156 155 155 155 155 154 153 153 153 153 154 155 156 155 153
226 226 225 224 223 223 222 221 220 219 218 216 214 211 214 148 106 130 123 122 124 128 130 133
137 140 142 136 124 118 112 104 105 101 115 118 119 123 119 103  92  84  75  77  76  91 105 114
122 123 121 119 113 110 109 104 106 105  98  98  94  85  80  41  66  70  91 135 148 155 158 158
159 159 159 158 157 156 155 155 155 154 153 153 153 153 153 153 154 156 155 153
227 226 225 224 224 224 222 222 221 221 219 217 215 212 217 171 107 130 124 126 128 130 135 140
142 145 145 142 134 126 117 114 109 109 114 118 125 126 121 102  90  90  83  82  85  89 102 117
126 130 128 122 116 112 108 105 106 106 102  98  93  87  79  46  78  77 112 142 148 156 158 159
159 159 159 159 157 157 157 155 155 155 154 153 153 153 153 153 154 154 154 153
228 227 226 225 225 224 223 223 222 221 220 218 216 214 215 192 118 126 125 126 127 130 134 137
142 145 148 147 138 128 124 120 113 113 111 121 124 122 120 104  88  89  91  84  89  95  99 114
125 130 132 129 122 117 113 111 107 105 105 101  92  89  77  73  94  81 122 145 153 157 160 160
159 159 159 160 158 158 157 156 156 155 154 154 154 153 154 155 155 155 155 155
228 228 227 225 225 224 224 224 223 223 221 218 216 215 214 203 132 122 124 125 130 132 134 139
144 149 148 146 136 131 132 121 114 112 112 121 120 121 113 102  92  88  92  87  90  99 103 107
114 126 130 131 127 123 119 117 113 108 106 101  95  90  80  82  97  85 127 149 155 159 160 160
159 160 159 160 159 158 158 157 156 155 155 154 154 155 155 154 155 156 157 156
229 227 228 227 226 225 225 224 224 224 222 219 217 216 213 209 142 120 127 132 132 131 135 142
148 148 147 140 136 137 132 121 118 114 113 120 122 122 110  94  88  89  92  95  92  97 105 112
114 115 119 122 126 124 122 119 115 111 107 101  95  90  80  71  87  86 133 153 156 160 161 159
161 161 161 161 160 158 158 157 157 156 156 155 155 155 155 156 157 157 157 157
229 229 228 227 227 226 225 225 224 224 223 220 217 216 214 212 153 121 132 135 135 135 140 144
148 143 138 136 142 141 131 125 125 116 113 120 122 124 114  91  81  83  92 101  98 100 107 112
119 120 117 115 119 121 122 120 116 114 111 103  96  92  75  50  79  88 140 155 159 162 162 161
161 162 161 161 160 158 158 158 157 157 156 155 155 155 156 156 157 158 157 157
230 229 228 227 227 226 226 225 224 223 223 220 218 216 214 217 167 120 134 135 136 137 142 144
140 135 133 138 143 140 131 132 127 114 112 119 125 123 114 100  84  76  82 102 108 108 111 115
119 121 121 120 120 122 121 119 113 111 110 105  96  91  75  65  85  93 145 156 160 164 163 162
162 162 162 161 159 159 158 158 157 157 155 155 156 156 157 157 157 158 158 157
231 230 228 227 226 226 226 225 224 224 223 220 218 216 214 218 181 121 134 133 135 138 139 137
136 137 138 142 146 143 138 134 119 116 113 120 131 127 120 114  99  81  72  82 103 118 119 118
121 123 122 124 123 126 122 119 116 111 109 105  97  91  77  92  81 109 154 156 162 163 164 162
162 163 163 161 160 159 158 159 157 157 156 156 157 157 157 158 159 159 159 157
230 229 228 226 225 225 226 225 223 223 223 220 217 216 215 217 191 123 135 134 139 139 138 138
138 135 138 143 146 147 145 121 100 111 115 127 133 136 131 122 111  95  72  65  68 108 131 127
123 128 128 124 123 124 124 121 117 111 107 104  97  89  78  96  90 133 158 159 164 164 164 163
162 163 163 162 161 159 159 159 158 157 157 157 157 157 157 158 159 160 159 158
230 229 227 226 226 226 225 224 224 224 223 221 217 216 215 216 202 132 134 136 138 140 141 142
141 136 140 142 148 153 147 102  95 105 126 136 147 153 145 128 115 100  84  75  64  82 132 138
133 131 133 129 127 125 125 125 116 110 109 103  96  85  77  90  99 150 157 162 165 166 165 164
163 162 164 163 161 159 159 159 158 158 157 157 157 157 158 158 160 161 160 159
229 229 227 226 226 226 225 225 224 224 222 220 218 217 216 214 208 143 130 138 140 143 143 143
143 140 143 147 154 162 142  97 107 120 136 146 163 170 165 144 125 107  99  95  85  70 124 148
145 141 138 137 135 129 124 124 119 113 110 102  96  85  72  87 135 157 159 164 166 166 166 165
165 164 164 163 162 161 159 159 159 158 157 157 157 158 158 159 160 161 160 159
229 228 227 226 226 225 224 223 223 223 221 219 219 218 217 215 214 153 129 141 143 142 144 144
146 151 150 156 162 167 137 124 142 137 148 163 172 188 198 179 138 114 119 126 118  87 120 155
152 150 149 145 139 133 128 124 119 114 111 102  95  78  96 140 154 157 162 165 167 166 166 165
165 164 164 164 163 161 160 159 159 159 158 158 158 157 159 160 160 161 161 159
229 228 227 225 225 224 223 223 223 223 222 220 218 217 217 216 216 166 128 141 145 146 149 152
155 158 161 161 164 166 144 146 152 146 158 174 180 184 193 187 147 121 118 123 133 107 125 155
157 157 157 152 144 138 133 125 118 114 109 103  94  70 109 151 153 159 163 167 167 167 166 165
165 165 165 164 162 162 160 160 159 158 158 159 159 159 161 160 160 161 160 160
228 226 225 225 224 223 223 223 223 223 222 220 217 216 217 215 217 179 128 144 148 149 153 159
160 163 164 165 164 165 150 138 119 118 152 178 183 178 170 161 138  98  70 107 130 109 131 150
161 164 158 154 149 141 133 126 118 112 109 101  91  67 115 152 155 162 165 166 167 167 166 165
165 165 164 163 162 161 160 160 159 159 159 159 160 160 161 161 161 161 160 160
226 225 225 224 223 224 224 223 222 222 222 220 218 217 217 216 218 190 129 144 148 150 154 160
163 166 166 167 167 164 156 137 130 136 135 160 171 165 160 159 121  86 106 135 120 110 136 147
155 163 159 155 152 144 135 129 120 111 108  99  87  65 119 153 156 162 165 166 167 167 166 165
165 164 164 163 161 160 160 160 159 159 159 160 160 160 160 161 161 161 160 159
226 226 225 224 224 224 223 223 223 222 221 219 217 217 217 215 217 198 129 142 147 153 156 162
164 168 169 169 165 154 149 142 137 136 139 147 150 148 147 136 122 130 120 118 111 117 131 134
143 155 159 156 152 147 138 129 119 112 106  96  86  66 128 155 157 163 166 167 167 166 166 165
165 164 164 164 161 160 160 160 160 159 159 160 161 161 161 161 160 161 160 159
226 225 225 225 225 224 223 223 222 221 221 219 218 217 216 215 216 207 142 137 147 153 159 165
167 169 170 163 152 143 142 140 131 113 133 146 149 141 137 132 134 136 116 111 120 115 124 126
127 138 144 148 150 147 137 129 119 110 104  91  81  71 136 156 159 164 166 166 167 166 165 165
164 164 163 163 162 161 160 160 160 160 160 160 161 161 161 161 161 160 160 159
226 225 225 224 224 223 222 222 222 222 221 219 217 216 216 216 215 214 153 134 148 151 157 164
166 166 161 152 142 137 129 126 112 105 128 136 151 163 150 156 154 133 116 114 112 110 110 114
116 125 132 134 143 143 135 130 119 108 100  90  79  81 142 156 161 164 165 167 166 165 165 164
164 163 162 162 161 159 160 160 159 159 159 160 160 160 161 160 160 160 160 158
226 226 224 224 223 223 223 221 220 221 220 219 217 216 216 215 213 217 161 128 148 151 157 163
164 162 153 140 132 122 117 112 101 112 132 135 147 165 152 149 157 135 118 113  97  99  92  96
104 109 118 124 133 138 133 128 118 105  98  89  75  96 147 155 162 165 165 166 166 165 165 164
164 163 163 163 160 159 159 159 159 159 159 159 160 161 161 160 160 160 159 157
225 226 225 223 223 223 222 222 220 220 220 218 217 216 215 214 212 217 182 121 144 148 156 162
163 153 141 126 113 109 115 119 110 131 145 155 154 140 138 145 148 141 128 117 106 104 104 102
102 100  94 110 127 134 132 126 114 104  98  88  70 109 150 155 163 165 165 166 166 165 165 164
164 163 163 162 160 159 160 159 159 159 159 160 161 161 160 160 160 160 159 158
225 225 224 223 222 222 222 222 220 220 219 218 216 215 214 213 213 216 197 130 139 143 153 158
159 147 124 118 127 139 135 143 144 147 154 162 146 124 129 149 157 147 138 137 128 129 129 122
124 117 102 106 123 130 130 125 110  97  88  86  77 124 150 157 163 165 165 165 165 165 164 163
162 162 162 160 159 160 160 159 158 158 159 160 159 160 161 160 160 160 159 158
224 224 224 223 221 221 221 220 220 220 219 218 215 214 214 214 213 212 213 149 131 142 150 157
156 144 122 141 154 160 164 164 163 156 151 158 158 156 158 161 156 150 149 149 145 147 147 140
139 140 118 108 121 129 128 122 106  93  90  83  84 134 147 156 163 166 165 164 164 164 163 163
162 160 160 160 159 159 158 158 159 159 159 159 160 160 160 160 160 160 158 157
224 223 223 221 220 220 219 219 219 219 217 215 214 213 213 212 213 210 214 170 116 134 145 155
154 138 129 153 164 164 167 155 148 144 136 137 141 149 145 139 138 133 129 128 123 125 133 136
137 133 130 118 123 132 127 114 102  95  89  72  91 135 145 156 163 165 165 164 163 162 162 161
161 160 160 159 159 159 158 158 159 159 158 159 159 159 159 159 159 159 158 156
224 223 222 220 220 220 218 218 218 218 216 215 213 212 211 210 211 209 210 199 127 126 138 151
156 149 146 149 146 143 139 115 104 104 104 105 113 118 114 107 105  97  90  92  93  80  94 110
113 117 132 129 128 134 126 112 101  94  83  66  96 134 145 155 163 164 164 163 162 162 162 160
159 159 159 159 159 158 157 158 158 159 159 158 158 158 158 159 159 158 157 156
223 222 221 220 220 219 218 217 216 215 215 213 212 210 210 210 209 208 204 209 157 116 136 148
154 149 145 142 139 127 128 123 115 115 117 116 113 114 113 117 121 120 114 110 111 105 106 110
107 119 132 141 139 134 124 109  97  91  81  69  98 132 143 154 161 163 161 161 159 160 159 159
159 158 158 158 158 158 157 158 159 159 159 158 158 159 158 158 158 158 157 156
223 223 221 219 218 217 217 216 215 215 213 212 210 208 209 208 207 205 203 206 190 125 130 143
152 155 155 153 144 129 130 135 135 134 136 143 152 149 148 160 154 142 119 119 117 114 113 115
116 123 138 147 145 133 123 104  92  85  76  74  96 132 143 153 159 159 159 158 157 157 158 158
158 157 157 157 157 157 157 158 159 159 158 158 158 158 157 157 158 158 157 155
223 222 221 218 217 216 215 214 214 214 213 211 209 207 206 205 203 201 198 196 198 154 122 134
148 158 163 158 148 143 138 132 142 142 135 136 135 137 137 130 128 122 120 128 126 122 125 126
125 126 134 140 141 133 119 101  90  81  78  83  93 126 139 151 158 158 158 158 157 156 157 156
155 156 156 156 157 156 156 157 157 158 158 157 158 157 156 156 157 157 156 154
221 220 219 217 216 215 214 213 212 212 211 209 206 203 201 199 195 192 187 184 183 173 124 125
141 153 157 155 148 145 148 146 146 144 136 130 120 118 121 122 123 125 132 130 130 129 129 130
126 123 130 135 133 127 113 100  90  76  86  84  89 115 127 139 150 154 155 155 156 155 154 154
154 154 154 155 155 155 155 156 155 156 156 156 157 156 156 156 155 156 155 153
221 220 219 216 215 214 213 212 211 211 209 205 203 198 193 188 184 179 173 168 164 160 135 124
142 144 153 156 147 142 146 151 151 149 147 143 131 118 109 112 124 133 135 134 134 132 131 127
122 126 132 127 125 120 109  96  81  76  90  82  85 104 113 123 134 139 141 143 147 150 151 151
152 151 151 152 152 153 154 155 155 154 154 154 154 153 154 155 154 154 154 151
220 219 218 216 213 212 211 209 207 206 205 200 196 189 182 176 169 162 153 146 142 136 124 121
138 144 148 155 150 144 142 146 154 158 158 151 143 133 135 134 134 139 140 142 139 135 128 126
128 127 122 123 118 112 104  90  73  88  90  82  81  91 100 108 117 121 124 127 130 136 139 140
141 142 145 148 150 151 152 153 152 153 152 152 152 151 153 153 152 152 152 150
219 218 217 214 211 208 205 201 198 197 195 190 184 176 167 158 150 142 133 123 113 109 101 105
127 141 147 148 153 150 146 145 152 157 150 143 144 143 145 148 146 142 139 137 142 135 129 131
131 128 119 117 116 109  94  79  79  95  89  83  75  79  87  93  99 104 107 111 115 120 125 127
128 130 132 136 139 144 148 149 149 148 148 148 148 149 150 150 149 150 151 148
217 217 215 211 207 201 196 192 189 185 183 177 168 157 149 140 130 111  86  69  54  73  65  97
118 123 141 147 148 149 149 149 150 151 148 147 139 137 146 143 131 130 132 131 137 137 135 137
131 132 127 120 114 100  87  74  93  96  88  81  69  55  64  78  83  87  91  95  99 105 111 114
116 118 120 124 128 132 135 138 142 143 144 145 146 146 147 146 147 148 147 147
216 215 212 206 199 192 185 180 175 170 165 160 149 139 125 101  79  59  39  40  60  67  61 105
124 112 127 142 147 149 147 149 152 147 139 133 125 135 142 136 129 128 117 113 120 134 140 140
131 128 124 117 105  89  74  88 101  94  87  79  69  62  49  49  64  65  71  79  85  90  96 101
103 105 107 111 116 120 124 128 132 135 138 141 142 144 145 145 145 145 144 143
215 210 204 196 189 178 168 162 156 152 146 139 130  96  57  45  47  47  42  50  63  61  70 103
124 120 110 133 142 143 147 149 150 136 129 127 121 131 127 126 120 118 106 109 108 114 126 134
131 118 105 100  94  75  77 104  99  93  88  77  68  70  72  54  36  43  37  47  67  79  86  89
 91  93  97 100 105 108 112 117 121 124 129 133 136 140 141 142 142 142 142 140
208 203 196 187 175 163 157 150 142 136 130 121  78  28  51  60  58  48  40  52  61  56  71 101
119 132 111 114 137 136 132 141 142 133 120 126 128 128 125 118 119 118 116 115 104 104 103 110
117 107  97  83  72  70 102 105  98  94  85  75  67  72  75  73  51  40  40  37  32  48  67  72
 74  70  76  89  95  98 100 105 110 114 120 124 128 132 134 135 137 139 138 137
200 193 185 173 163 148 129 112 110 107  96  69  42  51  53  57  57  51  41  49  59  56  70 101
117 130 137 106 116 130 123 128 130 122 113 118 121 117 123 118 123 116 124 123 108  99  94  98
100  90  86  71  57  94 108 102 100  94  85  76  67  71  77  81  70  40  38  38  38  35  33  37
 41  40  37  51  73  85  91  98  99 104 110 115 121 125 128 129 130 131 131 132
188 181 170 159 120  72  47  36  49  54  47  45  50  50  54  57  54  52  40  50  58  56  67  99
115 127 139 130  94 110 117 121 110 110 108 114 115 116 118 116 112 102 116 116 107 103  90  95
 92  84  78  55  78 107 106 102  97  93  83  75  64  70  78  82  77  47  35  38  35  37  39  38
 38  46  40  32  36  43  53  73  92  97 100 107 112 118 121 123 125 125 125 125
180 168 156 119  30  51  64  46  52  56  56  51  47  49  53  56  55  53  41  48  56  55  69  95
113 127 133 144 120  95 109 105 105 113 105 110 106 107 109 115 101 109 118 110 107 103  98  91
 82  75  61  70 101 107 105 102  97  89  82  74  64  68  75  80  81  53  32  37  35  33  37  36
 40  44  37  34  39  39  37  32  53  79  94 100 104 108 112 115 118 119 118 118
149 116  82  55  50  60  62  43  37  49  49  48  45  48  53  55  51  51  39  47  55  52  66  94
111 124 133 140 145 113  92 104 109 115 122 117 111 101 104 109 106 112 101  99 105 103  92  88
 74  58  60  99 108 109 108 104  97  87  81  73  64  67  74  78  79  56  32  35  34  32  36  37
 40  40  34  34  37  38  37  37  33  31  58  90  99 101 104 105 108 109 109 110
 55  35  58  52  45  52  61  48  36  43  45  40  46  49  54  55  52  51  36  44  53  48  63  96
106 121 133 139 146 143 104  83  97 112 117 106 110 110 114 110 113 107  92  91  96  97  85  85
 65  59  95 107 110 112 111 106  97  87  79  72  65  67  73  76  78  56  33  36  33  30  35  37
 39  37  34  33  33  37  37  34  34  34  26  50  84  92  98 102 103 103 104 105
 51  51  59  43  37  48  61  53  38  35  40  45  44  48  51  55  55  52  37  42  54  51  63  97
104 118 132 139 144 149 141  85  76  97  92  99 105 112 104  95  93  91  84  84  87  89  81  66
 71 101 109 108 111 112 110 106  97  85  75  70  65  68  75  77  75  55  32  33  31  29  33  37
 38  37  33  32  31  36  34  30  31  31  33  31  43  52  63  79  83  88  93  98
 43  51  59  40  34  44  54  52  39  34  34  42  44  44  47  53  56  52  40  40  52  52  58  96
105 114 129 136 142 145 147 140 111  83  69  76  86  93  86  80  87  84  82  84  82  66  62  87
111 111 106 112 113 115 111 105  93  83  76  71  67  69  75  77  75  54  32  32  30  30  35  37
 37  36  34  31  30  32  33  31  29  29  31  31  32  40  41  41  43  42  41  51
 46  57  55  36  31  38  49  54  44  37  34  33  36  43  46  52  58  52  41  35  48  52  51  91
108 115 125 133 141 144 145 143 143 131 109  94  84  72  67  72  75  71  60  64  71  84 108 119
113 104 112 110 115 117 110 101  91  82  77  71  68  71  75  78  76  53  32  32  29  30  32  36
 38  37  33  31  32  31  32  32  31  29  30  31  30  32  43  46  45  40  35  33
 43  57  54  33  31  36  46  53  47  40  36  33  33  41  42  49  55  51  44  34  45  49  46  81
109 115 122 131 140 144 146 146 143 143 143 141 137 122 114 112 109 106 107 114 120 125 121 115
111 111 116 115 118 117 111 100  88  82  77  72  72  74  78  78  76  51  32  31  30  29  32  35
 36  36  33  30  30  30  32  31  32  32  30  30  31  31  33  38  41  38  37  39
 42  54  47  31  31  35  41  51  47  44  39  32  31  36  41  47  53  53  48  34  38  49  47  65
106 116 122 129 139 146 147 150 149 144 140 138 140 144 142 139 137 133 131 130 126 122 118 116
113 114 119 119 117 117 111  98  88  82  79  75  76  78  81  80  74  48  33  33  33  30  31  35
 34  33  32  29  30  30  30  30  29  31  30  30  31  30  32  37  39  36  35  35
 44  50  38  32  29  31  36  47  47  45  43  34  31  33  36  45  52  49  50  39  34  46  48  47
 97 119 121 126 135 141 148 149 150 146 141 136 135 138 137 136 135 134 130 124 124 124 120 116
116 116 121 123 120 115 106  96  88  84  81  76  77  81  83  78  71  45  32  33  33  29  32  34
 34  32  29  27  29  30  29  27  28  29  31  31  30  28  31  36  35  33  32  32
 47  40  33  30  29  31  36  44  47  42  42  38  32  31  34  42  49  50  49  42  32  45  48  42
 75 118 120 123 129 137 148 150 148 146 146 140 134 136 135 135 134 133 131 128 126 122 119 119
117 117 122 122 120 112 102  93  89  88  81  77  81  82  84  81  72  43  30  33  32  27  29  33
 33  31  26  25  27  28  27  26  27  28  29  30  29  29  30  34  36  32  32  33
 42  37  34  30  30  30  34  41  45  45  42  38  35  31  32  40  49  50  46  47  32  40  46  47
 47 104 123 122 125 131 141 146 147 146 148 146 141 137 136 134 131 129 131 130 123 120 117 118
119 122 125 122 116 109  99  92  92  90  84  78  81  84  84  82  71  40  30  34  31  28  29  32
 32  29  25  28  27  26  28  27  28  28  30  29  29  30  30  32  34  31  30  32
 40  34  30  31  31  30  33  38  47  50  46  41  36  32  31  35  46  52  50  49  39  31  43  47
 41  78 124 125 126 127 135 141 144 145 148 147 146 145 139 137 134 132 131 129 124 122 121 124
125 127 129 124 112 104  95  92  93  93  88  81  82  86  84  78  66  35  31  32  31  29  31  34
 32  27  26  27  26  27  28  27  29  28  28  28  29  28  30  31  33  34  31  32
 34  31  30  30  31  33  35  37  43  48  48  43  36  33  34  36  45  53  48  49  46  32  39  45
 47  47 110 129 128 129 132 140 141 140 143 147 148 146 143 143 140 137 135 133 132 132 132 133
130 129 128 118 110  99  92  93  95  95  88  83  86  86  83  78  61  35  33  34  32  28  32  34
 31  26  26  27  27  29  28  26  28  27  28  29  29  30  30  32  32  33  31  32
 34  32  31  30  31  30  33  38  41  45  45  41  35  32  33  38  43  50  50  52  48  33  38  46
 47  40  79 126 128 129 130 137 141 141 143 141 145 146 144 143 142 139 139 138 137 135 137 136
130 127 125 117 107  98  93  95  98  97  89  86  86  84  81  75  57  32  35  34  31  27  32  32
 29  26  28  28  26  28  29  29  28  28  29  30  30  32  30  31  30  31  32  32
 36  33  30  30  29  30  33  37  38  44  48  41  37  32  36  39  40  48  53  51  50  40  36  44
 46  50  49 109 128 127 130 133 139 139 140 140 143 142 142 142 142 140 139 137 138 137 137 136
131 128 123 115 106  98  95  96 100  97  89  86  85  83  79  74  50  29  35  33  30  28  33  32
 29  26  27  27  27  27  28  28  27  27  29  31  30  31  32  28  28  31  32  30
 37  33  30  30  30  29  35  37  37  44  47  41  35  35  36  39  42  47  48  53  54  42  33  41
 45  49  43  79 124 126 130 133 135 137 137 141 140 139 141 140 139 142 143 140 137 136 137 137
133 127 120 112 105  98  97  97  99  96  90  86  86  84  78  70  42  29  34  33  31  28  31  31
 27  27  27  28  28  29  30  28  28  27  29  30  29  30  31  31  30  31  32  31
 33  31  30  31  33  31  37  38  39  44  49  42  35  35  39  38  39  41  46  56  52  42  33  37
 46  49  50  53 107 126 129 133 134 136 136 138 136 136 137 137 137 137 139 136 132 133 137 137
133 126 120 113 105  98  96  99  98  95  91  87  85  82  77  63  36  30  33  32  30  30  34  32
 29  30  29  29  27  29  29  28  27  26  29  28  28  31  32  31  31  30  30  32
 37  28  29  30  32  33  35  35  38  45  46  40  35  37  40  38  38  40  43  48  52  50  39  34
 42  48  49  43  84 121 129 130 131 135 137 136 134 133 133 133 135 135 134 133 133 134 135 134
132 119 119 113 104  98  94  96  94  91  92  88  86  80  76  58  31  33  31  28  30  32  32  31
 27  28  29  29  28  28  29  28  26  29  28  29  29  31  32  31  30  30  31  31
 35  29  28  30  34  32  34  34  37  45  45  38  35  36  41  40  41  42  44  49  53  50  41  33
 39  44  46  46  59 110 125 126 129 132 134 134 132 131 132 130 132 133 133 132 132 134 135 134
132 125 118 110 103  98  94  93  92  90  90  87  84  80  74  51  29  33  32  31  28  30  32  30
 28  27  29  29  27  30  29  30  30  30  29  29  30  30  31  31  29  30  30  31
 34  31  29  29  32  33  35  36  41  46  44  37  33  36  41  41  43  43  45  48  52  50  43  33
 38  43  44  48  44  91 120 122 124 127 127 129 129 129 128 126 129 129 128 131 129 132 133 132
131 126 119 113 102  97  93  92  90  89  89  87  83  82  73  44  31  32  34  31  31  31  31  30
 27  28  28  28  29  30  28  32  32  30  27  28  32  32  31  31  31  31  31  31
