P2
# 8-bit pgm - grayscale
92 112
255
188 187 186 186 186 185 184 183 183 182 180 177 175 175 174 173 172 171 170 170 170 169 166 165
165 164 161 161 159 158 157 156 155 154 155 153 153 152 151 150 150 149 148 147 147 147 146 146
144 144 144 143 144 142 142 143 142 142 141 141 141 141 141 141 141 141 141 140 141 141 142 141
141 142 143 143 143 143 143 142 142 142 143 143 141 142 143 140 142 140 137 136
188 188 187 187 187 186 185 184 184 183 180 177 176 175 174 173 172 171 170 170 169 168 167 166
164 163 161 160 159 159 157 157 155 154 153 153 153 151 150 150 149 149 148 146 146 145 146 144
143 143 143 142 141 141 141 141 141 139 141 140 139 139 140 141 141 140 141 140 140 141 141 142
142 142 143 143 142 142 143 143 143 143 143 142 142 143 144 142 141 141 140 137
189 189 188 187 187 186 185 183 183 182 181 179 177 175 175 174 172 171 170 170 168 167 167 165
163 161 160 159 158 157 156 155 155 153 153 152 152 150 149 149 148 147 145 145 144 143 143 142
142 142 141 140 140 140 139 140 142 136 134 122 109 138 137 140 138 139 139 139 139 139 139 141
141 142 143 142 142 142 142 142 143 144 143 142 142 143 143 141 141 141 141 139
190 189 188 188 187 186 186 185 184 183 181 179 178 176 175 174 172 171 171 169 169 168 166 165
163 161 160 159 158 157 156 154 154 152 152 151 150 150 149 149 149 147 146 143 135 139 143 142
140 142 140 139 137 137 140 140 139 137 134 120  78 127 132 137 136 137 137 138 138 138 139 140
140 141 141 142 142 142 142 143 143 144 143 143 143 142 143 142 142 142 140 139
190 190 188 188 187 187 187 186 185 184 181 179 178 177 175 174 171 171 170 170 169 167 166 164
163 160 159 158 156 156 155 153 151 151 150 149 148 147 146 136 124 132 138 145 140 130 130 131
125 127 138 141 135 135 130 134 140 139 127 125  85 106 116 115 138 136 132 136 137 137 138 138
139 140 140 141 141 141 142 142 143 143 142 143 144 143 142 142 142 142 141 139
190 190 189 188 188 188 187 187 187 185 184 180 179 177 175 175 173 172 171 170 169 167 166 164
161 159 158 157 153 155 153 151 151 150 149 149 146 145 143 131 113  86  72 104 124  97  64  53
 40  47  69  85  67  77  70  59 107 119 121 109  68  92 114  71 119 137 128 136 136 136 137 137
138 140 140 141 142 141 142 142 142 142 143 143 143 144 143 142 142 142 141 140
191 191 191 189 188 188 187 187 187 186 183 181 180 178 177 175 174 172 171 170 169 168 166 164
162 159 158 157 152 154 150 150 148 139 132 138 141 129 111  95  91  74  41  14   0   0   4  12
 14  13   0   0   0   0   9   5   0  36  84 110  77  68 108  59  41 118 118 122 136 134 135 136
136 138 138 140 141 141 142 142 142 143 143 144 144 145 144 143 142 142 142 141
192 192 191 190 190 189 189 188 187 186 182 181 180 179 177 176 174 172 171 170 169 167 165 163
161 157 153 155 148 145 149 152 150 119  75  59  81  60  25  47  35   9  19  25  24  24  24  23
 22  21  24  29  24  27  26  25  26  19   0  20  48  27  60  48  59  65 105  92 119 124 136 134
136 136 137 139 139 140 141 142 143 143 143 144 145 145 143 143 143 144 143 141
193 192 192 191 191 190 190 188 188 186 185 182 181 180 178 176 175 173 172 170 169 166 164 162
160 159 156 156 153 134 125 128  98  55  56  68  36   6  26  22  19  22  22  20  18  16  18  21
 20  20  17  20  21  17  19  19  19  23  27  22   3  15   9   9  63  59  66  80  74  81 124 135
134 135 137 138 138 139 140 141 143 143 144 143 145 145 145 144 144 143 142 141
195 193 192 192 192 191 191 189 189 188 185 183 182 181 179 177 175 173 172 170 169 166 163 163
155 137 130 126 114  88  44  19   0  20  36  28  25  24  21  23  19  18  20  16  17  16  16  19
 17  19  17  17  21  18  14  18  17  18  23  23  22  16  20  18  13  46  20  44  52  49  86 126
129 134 136 138 138 138 140 141 142 144 144 145 145 145 145 145 144 144 143 141
195 195 194 194 194 192 191 191 190 188 186 184 183 181 180 178 175 173 171 170 169 166 163 146
110  51  26  13   0   0  23  27  32  26  21  24  21  21  20  19  20  18  20  18  16  16  14  16
 18  14  18  16  18  19  15  16  18  16  15  20  19  19  16  16  19  16  25  18  58  70  54 105
111 100 129 136 137 138 138 141 141 143 144 144 144 145 145 144 144 145 144 142
196 195 194 194 193 192 192 191 190 189 187 185 184 183 181 178 175 172 171 169 167 164 156 144
128 109  78  41  38  29  29  33  21  22  21  20  19  20  23  19  15  16  19  21  19  15  14  16
 18  15  18  18  17  18  17  15  17  18  14  14  19  18  15  14  18  21  19  19  25  65  39  66
113  68  86 130 136 134 137 139 140 140 140 142 143 145 145 144 144 144 144 141
197 196 195 194 194 194 193 192 191 189 188 185 184 182 181 178 174 172 171 169 165 160 153 133
110  77  66  51  28  38  24  23  22  22  22  19  19  19  20  22  18  14  15  16  19  17  13  12
 12  14  16  16  17  17  19  15  15  17  16  12  17  17  15  14  13  17  19  22   8  65  48  16
 88  75  12 110 132 131 137 139 139 140 140 141 142 144 144 143 143 142 141 139
197 196 195 194 195 193 193 192 191 190 188 186 184 183 180 178 174 173 171 169 165 161 161 147
122 120  88  88  58  27  25  22  22  21  22  21  17  18  16  14  19  20  13  13  15  16  17  13
 10  10  16  16  13  19  17  19  13  14  15  14  13  19  15  14  14  14  19  19  15  37  44  15
 79  71   0  77 122 119 134 138 138 140 140 141 142 143 143 143 143 142 141 139
197 196 196 195 194 194 193 193 191 190 188 186 185 183 180 178 174 172 170 157 142 131 110 102
 91 108 109  74  45  18  20  19  21  19  15  20  21  18  17  17  13  18  17  15  13  14  18  20
 13   9  13  16  10  19  17  21  19  12  17  14  11  19  18  12  15  14  17  18  21  20  26  15
 53  77   8  55 114 105 130 138 138 139 141 141 142 143 143 142 143 142 141 140
197 197 196 196 195 195 193 193 193 190 188 187 186 184 181 178 175 169 158 139 121  95  74  53
 28   0  31  29  11  19  18  17  15  19  20  15  17  23  20  18  17  12  15  17  16  14  15  19
 14   9  10  13   8  16  18  15  15  12  14  15  10  18  20  13  14  15  17  16  20  20  21  20
 34  66  22  57 101 107 122 138 139 139 141 142 142 143 143 143 142 142 141 140
198 197 196 196 195 194 194 194 193 192 189 187 185 183 181 178 173 167 161 152 134 118  92  60
 37  30  19  20  21  16  12  13  13  10  16  18  14  14  20  19  17  15  14  13  16  19  15  18
 18  11   7  11  11   8  17  15  12  10  12  14   9  16  19  18  16  15  16  16  17  19  18  18
 32  42  38  51  86 106 118 133 138 139 141 142 142 143 144 143 143 143 142 141
198 197 197 196 196 195 194 194 193 192 190 187 185 184 181 177 173 169 154 131 106  84  44  20
 25  20  18  17  15  16  14  12  11  10   7  10  14  15  15  17  18  15  14  12  11  15  17  18
 15  13   9   8  12   8  12  15  11  10  12  12   9  11  15  18  17  13  14  15  17  20  17  20
 26  33  46  37  86 108 115 134 138 139 140 141 142 143 144 143 143 142 142 141
198 198 197 196 196 196 195 194 193 193 190 188 186 184 181 176 172 164 154 128  66  22  23  28
 26  23  22  19  17  14  13  13  11   9  10   9   8  13  15  15  18  19  15  12  10  10  10  13
 16  14  12  10  10  12  10  14  12  10   9  15  10  10  12  15  14  11  13  17  18  21  18  20
 26  26  36  22  92 104 113 135 138 139 140 142 142 143 144 143 143 143 142 140
199 199 198 197 197 196 196 195 194 192 190 188 186 185 182 175 173 167 115  34  14  30  25  23
 21  21  23  23  19  16  14  11  10   9   9   8   8   9  10  10  16  18  17  14  14  12  13  15
 13  14  14  13  13  12  13  13  14  13  12  12  11  11  11  14  13  12  14  17  17  20  16  21
 26  27  25  32  95  98 115 134 136 139 140 141 143 143 142 143 142 142 141 140
200 199 198 198 198 197 196 196 194 193 190 189 187 185 181 178 166  94   0  27  29  27  27  29
 27  24  24  22  20  18  18  16  13  11  11  10   9  10  12  10  11  15  17  17  17  17  15  16
 19  15  16  18  17  17  18  20  17  16  17  15  15  14  14  11  12  12  12  13  15  16  15  22
 21  27  22  51  90  90 124 132 136 138 139 141 142 143 142 142 142 142 141 140
200 199 198 198 198 197 196 196 195 194 191 189 187 185 184 168  89   0  38  30  30  30  28  24
 21  22  21  18  19  20  20  21  21  21  18  14  13  12  13  15  14  14  19  23  23  22  24  22
 20  24  23  20  26  27  24  26  26  26  25  27  28  21  16  13  10  11  11  12  13  13  18  19
 21  25  21  57  74 101 127 131 135 136 138 140 140 141 142 142 142 142 141 140
201 200 199 199 198 198 196 196 195 194 192 189 188 186 181 137  48  43  30  34  31  29  23  22
 22  20  19  18  20  21  21  20  19  16  14  14  14  13  15  18  20  22  23  27  31  36  39  43
 46  41  44  43  36  39  44  37  37  42  43  45  46  38  31  24  18  11  11  12  11  12  14  18
 22  23  26  39  60 109 126 129 133 136 137 138 140 140 141 141 141 141 141 140
201 201 200 199 199 197 195 197 197 195 192 191 188 188 176 109  65  55  34  35  26  22  25  24
 23  22  19  18  18  18  19  18  17  17  18  21  20  21  22  23  26  33  41  52  64  64  62  62
 68  74  72  72  68  62  63  59  60  64  62  57  62  59  50  44  34  22  14  11  11  11  14  16
 17  24  24  44  82 120 128 128 132 135 136 138 140 140 140 141 141 141 141 138
202 202 200 200 199 199 197 197 197 196 193 190 190 182 147 122 143  67  25  36  27  26  24  23
 22  22  21  22  22  20  20  20  21  22  23  24  25  31  36  45  54  59  60  65  72  76  82  83
 81  83  85  85  86  85  83  78  77  79  73  67  65  64  61  55  48  40  33  21  11  12  14  13
 16  22  24  48  99 126 125 129 132 134 137 138 139 140 141 140 140 141 141 140
204 203 201 200 200 200 199 198 197 196 195 191 191 182 161 177 141  34  37  32  29  28  24  21
 23  26  25  22  20  20  23  24  27  27  31  36  41  50  61  66  68  73  76  83  89  89  88  89
 87  88  90  88  90  91  91  88  85  82  77  74  70  66  64  58  55  52  45  37  22  13  14  14
 15  18  25  49  97 115 120 126 130 132 135 137 139 140 140 140 140 141 140 140
204 204 203 201 200 200 200 200 199 197 196 194 191 188 179 131  48  50  34  30  29  28  26  23
 22  21  18  18  19  21  22  25  30  32  41  56  65  71  76  74  83  89  91  93  94  93  92  91
 92  95  93  93  92  92  92  90  88  83  77  70  73  71  68  64  60  58  54  49  38  22  13  14
 15  19  18  44 101 112 115 123 129 132 135 137 140 140 140 140 140 140 139 139
205 205 203 202 202 201 200 200 199 197 196 194 191 189 152 100  94  52  27  29  28  27  25  18
 17  19  21  21  21  21  21  29  35  45  57  70  77  79  78  90  97  98  99 100  99 101 102 100
 98  96  95  95  94  93  92  91  89  86  85  79  77  77  73  71  65  61  60  57  50  38  20  14
 15  17  23  30  74 103 103 115 129 131 134 137 139 140 140 139 139 139 140 139
207 207 205 202 203 202 201 200 200 199 197 194 193 184 165 122  66  38  32  29  27  27  22  18
 22  25  24  25  24  24  28  34  46  63  74  81  84  80  93 100 102 105 107 106 104 103 105 105
102 102 102  97  98  97  95  94  92  88  88  88  84  81  78  74  70  66  64  62  57  50  35  19
 14  17  19  35  46  75 102 119 129 132 134 137 138 139 140 140 140 140 139 138
208 207 206 205 204 203 201 201 200 199 197 195 193 191 168 115  73  45  32  28  26  26  23  24
 26  23  23  24  24  26  30  45  59  76  84  86  90  95 104 107 110 111 112 113 112 110 110 109
105 106 106 102  99  98  98  97  95  90  88  88  89  87  80  77  74  71  70  67  64  58  49  34
 16  18  19  30  53  87 117 127 129 131 134 137 138 139 139 139 139 139 139 137
209 209 206 205 205 204 203 202 201 199 198 195 194 192 188 163  97  31  37  29  23  25  25  28
 24  22  21  23  26  30  38  55  71  81  84  93  99 103 109 109 111 112 113 116 116 115 114 111
111 110 108 107 105 101 101 101 100  96  93  92  90  89  83  78  77  75  75  72  68  64  57  47
 28  16  23  19  49  74 107 123 127 129 134 137 139 139 139 139 139 139 138 138
209 209 208 206 205 204 203 203 203 201 199 196 195 193 191 181  99   4  37  30  27  22  30  29
 22  21  24  26  27  36  43  61  77  86  90  98 103 107 109 112 111 113 116 117 117 120 119 120
120 116 115 112 111 108 106 104 102  99  95  95  89  87  85  79  79  79  80  76  71  68  62  54
 43  20  23  23  35  83 110 125 129 132 135 137 138 140 139 139 139 139 139 138
210 209 209 207 207 206 205 204 203 202 200 198 196 195 191 185 126  26  36  33  28  22  31  27
 24  25  24  26  32  36  48  66  83  93 100 105 104 106 105 109 112 113 118 120 121 123 124 122
122 118 116 113 112 109 107 107 105 102  98  97  92  90  88  85  82  81  80  78  75  70  66  58
 51  34  19  28  18  66 108 122 131 133 135 137 139 140 140 139 140 139 139 138
212 210 209 209 208 207 206 205 205 203 202 199 197 195 191 183 150  50  26  34  30  25  31  28
 28  25  25  30  35  40  52  73  91 100 106 105 103 104 107 112 117 117 116 119 122 123 121 120
120 118 116 114 114 111 109 109 109 106 103  99  97  94  90  88  84  83  81  78  77  73  68  62
 57  48  25  24  34  55 105 125 129 134 135 138 139 140 140 140 140 140 140 138
212 212 211 210 210 208 207 206 206 203 202 200 198 196 191 187 149  28  32  32  29  28  29  33
 28  24  25  30  35  44  59  78  88  99 109 111 109 109 107 113 117 117 113 114 117 120 122 122
126 123 117 114 115 113 111 110 109 107 106 100  96  95  94  90  85  84  82  80  77  75  71  65
 60  55  37  27  20  67 113 128 128 132 137 138 139 141 140 140 140 140 140 139
213 212 212 211 210 209 209 207 206 205 203 201 200 198 193 185 131  24  32  30  28  28  31  34
 24  26  25  31  38  46  55  70  85 100 114 118 114 111 112 111 112 114 113 116 118 117 119 118
116 120 117 117 115 114 111 110 111 108 106 104 100  96  94  90  87  84  80  83  80  76  74  67
 62  59  47  30  20  53 120 129 131 132 137 139 141 141 140 140 140 140 140 140
213 213 212 211 211 210 209 209 208 207 204 201 200 198 196 183 119   0  35  30  29  28  33  30
 23  26  24  30  34  43  57  75  91  99 107 112 115 114 113 111 111 113 113 116 119 117 117 117
111 117 120 117 115 111 111 108 112 111 106 105 100  94  93  88  84  82  75  75  78  73  71  69
 65  63  54  32  31  23 104 131 132 135 137 140 141 141 141 141 141 141 141 140
215 213 213 212 212 211 211 209 209 208 206 203 202 198 198 161  52  25  31  28  31  29  32  27
 23  24  27  29  37  47  56  73  84  98 109 113 114 114 115 112 111 112 111 115 115 115 116 115
117 117 117 113 109 108 106 108 111 112 106 104 102  96  95  92  87  82  78  73  74  72  69  68
 66  65  61  36  34  19  92 132 134 137 139 140 141 141 141 141 141 141 140 140
215 214 213 212 212 211 211 210 209 208 206 204 202 201 193 123   0  38  28  27  32  31  32  26
 24  25  27  29  38  45  62  72  82 100 112 117 115 117 117 114 111 112 110 110 109 109 108 109
113 115 115 114 112 108 105 109 114 114 109 106 104 100  96  93  91  83  78  76  74  70  68  67
 66  67  64  39  35  20  99 136 135 137 139 141 141 142 142 142 142 142 141 139
216 215 214 213 213 212 211 210 210 208 207 204 202 202 195 134  27  35  29  27  32  34  30  27
 25  26  25  29  36  51  64  72  87 101 112 119 122 125 118 111 112 112 109 106 109 108 108 111
112 113 113 113 112 109 106 104 108 110 109 106 104 101  98  95  92  87  78  74  72  70  68  67
 67  69  67  41  30  44 105 135 136 139 140 142 143 144 143 142 142 142 142 140
216 215 214 214 213 213 212 211 210 209 207 205 203 202 199 153  43  32  30  28  33  34  29  28
 26  25  25  30  40  49  59  75  96 107 113 119 124 125 119 114 111 105 107 111 112 111 112 114
111 110 108 111 111 109 105 102 105 107 110 108 104 103 101 103 100  89  83  76  70  70  69  67
 68  69  68  43  18  65 124 135 138 140 141 143 144 144 144 143 143 142 142 140
216 217 216 214 214 213 213 211 210 210 208 205 204 201 204 162  30  36  32  29  33  34  33  27
 26  24  28  35  39  50  66  88 105 114 117 123 123 125 122 119 118 113 115 117 116 115 118 118
116 111 108 108 110 108 104 104 103 105 108 108 103 104  99  94 100  92  86  81  72  69  68  69
 68  69  69  45  15  71 132 136 139 141 142 143 144 144 143 144 143 143 142 141
218 217 216 214 214 213 213 212 211 210 209 207 205 203 203 155  24  40  33  32  33  36  33  28
 26  26  28  34  44  70  94 107 114 120 123 126 126 125 124 124 123 120 119 120 122 121 120 122
120 115 109 109 114 112 110 109 110 110 110 109 105 104 102  91  92  93  88  84  77  69  69  67
 69  71  71  50  12  89 133 138 140 142 143 144 145 146 145 144 144 143 143 142
219 217 217 215 214 214 213 212 212 211 210 208 207 204 206 162  82  46  33  33  33  35  35  30
 29  29  30  35  59  95 113 117 118 118 119 123 124 122 123 123 119 120 123 127 129 132 130 131
133 125 117 114 119 118 117 115 113 114 113 113 109 106 105 103  97  93  92  88  81  74  71  69
 67  72  76  51  31 112 135 139 142 142 145 146 146 146 145 145 145 145 144 142
219 219 219 217 216 215 215 214 213 212 210 208 207 205 204 190 145  30  40  36  34  34  36  35
 32  29  30  36  81 114 119 120 119 114 113 118 121 123 123 125 122 126 130 133 134 136 138 139
138 133 128 124 126 124 120 119 120 122 117 116 114 110 109 106 103  96  95  91  86  81  75  70
 70  72  78  42  65 129 135 141 142 144 145 147 147 147 146 146 146 146 145 141
220 220 219 218 217 216 214 214 214 213 212 209 208 207 205 208 158  37  45  38  36  36  37  37
 35  31  24  60 104 119 120 119 114 106 109 114 120 124 127 127 130 127 125 127 126 125 131 130
130 134 134 128 133 134 129 129 128 128 122 120 121 122 118 115 110 100 102 100  87  78  76  72
 72  73  78  27  98 137 136 141 144 145 146 147 148 147 147 147 146 146 146 144
221 220 219 219 218 217 216 215 215 214 213 210 208 208 206 205 188 106  32  42  41  37  36  38
 38  29  27  84 111 119 119 117 105  96 111 121 121 122 122 112 106 110 113 106 106 120 125 125
130 141 147 142 142 143 135 135 133 132 131 125 122 127 123 122 119 106 101 104  88  75  77  74
 73  75  71  60 121 136 138 142 145 145 148 148 148 148 148 147 147 147 145 145
221 221 221 219 217 218 217 217 215 214 213 211 209 208 208 205 202 153   0  47  41  36  37  39
 39  25  44  97 111 118 120 120 107 106 111  94  73  59  59  53  60  64  65  57  61  72  94 102
106 115 133 149 151 152 144 139 141 142 139 131 121 131 125 124 125 117 101 100  79  61  63  65
 69  75  69 100 134 135 139 142 145 146 148 149 149 148 148 148 147 148 146 144
223 223 222 220 219 219 219 218 217 216 214 212 210 209 210 206 203 151  17  45  42  41  39  39
 41  21  64 106 113 120 123 118 114 105  69  44  42  31  37  38  34  39  35  32  36  32  23  32
 34  37  90 139 153 156 153 144 146 148 147 136 116 133 128 126 130 114  85  58  40  27  34  43
 51  60  70 121 134 137 140 144 147 148 149 150 150 149 148 148 148 148 147 145
225 224 222 221 221 221 220 219 218 217 215 214 211 210 210 208 205 159   0  46  40  39  43  41
 41  28  78 111 118 124 124 113 102  69  41  61  68  74  68  84  64  35  36  35  30  29  37  19
 32  53  53  94 142 157 154 145 150 153 151 138 111 123 121 123 120  87  43  33  23  22  23  25
 29  31  48 122 136 139 142 145 148 150 150 150 150 150 149 148 148 148 148 146
226 225 223 222 222 221 220 220 219 219 216 214 212 211 210 209 209 172  66  72  47  43  45  41
 43  38  89 116 122 125 122 105  94  94  88  88  99 102 103  98  95  88  70  66  72  65  60  55
 43  41  36  42 119 155 160 155 157 158 154 139 112 109 114  99  66  36  25  30  31  27  24  24
 25  26  37 118 138 139 143 148 150 151 151 151 150 149 149 149 149 148 149 146
227 226 224 223 223 222 221 220 220 221 218 214 213 213 212 210 210 178 120  99  57  56  47  43
 41  48  98 120 125 127 126 123 131 127 127 128 131 131 129 131 129 134 130 121 119 113 112 109
110 101  93  75 113 152 162 164 161 158 150 136 115 107  89  48  40  47  47  35  27  27  27  28
 32  34  54 127 138 140 145 150 151 151 152 151 150 150 149 150 150 148 148 147
227 227 225 224 223 223 222 221 221 222 219 216 214 213 212 210 211 162 115 103  81  71  52  45
 42  59 108 123 128 131 131 136 141 141 138 136 127 127 128 126 123 118 109  99  94  94  99 100
108 123 129 124 127 147 157 163 164 155 142 129 112  93  65  67  79  79  89  91  84  73  67  61
 61  51  83 133 138 141 145 149 152 152 152 151 150 150 149 150 149 149 148 146
226 227 225 225 224 223 222 221 221 221 220 218 215 214 213 211 213 159 101 109 121 106  61  43
 40  71 112 124 133 136 139 146 146 143 132 115 107 101  88  65  41  43  54   0  54  85  78  86
 93 115 129 133 132 138 149 159 165 158 143 129 110  74  66  62  44  55  42  65  81  91  92  87
 83  75 116 135 138 142 146 150 152 152 152 151 151 151 150 150 150 149 149 146
228 227 226 225 224 223 223 222 222 221 220 219 216 214 214 212 214 192 121 113 141 127  77  40
 45  81 118 127 132 138 144 147 147 139 126 110  81  51  47  65  39  42  41  41 132 143  97  72
 86  96 127 134 133 133 146 158 161 159 146 126 102  79  88  47  25 105  20  16  35  41  62  79
 84  90 126 135 139 144 147 151 152 152 152 151 151 150 150 150 150 148 148 146
228 228 227 225 224 224 224 223 223 222 220 219 218 215 215 214 211 211 162 120 143 155 133  54
 45  93 123 130 133 139 146 149 146 135 126 115  92  89  72  95  86  65  69  90 124 106  88  79
 86  89 130 134 128 130 139 152 154 153 141 119  97  53  61  52  33  21  29  57  99  65   8  55
 76  95 130 137 141 144 149 151 152 152 152 152 151 150 150 150 149 149 148 145
229 228 227 226 226 225 224 223 223 223 222 219 218 217 216 215 213 214 177 127 158 159 125  72
 51 107 125 128 134 142 149 151 145 139 140 137 133 125 127 114 108 109  97 105  86  93 102 104
117 127 137 132 128 129 133 143 147 144 133 115  99  59  50  68  71  63  52  71  74  61  52  50
 73  97 134 138 141 146 150 151 154 154 152 152 152 152 151 150 150 150 148 147
228 228 228 226 226 226 225 224 224 224 222 220 219 218 217 217 215 216 174 136 162 138 117 106
 42 115 127 130 136 143 149 148 143 146 149 149 149 147 145 137 141 144 134 128 123 117 119 122
127 135 132 126 130 130 129 138 142 139 123 112 102  72  62  79  88  87  76  74  72  72  75  70
 75  97 135 138 142 148 152 154 154 154 154 153 153 152 152 151 151 150 150 149
229 229 228 227 227 226 226 225 225 224 223 221 219 218 217 217 215 217 175 139 158 128 119 132
 96 119 129 132 139 143 149 149 149 150 153 156 154 155 158 157 155 155 153 148 140 134 129 128
125 122 126 128 131 127 128 137 140 138 126 112 104  81  65  85  96  98  95  92  90  84  83  84
 82 101 135 140 144 149 153 154 154 154 154 154 153 153 152 152 151 151 151 149
230 229 228 227 227 227 226 225 225 224 223 222 221 218 218 218 216 219 181 130 137 115 115 142
137 119 129 133 138 143 148 148 147 150 152 153 154 158 162 163 163 164 163 158 149 139 133 133
128 124 134 133 127 116 128 136 138 141 132 115 107  88  70  93 103 104 102  97  92  91  89  87
 81 102 137 141 145 150 153 154 155 155 154 154 153 153 153 153 152 152 151 148
230 230 228 227 227 227 226 225 225 224 223 222 220 218 218 218 216 219 193 133 136 101  81 121
143 117 131 133 138 144 149 148 146 148 154 153 154 156 160 161 162 161 160 157 151 145 143 140
136 139 140 136 129 129 133 138 142 141 135 118 110  95  71  93 104 106 104 102  97  93  89  90
 82 104 138 142 147 150 153 155 155 155 154 153 154 154 154 153 153 152 151 150
230 229 227 227 227 225 226 225 224 224 223 222 219 218 218 218 217 218 208 146 149 122 106  87
135 118 129 133 139 146 148 148 151 155 157 153 157 158 159 160 163 162 162 158 155 150 148 144
146 149 143 138 135 139 141 142 144 138 131 124 113  96  72  89 103 104 104 102  97  92  90  89
 82 107 140 142 147 151 153 155 155 155 154 154 154 154 154 153 152 152 151 149
229 228 228 228 227 226 225 225 225 224 224 222 220 218 218 217 217 215 218 169 132 145 154 133
130 113 129 132 139 147 150 152 153 160 161 158 156 157 158 163 163 163 163 158 157 154 151 154
154 148 142 141 144 142 142 140 139 139 138 130 117  95  74  83  98 104 107 103  98  95  93  90
 83 111 142 144 148 152 155 156 156 155 155 154 153 155 154 153 153 152 151 150
230 229 228 227 226 226 225 226 225 224 223 222 220 219 219 218 217 215 219 204 146 157 164 166
152 107 128 135 141 148 150 153 158 162 162 161 160 161 159 160 162 160 159 157 157 157 157 157
154 149 144 143 143 142 138 137 138 142 143 132 119  97  74  83  91 100 104 102 100  98  95  92
 84 117 145 147 151 154 155 156 156 156 155 154 154 154 154 153 153 153 151 150
229 229 227 227 227 226 225 225 224 224 223 221 221 219 219 218 217 216 216 220 185 147 164 169
162 112 126 136 141 148 149 154 159 157 159 159 162 164 164 162 159 159 154 154 160 161 161 160
157 148 145 144 143 142 140 135 139 144 140 130 118  99  76  80  92  97  99  99  98  96  96  94
 85 123 146 148 152 155 156 156 156 156 156 155 155 155 154 154 154 152 152 152
228 228 227 226 226 225 224 224 224 224 223 221 220 220 218 218 217 216 216 217 217 173 145 163
148 111 127 134 139 145 149 155 157 154 157 159 159 161 159 156 155 154 153 157 157 162 162 160
156 150 149 147 146 144 140 138 140 142 137 132 121  98  75  77  90  97  97  98  97  95  95  93
 87 131 146 148 153 154 156 156 157 157 157 156 155 154 155 154 154 153 152 151
228 228 227 225 224 225 224 225 224 223 222 222 220 219 219 217 217 217 217 217 218 218 188 170
170 126 124 135 142 147 151 155 158 156 159 162 161 159 157 158 156 156 155 159 159 163 161 159
155 154 154 147 143 142 140 141 142 142 143 136 124 101  75  70  86  94  99  99  99  97  95  88
 94 139 147 149 154 155 156 157 157 157 157 156 155 155 155 154 154 154 153 151
227 227 226 224 224 224 224 225 224 224 223 222 221 219 219 218 218 217 217 217 217 218 220 218
212 135 120 135 143 149 152 157 158 158 159 160 161 162 161 160 158 155 154 158 160 162 163 162
161 157 151 143 140 143 144 143 138 140 142 134 128 111  81  66  79  93 100 100  99  98  96  86
104 144 147 151 154 155 156 157 157 157 156 156 156 155 155 154 154 153 153 151
227 227 225 224 224 224 224 224 223 224 223 222 220 219 219 218 218 218 217 217 217 217 215 215
211 139 116 133 143 150 153 156 158 160 160 161 164 163 163 163 161 155 158 157 158 162 164 166
165 153 134 123 134 143 145 139 136 136 141 140 132 115  93  70  73  92 102 100  98  97  95  83
117 146 149 152 155 156 157 157 156 156 157 156 155 155 155 155 154 154 154 151
226 226 226 225 224 224 224 223 223 223 223 221 220 219 218 218 217 217 217 217 217 217 216 216
211 136 114 133 144 151 156 157 160 164 164 162 164 164 161 164 162 159 160 158 161 165 168 171
162 139 124 124 127 132 135 138 139 136 138 145 139 120 107  87  72  92 103 102 100  98  94  85
129 148 150 153 155 157 158 157 156 156 156 155 154 155 155 154 154 154 153 151
226 226 225 225 224 224 224 223 223 223 222 221 220 219 218 217 217 217 216 216 217 217 216 216
212 142 114 130 142 150 158 160 162 165 168 167 165 165 166 165 165 168 163 162 167 167 168 170
152 125 123 124 123 126 126 132 137 136 138 147 142 127 114 100  79  94 107 107 103  98  92  93
138 148 152 154 156 156 157 157 157 156 156 155 155 155 155 154 154 154 152 151
227 225 225 224 223 223 223 223 223 223 222 221 220 219 219 218 217 216 215 216 217 216 216 216
215 144 113 129 140 150 157 159 165 171 171 171 169 170 173 174 172 172 172 168 168 167 167 169
150 121 126 125 129 131 128 132 138 145 150 154 151 140 122 104  88 102 114 112 105  99  89 104
145 149 153 154 157 156 157 157 157 156 156 155 155 155 155 154 154 153 152 152
225 225 224 223 223 223 223 222 222 223 223 221 220 219 218 217 217 216 215 216 216 216 216 216
217 156 112 129 136 150 156 160 165 171 171 172 173 174 177 178 176 175 174 169 164 161 166 169
156 126 135 139 141 140 138 143 149 156 158 164 165 150 134 111  92 111 120 116 107 101  86 116
149 151 153 155 156 157 157 156 156 156 155 155 155 155 155 154 154 154 153 152
225 224 223 223 223 223 223 222 221 222 222 220 219 218 218 217 216 215 214 215 216 216 216 215
218 170 112 136 139 149 154 160 165 170 173 175 175 176 177 177 179 178 172 169 163 163 166 169
160 136 145 156 160 159 157 158 159 164 177 175 167 153 144 124  95 119 123 117 110 101  88 127
149 151 155 155 156 157 156 156 156 156 155 155 155 155 154 154 155 154 154 153
225 224 224 222 222 222 222 221 221 221 221 219 218 217 217 217 216 215 215 214 215 215 214 213
216 183 107 129 141 147 153 160 165 168 173 178 177 178 180 179 179 176 172 170 167 165 165 164
161 149 138 144 149 157 160 159 161 170 187 178 159 153 148 129 106 126 123 118 111  99  93 138
150 151 154 155 156 156 156 155 155 156 156 155 155 155 154 154 155 155 154 153
225 225 223 222 222 221 221 220 220 220 221 219 217 216 216 216 215 214 213 213 213 213 213 212
212 189 115 126 137 143 152 160 166 168 170 175 177 181 182 182 179 178 173 169 166 164 163 160
155 154 148 128 138 150 147 148 153 164 178 168 152 147 141 115 110 123 122 118 111  97 100 143
151 152 154 155 156 155 155 155 155 155 154 154 154 155 154 154 155 155 154 153
225 224 223 222 220 221 220 219 219 219 218 217 216 215 215 214 213 212 212 212 212 211 211 210
211 194 123 124 133 139 150 159 164 169 170 174 176 180 181 180 178 175 172 168 166 165 162 158
154 150 150 142 142 156 157 153 143 156 165 156 143 136 119 102 110 114 115 114 111  94 109 148
149 153 154 155 155 155 155 155 155 154 154 154 154 154 154 154 154 155 154 153
224 224 222 221 220 219 219 218 218 217 216 215 214 213 213 212 211 210 210 210 210 210 209 209
207 197 135 118 134 139 150 159 162 167 170 175 177 181 181 176 176 172 169 167 166 164 157 151
152 142 141 133 140 149 146 151 141 142 143 133 122 113  98  97 103 110 109 108 106  91 124 149
149 152 153 154 155 155 154 154 155 153 153 153 153 154 153 154 154 154 154 153
224 224 222 220 219 218 218 217 216 215 214 214 212 212 211 211 209 209 207 207 207 206 206 205
203 194 143 104 129 139 149 157 158 162 167 174 177 180 179 178 172 170 169 166 159 157 147 146
143 142 135 136 146 147 133 135 135 124 117 107  90  84  85  87  88  98 100 105 102  91 134 149
149 152 153 154 154 155 154 154 154 153 153 153 153 153 153 153 153 154 153 152
223 223 221 219 218 217 216 215 214 214 213 213 211 210 210 208 206 206 204 203 203 202 200 197
193 182 143 107 121 134 143 154 157 161 163 171 175 176 176 175 166 166 161 150 153 138 136 146
138 138 129 144 148 139 126 117 122 110 119 107  89  87  81  85  84  84  92 103  97  98 141 148
151 152 153 153 153 153 153 153 153 153 152 152 152 152 152 153 154 153 153 151
222 222 220 217 217 216 216 215 214 213 213 212 210 208 206 204 201 200 196 193 191 188 187 184
176 165 138 123 119 132 138 144 153 156 160 170 173 175 175 171 168 156 141 144 157 147 164 152
148 158 136 154 156 151 137 114 120 125 122 112 100  93  94  97  98  87  88 100  88 121 149 148
151 151 152 152 152 152 152 152 152 152 151 152 151 152 151 152 153 153 152 150
221 220 218 217 216 215 215 214 213 212 211 211 207 204 201 196 192 188 183 179 174 167 165 162
153 142 126 129 118 122 130 140 149 149 159 166 172 175 173 166 162 156 151 168 168 165 173 167
166 167 162 161 158 163 145 125 138 154 137 115 109 105 105 102 107  95  94  99  89 132 148 148
150 151 152 151 151 151 150 150 151 150 150 150 151 151 151 151 152 151 151 149
219 218 217 216 215 214 212 212 210 208 208 206 202 197 193 185 178 173 165 158 150 144 140 134
129 115 112 126 131 114 128 142 147 147 155 163 169 174 175 169 164 164 163 161 146 147 155 156
149 146 146 141 140 143 144 141 150 147 122 104  96  90  90  87 101 107 103  94 101 131 137 141
143 146 148 149 149 148 148 149 149 148 149 149 149 149 150 150 150 151 150 149
219 218 217 215 213 211 210 207 203 201 199 196 192 186 179 169 162 153 143 136 126 114 107 108
 88  88 112 122 136 124 119 136 143 146 155 161 165 170 174 167 165 158 147 134 124 121 112 111
111 114 110 109 104 106 113 117 111  96  87  85  76  74  82  92 113 119 107  86 100 115 121 127
131 132 135 139 142 145 147 147 148 147 147 147 148 148 148 149 150 150 149 147
218 217 216 214 211 207 203 197 192 188 187 182 178 170 161 152 141 131 118  94  74  59  74  77
 77 108 111 120 131 141 117 126 143 147 151 153 164 166 170 170 160 148 154 150 150 148 140 134
127 133 141 138 127 117 109 111 114 111 100  93  88  84  83 103 115 115  99  81  91  99 107 112
119 120 121 125 129 133 137 141 144 145 146 145 145 146 147 148 147 147 146 145
217 215 214 211 205 199 194 185 178 173 169 164 159 150 142 126 101  86  70  48  44  62  74  67
101 112 109 119 129 141 134 114 135 143 144 149 158 163 169 173 168 162 163 160 159 157 154 154
155 152 149 148 144 137 127 124 122 115 100  95  95  88  89 104 107 103  81  67  81  88  92  98
104 106 108 111 117 122 125 128 133 138 141 142 144 144 145 144 144 145 145 141
216 213 209 203 196 188 179 168 159 154 149 143 137 130 102  60  50  54  54  50  52  66  66  70
107 113 108 116 129 137 145 128 118 136 145 148 154 158 166 164 162 162 164 163 164 160 161 164
167 164 154 144 138 132 127 123 113 109 107 106 100  90  91  99 100  89  53  35  49  66  80  87
 90  91  94  97 102 108 112 116 121 125 129 135 138 140 142 142 142 142 141 139
212 207 199 191 182 171 161 152 143 135 128 123 118  89  40  51  66  64  57  47  54  66  62  71
109 113 106 113 127 136 144 141 125 127 144 152 155 153 157 163 160 159 160 160 162 163 161 161
161 158 150 142 127 121 118 114 112 110 109 104  97  91  92  95  90  65  38  41  35  33  49  62
 67  67  62  78  91  96  99 103 109 114 118 124 129 133 136 138 138 138 138 137
202 196 188 178 165 156 142 117  94  87  91  88  73  51  54  55  61  62  58  48  50  62  61  67
107 112 104 112 125 133 142 148 145 121 132 147 152 156 157 158 158 156 154 154 155 156 155 154
152 151 143 132 111 101  96  97 106 110 106 100  95  92  92  88  79  55  38  37  37  37  35  31
 36  40  42  38  55  74  84  91  98 102 108 114 119 125 129 130 132 133 133 132
193 184 172 161 156 128  69  50  46  48  57  55  54  54  54  55  60  60  59  48  49  60  62  63
104 111 102 109 124 131 140 146 147 137 117 127 142 154 156 154 154 154 150 149 147 151 150 148
146 139 131 125 121 118 110 104 104 103 104  99  93  93  94  82  71  69  38  36  38  34  37  39
 39  45  48  36  35  37  43  56  79  95  99 103 110 116 121 123 124 125 126 125
180 170 158 144 123  66  45  70  59  45  56  59  58  52  52  54  58  60  59  51  49  60  61  62
102 111 102 108 122 131 140 144 147 147 133 115 131 143 148 153 150 151 149 147 145 146 145 143
137 133 139 144 140 133 124 110 100  99  99  96  97  95  93  74  74  75  40  34  36  34  36  38
 39  45  42  35  38  43  40  36  36  61  82  97 102 108 112 114 118 118 118 118
153 127 104  72  62  54  57  65  60  39  44  53  50  50  50  54  60  56  56  49  45  57  57  56
 98 111 106 107 119 129 138 145 147 148 148 123 107 129 145 146 148 151 151 149 149 147 144 144
143 147 149 141 132 127 115  99  96  90  92  99 101  92  78  67  76  72  44  35  38  33  34  39
 40  43  39  35  36  41  40  37  37  31  35  73  96 101 103 106 109 110 110 111
 77  60  49  55  63  46  52  59  64  46  40  46  47  49  52  56  59  56  58  48  41  57  57  53
 94 112 106 107 117 128 137 142 146 147 146 141 115 106 132 140 148 150 152 153 154 150 149 145
145 145 137 127 127 119 106  98  89  82  84  92  96  85  61  67  75  70  45  35  36  32  31  37
 40  42  37  35  33  36  38  37  33  35  32  31  67  86  92  98 102 104 104 105
 59  57  50  56  59  41  43  55  63  49  39  36  46  50  52  52  57  59  57  48  40  55  59  54
 87 114 109 107 114 127 137 142 146 148 146 144 141 117 102 132 143 148 147 148 152 149 148 143
138 136 130 122 123 108 100  91  83  80  81  79  79  69  56  73  75  67  45  35  33  32  32  38
 39  40  36  35  32  34  37  34  32  32  31  34  35  44  46  63  75  79  85  89
 45  48  51  62  56  39  39  49  58  53  42  36  39  46  49  51  55  59  57  50  40  50  57  54
 75 116 111 107 112 124 136 142 144 147 147 146 143 136 106 109 129 139 147 132 137 140 142 139
133 122 124 124 118 107  98  97  88  91  80  72  66  57  62  72  74  67  43  34  34  33  34  37
 39  39  36  34  33  33  34  33  32  30  30  31  32  37  44  44  42  41  37  38
 52  51  51  62  54  37  37  43  54  54  46  40  36  38  43  49  52  59  57  52  41  46  55  55
 62 109 112 108 115 122 131 138 144 146 145 145 140 138 131  94 100 121 129 127 130 131 123 123
117 110 115 114 109 107  96  90  86  92  79  69  57  56  68  72  76  67  41  34  33  33  32  36
 40  39  36  32  34  33  34  33  32  31  29  30  31  32  38  45  47  44  39  38
 51  47  49  60  48  34  36  42  51  55  50  43  37  35  39  45  50  56  57  54  43  40  52  55
 55  94 113 109 115 120 128 137 142 143 144 143 141 137 137 131  94 104 121 114 112 114 105 116
107 104 108 105 105  99  92  78  81  81  76  72  56  65  71  75  78  64  39  33  32  32  31  34
 39  38  36  31  30  30  33  32  31  32  30  29  30  32  33  37  41  39  36  38
 46  42  49  55  43  34  33  38  46  53  48  48  40  33  35  40  46  53  57  54  48  37  48  52
 50  74 111 109 115 121 127 134 142 143 145 144 143 139 137 138 128  96  96 102 109 105 116 111
102 106 107  99  92  89  88  82  80  76  70  59  65  72  75  79  76  62  38  34  34  33  30  35
 37  34  33  30  29  30  31  29  28  30  29  30  32  29  31  38  40  36  36  35
 45  43  52  45  38  33  32  34  42  50  49  47  43  36  34  36  43  51  53  54  52  38  45  51
 53  56 102 116 118 123 124 131 139 143 146 145 144 138 136 131 134 124  89  75  88  97 107 112
105 104 109  98  94  89  87  82  70  66  58  63  74  76  78  81  74  62  36  34  36  33  29  33
 36  35  31  26  27  28  29  27  27  28  30  31  31  29  29  36  37  34  35  33
 44  48  48  40  37  33  34  36  42  48  47  45  46  39  36  33  40  49  53  53  52  43  40  51
 52  50  81 117 120 124 123 127 133 142 145 145 142 142 136 131 129 131 128 105  79  78  81  84
 86  92  99  90  87  78  71  65  60  61  72  81  77  78  80  83  77  60  33  35  35  31  28  32
 35  33  28  25  28  28  28  27  27  28  28  30  31  31  30  34  39  35  32  35
 42  46  43  38  36  35  34  33  37  44  50  50  45  40  36  34  35  45  54  53  52  50  35  47
 51  52  59 109 122 126 125 126 128 137 142 143 141 141 140 137 132 129 129 128 119 106  87  73
 71  72  70  69  55  61  58  75  80  82  85  83  78  79  83  83  75  57  32  34  32  30  30  33
 35  31  27  28  29  28  28  28  28  29  28  29  29  31  32  32  35  37  33  32
 42  42  40  35  34  35  34  35  39  44  51  52  50  44  38  35  35  42  52  57  54  53  40  39
 50  53  47  91 125 127 128 126 127 133 139 142 140 140 140 139 139 135 131 130 128 129 126 119
116 113 107 108 112 109 103 100  91  87  89  85  81  81  83  81  73  51  32  34  35  31  30  33
 37  29  26  29  27  29  30  25  27  27  27  28  30  30  29  31  35  37  34  32
 41  41  36  35  35  35  34  35  38  42  46  50  48  45  38  36  37  43  51  54  52  56  45  35
 48  52  49  63 117 129 129 129 129 132 138 139 136 136 139 139 139 137 139 136 132 131 132 134
136 134 132 129 127 119 106  95  87  89  92  88  83  82  84  80  71  46  33  35  35  30  31  35
 34  28  26  30  28  28  32  29  29  29  30  30  29  31  31  32  33  32  32  33
 43  41  40  37  34  33  32  35  37  41  42  50  49  43  39  35  39  41  45  54  57  55  48  38
 45  49  55  47  98 130 128 129 132 131 137 138 137 136 135 140 138 137 138 136 134 136 137 136
136 135 130 125 120 112 101  94  89  92  95  88  84  84  82  78  69  40  33  36  34  29  29  34
 32  27  29  29  28  28  30  31  29  29  30  31  31  31  33  30  29  32  32  33
 46  44  39  35  33  32  33  35  38  41  41  50  50  43  38  38  41  42  46  52  53  57  53  41
 40  48  53  48  72 125 127 128 131 133 136 136 134 135 137 139 136 137 136 137 136 137 139 138
136 136 131 126 118 109 101  93  92  93  95  86  83  84  81  75  63  35  33  34  34  29  30  34
 31  26  28  29  28  28  31  29  28  28  29  30  30  31  33  31  29  32  33  32
 42  41  36  34  36  34  36  36  42  43  42  49  53  42  38  39  41  42  45  46  53  61  52  39
 36  45  51  53  49 104 128 126 129 133 136 136 134 134 137 136 137 134 134 136 139 140 136 135
138 137 132 124 116 108  99  95  94  92  92  88  84  83  80  75  59  32  33  35  33  31  32  35
 31  29  30  30  28  29  33  29  28  28  29  30  29  31  33  33  31  31  32  31
 46  44  37  32  32  35  37  37  38  40  43  49  49  43  38  41  43  39  41  44  51  55  54  47
 37  42  49  55  48  75 121 127 129 132 135 135 134 134 133 133 134 133 134 134 136 135 134 132
135 135 129 121 116 108 100  95  94  92  89  87  83  83  78  72  50  32  33  32  31  32  33  34
 32  31  30  31  29  29  32  29  28  28  31  31  30  32  34  33  32  33  32  32
 43  43  38  33  31  35  38  37  39  38  42  49  46  43  39  42  46  42  44  44  48  52  57  52
 40  39  45  49  50  53 103 125 127 129 133 133 134 134 132 130 132 132 134 134 134 133 133 133
132 131 128 116 115 105 100  93  90  89  87  87  83  83  80  69  43  33  33  33  31  30  32  35
 31  30  31  32  30  31  33  32  31  32  30  30  31  31  32  32  32  31  32  33
 41  39  37  33  32  34  35  37  38  39  45  49  46  41  39  43  46  43  46  46  48  52  57  52
 40  37  44  46  50  46  77 118 123 126 130 130 130 130 130 130 132 131 132 131 132 132 130 133
133 131 129 121 112 105 100  94  89  87  89  86  83  81  80  66  38  32  33  34  31  31  33  33
 31  30  32  32  29  31  32  32  34  32  30  29  31  32  32  32  32  33  32  32
 41  38  39  36  33  33  35  37  40  38  43  47  48  38  38  43  46  44  45  44  45  49  57  51
 43  39  42  46  47  48  57 105 120 123 124 127 126 124 127 128 127 125 128 129 128 130 127 129
129 129 128 122 114 106  98  93  90  85  86  86  85  84  82  60  33  32  34  33  31  34  32  32
 30  29  30  31  31  30  29  32  33  32  29  32  34  32  31  32  33  34  32  31
 43  41  37  32  32  33  33  34  40  42  44  49  46  40  38  40  47  48  47  45  45  47  51  53
 50  40  38  48  45  45  45  85 114 119 123 126 124 124 125 123 124 124 126 124 126 127 125 126
126 125 124 118 113 103  97  92  90  89  87  88  86  88  81  46  30  33  34  32  31  36  35  32
 32  32  32  31  28  28  33  34  33  31  33  32  31  32  34  31  30  29  32  31
 41  44  41  33  31  32  35  36  40  42  45  49  43  37  37  40  46  47  49  48  42  48  52  53
 50  45  39  45  47  46  41  62 105 118 121 123 121 121 123 121 122 123 124 123 123 125 124 125
122 121 121 118 114 107  99  93  91  93  93  92  92  90  73  36  35  34  34  33  33  38  35  31
 34  33  30  31  27  30  36  34  33  31  31  30  32  31  33  32  31  32  33  33
