P2
# 8-bit pgm - grayscale
92 112
255
188 187 186 185 183 182 182 181 179 178 178 178 178 176 173 173 172 170 169 167 166 166 165 164
163 162 162 159 159 159 158 158 157 156 155 155 154 152 151 152 151 151 151 150 150 149 147 148
148 148 148 147 147 147 147 147 147 147 148 147 149 150 149 149 150 149 148 148 147 147 146 145
145 144 145 144 143 142 143 142 141 140 139 140 139 139 138 137 137 136 135 132
188 187 186 185 183 182 182 182 181 180 180 179 178 176 173 173 172 170 168 168 166 165 164 164
163 162 161 159 159 159 158 157 156 156 154 154 153 152 151 151 151 151 150 149 149 149 148 147
147 146 146 146 147 147 147 146 147 147 148 148 149 150 150 150 150 149 149 149 148 148 147 147
146 145 145 144 144 143 142 141 142 142 140 139 138 139 138 137 137 136 135 135
189 188 187 186 185 184 182 182 182 181 180 179 178 176 173 172 171 170 169 168 166 164 163 163
162 161 160 159 159 158 157 156 156 155 154 153 152 151 150 152 150 150 149 148 148 147 147 146
146 145 145 144 145 145 146 147 146 147 147 148 148 150 149 149 149 150 150 149 149 148 147 147
146 145 145 145 143 143 143 142 142 142 141 140 139 138 139 137 137 137 135 135
189 189 189 187 185 184 183 182 182 181 181 180 179 177 175 173 171 170 168 167 165 165 164 163
162 161 159 159 158 157 155 154 154 153 152 152 151 150 149 150 149 148 147 148 148 147 146 145
144 144 144 144 144 145 145 145 145 146 147 147 148 149 149 149 149 149 149 149 149 148 147 147
146 145 145 144 144 143 143 142 142 141 140 140 140 140 138 138 138 138 136 134
189 189 189 188 186 185 184 183 183 182 181 180 179 176 173 173 171 170 168 166 164 164 163 162
161 160 159 158 158 155 154 153 152 152 150 150 150 149 148 148 147 147 146 145 146 145 145 144
143 142 142 141 142 143 145 144 144 145 146 146 147 147 148 149 150 150 149 148 149 149 147 147
146 145 145 144 145 144 144 143 143 142 141 140 140 139 139 138 138 138 137 135
190 190 189 189 188 185 184 183 182 182 182 181 179 177 174 172 170 169 168 166 164 163 163 162
160 158 157 156 156 155 153 152 151 150 150 148 148 148 147 146 147 146 145 144 143 142 143 141
142 141 140 140 141 142 142 142 143 143 144 146 146 147 148 149 149 149 149 148 148 148 147 147
147 146 146 145 146 145 144 143 144 142 141 142 141 140 140 139 140 138 137 135
191 191 190 188 188 186 185 184 183 182 183 181 178 178 176 172 171 169 167 165 163 163 161 160
159 157 157 155 154 153 151 151 149 148 148 147 146 145 146 144 144 144 143 143 141 138 137 138
140 139 140 139 139 140 140 140 141 140 143 144 145 147 147 148 147 149 149 149 148 148 148 147
146 146 146 146 145 146 144 144 143 142 142 142 142 141 140 140 140 139 138 136
192 192 191 190 189 187 186 186 184 184 183 181 179 177 175 172 171 169 166 165 163 162 161 159
159 157 156 154 152 151 150 149 148 147 146 144 144 144 143 143 141 142 141 138 136 124 106 131
131 131 137 137 137 138 137 138 139 139 141 142 143 145 147 146 148 149 149 148 148 149 147 147
146 146 147 146 145 145 145 145 144 143 141 142 142 140 140 140 139 139 138 137
192 192 192 191 189 188 187 186 185 184 184 182 180 178 175 172 170 168 167 164 163 162 159 159
158 155 153 152 151 150 148 148 145 144 143 142 140 140 141 140 139 138 138 135 135 125  71 111
 99 114 133 136 135 135 136 136 137 138 139 141 142 143 145 146 148 148 148 149 149 149 148 148
147 146 146 146 146 145 145 145 144 143 143 142 141 141 141 140 140 140 139 138
192 192 192 192 190 188 187 186 186 185 183 182 180 178 175 172 171 169 166 163 162 161 159 157
156 155 152 151 149 147 147 144 146 146 145 145 142 139 136 128 139 141 140 136 119 122  77  94
 87  72 111 117 135 135 132 134 135 135 137 139 140 141 144 145 146 147 148 149 148 149 148 148
147 147 147 147 146 146 145 145 145 144 144 142 141 142 142 141 140 141 140 138
193 194 194 192 190 188 187 188 187 185 185 183 182 179 175 172 170 169 166 163 161 160 158 158
155 153 153 145 138 144 142 119 115 126 121 103  81  77  77  67  90 109  98  96 101  74  59  32
 60  33  85  75 104 107 116 127 131 133 135 137 138 140 143 143 145 146 148 148 148 148 148 148
148 147 147 146 146 146 146 145 144 144 143 143 143 142 142 141 141 141 140 139
195 195 194 192 190 189 189 190 187 186 186 184 183 180 176 172 171 168 166 163 160 159 157 154
153 152 147 146 131 136 118  65   8  14   0   0   0   0   0   0   0   0   0   0  20  26  27  24
 32  28  47  73  60  45  66 118  99 119 127 132 136 138 141 142 144 146 146 147 148 148 148 148
148 147 146 146 146 146 146 145 144 144 143 143 143 142 142 142 141 141 141 139
196 195 194 193 192 190 190 190 188 187 185 184 183 179 175 172 171 167 163 161 158 158 155 153
146 121  96  97 108  91  57  31  34  23  26  23  24  23  22  21  23  25  26  23  16  15  24  23
 15  26  22  24  25  60  52  76  67  49  94 130 135 137 139 141 143 144 146 147 147 147 147 147
147 146 146 146 146 145 145 145 143 142 142 141 141 141 141 141 141 141 140 138
195 195 195 193 192 191 191 190 189 188 186 184 182 179 175 172 170 166 163 160 156 152 151 152
128 105 100  68  53  12   6  22  20  18  20  16  13  15  16  14  15  16  13  15  14  14  15  14
 15  14  21  16  19  30  47  10  52  41  36 123 134 133 137 139 141 142 144 146 146 147 146 146
146 146 145 145 144 144 144 143 143 142 142 141 142 141 140 140 140 140 140 138
196 196 196 194 193 192 191 190 189 188 187 186 183 179 175 172 169 164 161 156 157 149 102  95
 63  26  66  52  32  39  21  21  18  17  17  18  15  13  15  14  13  15  15  13  14  11  14  14
 15  14  17  17  25  21  21  20  49  53   0 111 128 129 135 137 138 140 143 144 145 146 146 146
145 145 145 145 144 144 145 144 144 143 142 141 142 141 140 140 140 140 139 138
197 197 196 195 194 193 191 190 190 189 187 186 183 178 175 171 166 164 161 154 149 115  32   0
 18  25  31  23  28  18  19  19  16  16  17  16  17  14  12  14  13  13  16  14  12  12  12  12
 14  13  16  16  18  18  16  19  21  36   0  94 122 124 134 135 136 137 139 141 143 145 145 146
146 145 146 145 145 145 145 145 144 144 142 141 141 141 139 139 140 140 139 137
197 198 197 196 194 193 192 191 190 190 188 186 182 177 172 169 165 157 126  92  56   0  34  35
 21  20  17  19  15  15  14  16  17  16  17  14  17  18  10  15  13  13  12  16  13  12  13  12
 12  13  15  17  16  17  15  17  14  29   0  83 119 115 133 131 134 135 137 141 142 144 145 145
145 145 145 145 145 145 144 144 143 142 142 141 141 140 139 140 140 139 138 137
198 198 197 197 195 192 192 191 190 189 188 186 183 181 173 158 129  82   2   0   6  31  26  24
 21  19  17  18  20  17  14  13  16  15  17  18  13  16  14  10  15  15  11  16  18  14  14  13
 11  14  16  19  16  15  19  18  17  19   4  59 104 112 130 129 131 133 137 139 142 143 143 144
145 145 145 144 145 144 144 144 143 143 141 141 141 141 141 140 140 140 139 137
198 199 198 197 195 193 192 191 191 189 187 185 180 145  95  53   0   0  24  32  28  21  22  25
 17  20  19  17  17  18  17  14  14  17  15  16  16  14  15  11  11  14  12  13  17  13  15  13
 11  12  17  19  15  12  21  17  15  17  21  27  72 111 127 126 129 131 134 136 140 143 143 143
144 144 144 144 144 144 144 144 142 143 142 141 141 141 141 140 140 141 139 137
199 199 198 197 196 194 193 192 190 190 187 187 154  97  73  36  48  38  38  20  25  24  23  22
 20  17  16  20  20  17  17  18  15  13  15  11  16  16  14  10  10  10  11   8  12  12  14  13
 10  12  15  15  12  11  15  16  16  19  22  15  44 105 120 121 126 128 131 133 136 139 141 142
143 143 145 144 143 144 144 144 142 142 142 141 141 141 140 140 140 140 139 138
199 199 199 197 196 195 193 192 191 190 189 184 168 123  98 103 105  90  69  59  32  22  22  23
 23  20  18  16  21  22  19  17  17  11  12  15  10  15  13  13  11  11  11  10  10  12  14  11
  8   9  10   9  10  11  12  17  15  20  19  20  21  96 114 117 120 123 126 130 134 136 140 143
143 143 144 144 143 142 143 143 143 142 142 141 142 141 141 141 139 140 139 138
199 200 200 198 196 195 193 193 192 189 182 175 170 144 132 113 103  94  76  56  50  21  20  17
 19  19  21  20  16  17  18  17  16  15  12  11  10  11  13  11  12  12  12  11  11  12  11   9
  8   9  10   9   9  10  11  11  13  19  14  21   9  54  99 112 117 116 121 126 130 134 136 139
141 141 141 143 142 142 142 142 141 141 141 141 140 141 141 141 139 139 139 138
199 200 200 199 196 195 193 193 192 190 190 179 140  87  67  43  39  34  46  29  18  19  19  20
 21  18  18  20  19  19  18  15  14  13  13  14  14  13  14  17  16  16  19  23  21  20  16  14
 10   8   7   7  10  10   9  10  13  13  12  14  22   8  45  78 101 106 116 124 127 131 134 137
138 139 141 141 141 141 141 141 141 141 140 141 141 140 139 139 140 139 139 138
200 200 199 198 197 196 194 193 192 192 181 134  87  54  42  45  42  26  20  20  16  15  14  13
 15  17  15  15  17  17  17  16  13  12  14  15  18  21  22  24  27  36  40  48  48  43  38  38
 35  30  25  19  12  12   8   8  12  11  11  13  16  19  18  23  40  78  93 105 123 127 132 135
136 137 139 140 140 140 140 141 140 140 140 139 139 140 139 139 139 139 138 137
200 201 200 199 197 196 196 195 192 187 158 111  99  83  54  51  34  22  21  21  22  21  19  16
 14  13  14  14  13  12  13  20  27  32  35  41  39  41  48  49  57  63  61  60  60  57  57  55
 53  51  47  43  32  20  13   7   9  11  10  12  15  14  19  15  25  62  73 106 119 123 129 132
134 136 137 139 139 139 139 139 139 139 139 137 138 138 138 139 139 139 138 137
201 201 201 201 199 197 195 195 194 187 155 161 169 160 135  82  25  29  27  25  23  22  22  20
 16  15  15  14  15  29  45  53  58  63  65  68  71  76  77  76  80  78  73  72  72  69  68  65
 61  61  60  56  50  41  31  20  12   9   8  10  12  14  16  17  22  24  85 109 111 120 125 128
132 134 135 137 138 138 138 138 139 138 138 138 138 138 138 139 139 140 139 137
202 202 202 201 200 198 195 195 194 191 186 185 177 142  72  32  25  25  23  23  24  22  21  21
 19  18  18  25  45  62  71  77  80  83  85  83  84  87  88  85  81  77  72  68  69  65  64  62
 59  58  58  58  57  55  48  36  25  16   9   9  10  13  14  20  19  14  55  93 108 116 122 126
129 131 135 136 137 138 138 138 138 138 137 137 137 138 138 138 139 139 139 138
203 203 203 201 200 199 196 194 194 194 191 187 155  55   0  26  27  24  24  25  24  22  24  21
 21  21  36  58  72  82  87  89  88  87  84  81  79  78  76  77  76  78  79  80  82  83  81  79
 76  74  73  70  63  57  52  48  42  33  21  11  10  11   9  13  18  16   8  83 104 111 118 123
128 129 133 136 136 136 137 138 137 137 137 137 137 137 138 139 139 138 139 138
204 205 204 202 201 200 198 197 196 193 193 181  83   0  38  35  33  28  27  23  25  25  21  23
 26  40  65  78  85  91  94  91  89  89  88  89  90  93  95  99 101 101 100  95  91  86  77  73
 74  75  75  74  71  67  62  54  49  45  36  23  13  11  12  12  19  17  16  76 103 110 115 122
127 130 133 134 135 135 135 137 137 137 136 136 137 137 138 139 139 140 138 137
205 206 205 204 202 201 199 199 198 195 196 131   0  36  41  47  29  29  27  26  26  23  23  26
 42  67  82  90  93  92  95  96 103 107 110 109 106 108 108 105 102  94  86  76  73  72  73  72
 71  72  73  71  69  70  68  64  55  51  46  34  21  12  14  13  16  18  13  66  94 106 115 121
126 128 133 135 135 135 136 136 137 137 136 136 136 137 137 139 140 139 139 138
205 206 205 204 203 201 199 199 198 199 176  75  33  59  59  36  28  28  26  24  21  23  25  36
 65  82  92  95  96 103 109 113 111 105  99  92  87  85  85  83  82  84  86  89  93  94  94  92
 88  87  86  82  78  78  74  69  62  55  50  45  35  19  13  14  14  18  11  61  91 103 113 120
125 128 132 135 136 136 136 136 136 137 136 136 136 136 137 138 139 139 139 138
206 206 207 205 204 202 201 199 198 199 174 114  53  99  62  43  30  25  24  23  23  26  31  63
 83  89  92  96 105 111 109 102  97  96 101 107 109 111 114 115 114 113 110 101  95  91  88  85
 84  81  77  73  74  80  77  72  68  59  55  50  44  29  14  13  13  15  10  43  91 104 110 117
123 128 132 135 136 137 136 136 136 136 136 136 135 136 137 137 139 139 139 137
208 208 207 206 205 203 202 201 200 199 189 174 136  96  84  71  10  30  25  26  29  26  46  75
 87  90  95 103 106 101  99 106 113 120 120 116 112 108 106 105 101  95  90  86  82  81  81  78
 77  78  78  76  73  75  76  73  68  63  58  56  51  39  22  14  14  13  14  19  62  96 109 115
122 129 132 135 136 136 137 137 136 136 138 136 136 137 137 137 137 138 138 138
208 208 208 207 206 204 203 202 201 200 199 201 187 106 116  37  27  28  26  28  27  33  61  81
 87  93  99  98  97 102 111 115 116 110  99  95  92  90  92  95  95  96  99  97  96  95  94  91
 91  88  82  78  78  79  76  73  67  64  62  58  56  47  31  16  14  14  16  10  39  90 109 115
121 128 132 137 137 137 137 137 137 137 138 137 137 138 137 137 137 139 139 139
209 209 210 209 207 206 204 203 202 201 200 201 189 178 124  20  36  28  27  29  31  43  74  87
 90  96  97  98 105 111 113 107 102 101 106 109 109 106 108 112 113 112 108 102 100  98  97  96
 92  86  81  77  73  75  77  74  68  64  62  61  60  52  36  22  17  16  15  17   6  75 107 115
120 126 132 136 137 138 138 138 138 138 138 137 137 137 137 138 137 138 140 138
210 210 211 210 208 207 205 204 203 202 202 202 200 198 137  21  39  28  27  30  31  55  84  92
 93  93  96 104 107 103  98 101 108 108 106 105 104 106 106 108 110 107 104  96  94  93  82  78
 80  81  78  75  70  68  74  73  68  66  64  63  62  56  42  27  21  19  16  18   4  59 100 113
120 126 133 137 138 138 139 139 138 137 138 138 138 138 138 139 139 140 141 139
211 212 212 211 210 208 206 205 204 203 203 202 202 191 148  91  21  34  29  31  33  63  90  94
 93  95  98 101  98 101 107 107 107 105 103 103 104 110 113 112 110 106 101  98  98 100  99  94
 90  85  77  72  72  67  67  69  68  68  66  66  63  60  47  31  21  20  17  18  13  37  95 113
120 127 133 137 138 139 140 139 138 138 138 138 138 138 139 139 139 140 140 139
213 214 213 212 211 209 207 206 205 204 203 202 202 196 184 139   0  41  32  32  36  65  87  94
 97  95  96  95  99 104 106 103  98  96 102 108 109 114 113 114 112 109 108 107 106 105 103  98
 86  81  82  74  70  65  62  64  65  66  68  68  64  62  53  35  23  19  17  18  20  12  71 111
121 127 133 137 139 138 139 140 140 139 138 138 138 139 139 139 139 139 140 139
214 215 215 214 212 210 208 207 207 206 204 203 202 201 198 173  47  34  35  32  41  68  90 100
101  96  93  96  99  99  99  97  95  94 101 107 107 109 110 111 111 109 110 112 114 113 112 112
107  96  91  88  77  66  63  61  61  62  66  69  67  63  58  43  25  17  17  16  20  16  41  99
120 128 134 137 139 139 140 141 140 139 140 140 139 139 138 139 140 139 140 139
215 215 216 214 212 210 209 208 208 207 206 204 203 201 197 187  98   0  37  36  43  66  94 105
102 100  97  94  94  98  98 101 113 112 104 107 108 107 109 109 109 109 109 113 114 116 122 122
112  81  51  52  43  46  58  64  62  61  63  66  69  65  63  55  35  18  15  17  22  18  33  94
122 128 134 138 139 140 141 140 140 139 139 140 140 140 139 139 140 140 140 138
216 216 216 215 213 211 209 208 208 208 207 205 204 203 198 193 115   0  40  33  40  71  97 103
104 103  95  91  91  91  91  97 101 112 119 116 114 109 109 110 108 108 109 112 118 119 121 113
 83  39  26  13  15  10  20  43  55  58  63  63  66  65  64  63  49  23  16  18  23  20  24  85
121 129 136 139 140 141 141 141 140 140 140 140 141 140 139 139 139 140 140 139
216 216 216 216 213 211 210 209 209 209 208 206 204 203 199 191  96   0  38  31  42  77 100 105
102  91  87  87  74  54  48  40  32  53 100 122 124 119 117 117 111 111 113 115 127 121 109  87
 64  43  42  41  33  25  16  18  24  33  52  64  65  64  63  66  57  27  17  16  21  16  35  79
117 132 137 140 141 141 141 141 141 141 141 142 141 141 140 140 139 139 139 139
216 216 216 217 215 212 210 210 209 208 207 206 205 203 201 180  67  24  37  31  40  84 106 103
 95  90  78  53  24  24  17  25  39  47  42  98 125 127 125 124 120 120 116 113 119 121 104  74
 68  54  47  45  40  38  35  32  24  17  25  43  50  61  63  64  63  34  13  17  19  21  15  77
122 133 138 141 142 142 142 142 142 142 141 141 141 141 141 141 140 140 139 139
217 217 217 217 215 214 212 211 209 209 208 206 206 204 203 163  49  33  37  28  48  94 102  98
 88  61  39  21  33  45  47  39  36  56  40  61 127 140 132 130 129 128 125 121 124 126 102  79
 85  65  57  65  60  45  36  29  24  20  15  14  19  36  58  64  66  41   9  18  21  20  32  89
125 134 139 141 141 141 142 143 143 142 142 141 141 141 141 141 141 141 141 140
217 218 218 217 216 215 213 211 210 209 208 207 206 205 203 157  25  39  35  28  57 101  96  84
 52  23  25  32  36  32  46  53  49  55  52  52 118 147 144 138 136 133 132 129 128 126 104  93
101  95  93  94  77  73  63  53  46  39  31  24  25  21  39  64  66  44   7  18  23  22  21 100
128 135 140 141 142 143 143 143 143 143 142 142 142 141 141 142 141 141 142 141
217 218 218 217 217 215 213 211 211 210 208 207 206 205 207 165  53  38  36  26  61 102  86  39
 27  42  33  40  60  75  78  80  93  99  95  80 114 154 150 145 141 140 133 130 129 125 117 112
115 113 111 104  98 101  98  89  81  71  61  66  57  39  30  54  68  47   9  21  23  24  15  87
128 136 142 143 143 143 143 144 143 143 143 143 142 141 141 141 142 142 142 142
218 219 219 219 218 216 215 212 211 210 210 210 209 207 207 179  82  32  39  20  62 104  67  36
 58  70  76  92 101 111 114 111 110 119 127 125 122 147 149 149 147 140 136 134 130 120 111 113
115 107 101  98  95  95  97  98 101  96  89  85  70  59  43  55  69  48  11  25  22  17  47 102
132 139 143 143 143 144 144 144 144 144 143 142 142 142 142 142 141 142 143 142
219 220 220 219 218 217 216 214 212 212 213 212 211 209 207 187 100  23  44  17  60 104  61  56
 83  98 106 117 119 114 113 114 113 111 118 129 133 136 143 147 150 145 139 136 128 111 102 108
105  95  92  94 105 114 110 102  93  95  98  96  90  80  63  59  70  53  10  25  21  13  71 115
133 141 143 144 144 145 145 146 145 144 144 144 143 143 142 142 142 142 143 143
220 220 220 219 219 218 217 215 213 213 212 212 211 209 209 194 108  34  48  18  58 103  57  79
110 115 120 118 114 117 120 121 116 111 111 116 124 128 133 145 149 144 137 131 122 100  93 100
 90  89  96 104 108 113 111 105  98  93  89  93  97  92  79  70  72  62  14  24  22  12  89 127
137 142 144 145 145 146 145 146 145 145 145 143 143 143 142 142 143 142 143 143
221 221 221 220 219 218 217 216 213 213 213 213 212 211 208 201 166  54  45  23  61 102  83 113
121 121 116 110 116 115 114 114 111 112 115 111 114 121 125 133 143 138 132 126 115  89  92  88
 80  85  99  99  96  98 102 101  93  87  82  81  91  99  95  82  77  68  24  23  19  30 104 131
137 144 145 145 145 146 146 146 146 146 145 145 144 143 143 142 144 144 144 143
221 220 221 220 220 219 218 216 215 214 214 213 213 212 208 207 197 101  33  32  65 106 106 121
123 115 106 112 116 112 108  94  93  93  97 103 104 120 122 119 134 133 123 117 107  83  82  79
 78  83  78  83  67  52  62  67  77  84  84  76  81  94  96  87  79  73  35  22  15  41 110 131
139 146 146 145 145 145 146 147 146 145 145 144 145 145 144 143 143 145 144 143
221 221 221 221 221 220 219 217 216 216 215 215 213 212 210 206 207 167  60  26  72 112 116 127
123 106 109 111  90  66  49  68  11  79 106  89  92 113 119 112 126 127 117 112 104  80  69  75
 74  77 101 133  67  39 102   0   0  35  60  73  75  90  93  90  81  78  45  20  17  27 110 134
142 146 147 147 145 145 145 146 147 146 147 146 146 146 144 144 143 143 144 142
221 222 222 223 221 220 218 217 217 216 216 215 214 213 211 208 206 194  92   2  80 117 120 128
118 105  91  58  68  26  48 101   6  96 134 116  84 101 119 106 121 120 109 105 100  80  65  74
 61  74  90 118  90  10  37  23  66  86  28  37  64  83  92  90  83  80  52  20  36  51 113 136
143 147 148 148 147 147 148 148 148 147 146 146 145 145 144 143 143 144 144 142
222 223 223 222 222 221 219 218 217 217 217 215 215 214 212 208 207 203 111   0  89 122 124 130
119  90  34  65 122  88  36  22  50  93  92  83  80 109 113 105 113 112 105 101  95  80  63  70
 72  62  61  66  79  62  59  52  75  76  61  51  63  81  91  89  84  81  59  36  61  77 122 138
144 148 148 148 149 148 148 149 149 148 147 145 146 145 144 144 144 144 144 143
223 224 224 223 222 221 219 218 217 218 217 216 215 215 213 209 207 209 144   0  95 124 125 127
114  83  73  82  86  92  69  82  84  96  98  96 108 114 104 101 108 109 107 106 101  82  67  64
 74  79  76  81  89  87  90  86  83  81  84  78  80  85  88  90  85  82  61  41  62  79 127 139
145 149 149 149 148 148 148 149 148 147 146 146 146 145 144 144 143 144 145 144
223 223 224 223 222 221 219 219 218 218 217 216 216 215 213 211 208 210 172  59  95 123 126 125
114 112 111 110 106 113 110 118 111 112 107 108 107 106 103  99 115 111 104 103 101  93  74  66
 68  76  81  84  93 103 107 105 105  95  94  94  93  93  91  90  88  83  66  39  61  84 131 140
146 149 148 149 149 148 149 148 147 147 147 146 145 145 145 144 144 144 145 144
224 225 225 225 223 222 220 219 218 218 217 217 216 216 215 213 210 213 172  72 100 125 127 123
124 125 126 127 130 136 134 132 127 121 116 113 108 111 105 106 119 116 113 111 109  95  83  71
 73  74  86  95 101 105 107 107 104 103 101  99  94  97  94  90  88  81  68  39  62 105 135 141
148 149 149 149 149 149 149 149 149 148 147 147 146 145 145 144 144 144 145 144
224 225 226 225 223 222 220 220 219 219 218 218 217 216 215 213 210 214 184  81 103 125 125 125
128 129 129 134 136 138 141 140 136 130 124 119 119 115 108 112 114 119 119 115 110  91  81  78
 75  81  83  96 108 113 116 113 109 104 100  97  94  96  96  92  88  82  68  48  75 119 136 144
149 149 149 150 150 150 150 150 150 149 148 148 147 146 145 144 144 145 144 144
225 225 224 224 223 221 220 220 220 218 219 219 218 218 216 213 212 212 205 121 104 125 124 125
127 127 129 132 135 138 141 144 143 136 129 127 125 116 112 111 111 119 119 115 109  92  80  83
 78  84  91  92 104 117 119 120 116 108 104 100  99  97  95  94  87  82  77  71  82 124 138 145
149 150 150 150 149 149 150 150 150 149 149 148 147 146 145 144 145 145 145 145
225 225 224 224 223 222 221 220 220 220 219 219 220 219 216 214 213 211 213 173 109 125 124 123
127 130 131 134 138 143 149 147 144 137 133 135 127 117 115 109 112 118 116 115 106  90  81  83
 83  85  94  98  98 106 117 122 120 113 108 105 105 101  96  94  89  82  78  76  86 128 141 147
150 150 151 149 149 149 150 150 150 150 150 149 147 146 146 145 145 146 145 144
224 226 226 226 225 223 222 221 221 220 220 220 220 219 217 215 213 212 213 189 121 123 125 127
133 132 133 136 143 149 149 145 139 138 140 136 126 120 117 110 113 118 115 113 104  87  79  79
 87  87  92 100 106 104 106 112 114 114 111 109 107 104 100  95  90  83  73  68  89 133 141 147
150 152 151 151 150 150 150 150 150 150 149 149 147 146 145 145 145 146 147 146
226 226 227 227 225 223 222 221 221 220 220 219 219 219 217 215 214 212 214 191 123 124 128 131
136 135 136 139 144 147 142 137 136 143 143 138 128 121 113 110 112 116 117 117 105  84  73  73
 84  90  95 103 106 110 110 108 106 109 109 109 108 104 103  97  90  85  67  62  92 136 143 149
151 152 152 151 152 151 150 150 149 149 149 148 147 146 146 146 146 148 148 147
226 227 227 226 224 223 221 220 219 220 220 219 219 218 216 215 214 212 215 195 124 125 129 133
136 135 138 143 144 141 136 134 141 144 143 137 131 121 110 111 111 119 125 119 107  95  78  66
 75  92  99 105 108 110 110 111 110 108 108 108 106 101 100  98  91  85  72  68  98 139 144 149
151 152 152 150 151 151 150 150 149 150 149 148 147 147 148 148 148 148 148 147
226 226 227 226 225 222 221 220 219 219 220 219 218 219 218 215 213 212 213 201 131 123 129 132
132 135 138 139 136 136 136 138 142 147 145 141 134 112 109 112 111 118 128 124 115 109  96  77
 61  79 105 111 111 113 113 112 112 112 112 109 108 103  98  97  92  84  78  70 111 143 146 151
152 152 153 152 151 151 151 151 150 149 150 149 148 148 148 148 147 148 147 146
226 226 226 225 224 222 221 220 219 219 219 218 218 218 218 215 213 210 211 208 145 121 130 134
132 137 138 137 138 138 135 137 141 146 147 148 132  97 102 109 115 126 129 133 130 117 105  92
 70  56  91 120 120 114 116 115 111 111 112 110 108 105  98  95  91  82  78  81 127 146 149 152
153 153 153 152 151 150 151 152 151 150 150 150 149 148 148 147 147 148 147 147
224 224 225 224 223 223 221 219 219 220 219 219 219 218 217 215 213 211 210 213 165 122 130 135
136 137 138 139 140 140 136 140 141 147 150 156 122  92 102 112 128 133 147 150 144 127 112  98
 83  65  69 118 130 123 119 120 116 114 112 112 108 102  98  95  90  82  69  90 138 145 150 152
154 154 153 153 153 152 151 152 153 152 151 150 150 149 148 148 147 148 148 148
223 224 225 224 224 222 220 220 219 219 219 219 219 218 217 215 213 213 212 213 191 127 130 135
136 138 140 140 141 142 140 143 145 151 157 160 114 102 115 125 139 149 158 168 168 150 125 105
 96  85  68 110 138 133 129 123 122 120 115 111 110 104  98  95  91  81  74 123 142 145 151 153
155 154 154 153 152 152 152 152 153 152 151 150 150 149 148 148 148 148 148 148
224 224 224 224 223 221 220 219 219 219 218 218 217 217 217 215 213 213 213 212 206 144 126 135
139 141 140 141 142 144 151 150 153 158 164 160 120 130 139 141 152 166 176 184 185 178 141 111
109 108  88 109 144 140 137 135 128 124 118 112 110 105 100  96  90  73 113 140 142 148 152 154
154 154 154 153 153 152 151 152 152 151 150 150 149 148 148 147 148 149 149 147
223 224 224 224 222 220 219 218 218 218 218 218 217 217 217 215 213 212 212 209 212 175 124 137
140 144 144 145 149 153 154 159 159 159 165 159 132 143 148 145 158 178 191 185 176 173 143 112
107 117 102 116 143 146 144 142 136 128 122 116 109 104  99  95  88  71 119 141 145 150 153 154
154 155 154 153 153 152 151 152 152 151 150 150 149 148 148 148 149 149 149 148
222 223 224 222 221 220 218 217 217 217 218 217 217 217 216 215 213 212 212 210 213 184 124 137
143 146 147 150 156 157 160 162 161 161 161 158 139 131 122 122 146 174 182 171 162 156 128  86
104 118 102 123 138 148 152 144 138 134 125 118 111 103  98  94  86  69 124 142 147 151 153 154
154 153 153 152 152 151 151 152 152 151 150 149 149 149 149 149 148 149 149 148
222 222 222 221 220 220 219 217 217 217 217 217 217 216 215 215 212 212 211 210 212 190 125 136
142 147 149 152 156 159 163 162 164 164 160 154 145 127 126 132 129 155 163 157 156 151 101  94
127 110 103 126 137 144 152 145 140 138 128 118 114 104  98  93  82  70 128 144 148 151 153 154
154 153 153 153 152 151 151 152 151 151 151 149 150 151 150 149 148 149 149 148
221 221 221 221 221 219 219 218 217 217 217 217 217 216 216 214 213 212 211 210 213 196 124 134
141 147 151 154 159 161 164 165 165 163 154 147 142 137 128 136 144 143 144 142 138 123 116 114
107  99 109 122 127 135 144 145 141 138 132 122 114 104  98  92  79  75 133 144 148 152 154 154
153 153 152 152 151 151 151 151 151 151 151 150 150 149 149 149 149 149 148 147
221 221 221 221 220 220 219 218 217 217 216 216 216 215 215 214 212 212 212 211 211 203 136 130
141 146 152 157 162 164 166 167 161 154 148 144 140 134 118 120 142 146 140 131 123 119 127 110
 95 107 110 117 121 126 133 137 136 137 133 124 115 104  96  90  73  82 138 145 150 152 153 154
153 153 153 152 151 150 151 150 150 150 150 150 150 149 149 148 148 149 148 148
221 221 221 221 221 220 218 217 216 217 216 216 216 216 215 214 212 212 211 211 208 208 149 126
142 145 151 155 160 162 162 159 155 150 145 136 133 122 110 122 134 142 151 145 138 135 124 109
101 107 111 111 113 117 126 131 129 132 130 123 117 105  95  87  69  94 141 146 151 152 153 154
154 153 152 150 150 151 150 149 149 149 149 149 149 149 148 149 149 149 149 148
220 220 221 221 220 219 217 217 216 216 216 216 215 215 214 214 213 212 211 209 207 209 157 120
142 146 151 155 160 160 159 154 150 144 137 126 123 115 112 126 131 128 142 142 127 144 131 107
113 102 100  95  98 102 113 123 124 125 126 122 116 106  94  88  67 110 144 147 152 153 154 154
153 151 150 150 150 150 150 149 148 148 149 148 148 148 148 149 149 149 149 147
220 220 221 220 219 218 217 217 216 216 216 215 215 215 214 213 212 211 210 209 207 211 178 113
139 142 150 156 159 159 152 152 141 132 115 121 123 120 118 138 143 149 137 134 130 141 138 123
117 104 103 102 101  99  97  97 114 121 124 122 115 103  92  85  68 118 144 148 152 153 153 153
152 152 151 150 149 151 150 149 149 149 148 148 148 147 149 149 148 148 148 147
220 220 220 219 219 219 218 216 216 215 215 215 214 214 213 212 210 209 208 208 207 209 190 123
134 137 146 154 156 156 150 139 122 130 134 142 136 143 139 154 160 162 143 130 147 156 146 136
131 121 121 121 119 119 109 105 110 119 121 120 114  99  86  74  78 127 143 149 151 152 153 152
152 150 150 149 148 150 149 149 149 148 148 147 147 147 148 148 147 149 148 147
220 220 220 220 219 219 217 215 215 215 214 213 213 213 212 211 208 207 206 205 205 204 203 145
125 138 142 152 155 154 151 132 136 156 158 162 160 163 164 156 158 164 157 154 167 163 149 143
139 135 140 138 131 136 134 119 110 118 121 116 111  95  84  73  92 133 141 148 151 152 150 150
150 149 148 147 148 148 148 148 148 146 147 146 146 147 147 147 148 148 147 146
220 219 219 219 219 219 216 215 214 214 212 212 212 211 211 209 206 205 204 203 203 200 203 165
114 130 137 149 155 151 145 144 153 166 163 166 164 154 145 140 132 136 144 151 142 130 123 123
123 121 123 124 124 125 125 129 119 118 123 117 104  91  85  67 102 131 140 148 151 151 150 149
149 149 147 147 146 147 147 147 147 147 147 147 146 147 147 148 147 148 147 146
218 219 219 219 219 217 216 215 214 213 212 211 210 210 210 209 205 203 203 202 201 199 200 191
124 122 133 144 153 154 151 156 157 148 136 131 120 105 104 106 107 105 108 109 102 103  97  92
 90  84  72  82  97 100 111 131 132 126 126 116 102  90  82  67 110 129 138 147 150 149 150 148
147 146 146 146 146 146 145 145 146 146 146 146 147 147 147 147 147 147 146 145
218 218 218 219 218 217 216 214 213 211 211 210 208 209 207 207 203 202 201 200 199 197 193 197
150 115 130 142 152 153 152 152 149 142 124 120 111 106 106 111 110 109 111 112 116 115 110 101
101  99  96  97 107 106 118 132 140 137 127 113  98  86  78  68 109 128 137 146 149 149 148 146
145 144 144 144 144 144 143 143 145 144 145 146 147 147 146 146 146 146 146 144
218 218 218 218 218 217 214 213 211 210 209 208 208 207 205 204 202 199 197 196 192 189 185 183
168 120 126 136 148 155 158 154 155 153 139 138 135 134 131 131 133 134 134 132 133 135 131 117
118 118 113 111 112 114 122 135 140 137 124 112  94  80  71  68 102 122 132 142 147 147 146 146
145 144 144 143 142 142 143 142 144 144 145 145 146 146 146 146 146 146 146 143
218 217 217 217 216 215 213 211 209 208 208 206 205 205 204 202 198 194 191 184 179 175 167 162
158 129 122 129 141 154 161 164 159 154 150 147 145 154 157 150 146 149 146 147 145 142 138 135
136 135 129 123 118 116 124 129 131 130 123 107  90  76  71  74  92 108 119 131 137 138 140 142
142 142 143 142 142 141 141 141 142 142 143 143 144 144 145 145 145 145 143 141
217 217 217 216 216 214 211 210 208 207 205 202 201 200 199 196 192 186 178 170 162 154 145 137
131 123 114 122 132 147 155 157 156 153 153 151 153 161 166 162 155 146 142 142 142 143 140 144
145 141 136 126 117 119 122 124 125 121 115 101  87  73  75  75  83  95 104 114 121 124 126 127
130 135 137 138 137 137 139 140 140 141 142 143 142 142 142 143 142 142 141 140
215 216 216 215 215 213 211 209 206 203 199 195 192 190 189 186 181 172 161 150 141 132 122 112
103  93  93 116 133 139 148 154 153 151 150 152 153 159 161 157 153 138 129 120 120 134 139 142
140 136 133 123 118 117 118 122 118 110 107  96  80  70  80  74  75  81  87  97 103 107 108 112
118 123 125 127 127 128 130 134 136 137 139 139 140 138 138 138 138 139 139 137
215 215 215 215 213 212 210 207 203 197 192 185 180 177 175 169 162 153 141 129 116 103  80  63
 49  49  71 107 131 138 142 148 149 148 146 147 152 154 155 157 153 149 131 126 126 128 137 143
142 136 129 124 118 118 120 114 112 107  98  89  69  75  81  74  58  64  75  80  83  87  90  96
103 109 113 115 115 114 117 122 125 128 130 133 136 136 136 136 135 136 135 135
215 215 214 213 212 210 207 204 197 189 180 171 163 159 155 150 141 132 116  86  64  52  42  38
 48  60  66 104 118 132 141 141 146 146 143 145 149 152 154 152 146 137 134 135 131 125 127 130
134 132 127 123 120 118 117 109 104 102  93  76  68  82  80  73  55  40  50  60  62  67  73  79
 84  92  99 101 100 102 105 109 113 116 120 123 128 131 133 134 134 134 134 133
213 213 213 212 209 206 201 196 187 175 162 152 145 139 135 129 123 102  55  44  46  46  42  41
 54  58  59 107 114 114 134 140 143 146 143 144 145 149 152 145 144 141 137 137 139 130 121 124
127 130 129 121 121 119 118 113 105  98  84  68  83  85  80  72  61  61  46  35  41  35  42  59
 73  78  83  86  88  89  91  95 100 103 109 113 119 123 126 129 131 132 132 131
209 209 207 206 203 198 192 184 172 160 149 138 130 124 116 108  95  47  39  60  56  47  38  43
 56  56  57 104 123 110 114 134 138 142 144 143 143 145 146 144 143 135 133 141 139 125 121 115
117 118 125 123 124 117 114 113 103  88  67  77  91  83  78  70  62  66  66  44  36  36  32  28
 44  64  70  73  68  68  78  86  90  92  96 102 108 113 118 121 125 128 129 128
204 202 200 198 193 187 179 169 158 143 111  89  74  81  78  66  52  47  49  57  55  47  39  42
 54  53  58 100 119 122 102 120 135 141 143 143 141 142 138 135 132 123 133 136 133 126 118 106
102 106 113 120 122 115 108  98  87  72  67  92  90  86  78  68  61  69  71  62  37  35  33  32
 28  31  39  41  38  34  42  56  70  79  86  91  97 104 109 113 117 121 122 122
198 198 194 189 183 175 165 156 145  88  29  46  38  49  53  52  48  47  49  56  54  49  38  42
 52  53  57  97 115 127 120  96 124 134 137 143 142 141 132 127 129 123 132 129 124 116 111 100
102 102 101 106 103 104  99  88  71  59  90  93  91  86  76  66  60  69  74  73  44  31  33  31
 31  33  32  36  40  41  31  31  33  40  55  76  90  95  98 104 110 113 115 116
192 191 191 185 169 152 141 117  83  41  55  63  43  45  54  53  47  46  49  54  55  49  38  42
 51  52  57  92 114 123 134 120  99 126 130 125 130 134 132 123 121 128 128 129 119 121 115 112
113 102 100  94  87  91  84  77  51  81  97  92  92  85  76  67  59  68  75  76  52  28  33  32
 30  34  35  36  40  37  34  38  39  37  32  34  64  85  92  95 100 107 109 110
193 187 168 134  93  72  59  36  49  48  50  58  43  32  44  47  44  44  46  55  53  48  37  40
 51  49  58  89 110 123 131 135 106  93 118 119 122 122 117 111 115 120 117 123 118 119 110 113
118 103  95  83  83  78  73  56  63  96  97  94  89  83  75  67  58  67  73  76  57  27  32  32
 29  32  34  36  39  34  31  35  38  35  34  33  27  42  74  92  95  98 101 102
149 104  56  26  48  57  49  54  50  38  47  54  50  33  38  42  41  47  48  54  53  48  36  38
 49  46  54  86 107 119 128 134 133  93  95 107 109 102 111 108 111 114 111 115 111 109  94 106
107  99 100  85  78  72  58  56  89  99  97  96  90  81  74  65  57  64  70  73  56  31  33  31
 27  32  34  36  36  33  32  33  35  34  32  32  35  28  26  64  85  93  94  95
 14  21  47  56  54  45  40  50  47  32  39  52  51  35  31  38  45  46  46  50  55  50  36  37
 50  47  54  87 104 116 127 132 137 130  93  89  96 104 114 104 110 111 102 100 109  98  99 107
 98  98  94  84  78  60  44  85  99 100 100  96  89  80  72  64  56  63  69  70  57  30  32  30
 27  29  33  36  34  31  31  29  33  33  30  29  27  28  28  31  41  59  83  87
 46  47  42  37  39  40  45  55  44  31  35  44  51  39  31  31  41  45  45  49  54  50  37  34
 48  48  54  87  99 115 127 132 134 138 124  81  80 100 112 121 114 112 100  98 102 103 102  89
 87  94  90  74  69  52  79  97 100 103 101  96  87  77  71  64  57  62  69  69  55  30  29  29
 27  31  35  34  33  31  31  29  31  31  26  27  25  26  27  28  29  28  46  53
 45  46  47  47  44  43  44  54  45  30  32  38  50  43  34  30  31  37  45  47  53  51  40  32
 44  47  51  86  97 110 125 130 134 135 137 120  71  68  96 104  99 104 103 104  96  95  92  85
 80  81  73  62  54  82  97  97 100 103 100  95  87  76  69  64  58  62  68  69  55  31  30  29
 29  31  34  35  34  31  31  30  28  29  28  25  24  25  25  26  26  32  36  35
 47  46  47  48  44  40  40  51  44  28  32  37  45  45  37  31  29  34  42  44  53  51  41  30
 42  46  45  79  99 107 119 127 132 135 133 134 122  98  73  63  81  88  95  83  76  77  75  70
 67  62  59  65  91  95  95 101 104 106 100  92  83  76  68  63  61  64  68  70  53  28  29  28
 28  29  33  34  33  31  30  30  29  28  27  25  23  25  25  25  27  30  35  35
 46  45  41  41  42  39  40  45  43  29  29  34  41  45  40  35  29  30  37  43  48  52  46  31
 36  45  43  71  99 106 117 126 130 132 134 130 129 129 117  96  80  73  70  62  58  63  58  56
 63  74  89 102  99  93 101  99 107 107 100  91  80  75  68  63  63  66  70  70  52  29  28  28
 28  29  33  33  33  30  28  27  27  28  26  26  25  24  25  25  26  30  33  32
 41  42  39  40  42  41  42  41  36  28  27  30  38  44  41  39  31  29  34  40  47  48  47  36
 30  42  42  57  96 106 114 124 130 135 135 135 132 129 129 130 126 120 109 104 104 101 103 103
106 108 107 102  97 101 106 106 108 107 100  89  80  76  69  65  66  68  73  69  48  30  29  30
 28  28  32  31  29  29  27  26  26  26  25  24  24  25  26  25  26  31  31  29
 40  38  40  38  38  40  42  37  33  28  28  30  35  42  41  37  34  28  30  36  45  48  47  39
 29  41  44  43  85 108 112 121 129 135 137 138 137 131 127 125 126 127 126 123 120 116 115 113
111 107 105 101  99 104 108 109 109 105  97  87  80  75  72  68  68  73  74  67  45  27  31  31
 26  28  32  31  28  26  25  25  26  25  23  22  23  25  25  24  25  29  31  28
 39  37  41  37  35  38  41  36  29  29  26  28  32  40  43  39  33  29  27  32  42  48  45  42
 31  37  42  38  65 107 111 115 125 128 136 137 136 133 128 121 122 124 123 121 119 118 114 110
109 108 106 103 103 104 110 111 109 102  94  85  78  77  72  68  72  76  75  66  42  26  31  30
 26  26  31  31  28  25  24  24  23  23  21  21  23  23  23  24  25  29  32  28
 39  39  41  38  34  36  37  34  28  28  28  29  31  40  45  43  36  30  27  30  37  47  49  47
 36  30  39  42  41  90 112 111 117 123 131 136 134 131 130 125 121 121 120 121 121 119 116 113
110 107 106 105 103 107 109 109 108 101  90  82  79  77  72  71  75  76  75  67  37  27  30  28
 26  27  30  29  26  23  25  24  22  23  21  23  23  23  22  24  24  27  31  30
 37  38  39  39  37  37  35  32  29  28  28  30  31  36  43  44  39  32  29  32  37  47  49  45
 42  30  36  42  40  61 109 112 113 118 126 130 134 133 132 130 124 121 120 121 117 114 116 114
109 108 104 106 107 110 113 109 103  96  86  81  82  80  73  71  74  77  72  62  33  29  28  27
 27  28  31  29  24  24  24  22  23  24  23  23  21  24  24  25  25  28  29  28
 34  37  41  41  40  38  33  32  30  28  27  27  32  35  39  42  39  33  30  31  38  46  48  48
 46  33  33  41  43  38  92 115 112 115 122 129 132 129 131 131 128 124 122 120 118 117 115 113
110 109 109 110 111 115 115 107  99  89  82  81  84  83  76  73  76  75  71  55  29  31  31  27
 27  30  31  28  23  24  24  23  24  23  20  23  23  25  26  27  26  25  26  28
 34  36  37  37  38  39  36  32  29  27  26  28  30  32  40  46  39  34  30  32  37  41  50  50
 46  37  33  40  42  42  61 112 114 116 121 126 129 127 128 130 130 125 123 122 122 120 117 118
116 116 116 113 113 113 111 104  96  87  81  83  87  83  78  76  77  72  66  48  25  31  29  27
 26  30  28  26  23  25  25  22  23  23  22  23  24  28  28  27  27  25  25  27
 33  32  33  32  36  36  34  29  28  28  28  28  32  34  39  43  40  34  30  34  37  41  47  50
 49  42  31  38  41  47  40  91 115 115 120 122 127 127 126 125 128 125 126 125 122 120 119 118
119 118 117 117 116 112 109 103  95  86  83  88  90  83  78  76  75  68  63  40  27  30  29  27
 26  30  28  25  22  24  24  23  22  23  24  24  26  29  27  26  27  27  26  24
 34  34  33  32  37  38  37  30  27  29  28  28  31  34  38  46  42  34  31  35  36  39  41  50
 52  41  30  33  41  46  42  63 110 113 117 122 125 126 126 127 127 126 125 123 122 122 121 120
120 119 120 119 116 112 108 101  94  85  85  86  89  84  78  76  74  68  59  32  28  28  30  27
 27  29  27  22  22  24  25  25  25  24  22  23  25  27  25  27  29  26  26  26
 36  36  36  34  35  35  35  30  26  29  28  28  29  33  38  42  39  34  33  37  34  36  42  47
 49  46  35  30  38  44  47  42  93 114 116 121 123 125 125 126 124 124 123 121 121 121 121 119
116 117 120 120 115 112 107 101  92  86  87  87  88  85  78  76  71  66  52  28  27  28  27  29
 31  29  27  26  26  26  25  26  26  24  22  24  27  26  26  26  27  26  25  27
 40  40  38  35  34  32  32  30  26  29  28  29  30  32  39  41  38  35  33  38  36  35  40  44
 50  49  42  32  34  40  44  37  68 110 118 119 122 122 124 124 121 120 121 121 119 118 119 116
114 115 118 120 116 108 109 101  92  86  86  87  85  83  78  75  69  64  43  26  28  26  26  27
 29  29  26  25  24  27  28  27  26  23  23  27  27  25  27  25  26  26  27  26
 44  44  40  37  38  35  34  31  28  26  27  30  31  34  39  42  37  33  34  38  37  37  40  45
 48  48  44  31  32  39  41  42  46  96 115 115 118 120 121 122 121 119 120 118 118 119 119 117
116 118 120 120 116 108 107  97  92  86  85  83  82  82  78  74  69  60  35  27  28  28  27  26
 28  30  25  25  26  28  27  26  27  23  27  29  26  26  25  26  26  26  28  28
 44  45  43  42  37  37  34  29  25  26  26  30  31  33  37  41  38  31  33  37  38  37  37  39
 45  49  42  34  33  36  39  44  37  78 111 114 115 117 115 117 118 118 118 116 117 117 116 118
114 119 120 120 119 114 106  98  91  86  83  82  81  79  77  74  70  56  32  28  28  29  28  29
 28  27  25  25  26  25  25  27  23  23  28  29  25  26  27  25  25  26  27  25
