P2
# 8-bit pgm - grayscale
92 112
255
175 176 175 174 173 173 173 171 171 171 172 172 171 170 170 169 168 167 167 165 165 164 163 162
162 161 159 159 159 158 156 155 155 155 153 152 152 152 152 152 151 151 150 149 149 149 148 148
147 148 147 148 148 148 149 151 152 153 153 153 155 155 154 155 155 155 155 153 152 152 150 151
151 149 148 149 149 148 147 148 148 149 148 148 147 147 147 147 147 145 146 145
176 177 176 175 174 174 173 174 173 172 172 172 171 170 170 170 168 167 166 165 163 164 162 162
161 160 159 158 157 156 155 155 154 153 151 150 150 151 151 151 150 150 149 149 149 148 147 147
147 147 146 146 147 148 149 150 151 153 153 153 155 155 155 156 155 154 155 153 153 152 152 151
151 150 150 149 149 149 149 149 149 149 149 149 148 148 147 147 148 148 147 147
177 177 176 176 176 175 174 174 173 173 174 172 171 171 171 170 168 167 167 165 164 163 161 160
160 159 157 155 155 153 152 153 151 151 150 150 149 148 148 149 149 148 147 146 146 145 144 145
146 145 145 145 146 147 148 149 150 151 153 154 153 154 155 156 156 156 155 154 154 152 152 151
150 151 150 150 150 149 149 149 149 150 150 149 149 149 148 148 149 148 148 146
179 178 178 177 176 175 176 175 174 175 174 172 172 172 170 170 169 168 167 165 163 161 160 158
158 157 154 154 153 152 151 150 150 149 148 147 146 146 146 146 145 145 143 144 143 143 142 143
139 142 143 142 143 144 146 147 147 149 151 153 153 154 154 155 156 156 155 155 154 153 153 153
151 152 150 150 150 149 149 150 151 151 151 151 149 149 149 149 149 149 148 146
178 178 180 178 177 177 176 176 175 175 174 173 173 171 170 170 168 167 166 164 162 160 159 158
158 155 154 152 150 150 149 149 147 146 144 144 142 140 143 143 142 140 135 137 138 120 135 132
129 136 141 141 141 141 142 144 145 147 149 150 151 153 153 156 156 156 156 155 155 154 154 153
153 152 151 151 149 150 150 152 151 151 151 151 150 150 150 149 150 149 148 148
179 180 179 178 178 177 177 177 176 175 175 173 172 171 170 169 167 166 165 163 160 160 159 157
156 154 149 149 147 147 135 131 149 145 144 143 137 127 125 141 144 143 133 128 115  67 104  86
107 122 135 140 138 136 141 138 143 147 148 149 151 152 155 156 156 156 156 155 155 156 155 154
153 152 153 152 150 150 150 152 152 150 151 150 150 150 150 150 150 150 150 149
181 181 180 180 179 178 179 178 178 176 175 174 172 172 170 168 166 165 162 161 160 159 157 155
153 153 146 135 140 137  92  56 108  91  84  76  64  56  54  91 104  98  88  92  90  59  45  45
 69 100 105 121 113 127 127 136 140 143 145 147 149 151 152 155 156 156 157 156 156 155 154 155
153 152 153 153 151 151 151 152 152 151 152 152 151 150 150 150 150 150 150 149
182 181 180 180 180 179 179 178 177 177 175 173 172 172 170 167 165 163 160 160 158 156 154 150
151 144 140 131 128 108  61  26   0   0   0   0   0   2   3   0   0   0   0   0   0  24  36  42
 16  63  71  84  51 105  96 106 136 139 144 146 147 149 152 154 156 156 157 156 157 155 155 156
153 152 153 153 152 153 152 153 153 152 153 152 151 152 153 152 152 152 151 149
182 183 182 182 180 180 179 178 177 177 176 173 172 171 169 166 163 161 159 157 155 153 152 143
113  89  87  99  86  52  31  40  33  25  25  23  21  23  24  24  25  25  23  29  26  11  16  33
 26  19  30  66  72  46  83  47  88 137 143 146 146 148 152 153 154 155 156 156 156 155 154 154
153 151 151 152 151 151 151 152 152 152 152 152 152 151 152 152 152 152 151 150
183 183 182 182 183 181 180 179 178 178 176 174 171 170 168 165 163 160 158 156 152 151 144 112
 72  81  76  39   0  14  22  22  19  17  17  17  13  14  15  13  15  14  13   9  15  15  13  17
 19  19  22  23  76  27  77  75  30 129 141 143 144 146 149 151 153 154 155 155 155 154 154 153
153 152 151 151 151 150 150 151 152 152 151 152 151 151 151 151 151 151 151 151
183 183 183 183 182 182 180 180 179 177 176 175 173 170 166 164 161 158 152 153 138 102 108  80
 24  41  40  52  78  35  21  17  18  16  16  18  13  13  13  13  15  15  12  12  13  14  13  17
 15  17  30  17  32  32  52  62   0 114 135 138 142 144 147 149 152 154 154 155 155 154 153 154
153 151 151 151 150 151 151 152 151 151 152 152 151 151 151 150 151 151 151 149
183 183 184 182 182 182 180 180 179 177 177 174 172 169 165 161 159 158 152 145 107  32   0  26
 23  22  17  37  51  17  17  17  17  18  15  17  15  13  13  13  14  15  14  10  11  13  13  15
 16  16  21  22  21  28  13  36   0 100 130 135 141 143 144 146 151 152 153 155 154 155 154 155
153 152 151 151 150 151 152 152 152 152 152 152 152 152 151 151 151 151 152 150
183 183 183 184 182 182 181 180 178 178 177 174 170 164 162 163 160 134  98  63  24  28  28  23
 17  19  20  12   0  14  14  16  17  18  18  13  17  14  13  15  15  15  17  12  11  12  12  14
 14  20  21  19  18  20  19  34   0  96 123 130 139 138 142 145 149 151 153 154 154 154 154 153
153 152 151 151 151 152 152 152 153 152 152 152 152 152 152 152 152 152 152 150
184 184 184 184 183 182 181 181 180 178 177 173 171 168 160 141 109  35   0   2  21  22  25  20
 19  17  16  19  20  17  13  15  16  14  16  17  16  14  11  13  15  12  18  14  13  13  11  13
 16  23  16  19  19  18  17  28  17  66 104 128 135 138 141 144 147 149 151 153 153 154 153 153
153 152 152 151 151 152 152 152 153 153 152 152 152 151 151 152 152 152 152 150
185 185 184 184 183 182 182 182 180 179 176 174 164 120  77  16   0  22  30  25  19  19  23  21
 17  18  20  17  15  16  16  13  12  15  12  16  15  12  11  11  13  11  15  13  16  15  11  12
 18  19  15  17  16  18  18  24  24   6  82 131 132 136 138 142 146 148 151 152 153 154 154 154
153 153 153 151 151 151 152 152 152 153 153 153 151 151 151 152 153 152 152 151
185 185 185 185 183 183 183 182 180 179 178 172 120  73  32  45  52  34  32  26  23  20  18  17
 16  16  20  20  19  18  18  15  10  12  12  10  13  12  12  11  11  11  10  12  14  13   9  11
 13  12  11  13  13  18  18  25  25   0  68 129 127 131 135 139 142 146 148 151 152 154 154 153
152 152 152 151 151 151 152 153 152 152 152 152 151 152 152 152 152 153 153 152
185 185 184 185 184 183 182 181 180 176 170 158 130  86 104  97  83  69  39  33  30  21  22  20
 17  16  15  14  15  16  15  13  12  11  11  10  11  11  12  11  10   9  10  10  10  11   8   8
 10   9   9  11  13  14  19  21  20  20  27 114 127 127 132 136 139 144 147 150 151 152 153 153
152 152 151 151 152 151 152 152 152 152 152 152 152 152 152 153 153 153 153 153
185 185 185 184 184 183 182 181 180 178 170 167 145  95  78  78  56  48  33  28  22  17  17  17
 19  19  17  15  14  14  13  13  11  11  13  14  13  13  14  17  18  22  22  19  15  12   8   8
  8   9  10  10  10  11  16  15  15  25   0  71 118 123 126 132 136 141 144 147 150 152 151 152
152 152 151 150 151 151 151 151 152 152 152 151 152 153 152 153 154 155 154 153
186 185 185 184 184 184 183 182 180 181 177 146  88  56  46  41  43  29  40  36  14  18  18  18
 18  17  17  18  16  15  14  12  10  16  15  18  26  27  30  38  41  42  46  40  36  34  29  21
 15  11   8  10  10  11  13  11  13  19  24   3  82 121 123 127 132 137 141 144 148 150 151 151
151 151 151 150 150 151 151 151 151 152 153 152 152 153 153 153 153 154 154 154
187 186 186 185 185 184 183 182 181 178 149  96  56  41  46  42  31  22  17  16  18  16  14  14
 14  15  15  14  12  12  15  24  32  38  45  48  52  53  58  60  58  53  52  50  48  45  42  38
 35  28  21  12  10  11  11  12  11  14  19  15  31  93 116 125 127 134 139 142 146 149 151 151
152 150 150 150 150 150 151 151 151 153 153 152 153 153 152 153 153 154 154 154
187 187 186 185 186 185 184 183 179 166 122  91 102 102  81  60  39  16  18  19  18  16  14  13
 13  12  12  11  17  30  41  50  58  62  66  70  70  69  68  65  60  56  58  55  54  51  48  47
 45  42  35  26  18  13  11  11  12  15  16  17  16  27  58 100 123 129 135 141 143 147 149 150
150 150 150 150 151 150 151 151 152 152 152 152 153 153 152 153 154 154 155 155
188 187 187 187 186 185 184 183 183 174 157 163 160 141  78  51  40  22  23  20  19  19  16  14
 13  12  13  26  43  56  63  66  68  69  71  72  73  72  70  69  68  67  65  63  62  60  56  54
 52  52  48  42  34  23  16  10  11  13  12  14  21  18   5  69 115 124 133 138 141 144 147 149
149 149 150 150 150 151 151 151 152 152 152 152 152 153 153 154 154 155 156 155
188 188 187 187 187 186 184 184 182 178 174 165 134  70  51  49  25  22  20  19  21  19  17  16
 15  18  35  54  66  69  70  74  75  75  75  77  77  77  75  73  73  74  74  72  70  67  64  63
 61  60  57  52  47  38  30  19  11  11  12  12  20  24  22  49  86 121 129 133 139 142 146 148
150 150 150 150 150 149 150 151 152 151 152 152 152 152 153 155 155 155 155 155
189 188 188 187 187 186 185 185 182 181 179 154  80  45  44   2  17  23  20  22  19  19  19  16
 20  43  62  70  75  79  82  82  82  82  81  81  82  83  81  80  77  77  79  76  72  71  70  70
 70  67  63  60  55  49  44  35  23  16  12  11  14  21  21  24  83 110 123 131 137 142 145 147
149 150 149 149 150 149 151 151 151 152 152 153 152 152 154 155 155 155 155 155
189 189 189 188 188 187 186 185 183 183 176 137  70  28  24  44  40  19  23  22  20  20  19  22
 42  65  74  79  80  86  87  87  90  88  88  86  87  87  85  82  81  79  79  78  75  74  73  74
 74  73  71  66  61  57  53  47  39  27  16  13  14  18  22  11  38  93 117 128 136 141 144 147
150 149 149 149 150 150 151 150 151 152 152 152 153 153 154 155 155 156 156 155
190 191 190 190 189 187 186 186 184 184 177 128  21  33  39  65  37  21  27  24  20  19  20  40
 64  77  83  88  89  92  92  95  95  95  95  91  89  90  88  84  84  84  84  83  81  78  77  77
 76  74  73  71  65  62  58  55  47  38  27  16  16  11  17  24   0  84 117 126 134 139 143 146
149 150 150 150 150 150 150 150 152 152 152 153 153 153 154 154 155 156 156 155
191 191 191 191 189 188 187 186 184 184 161  62  21  23  53  33  19  28  24  21  19  20  35  60
 75  83  88  91  93  98  98  98  95  94  94  93  92  93  92  91  87  85  86  85  84  82  79  78
 78  76  74  72  70  66  60  57  53  45  37  23  14  14  15  20  11  81 112 124 131 137 143 146
148 150 150 150 150 150 152 152 152 153 153 153 153 154 155 155 155 155 155 156
191 192 192 191 190 189 188 187 186 184 132  31  33  78  53  31  26  21  22  21  21  28  54  74
 82  85  90  94  97  97  96  97  95  95  96  94  93  94  95  92  91  88  87  86  83  81  79  74
 73  76  77  71  70  69  64  59  57  51  45  35  18  15  16  17  13  53 103 117 129 136 143 146
149 150 151 151 151 150 152 153 152 153 153 154 154 154 155 155 155 155 156 156
193 193 194 193 192 191 189 187 187 185 160 116 109 112  43  36  23  22  22  24  23  39  66  79
 84  88  90  93  95  95  96  98  97  97  96  95  94  94  98  94  91  89  86  85  83  80  78  75
 70  66  69  70  66  67  65  61  60  56  52  46  28  14  15  16  13  34  90 118 127 134 141 146
149 150 151 151 151 151 152 152 152 153 154 155 155 155 156 155 156 157 156 156
194 193 194 193 192 191 189 189 188 186 182 178 163 103  53  50  18  24  23  25  25  56  76  79
 84  91  90  90  92  93  93  92  97  98  94  92  92  94  97  95  93  93  90  86  84  83  79  74
 72  69  67  65  65  64  63  62  61  59  58  51  35  20  15  14  19   8  82 120 127 134 140 144
150 152 151 150 152 152 153 153 153 154 155 155 155 155 155 155 157 157 157 155
194 194 194 194 193 192 191 190 189 188 187 187 178 113  83  33  26  24  25  26  37  72  82  82
 85  89  89  91  93  93  92  92  94  94  91  91  91  95  97  96  94  94  91  87  86  84  80  75
 70  66  67  65  63  62  62  62  61  64  62  56  42  25  21  16  19   7  45 102 126 133 139 145
149 153 153 152 153 153 154 154 155 156 156 155 156 156 156 156 157 157 157 156
196 195 195 194 194 193 191 190 189 189 188 187 184 151 106  25  31  24  28  29  51  83  90  87
 86  87  88  89  91  89  86  91  92  92  92  90  88  89  93  94  95  93  92  88  90  89  82  79
 73  67  62  63  63  63  64  65  65  66  65  61  46  31  24  19  19  16  28  92 124 133 139 145
149 153 154 155 154 153 153 154 156 156 156 155 156 156 156 156 157 157 157 157
196 196 196 195 195 194 192 191 190 189 188 188 187 181 120   0  36  27  30  31  59  84  92  90
 87  85  86  85  83  84  86  88  87  88  88  87  86  87  91  94  95  93  91  89  78  80  83  80
 75  72  65  63  64  63  64  66  68  67  66  65  51  33  25  22  21  19  20  85 119 130 138 144
150 153 154 153 153 153 154 155 156 157 156 156 156 156 156 157 158 157 157 156
197 197 197 196 194 194 194 193 190 190 190 188 188 174  93  46  32  34  31  34  60  85  92  93
 91  87  85  83  85  88  91  89  87  89  88  88  90  93  94  96  95  93  92  91  86  84  84  82
 78  77  77  71  68  66  63  64  68  68  67  67  58  38  27  23  21  23   8  58 114 130 138 145
150 153 154 154 155 155 155 156 156 157 157 157 156 157 157 157 157 159 157 156
198 198 198 196 195 194 193 193 193 192 191 189 190 173 144  88   6  38  31  40  62  88  97  98
 92  87  84  90  92  94  96  95  92  93  96  96  98  98 101 101 100  99  96  95  95  94  89  89
 88  84  83  79  77  71  69  67  68  71  70  69  64  51  28  20  20  20  22  23  93 130 138 145
151 153 154 155 155 156 156 156 156 157 157 157 157 157 157 158 158 158 158 157
198 198 197 197 196 195 194 193 194 194 193 191 191 186 175  87   7  38  33  40  62  89 100 100
 96  94  95  97  99 103 108 105 101 104 108 106 105 107 110 108 106 109 109 109 108 107  97  96
102  96  84  82  86  81  75  72  68  70  73  71  70  64  43  20  20  22  26   9  63 120 138 145
152 154 156 156 155 156 156 156 156 156 157 157 157 158 158 157 158 159 158 158
199 199 198 197 197 197 195 195 195 195 194 193 193 191 185 120  11  39  31  36  64  93 101 101
100 100  99 105 113 115 116 111 110 114 120 121 118 119 117 117 113 114 121 117 119 119 118 104
106 100  82  73  82  84  79  80  75  70  71  70  70  73  54  23  20  24  27   3  60 122 138 146
152 154 156 156 156 157 157 157 157 157 157 158 158 159 159 159 158 159 159 158
200 200 200 198 198 198 197 196 195 195 195 194 193 192 189 159  31  35  31  34  65  98 108 103
100  99 106 113 111 108 105 117 129 129 133 134 131 132 131 127 124 119 130 131 127 130 132 110
 77  65  39  34  42  58  63  68  77  75  71  69  69  72  62  26  19  21  24  14  45 111 138 148
154 155 157 157 157 157 158 158 158 158 157 158 160 159 159 159 159 159 159 158
200 200 200 200 199 199 198 197 195 195 196 195 194 192 191 150   0  39  31  30  72 103 107 103
103 107 106  98  86  88  93 103 118 138 144 149 145 142 137 134 134 125 128 142 138 137 134  86
 41  23  23  18  12  15  24  31  53  60  61  68  68  69  67  30  17  20  22  18  41 108 140 148
154 156 157 157 158 158 158 158 158 158 158 159 159 159 158 158 159 159 158 158
202 201 201 201 201 199 198 197 196 197 196 196 196 193 192 127   0  43  32  33  86 104  99 104
105  95  77  55  43  50  46  37  64 115 142 149 152 143 139 138 137 128 117 132 136 124 101  52
 36  33  28  31  32  32  25  19  17  18  23  41  62  69  69  35  13  21  22  21  22  95 140 150
155 158 158 158 158 158 159 158 158 158 159 159 159 158 158 159 159 158 159 158
201 202 202 201 201 200 199 198 197 197 197 197 196 196 188 110   2  40  31  36  93 101 100 100
 73  42  30  19  24  25  27  31  35  50  99 144 156 150 142 144 146 134 124 128 131  99  52  35
 22  19  20  22  23  23  25  27  22  24  28  25  39  64  70  41   8  22  24  16  46  93 138 152
155 160 159 159 158 158 159 159 159 159 159 159 159 160 160 159 159 159 159 159
202 203 202 201 201 201 200 199 199 198 198 197 196 197 183 103   0  41  30  36  93  98  84  39
 14  20  24  28  30  27  26  19  21  22  29 115 151 153 145 145 142 135 126 122 118  76  67  75
 79  77  72  70  63  59  58  54  54  62  55  43  38  60  72  48  11  25  27  14  39 114 145 154
158 160 159 159 158 158 159 159 159 159 159 160 160 160 159 159 160 160 160 160
203 203 203 202 202 202 201 200 199 198 198 198 196 197 183  95   7  42  29  34  96  93  42  30
 48  48  35  40  55  55  60  62  69  75  68  87 136 144 144 144 140 136 124 112 103  88  95 103
112 111 108 109 105  98  96  90  84  80  69  65  55  64  75  56  14  26  22  23   3 101 146 154
160 160 160 160 159 159 159 159 159 160 160 160 160 160 160 159 160 161 162 160
203 204 204 203 203 203 202 200 200 199 198 198 198 197 193 125  20  43  29  29  99  79  37  56
 71  80  92  98 103 111 111 109 110 116 120 113 117 129 137 144 143 133 117 105  90  90  98 101
102 100 106 111 113 109 104  99  96  90  87  84  77  74  75  67  19  25  23  18  41 115 149 154
161 161 160 161 159 159 159 160 160 160 161 161 160 161 161 160 161 162 162 160
204 204 204 204 203 203 203 202 202 201 200 200 199 198 197 149  35  41  31  32  98  71  61  88
100 110 119 124 123 121 115 108 101 104 119 123 116 116 126 132 132 120 105  94  80  82  91  87
 82  79  82  89  94 108 105  99  95  94  88  90  97  92  83  77  36  22  25  15  60 127 149 157
162 162 161 161 160 161 160 161 160 160 161 162 160 160 161 161 161 162 161 161
204 205 205 204 204 203 204 203 203 202 202 201 200 199 199 149  37  42  29  43  96  91 104 112
118 122 120 120 118 110  93  86  83  86  96 116 118 108 115 119 116 107  96  88  74  72  79  81
 72  89  76   0  82  72  55  79  88  87  89  90 102  99  86  82  51  17  28   7  84 137 150 157
161 161 161 161 161 161 161 161 161 161 161 162 162 161 162 161 162 162 162 161
205 205 205 205 205 204 204 203 203 203 203 202 201 201 201 167  87  25  34  53 105 116 121 119
115 109 113 103  76  68  72   0  86 101  90  85 107  99 106 111 106 103  99  89  73  62  71  64
108 123 117   9  57  41   0  37  51  70  78  91  99 101  90  85  63  19  29   3 101 143 151 158
161 162 163 162 162 163 163 162 162 162 161 162 162 162 162 162 162 162 163 162
206 206 206 206 205 204 204 203 204 203 203 203 202 202 202 199 126   0  37  64 112 122 127 116
104 104  81  45   8  31  50  36 105 100  70  67  95  94 105 112 109 104 101  92  76  62  63  53
 73  75  91  70  42  34  77  88  33  26  62  83  97  99  91  87  72  26  27  18 108 144 152 159
163 164 163 162 163 163 163 164 163 163 163 162 163 163 163 162 161 162 162 161
207 207 207 206 206 205 205 205 204 203 202 202 202 202 202 206 168  46  29  74 119 125 128 113
 95  48   0  86  85  45  56  75  91  87  80  89  95  94 106 115 110 105 106  99  82  63  63  70
 61  69  79  83  81  80  79  73  77  65  68  81  91  96  93  89  79  36  26   0  99 146 152 161
165 165 165 164 163 163 164 164 164 164 164 164 163 163 162 162 162 163 164 163
208 208 208 207 206 206 206 205 204 204 204 204 203 204 203 203 196 103   0  90 124 126 125 110
 78  56  73  83  88  89 101 100 108  94  92 100  94  92 109 113 109 110 107  97  86  74  64  69
 73  68  76  88  97  98 103  97  95  91  87  87  88  94  93  89  84  44  37  39  94 145 154 162
165 166 165 165 164 164 165 165 164 165 164 164 163 163 163 163 164 163 164 163
208 208 208 207 207 206 206 206 205 205 206 206 205 205 205 205 203 124   0  97 125 125 119 108
106 108 114 118 128 126 124 114 102  96  98  97  98 100 111 110 115 114 109  96  86  84  72  69
 73  82  84  91 101 104 106 101  98  97  94  94  93  92  95  91  87  50  55  79 105 147 157 163
166 166 165 165 164 164 165 166 166 165 164 164 164 164 165 164 164 164 164 164
209 209 209 209 208 207 207 207 206 206 206 206 206 206 206 205 208 139   0 106 126 125 118 117
121 126 128 132 136 137 127 115 111 111 106 106 105 109 108 110 114 108 107  97  83  84  81  78
 79  90 101 103 108 110 108 106 102  99  99  95  98  94  95  91  88  55  58  75 108 150 158 166
167 166 166 166 165 165 165 166 166 165 165 165 165 166 166 165 163 164 165 164
209 210 209 210 209 207 208 207 207 207 207 207 207 207 207 206 210 166  47 111 128 123 121 124
125 128 132 135 137 135 131 129 128 122 117 114 109 110 106 113 110 108 104  93  87  83  86  81
 88  93 104 117 121 119 117 114 108 105 102  99 102 100  96  92  91  56  61  78 109 153 161 166
167 167 167 167 166 166 166 166 166 166 166 166 166 167 165 164 164 164 165 165
210 210 210 210 209 208 208 208 207 207 207 206 207 207 208 207 210 175  79 113 128 125 125 125
126 130 132 136 139 144 145 142 134 126 124 116 112 110 109 114 116 116 108  89  81  82  84  85
 91  97  99 111 125 128 130 125 117 111 108 106 104 104  99  92  91  58  59  73 125 157 163 167
169 169 169 167 166 166 166 166 166 167 166 166 166 166 164 164 164 165 164 165
211 211 210 210 209 209 209 208 207 207 207 207 207 208 208 207 211 178  87 116 127 124 123 128
131 135 138 145 151 152 149 144 133 134 130 119 115 112 111 115 116 117 112  91  75  74  83  89
 90  99 105 106 113 125 130 128 124 118 114 112 109 106 100  95  90  80  77  91 144 158 165 169
170 170 169 168 168 167 168 167 166 167 166 166 166 166 165 164 164 165 165 164
211 211 210 210 209 209 208 207 207 207 207 207 207 207 209 208 211 196 105 114 129 125 129 134
135 138 144 152 153 151 145 137 137 138 132 123 117 112 110 111 118 121 111 101  86  71  75  90
 93  99 107 114 114 115 119 121 124 123 119 116 113 108 102  97  90  91  84 102 150 161 167 171
171 170 170 170 168 169 168 168 167 167 167 167 166 166 165 165 165 165 165 164
210 211 210 209 209 209 208 207 208 208 208 208 208 208 209 209 209 211 161 114 130 130 134 140
137 139 144 150 150 144 138 138 142 141 133 125 117 115 110 110 124 128 122 114 104  87  69  83
 98 103 110 114 120 118 116 117 123 121 122 118 117 113 104  97  90  87  86 109 154 163 169 172
171 170 170 170 169 169 169 169 169 169 167 167 167 166 166 165 165 166 166 165
211 210 210 210 210 210 210 209 208 209 209 209 209 208 209 210 209 212 188 121 130 134 139 142
142 143 148 149 144 136 136 141 144 141 135 127 110 108 110 118 129 132 138 125 113 102  84  66
 96 110 111 116 118 120 121 120 120 120 122 119 115 114 105  98  92  75  81 115 159 166 170 172
172 171 171 170 170 169 170 169 169 169 168 168 168 167 167 166 166 167 166 165
210 210 210 210 210 210 210 209 209 210 210 209 209 209 209 210 209 213 191 126 130 135 138 138
140 143 145 140 138 138 141 144 147 144 143 127  98 101 119 130 140 151 151 140 123 108  95  71
 75 114 121 119 120 121 121 123 122 122 120 116 112 113 106  99  91  64  78 120 164 168 172 173
172 172 171 171 170 170 170 170 170 170 169 168 168 167 167 167 166 167 168 167
210 210 211 210 209 210 210 210 210 210 210 209 210 209 210 210 209 213 194 126 128 134 138 138
142 143 140 139 139 138 141 144 147 148 151 120  95 114 132 142 153 165 171 167 146 120 104  93
 67 106 132 123 122 126 124 122 123 123 121 120 114 111 107  99  89  81  81 128 167 169 173 173
171 172 171 171 171 170 171 170 171 170 170 169 169 168 167 166 167 168 168 167
211 210 211 210 210 210 210 210 210 210 210 210 210 210 210 210 210 211 201 129 125 133 140 139
140 140 140 142 142 137 142 143 149 155 157 115 118 135 143 160 171 182 186 190 172 132 116 114
 91  99 139 134 128 128 125 125 124 123 122 116 113 110 106  97  88  93  86 145 169 171 175 174
173 173 172 172 171 172 171 171 171 170 170 170 170 169 168 168 168 169 167 166
209 210 211 210 210 210 210 210 210 209 209 210 210 210 210 211 211 211 208 144 126 134 139 141
140 142 142 144 143 140 145 148 153 162 161 129 145 151 151 168 188 199 186 181 168 136 120 127
118 102 144 145 136 131 130 127 124 122 123 117 112 110 105  96  87  90 110 162 170 174 175 175
173 173 172 172 172 172 171 171 171 170 170 169 169 169 168 168 169 169 168 166
209 211 211 210 210 210 210 210 210 210 210 211 210 210 211 211 210 209 212 163 126 134 138 142
142 143 143 142 144 147 150 155 163 169 164 143 150 137 137 164 185 186 176 170 157 110  91 129
121 112 148 152 144 138 135 132 127 124 122 117 115 110 104  96  85  82 139 168 171 175 176 175
174 174 173 173 172 172 171 171 171 171 170 169 170 169 168 168 169 169 169 167
211 211 211 211 210 210 210 210 210 210 211 211 211 210 210 210 211 210 213 192 128 132 139 141
147 144 144 145 149 151 157 160 165 170 165 143 143 126 100 145 169 169 165 167 141  71 108 133
112 121 147 154 150 146 141 134 129 126 121 118 115 110 102  93  84 131 163 167 172 174 176 176
174 174 174 173 172 171 171 171 171 171 170 170 170 169 169 169 169 169 169 168
210 211 210 210 211 211 210 211 209 210 211 210 211 210 210 210 210 210 210 211 154 124 141 143
148 149 149 152 154 154 161 163 164 166 163 147 133 142 136 133 152 155 151 140 121 113 126 123
106 125 142 151 155 149 143 137 130 126 121 116 113 109 102  86 104 159 163 168 173 176 176 175
175 174 173 172 172 171 171 172 171 171 170 169 169 169 169 170 169 170 169 168
210 211 210 210 210 211 211 210 210 210 211 210 210 211 211 209 210 210 209 214 192 123 139 143
150 150 150 154 157 160 164 165 165 164 158 150 137 127 137 149 146 143 139 128 131 132 110 104
110 125 139 147 155 149 142 138 130 126 122 115 111 107  99  78 111 161 164 171 175 176 177 175
174 174 173 172 171 171 171 172 171 171 170 169 169 169 170 170 169 170 169 167
211 210 210 210 211 210 210 211 210 211 211 210 211 212 211 210 211 211 211 212 202 127 133 143
149 151 152 155 159 162 164 167 167 160 151 144 137 118 123 141 153 161 158 149 136 124 107 108
112 119 130 139 149 150 144 139 132 127 122 114 111 104  95  74 118 163 166 172 174 177 176 175
174 173 173 172 172 171 171 172 172 171 169 169 169 169 169 169 169 169 169 168
210 210 210 210 210 210 210 210 210 211 211 211 211 211 211 212 211 211 212 212 208 131 124 143
148 150 154 157 160 161 165 167 161 152 147 140 125 108 125 134 142 165 156 148 149 126 107 106
109 111 121 128 143 148 145 138 132 127 120 114 110 100  94  72 128 166 168 172 175 176 176 174
174 173 172 172 171 171 171 171 171 169 169 169 168 168 169 169 169 169 169 168
210 210 210 210 210 210 209 210 210 210 211 211 211 211 211 212 211 212 212 211 213 149 122 140
145 149 153 157 161 164 166 161 154 150 143 130 111 113 126 135 146 158 154 141 147 130 112 108
 95 102 112 123 134 142 141 137 130 125 120 112 108  97  89  74 140 168 170 174 176 176 175 174
174 172 171 172 172 171 171 171 170 169 169 169 169 169 169 168 169 169 169 168
211 210 210 209 210 209 210 211 210 210 210 211 210 210 210 211 210 211 211 210 216 170 113 137
147 150 154 156 161 162 162 156 154 148 135 118 105 121 138 152 160 143 135 144 145 132 118 106
 94  89  96 112 127 139 138 138 130 125 119 109 103  94  88  81 150 167 171 174 175 176 176 174
173 172 172 171 171 170 171 171 170 169 168 168 169 168 169 168 169 169 169 168
210 210 209 210 211 210 211 211 211 210 210 210 210 209 210 210 210 210 210 210 215 183 105 131
144 151 154 157 161 161 161 156 151 138 121 118 116 134 144 156 151 129 123 143 154 140 124 113
103  95  94 101 121 138 137 137 130 124 116 108 102  93  84  97 158 167 172 174 175 176 176 174
173 172 171 170 170 170 171 170 170 169 168 168 167 168 169 169 168 169 168 167
209 210 210 211 211 210 210 211 210 210 210 210 209 210 210 210 210 209 210 210 212 201 122 119
140 147 152 156 160 163 159 154 144 122 122 129 139 148 150 150 155 155 157 156 152 140 138 129
116 109 106 106 108 121 134 136 131 123 115 107 100  95  78 112 164 167 172 174 176 176 175 174
172 172 170 170 170 170 170 170 169 169 168 168 168 167 168 169 168 168 168 167
210 210 210 210 210 209 210 210 210 210 210 209 209 209 209 209 209 209 209 209 209 211 147 115
139 142 147 154 156 160 154 147 130 132 143 145 154 146 140 133 132 142 146 127 118 119 121 124
127 122 116 120 108 111 133 136 131 124 113  99  91  93  79 131 165 168 173 175 175 175 173 172
171 170 169 169 169 169 169 169 169 169 168 167 167 167 168 169 168 168 169 167
209 209 210 209 209 209 209 209 208 208 209 208 208 208 208 208 207 207 207 207 206 211 181 111
132 141 144 152 156 160 158 137 136 152 152 154 142 129 118 119 125 116 115 127 138 131  93 111
121 128 125 130 123 121 133 135 128 123 109  97  95  90  85 147 164 168 173 174 174 173 172 172
170 169 169 168 168 168 168 168 168 168 168 167 167 167 167 167 167 168 167 166
209 209 209 209 208 208 208 208 208 208 207 207 207 207 206 207 206 206 206 206 205 207 201 124
121 134 138 150 157 158 155 142 146 163 159 144 121 105  79  97 121 117 100 123 126 109  92  89
110 124 130 138 140 127 133 135 128 119 108 100  96  80  99 154 162 169 172 173 173 172 171 170
170 170 169 168 168 168 168 168 168 167 167 167 166 166 166 167 167 167 167 166
208 208 209 208 207 207 206 205 206 206 206 205 205 205 205 204 204 204 204 204 204 203 205 155
112 129 135 146 155 159 155 147 160 165 152 133 102  62  76  82  80  79  77  72  79  84  88  76
 72 121 132 128 142 138 134 138 129 115 106  99  91  72 117 155 161 169 171 172 172 171 170 169
169 168 167 167 167 166 167 168 168 167 166 166 166 166 166 167 168 168 166 164
209 208 208 208 207 206 205 205 204 204 204 204 204 203 203 203 202 202 202 202 202 201 203 183
113 129 132 145 155 160 162 161 163 156 143 124  62  43  64  69  79  78  74  79  86  83  77  68
 33  89 134 127 142 150 134 137 129 117 105 100  91  79 126 152 160 168 171 171 170 170 169 168
168 167 166 166 166 164 165 166 166 165 165 165 166 165 166 166 166 166 165 163
208 207 207 206 206 205 204 204 202 202 202 202 201 201 201 201 199 198 196 195 193 192 190 182
124 122 133 143 153 158 157 162 160 153 140 100  47  26  49  57  64  66  68  70  71  72  63  43
 61 104 132 135 142 148 144 138 129 115 100  95  87  77 128 151 159 167 169 169 169 168 168 168
166 164 165 165 163 164 164 165 164 165 164 165 165 165 165 164 164 164 163 162
206 207 207 206 206 204 203 202 202 201 201 200 199 197 196 195 191 186 182 179 175 171 168 162
131 116 134 135 151 159 162 158 160 160 140 111  90  52  25  41  41  33  25  18  45  42  37  49
 89 110 128 128 139 150 152 139 127 114  99  94  82  80 126 149 158 165 168 167 168 166 164 164
164 163 163 163 162 162 163 164 164 164 164 164 164 163 162 163 163 163 163 161
207 206 206 204 204 202 202 201 199 199 198 197 197 193 189 182 176 168 163 157 151 145 140 135
119 109 129 131 146 157 165 167 164 154 140 124 102  87  51  49  64  89  99 111  71  59  44  75
 83 104 124 127 143 152 151 141 127 112  98  92  80  84 117 138 151 161 165 166 165 164 162 161
161 162 162 161 161 161 162 162 161 162 162 162 162 162 162 163 162 162 162 161
207 206 204 204 203 201 200 197 194 192 191 189 187 182 175 166 156 149 141 133 125 119 113 104
101 105 120 129 142 155 161 165 165 155 148 129 113  98  84  69  76 106 122 140  93  66  73  92
 91 102 120 130 144 151 146 137 127 111  99  90  81  87 108 124 135 144 151 154 157 160 160 159
159 161 159 160 159 159 159 160 160 159 160 160 160 161 161 161 162 161 160 160
204 204 204 203 202 199 195 191 188 182 178 174 171 166 157 146 136 128 118 104  93  80  73  77
 71 108 112 130 143 150 160 161 164 157 152 130 117 112  99  91  79  71  62  65  74  85  94 101
 99 108 124 131 146 143 136 132 121 108  95  80  84  89  99 108 116 123 131 136 141 146 148 150
153 154 155 157 157 155 156 158 158 158 159 159 159 159 159 159 159 160 160 159
203 202 202 201 199 195 190 182 175 168 163 159 154 146 138 127 110  92  74  57  44  43  63  64
 70 114 108 127 142 148 155 160 158 158 154 139 119 122 121 112  97  95  96  94  98 106 109 104
103 118 130 136 142 142 133 120 114 105  88  77  90  85  86  92 100 105 111 116 122 126 129 133
135 139 142 145 150 153 155 156 157 158 157 156 157 158 157 158 158 159 159 159
202 201 199 197 195 190 180 168 159 150 145 139 133 127 115  82  49  41  44  51  42  55  65  56
 79 113 122 118 136 147 151 155 154 154 154 152 134 119 129 134 143 138 125 137 141 122 109 106
116 128 130 138 137 135 126 117 106  95  79  81  93  83  68  66  70  83  94  98 104 107 111 115
119 123 126 130 136 142 147 152 155 155 155 156 156 157 156 155 156 157 157 157
199 198 195 191 186 178 165 154 144 137 129 121 116 102  59  26  51  52  54  53  40  55  61  55
 81 109 127 124 117 140 148 151 151 152 152 152 151 132 116 119 136 148 146 144 130 113 104 114
129 134 136 137 137 130 118 112 101  87  80  92  90  82  73  74  66  53  59  71  76  88  95 101
104 107 111 115 120 126 133 139 144 148 151 154 155 155 156 155 155 156 156 156
194 191 187 181 173 163 154 137 114  93  89  88  77  53  41  46  55  52  52  54  39  52  59  54
 78 109 124 134 112 127 145 149 149 149 152 155 152 150 138 122 111 112 114 106 109 113 124 132
135 136 138 138 134 126 114 107  95  79  90  96  89  79  79  83  82  78  56  37  48  51  60  75
 86  92  97 102 106 112 120 126 130 136 141 144 149 152 153 155 154 155 155 155
186 183 176 168 160 152 114  66  42  36  46  50  48  46  42  43  51  54  54  55  38  51  56  53
 75 104 120 132 125 109 137 142 145 148 151 155 155 155 155 147 131 119 112 119 132 142 144 144
138 138 142 136 130 127 118 106  84  77  99  96  88  78  80  87  88  84  84  61  43  47  34  36
 46  53  62  71  88 101 107 112 117 122 128 133 138 142 147 150 153 154 153 153
177 172 166 157 143 108  31  43  61  51  45  55  56  46  38  45  48  54  55  53  36  47  53  51
 66 101 118 129 137 109 123 143 146 146 150 152 155 154 152 154 148 142 139 138 142 150 149 147
143 140 140 137 128 125 115  96  73  94 101  95  87  78  80  88  90  90  89  83  49  41  42  38
 42  40  38  40  48  68  88 100 108 112 115 121 128 132 136 142 147 149 151 149
169 164 148 114  74  52  46  50  58  50  36  48  58  45  41  45  49  53  54  56  36  43  52  49
 59  98 118 128 137 129 102 133 143 142 148 150 151 149 148 147 148 147 146 146 147 151 147 145
147 143 140 139 128 117 102  69  81 102 100  94  86  76  78  86  88  91  92  90  65  36  41  35
 40  46  41  39  43  44  48  58  77  97 108 112 115 123 129 133 138 141 145 145
155 116  71  44  54  54  40  45  52  55  40  42  53  53  44  44  47  50  55  58  40  40  53  51
 57  93 115 125 134 145 119 111 137 142 147 149 146 146 148 148 148 146 148 144 143 144 146 139
137 143 140 135 122 110  84  63 102 104  97  93  85  76  77  85  88  90  92  92  73  36  39  36
 35  44  43  39  36  40  47  50  41  49  70  93 109 114 118 124 129 133 135 136
 81  47  46  47  55  51  35  41  50  58  41  37  43  54  53  44  41  45  55  57  42  36  50  53
 57  92 112 125 133 141 141 107 119 133 144 147 140 139 141 140 142 148 148 137 141 138 132 130
126 133 135 121 108  92  63  90 109 104  98  91  84  78  77  84  88  89  92  93  77  39  39  36
 31  42  44  40  37  34  38  46  53  47  37  35  68 102 113 114 119 123 127 129
 38  45  47  48  58  48  34  37  47  55  45  32  39  49  49  50  46  43  53  57  47  34  45  50
 54  90 109 121 130 138 147 130  93 116 130 143 135 130 135 128 137 140 142 140 136 132 116 121
125 122 119 100  93  68  77 108 109 107  98  89  83  79  78  86  90  89  92  93  78  44  37  36
 30  37  41  41  38  34  35  35  44  50  47  42  31  44  88 109 113 117 120 122
 41  46  49  49  58  46  33  33  41  53  49  33  35  44  48  50  48  44  51  56  51  34  40  48
 48  86 106 117 131 139 143 149 117  93 119 134 134 124 129 131 137 138 137 132 125 125 113 120
125 121 111  89  72  64 101 107 108 105  97  87  81  80  80  86  90  91  92  91  77  44  37  36
 31  37  41  40  40  35  35  35  36  41  47  44  43  35  28  59  80  96 110 117
 41  40  43  47  55  49  31  30  38  50  50  36  33  39  44  47  47  48  48  55  55  40  31  46
 45  78 105 112 127 137 142 145 142  95  97 116 122 118 128 137 134 141 129 131 133 123 125 124
123 116  92  82  58  89 109 108 109 103  93  86  82  81  83  87  91  92  94  92  76  43  36  34
 31  34  41  42  41  39  37  37  35  36  41  45  44  42  40  32  37  48  59  81
 45  42  40  42  51  50  33  30  34  42  50  39  31  35  39  44  45  44  46  53  53  49  31  41
 42  60 103 114 122 133 139 143 147 132  79  95 121 112 121 131 130 132 131 126 127 112 121 120
111 105  91  71  75 104 106 112 108 101  92  86  83  83  89  90  93  95  95  92  76  43  35  33
 29  33  40  41  40  40  37  35  32  35  37  40  45  44  43  39  38  41  46  44
 43  43  39  37  44  50  38  27  30  37  48  43  31  33  37  42  43  44  48  49  51  52  37  37
 46  42  88 115 120 130 137 141 143 147 118  88 107 110 120 123 120 125 118 120 110 104 114 102
 99  94  71  71 104 109 110 112 108  99  90  86  84  87  92  95  97  97  96  90  74  44  35  34
 31  33  40  41  37  36  38  36  34  33  33  36  40  43  43  41  39  37  38  45
 39  40  37  35  41  43  38  28  30  35  44  45  34  30  36  39  41  43  46  49  51  49  48  33
 43  41  60 108 120 126 135 140 144 144 146 115  86 101 112 123 110 105 106 110  99 103  94  85
 92  74  74 103 110 112 111 111 107  95  88  87  87  91  94  97 102  96  98  88  72  44  32  33
 31  32  38  40  37  38  35  35  35  34  33  32  36  37  41  44  42  40  39  38
 39  38  36  36  40  41  37  30  30  32  39  47  40  32  31  36  41  42  41  47  52  51  51  37
 33  44  38  82 120 122 130 136 142 145 147 148 126  92  84  95  95  98  96  98  96  91  79  74
 74  83 108 111 109 114 113 110 103  94  89  89  88  91  96  99 104 101  98  88  73  44  31  33
 31  31  36  40  39  37  34  34  36  36  32  32  34  36  40  41  41  41  42  41
 40  38  35  35  41  40  33  29  30  34  38  46  45  37  32  36  37  40  43  47  52  50  48  47
 32  40  42  41  99 122 122 130 136 144 146 144 141 136 116  95  87  79  71  72  72  74  74  89
106 113 111 110 110 114 113 109 100  91  90  90  90  93  98 101 102 102  97  88  74  40  33  33
 29  30  36  40  40  38  34  36  38  36  33  31  32  36  37  37  36  39  41  40
 38  38  33  34  39  37  32  30  30  34  36  43  45  37  33  35  36  43  45  48  52  49  50  51
 37  35  44  39  52 108 122 123 128 136 142 143 139 140 139 132 125 115 108 104 103 107 112 116
114 113 113 114 115 116 113 104  96  90  93  94  92  95  97 101 101  97  93  87  72  38  32  32
 29  32  37  42  42  37  36  39  36  36  35  33  33  32  35  35  34  37  39  39
 37  39  36  35  37  36  33  31  29  29  34  42  43  41  34  33  34  38  42  46  49  53  51  50
 46  35  43  45  41  63 116 123 125 131 136 138 138 137 137 132 131 127 126 122 121 120 119 114
115 118 118 115 119 119 110 100  91  90  94  96  95  95  97  99  97  94  89  82  67  34  32  33
 29  33  39  40  38  37  36  37  34  36  33  32  33  32  33  34  35  35  36  37
 37  38  38  39  37  37  33  31  29  29  32  38  45  44  35  32  35  38  43  45  49  50  50  51
 51  39  36  45  45  41  77 121 125 129 134 137 134 135 135 134 131 127 126 125 123 122 122 122
122 122 121 119 119 115 108  98  89  92  98  99  96  95  95  96  93  89  84  80  61  31  34  32
 29  32  39  39  36  36  38  37  34  35  35  33  33  32  31  32  32  35  35  34
 37  35  37  40  40  37  34  32  30  29  32  39  45  44  40  34  35  38  40  43  48  46  51  55
 50  40  31  42  47  49  43  88 125 128 131 137 135 134 133 133 132 131 129 127 127 126 126 126
125 125 123 121 118 113 106  96  92  95 101 100  94  93  92  90  86  84  80  78  55  28  32  32
 29  33  40  38  36  36  36  35  32  34  35  33  33  33  32  32  32  33  34  35
 34  33  35  36  37  34  30  31  32  32  33  34  43  45  39  35  35  38  42  41  43  47  50  48
 49  48  39  35  44  47  47  46 102 129 130 133 134 131 132 135 132 131 130 127 127 130 130 127
126 127 127 123 119 112 103  97  94  96  99  99  92  90  88  85  82  82  80  76  50  28  32  33
 31  33  37  38  37  38  36  35  32  32  35  33  31  33  33  32  35  34  34  34
 32  32  33  39  39  38  32  30  32  33  33  32  38  45  41  36  36  38  41  41  41  47  50  49
 49  51  46  34  40  48  47  49  58 113 132 133 133 131 132 133 131 132 128 127 127 130 128 126
125 127 127 125 117 112 105  99  93  97  98  96  90  85  84  83  82  83  83  76  45  30  32  29
 30  37  39  38  39  42  38  36  32  34  34  32  32  33  34  34  34  34  31  33
 33  32  35  37  37  35  30  31  33  33  34  35  39  46  44  36  35  38  42  42  42  45  50  49
 49  49  48  38  36  46  46  52  47  76 125 132 132 132 131 130 129 129 128 128 128 129 127 125
125 126 126 124 113 110 107  99  95  93  93  90  87  84  82  84  86  86  86  73  36  31  32  29
 30  36  38  39  37  38  38  36  34  34  31  31  31  33  33  32  32  33  34  32
 37  33  32  34  34  34  32  31  33  34  35  37  37  43  44  40  34  38  42  43  41  41  43  46
 47  50  48  43  38  41  47  47  51  47  96 127 130 129 129 129 128 129 128 128 128 129 127 125
126 128 127 124 119 112 106 100  97  93  91  90  89  88  88  87  90  92  88  64  33  32  33  31
 30  34  38  39  39  38  37  36  34  35  32  31  32  35  32  33  34  36  34  34
 41  35  32  36  36  36  33  32  32  33  33  37  38  41  45  42  35  35  39  44  44  42  44  45
 46  47  48  49  42  37  46  48  48  46  58 109 125 123 123 126 127 127 126 125 126 126 125 125
125 127 126 124 122 117 111 105  98  94  92  90  91  93  94  94  95  95  88  50  30  32  34  30
 32  35  37  39  38  36  35  34  35  35  34  34  34  33  31  33  34  36  35  36
 46  42  37  33  35  36  32  31  33  37  38  36  39  42  43  41  36  36  39  42  43  46  45  43
 48  49  47  49  47  43  41  47  48  49  40  77 115 122 119 122 124 123 122 123 122 122 124 124
121 125 124 121 122 119 112 104  97  95  93  95  95  98  99 102  98  94  78  35  32  32  33  31
 31  35  36  37  37  36  36  35  36  33  30  35  36  32  31  32  34  35  35  33
 46  43  41  35  34  36  35  31  33  37  37  38  38  38  43  43  36  38  43  44  43  43  43  46
 48  50  48  49  49  47  43  44  46  49  46  45  97 118 117 120 122 119 119 120 121 121 120 123
120 122 121 120 120 118 115 107 100  97  97 100 101 103 104 105 102  94  61  31  35  32  31  30
 34  36  36  36  39  38  37  35  33  32  32  33  34  32  34  35  35  35  35  35
 46  45  40  37  38  38  34  32  31  34  37  37  38  40  45  41  36  38  42  46  43  43  41  42
 42  46  48  50  46  45  48  43  44  48  49  44  65 105 113 116 116 115 115 115 119 120 117 119
121 120 118 119 118 118 121 116 107 100  99 103 105 106 106 103 100  87  44  32  32  33  30  31
 32  33  34  36  39  37  35  35  33  33  33  32  32  35  33  34  34  34  35  35
 47  47  44  39  37  36  32  34  35  35  37  36  39  42  41  40  40  39  42  43  41  45  44  43
 42  45  51  48  46  47  48  44  41  47  47  48  43  80 107 109 114 114 113 114 116 117 115 116
119 119 118 115 116 116 120 117 112 105 103 105 106 105 105  99  94  71  29  34  33  33  30  32
 32  33  33  37  37  35  34  34  35  34  31  30  31  32  32  32  34  36  32  30
